<svg width="2238" height="1678" viewBox="0 0 2238 1678" fill="none" xmlns="http://www.w3.org/2000/svg">
<path fill-rule="evenodd" clip-rule="evenodd" d="M1409.56 571.662C1412.48 563.112 1414.05 553.985 1414.05 544.508C1414.05 496.064 1372.84 456.793 1322 456.793C1271.15 456.793 1229.94 496.064 1229.94 544.508C1229.94 592.952 1271.15 632.223 1322 632.223C1322.58 632.223 1323.15 632.218 1323.73 632.208C1323.73 632.213 1323.73 632.218 1323.73 632.223C1323.73 667.717 1352.51 696.49 1388 696.49C1423.49 696.49 1452.27 667.717 1452.27 632.223C1452.27 604.292 1434.45 580.522 1409.56 571.662Z" fill="#744F3A"/>
<path fill-rule="evenodd" clip-rule="evenodd" d="M1229.96 521.859C1238.57 489.723 1271.6 470.651 1303.74 479.262C1335.87 487.873 1354.94 520.906 1346.33 553.042L1344.35 560.445C1351.68 556.475 1360.26 555.483 1368.29 558.416C1384.06 564.179 1391.7 582.911 1385.36 600.255C1379.94 615.075 1366.07 624.086 1352.31 622.8L1361.09 688.279C1362.82 701.192 1354.75 713.399 1342.19 716.86L1311.98 725.183C1295.39 729.754 1279.01 717.272 1279.01 700.065V664.867C1271.03 666.082 1262.67 665.704 1254.37 663.481C1222.24 654.87 1203.17 621.837 1211.78 589.701L1229.96 521.859Z" fill="#F9E0CE"/>
<path fill-rule="evenodd" clip-rule="evenodd" d="M1367.02 578.193C1367.13 579.014 1366.54 579.764 1365.72 579.867L1365.72 579.867L1365.7 579.869L1365.63 579.878C1365.57 579.887 1365.47 579.9 1365.35 579.918C1365.1 579.954 1364.74 580.009 1364.3 580.087C1363.4 580.241 1362.16 580.482 1360.79 580.824C1357.98 581.523 1354.85 582.595 1352.9 584.087C1352.43 584.445 1351.98 584.862 1351.56 585.33C1351.8 585.293 1352.05 585.256 1352.31 585.221C1354.77 584.884 1358 584.639 1360.58 585.191C1361.95 585.484 1363.56 586.094 1364.77 586.599C1365.39 586.856 1365.93 587.097 1366.32 587.273C1366.51 587.361 1366.66 587.433 1366.77 587.484C1366.82 587.51 1366.87 587.53 1366.9 587.544L1366.93 587.56L1366.94 587.566L1366.94 587.566C1366.94 587.566 1366.94 587.566 1366.29 588.915L1366.94 587.566C1367.69 587.928 1368 588.826 1367.64 589.571C1367.27 590.316 1366.38 590.627 1365.63 590.265M1365.63 590.265L1365.62 590.261L1365.6 590.248C1365.57 590.237 1365.54 590.219 1365.49 590.196C1365.39 590.15 1365.25 590.083 1365.07 590C1364.71 589.835 1364.2 589.61 1363.62 589.368C1362.44 588.876 1361.04 588.357 1359.95 588.124C1357.92 587.689 1355.13 587.864 1352.72 588.193C1351.54 588.354 1350.5 588.545 1349.75 588.696C1349.55 588.737 1349.38 588.774 1349.22 588.807C1347.59 591.994 1346.58 595.835 1345.99 599.011C1345.67 600.683 1345.48 602.143 1345.36 603.183C1345.3 603.703 1345.26 604.116 1345.24 604.397C1345.22 604.537 1345.22 604.645 1345.21 604.716L1345.21 604.794L1345.2 604.813L1345.2 604.816C1345.15 605.643 1344.44 606.271 1343.61 606.219C1342.79 606.166 1342.16 605.454 1342.21 604.627L1343.57 604.713C1342.21 604.627 1342.21 604.628 1342.21 604.627L1342.21 604.623L1342.21 604.616L1342.21 604.59C1342.21 604.567 1342.22 604.536 1342.22 604.494C1342.23 604.412 1342.23 604.293 1342.25 604.14C1342.27 603.835 1342.32 603.394 1342.38 602.846C1342.5 601.749 1342.71 600.215 1343.04 598.456C1343.7 594.966 1344.86 590.477 1346.91 586.77C1347.99 584.818 1349.35 583.016 1351.08 581.701C1353.55 579.813 1357.2 578.627 1360.06 577.913C1361.52 577.549 1362.84 577.294 1363.79 577.13C1364.26 577.048 1364.65 576.989 1364.92 576.949C1365.05 576.93 1365.16 576.915 1365.23 576.905L1365.32 576.894L1365.34 576.891L1365.35 576.89C1365.35 576.89 1365.35 576.89 1365.53 578.378L1365.35 576.89C1366.17 576.787 1366.92 577.37 1367.02 578.193" fill="#F1BFA9"/>
<path fill-rule="evenodd" clip-rule="evenodd" d="M1241.86 545.04C1243.49 545.365 1244.54 546.945 1244.22 548.57L1242.43 557.483C1242.11 559.108 1240.53 560.161 1238.9 559.836C1237.28 559.512 1236.22 557.931 1236.55 556.306L1238.33 547.393C1238.66 545.769 1240.24 544.715 1241.86 545.04Z" fill="#171625"/>
<path fill-rule="evenodd" clip-rule="evenodd" d="M1244.57 590.029C1245.33 590.358 1245.68 591.241 1245.35 592.001L1244.02 591.427C1245.35 592.001 1245.35 592.001 1245.35 592.002L1245.35 592.003L1245.35 592.005L1245.34 592.011L1245.33 592.031C1245.33 592.047 1245.32 592.069 1245.3 592.096C1245.28 592.152 1245.24 592.23 1245.2 592.328C1245.1 592.525 1244.97 592.803 1244.79 593.142C1244.43 593.819 1243.9 594.748 1243.21 595.761C1241.84 597.759 1239.73 600.224 1236.93 601.655C1234.2 603.046 1231.72 603.383 1229.91 603.361C1229.01 603.35 1228.27 603.251 1227.74 603.15C1227.48 603.099 1227.27 603.048 1227.12 603.008C1227.05 602.988 1226.99 602.97 1226.94 602.956C1226.92 602.949 1226.9 602.943 1226.88 602.938L1226.86 602.932L1226.86 602.929L1226.85 602.928L1226.85 602.928C1226.85 602.927 1226.85 602.927 1227.33 601.507L1226.85 602.927C1226.07 602.661 1225.65 601.809 1225.91 601.025C1226.18 600.243 1227.02 599.824 1227.81 600.083L1227.82 600.087C1227.83 600.091 1227.86 600.1 1227.9 600.111C1227.99 600.134 1228.13 600.168 1228.31 600.204C1228.68 600.276 1229.24 600.353 1229.95 600.361C1231.35 600.378 1233.33 600.121 1235.56 598.982C1237.72 597.883 1239.48 595.892 1240.73 594.065C1241.35 593.166 1241.82 592.341 1242.13 591.742C1242.29 591.444 1242.41 591.203 1242.49 591.041C1242.53 590.96 1242.55 590.898 1242.57 590.859L1242.59 590.816L1242.59 590.809L1242.59 590.809C1242.92 590.049 1243.81 589.7 1244.57 590.029Z" fill="#DB3915"/>
<path d="M1204.75 572.733L1226.9 536.692L1219.95 580.984L1204.75 572.733Z" fill="#F9E0CE"/>
<path d="M1303.76 656.541L1279.01 664.791V689.542L1303.76 656.541Z" fill="#171625"/>
<path d="M1269.89 524.967C1243.49 508.987 1240.76 497.241 1253.82 485.886C1263.81 477.201 1309.4 464.609 1338.5 479.373C1358.27 489.409 1367.16 499.782 1367.16 499.782C1367.16 499.782 1358.04 544.942 1352.83 552.324C1347.61 559.706 1327.22 570.686 1315.48 587.063C1315.48 559.706 1326.42 557.014 1326.77 549.719C1327.21 540.6 1302.89 544.942 1269.89 524.967Z" fill="#744F3A"/>
<path d="M1343.71 560.14L1307.67 458.096C1307.67 458.096 1313.2 457.096 1316.78 456.793C1322.02 456.35 1330.25 456.793 1330.25 456.793L1365.85 557.535C1365.85 557.535 1359.55 556.802 1355.43 557.101C1350.56 557.454 1343.71 560.14 1343.71 560.14Z" fill="#BCECFF"/>
<path d="M1332.69 425.34C1341.77 418.284 1369.95 408.156 1369.95 408.156C1369.95 408.156 1366.26 438.201 1361.54 448.467C1354.69 463.348 1320.89 473.658 1320.89 473.658C1320.89 473.658 1319.24 435.792 1332.69 425.34Z" fill="#BCECFF"/>
<path d="M1284.06 446.507C1280.38 435.615 1280.07 405.669 1280.07 405.669C1280.07 405.669 1307.23 419.021 1315.38 426.856C1327.18 438.214 1325.82 473.527 1325.82 473.527C1325.82 473.527 1289.51 462.64 1284.06 446.507Z" fill="#BCECFF"/>
<path d="M1016.78 468.895L1054.5 547L1055.96 549.702C1065.32 567.026 1055.74 588.52 1036.6 593.133L1019.17 597.332C1003.66 601.07 987.936 592.011 983.388 576.716L980.5 567L962.5 529.5L935.5 518.5L930.5 449.5L1001.08 457.728C1007.88 458.52 1013.8 462.733 1016.78 468.895Z" fill="#F9E0CE"/>
<path d="M1199.94 808.598L1054.09 546.544L979.431 566.289L1074.23 862.146C1089.02 896.858 1129.15 913.011 1163.86 898.224C1198.57 883.437 1214.72 843.31 1199.94 808.598Z" fill="#F9E0CE"/>
<path d="M920.052 427.792L932.985 411.007C933.911 409.805 934.413 408.317 934.413 406.8C934.413 403.037 931.362 399.945 927.598 399.945C923.835 399.945 920.784 402.996 920.784 406.76V409.526C920.784 410.965 920.363 412.373 919.572 413.575L913.358 423.02C912.313 424.609 912.493 426.707 913.793 428.094C915.527 429.944 918.505 429.8 920.052 427.792Z" fill="#F7CDE1"/>
<path d="M926.917 401.923L901.966 401.109C900.856 401.073 899.861 400.416 899.391 399.41L896.957 394.193C896.045 392.239 897.471 390 899.627 390H989.591C995.675 390 999.136 396.957 995.467 401.81L994.224 403.454C993.409 404.532 992.313 405.365 991.057 405.862L981.798 409.522C978.987 410.633 977.14 413.35 977.14 416.373V424.255C977.14 428.324 973.841 431.622 969.773 431.622H941.411C937.342 431.622 934.044 428.324 934.044 424.255V409.286C934.044 405.311 930.89 402.052 926.917 401.923Z" fill="#FBF7B8"/>
<path d="M974.393 445.251H939.017C935.488 445.251 932.455 447.753 931.784 451.218L924.444 489.141C924.217 490.313 923.709 491.412 922.964 492.344L900.666 520.216C899.621 521.522 899.052 523.145 899.052 524.818V610.267C899.052 618.404 905.648 625 913.785 625H995.925C1004.06 625 1010.66 618.404 1010.66 610.267V523.674C1010.66 522.723 1010.47 521.781 1010.12 520.899L981.217 449.842C980.088 447.066 977.39 445.251 974.393 445.251Z" fill="#C2BBFF"/>
<path d="M931.466 427.202C931.466 424.354 933.775 422.045 936.623 422.045H974.93C977.778 422.045 980.087 424.354 980.087 427.202V440.462C980.087 443.31 977.778 445.619 974.93 445.619H936.623C933.775 445.619 931.466 443.31 931.466 440.462V427.202Z" fill="#F7CDE1"/>
<path fill-rule="evenodd" clip-rule="evenodd" d="M912.868 458.868C917.359 454.377 924.641 454.377 929.132 458.868L955.132 484.868C959.623 489.359 959.623 496.641 955.132 501.132C950.641 505.623 943.359 505.623 938.868 501.132L912.868 475.132C908.377 470.641 908.377 463.359 912.868 458.868Z" fill="#F9E0CE"/>
<path fill-rule="evenodd" clip-rule="evenodd" d="M903.868 476.868C908.359 472.377 915.641 472.377 920.132 476.868L946.132 502.868C950.623 507.359 950.623 514.641 946.132 519.132C941.641 523.623 934.359 523.623 929.868 519.132L903.868 493.132C899.377 488.641 899.377 481.359 903.868 476.868Z" fill="#F9E0CE"/>
<path fill-rule="evenodd" clip-rule="evenodd" d="M894.868 494.868C899.359 490.377 906.641 490.377 911.132 494.868L937.132 520.868C941.623 525.359 941.623 532.641 937.132 537.132C932.641 541.623 925.359 541.623 920.868 537.132L894.868 511.132C890.377 506.641 890.377 499.359 894.868 494.868Z" fill="#F9E0CE"/>
<path fill-rule="evenodd" clip-rule="evenodd" d="M911.889 472.992C912.446 472.378 913.395 472.333 914.008 472.889L946.508 502.389C947.122 502.946 947.167 503.895 946.611 504.508C946.054 505.122 945.105 505.167 944.492 504.611L911.992 475.111C911.378 474.554 911.333 473.605 911.889 472.992ZM901.887 491.995C902.442 491.38 903.391 491.332 904.005 491.887L935.005 519.887C935.62 520.442 935.668 521.391 935.113 522.005C934.558 522.62 933.609 522.668 932.995 522.113L901.995 494.113C901.38 493.558 901.332 492.609 901.887 491.995Z" fill="#F1BFA9"/>
<path d="M1349.34 692.868L1289.61 702.237C1248.36 708.708 1215.47 740.135 1207.13 781.054L1147 1076C1144 1091.17 1142.5 1147.5 1142.5 1186.5C1142.5 1245 1253.1 1332.28 1359.5 1311C1522 1278.5 1532.5 1206.5 1528 1156.5C1525.8 1132.11 1429.3 846.638 1382.26 712.504C1377.47 698.855 1363.63 690.626 1349.34 692.868Z" fill="url(#paint0_linear_56_59)"/>
<path d="M1322.31 717.815L1276.88 732C1269.72 734.234 1264.25 740.808 1262.66 749.068L1210.48 1020.37C1207.41 1036.31 1219.63 1050.63 1233.7 1047.59L1387.76 1014.25C1399.07 1011.8 1406.22 998.988 1403.37 986.279L1346.93 734.13C1344.17 721.805 1333.08 714.453 1322.31 717.815Z" fill="#FBC3DE"/>
<path d="M749.73 349.637C756.245 376.498 748.333 401.473 732.059 405.42C715.784 409.367 697.31 390.791 690.795 363.93C684.281 337.069 692.192 312.094 708.467 308.147C724.741 304.2 743.215 322.775 749.73 349.637Z" fill="#C2BBFF"/>
<path d="M712.523 435.213C735.352 450.795 746.206 474.639 736.765 488.47C727.325 502.302 701.165 500.883 678.336 485.301C655.506 469.72 644.653 445.876 654.093 432.044C663.534 418.213 689.693 419.632 712.523 435.213Z" fill="#C2BBFF"/>
<path d="M786.942 414.985C777.699 431.942 761.877 441.15 751.603 435.55C741.329 429.95 740.493 411.663 749.736 394.705C758.979 377.747 774.801 368.54 785.075 374.14C795.349 379.74 796.185 398.027 786.942 414.985Z" fill="#C2BBFF"/>
<path fill-rule="evenodd" clip-rule="evenodd" d="M725.712 366.028C726.525 365.869 727.313 366.4 727.472 367.213L743.202 447.77L764.199 411.253C764.612 410.534 765.529 410.287 766.247 410.7C766.965 411.113 767.213 412.03 766.8 412.748L744.075 452.269L750.972 489.217L750.974 489.225L774.472 611.217C774.629 612.03 774.097 612.816 773.283 612.973C772.47 613.13 771.683 612.597 771.526 611.784L748.166 490.511L701.829 467.342C701.088 466.971 700.787 466.07 701.158 465.329C701.528 464.588 702.429 464.288 703.17 464.659L747.471 486.809L741.027 452.288L741.025 452.276L724.527 367.788C724.368 366.975 724.899 366.187 725.712 366.028Z" fill="#171625"/>
<path d="M685.886 589.41C682.905 583.593 686.216 576.526 692.594 575.093L836.197 542.83C842.575 541.397 848.591 546.368 848.384 552.902L843.986 692.255C843.842 696.814 840.632 700.697 836.183 701.697L760.562 718.687C756.112 719.686 751.55 717.549 749.47 713.49L685.886 589.41Z" fill="#FBF7B8"/>
<path d="M905.175 705.118L925.743 725.11C942.944 741.829 940.928 770.013 921.522 784.113C906.078 795.333 884.757 793.603 871.325 780.039L843.675 752.118L817.598 739.08C814.376 737.469 810.779 736.758 807.187 737.022L713.273 743.927C711.601 744.05 709.942 743.549 708.619 742.519C704.082 738.99 705.727 731.769 711.345 730.555L734.175 725.618C730.117 721.335 732.12 714.271 737.821 712.754L834.175 687.118L808.95 672.878C805.605 670.99 804.088 666.981 805.344 663.352C806.671 659.52 810.669 657.3 814.623 658.199L881.707 673.464C887.686 674.824 892.71 678.852 895.338 684.391L905.175 705.118Z" fill="#F9E0CE"/>
<path fill-rule="evenodd" clip-rule="evenodd" d="M805.492 718.847C805.577 719.671 804.978 720.407 804.154 720.492L736.154 727.492C735.33 727.577 734.593 726.978 734.508 726.154C734.423 725.33 735.022 724.593 735.847 724.508L803.847 717.508C804.671 717.423 805.407 718.022 805.492 718.847Z" fill="#F1BFA9"/>
<path d="M1244.26 717.84C1267.57 693.076 1309.93 695.088 1338.89 722.334C1367.84 749.581 1372.42 791.744 1349.12 816.508L1166.05 1011.05C1142.75 1035.82 1100.38 1033.8 1071.43 1006.56C1042.47 979.312 1037.89 937.148 1061.2 912.384L1244.26 717.84Z" fill="#F9E0CE"/>
<path d="M1244.26 927.5L1349.12 816.508C1372.42 791.744 1367.84 749.581 1338.89 722.334C1309.93 695.088 1267.57 693.076 1244.26 717.84L1158 810L1244.26 927.5Z" fill="#FBC3DE"/>
<path d="M1167.78 910.806L929.176 729.118L868.675 777.118L1074.06 1010.22C1101.51 1036.11 1144.75 1034.83 1170.63 1007.38C1196.51 979.925 1195.24 936.687 1167.78 910.806Z" fill="#F9E0CE"/>
<path fill-rule="evenodd" clip-rule="evenodd" d="M1351.52 811.899C1352.13 812.461 1352.16 813.41 1351.6 814.019L1166.6 1014.02C1166.04 1014.63 1165.09 1014.66 1164.48 1014.1C1163.87 1013.54 1163.84 1012.59 1164.4 1011.98L1349.4 811.981C1349.96 811.373 1350.91 811.336 1351.52 811.899Z" fill="#171625"/>
<path fill-rule="evenodd" clip-rule="evenodd" d="M1179.53 787.407C1180.13 787.975 1180.16 788.924 1179.59 789.528L1107.17 866.505L1062.1 832.7C1061.44 832.203 1061.3 831.263 1061.8 830.6C1062.3 829.937 1063.24 829.803 1063.9 830.3L1106.83 862.495L1177.41 787.472C1177.98 786.869 1178.92 786.84 1179.53 787.407Z" fill="#171625"/>
<path d="M1655 1378.16L1571 1264H1716.7C1741.96 1264 1765.88 1274.1 1786.07 1289.27C1828.16 1320.9 1874.81 1340.69 1954.48 1370.37C1958.66 1371.93 1957.55 1378.16 1953.09 1378.16H1655Z" fill="#171625"/>
<path d="M931.722 1281.9C920.277 1228.4 954.365 1175.76 1007.86 1164.31L1402.87 1079.8C1456.37 1068.36 1509.01 1102.45 1520.46 1155.94C1531.9 1209.43 1497.81 1262.08 1444.32 1273.52L1049.3 1358.03C995.81 1369.48 943.167 1335.39 931.722 1281.9Z" fill="url(#paint1_linear_56_59)"/>
<path d="M931 1282.96C931 1227.66 977.578 1183.79 1032.78 1187.09L1608 1221.5L1720 1379H1027.04C973.999 1379 931 1336 931 1282.96Z" fill="url(#paint2_linear_56_59)"/>
<path fill-rule="evenodd" clip-rule="evenodd" d="M1098.5 1189.93C1098.54 1189.1 1099.24 1188.46 1100.07 1188.5L1492.07 1214.5C1492.9 1214.54 1493.54 1215.24 1493.5 1216.07C1493.46 1216.9 1492.76 1217.54 1491.93 1217.5L1099.93 1191.5C1099.1 1191.46 1098.46 1190.76 1098.5 1189.93Z" fill="#171625"/>
<path fill-rule="evenodd" clip-rule="evenodd" d="M1270.96 1105.65C1271.15 1106.46 1270.65 1107.27 1269.85 1107.46L1146.85 1136.96C1146.04 1137.15 1145.23 1136.66 1145.04 1135.85C1144.85 1135.04 1145.34 1134.23 1146.15 1134.04L1269.15 1104.54C1269.96 1104.35 1270.76 1104.84 1270.96 1105.65Z" fill="#171625"/>
<path fill-rule="evenodd" clip-rule="evenodd" d="M863.251 1049.84C862.442 1049.66 861.642 1050.17 861.464 1050.98L813.007 1271.21C812.829 1272.02 813.341 1272.82 814.15 1273C814.959 1273.18 815.759 1272.66 815.937 1271.86L864.394 1051.63C864.572 1050.82 864.06 1050.02 863.251 1049.84Z" fill="#171625"/>
<path d="M917.85 1020.62C916.207 1028.27 910.035 1034.62 900.691 1038.27C891.347 1041.92 879.596 1042.58 868.024 1040.09C856.451 1037.61 846.005 1032.19 838.984 1025.02C831.962 1017.86 828.94 1009.53 830.582 1001.88L917.85 1020.62Z" fill="#C2BBFF"/>
<path d="M852.489 1051.4C854.533 1058 861.536 1061.68 868.13 1059.64C874.724 1057.6 878.412 1050.59 876.367 1044C874.323 1037.4 867.32 1033.72 860.726 1035.76C854.133 1037.81 850.444 1044.81 852.489 1051.4Z" fill="#C2BBFF"/>
<path d="M822.438 1081.81C821.165 1080.82 819.41 1081.72 819.475 1083.33C819.727 1089.5 820.725 1101.79 824.66 1109.43C828.595 1117.08 838.01 1125.03 842.887 1128.82C844.16 1129.81 845.915 1128.91 845.85 1127.3C845.598 1121.12 844.6 1108.84 840.665 1101.2C836.73 1093.55 827.316 1085.6 822.438 1081.81Z" fill="#171625"/>
<path d="M876.519 1158.51C878.124 1158.36 879.124 1160.06 878.208 1161.38C874.694 1166.47 867.284 1176.31 859.871 1180.67C852.458 1185.03 840.251 1186.71 834.101 1187.31C832.497 1187.46 831.496 1185.76 832.413 1184.44C835.926 1179.35 843.337 1169.51 850.75 1165.15C858.163 1160.79 870.37 1159.11 876.519 1158.51Z" fill="#171625"/>
<path fill-rule="evenodd" clip-rule="evenodd" d="M770.505 1047.17C771.326 1047.06 772.085 1047.63 772.201 1048.45L803.864 1271.71C803.98 1272.53 803.409 1273.29 802.589 1273.4C801.769 1273.52 801.01 1272.95 800.893 1272.13L769.231 1048.87C769.115 1048.05 769.685 1047.29 770.505 1047.17Z" fill="#171625"/>
<path d="M718.272 1013.9C719.331 1021.66 725.006 1028.45 734.047 1032.8C743.088 1037.15 754.756 1038.69 766.483 1037.09C778.21 1035.49 789.036 1030.87 796.58 1024.26C804.123 1017.65 807.766 1009.58 806.707 1001.82L718.272 1013.9Z" fill="#C2BBFF"/>
<path d="M781.118 1049.54C778.581 1055.96 771.319 1059.11 764.899 1056.57C758.478 1054.04 755.33 1046.78 757.867 1040.35C760.405 1033.93 767.666 1030.79 774.087 1033.32C780.507 1035.86 783.655 1043.12 781.118 1049.54Z" fill="#C2BBFF"/>
<path d="M808.784 1082.13C810.128 1081.24 811.81 1082.28 811.623 1083.88C810.905 1090.01 808.981 1102.19 804.479 1109.51C799.977 1116.84 789.988 1124.05 784.837 1127.47C783.494 1128.36 781.812 1127.32 781.999 1125.72C782.716 1119.59 784.641 1107.41 789.143 1100.09C793.645 1092.76 803.633 1085.55 808.784 1082.13Z" fill="#171625"/>
<path d="M749.057 1154.53C747.469 1154.25 746.343 1155.87 747.156 1157.27C750.275 1162.6 756.92 1172.98 763.982 1177.88C771.045 1182.79 783.089 1185.39 789.176 1186.45C790.764 1186.73 791.89 1185.11 791.077 1183.72C787.958 1178.38 781.313 1168 774.251 1163.1C767.188 1158.19 755.144 1155.59 749.057 1154.53Z" fill="#171625"/>
<path d="M730.226 1217.5C728.592 1211.17 733.372 1205 739.909 1205H887.092C893.629 1205 898.408 1211.17 896.775 1217.5L861.936 1352.5C860.796 1356.91 856.814 1360 852.253 1360H774.747C770.187 1360 766.204 1356.91 765.064 1352.5L730.226 1217.5Z" fill="#FFB99B"/>
<path d="M738 1359C738 1354.58 741.582 1351 746 1351H876C880.418 1351 884 1354.58 884 1359V1371C884 1375.42 880.418 1379 876 1379H746C741.582 1379 738 1375.42 738 1371V1359Z" fill="#FFB99B"/>
<path d="M289 695C289 689.478 293.477 685 299 685H418C423.523 685 428 689.478 428 695C428 700.523 423.523 705 418 705H299C293.477 705 289 700.523 289 695Z" fill="#FBC3DE"/>
<path d="M334.768 554.171C336.581 551.021 339.961 549.102 343.595 549.16L368.706 549.562C372.34 549.621 375.657 551.647 377.368 554.854L390.095 578.708C393.682 585.432 388.732 593.536 381.112 593.414L329.79 592.592C322.171 592.47 317.482 584.211 321.283 577.606L334.768 554.171Z" fill="#C2BBFF"/>
<path d="M356.924 554.526C358.737 551.375 362.117 549.457 365.752 549.515L390.862 549.917C394.497 549.975 397.813 552.002 399.524 555.209L412.252 579.063C415.839 585.787 410.888 593.891 403.268 593.769L351.947 592.947C344.327 592.825 339.639 584.566 343.439 577.961L356.924 554.526Z" fill="#BCECFF"/>
<path d="M310.92 584.921C311.016 578.94 315.873 574.132 321.855 574.098L453.658 573.332C459.827 573.296 464.819 578.339 464.72 584.508L463.266 675.303C463.17 681.284 458.313 686.092 452.331 686.127L320.528 686.893C314.359 686.929 309.366 681.885 309.465 675.717L310.92 584.921Z" fill="#BCECFF"/>
<path d="M270.632 584.513C270.729 578.438 275.732 573.593 281.807 573.69L312.18 574.177C318.254 574.274 323.1 579.277 323.002 585.352L321.548 676.153C321.45 682.227 316.447 687.072 310.373 686.975L280 686.488C273.925 686.391 269.08 681.388 269.177 675.314L270.632 584.513Z" fill="#C2BBFF"/>
<path d="M415.628 630.569C415.364 647.07 401.773 660.233 385.271 659.968C368.77 659.704 355.608 646.113 355.872 629.612C356.136 613.111 369.728 599.948 386.229 600.212C402.73 600.477 415.893 614.068 415.628 630.569Z" fill="#C2BBFF"/>
<path d="M378.136 623.298C378.49 601.209 396.683 583.59 418.772 583.944L461.361 584.626L459.866 677.953L417.276 677.271C395.188 676.917 377.568 658.724 377.922 636.635L378.136 623.298Z" fill="#FBF7B8"/>
<path d="M508.283 632.053C507.87 657.825 486.644 678.382 460.872 677.969C435.101 677.556 414.543 656.33 414.956 630.558C415.369 604.787 436.596 584.229 462.367 584.642C488.139 585.055 508.696 606.282 508.283 632.053Z" fill="#FBC3DE"/>
<path d="M497.542 631.881C497.224 651.72 480.884 667.544 461.045 667.227C441.207 666.909 425.382 650.569 425.7 630.73C426.018 610.892 442.358 595.067 462.196 595.385C482.035 595.703 497.859 612.043 497.542 631.881Z" fill="white"/>
<path fill-rule="evenodd" clip-rule="evenodd" d="M321.87 694H387.083L551.918 1385.3C552.303 1386.92 551.308 1388.53 549.696 1388.92C548.084 1389.3 546.466 1388.31 546.082 1386.7L382.345 700H360.621L387.712 1385.88C387.777 1387.54 386.488 1388.93 384.832 1389C383.177 1389.06 381.782 1387.77 381.716 1386.12L354.616 700H327.349L264.988 1386.27C264.838 1387.92 263.379 1389.14 261.729 1388.99C260.079 1388.84 258.863 1387.38 259.013 1385.73L321.87 694Z" fill="#FBC3DE"/>
<path d="M1135.06 299.594C1136.92 295.988 1142.08 295.988 1143.94 299.594L1155.47 321.895C1155.87 322.676 1156.47 323.336 1157.21 323.81L1175.42 335.466C1178.49 337.433 1178.49 341.921 1175.42 343.888L1157.66 355.257C1156.65 355.908 1155.9 356.906 1155.56 358.065L1144.3 396.583C1142.9 401.379 1136.1 401.379 1134.7 396.583L1123.44 358.065C1123.1 356.906 1122.36 355.908 1121.34 355.257L1103.58 343.888C1100.51 341.921 1100.51 337.433 1103.58 335.466L1121.79 323.81C1122.53 323.336 1123.13 322.676 1123.53 321.895L1135.06 299.594Z" fill="#97F7F5"/>
<path d="M574.055 886.633C575.916 883.018 581.084 883.018 582.945 886.633L589.397 899.163C589.799 899.944 590.4 900.606 591.14 901.081L601.453 907.708C604.516 909.676 604.516 914.153 601.453 916.121L591.586 922.461C590.57 923.114 589.825 924.111 589.488 925.27L583.3 946.516C581.902 951.319 575.098 951.319 573.699 946.516L567.512 925.27C567.174 924.111 566.429 923.114 565.414 922.461L555.546 916.121C552.483 914.153 552.483 909.676 555.546 907.708L565.86 901.081C566.599 900.606 567.2 899.944 567.602 899.163L574.055 886.633Z" fill="#FBF7B8"/>
<path d="M1622.06 664.587C1623.92 660.983 1629.08 660.983 1630.94 664.587L1645.2 692.155C1645.6 692.935 1646.21 693.596 1646.95 694.07L1669.42 708.445C1672.49 710.411 1672.49 714.902 1669.42 716.868L1647.39 730.957C1646.38 731.608 1645.63 732.605 1645.29 733.765L1631.3 781.594C1629.9 786.389 1623.1 786.389 1621.7 781.594L1607.71 733.765C1607.37 732.605 1606.62 731.608 1605.61 730.957L1583.58 716.868C1580.51 714.902 1580.51 710.411 1583.58 708.445L1606.05 694.07C1606.79 693.596 1607.4 692.935 1607.8 692.155L1622.06 664.587Z" fill="#FFB99B"/>
<defs>
<linearGradient id="paint0_linear_56_59" x1="1211.5" y1="884" x2="1474.5" y2="915.884" gradientUnits="userSpaceOnUse">
<stop stop-color="#BCECFF"/>
<stop offset="1" stop-color="#C2BBFF"/>
</linearGradient>
<linearGradient id="paint1_linear_56_59" x1="875.384" y1="1213.74" x2="1472.15" y2="1332.92" gradientUnits="userSpaceOnUse">
<stop offset="0.286453" stop-color="#BCECFF"/>
<stop offset="1" stop-color="#C2BBFF"/>
</linearGradient>
<linearGradient id="paint2_linear_56_59" x1="1193" y1="1339" x2="1807.01" y2="1724.69" gradientUnits="userSpaceOnUse">
<stop stop-color="#BCECFF"/>
<stop offset="1" stop-color="#C2BBFF"/>
</linearGradient>
</defs>
</svg>
