<svg width="2238" height="1678" viewBox="0 0 2238 1678" fill="none" xmlns="http://www.w3.org/2000/svg">
<path fill-rule="evenodd" clip-rule="evenodd" d="M273.5 1407C273.5 1405.34 274.843 1404 276.5 1404H2007C2008.66 1404 2010 1405.34 2010 1407C2010 1408.66 2008.66 1410 2007 1410H276.5C274.843 1410 273.5 1408.66 273.5 1407Z" fill="#BCECFF"/>
<path d="M1305.09 668.708L933.027 653C883.728 653 846.794 698.164 856.579 746.482L918.147 1050.5L899.36 1261.16C896.522 1292.98 902.344 1372.99 931.853 1385.22C984.547 1407.05 1070.12 1438 1136.41 1440.26C1195.85 1442.28 1271.36 1422.32 1327.15 1404C1372.86 1388.99 1378.07 1295.97 1367.65 1249L1327.15 1050.5L1382.65 755C1387.58 708.903 1351.45 668.708 1305.09 668.708Z" fill="url(#paint0_linear_74_88)"/>
<path fill-rule="evenodd" clip-rule="evenodd" d="M977.442 862.5C971.07 862.5 966.964 869.252 969.895 874.91L1221.33 1360.31C1221.71 1361.05 1221.43 1361.95 1220.69 1362.33C1219.95 1362.71 1219.05 1362.43 1218.67 1361.69L967.231 876.289C963.266 868.635 968.821 859.5 977.442 859.5H1335.5C1336.33 859.5 1337 860.172 1337 861C1337 861.828 1336.33 862.5 1335.5 862.5H977.442Z" fill="white"/>
<circle cx="1026.5" cy="897.5" r="19.5" fill="white"/>
<path d="M1166.3 156.777C1171.91 146.545 1183.02 140.214 1194.44 142.586C1234.77 150.959 1268.94 176.641 1293.96 207.558C1299.9 214.889 1301.3 224.784 1298.42 233.765L1233.13 437.104C1226.76 456.958 1202.57 464.414 1186.12 451.593L1079.14 368.196C1067.53 359.148 1064.2 343.017 1071.27 330.113L1166.3 156.777Z" fill="#DCE1F2"/>
<path fill-rule="evenodd" clip-rule="evenodd" d="M1201.25 196.198C1201.96 196.61 1202.21 197.526 1201.8 198.245L1132.3 319.745C1131.89 320.464 1130.97 320.714 1130.26 320.302C1129.54 319.891 1129.29 318.975 1129.7 318.255L1199.2 196.755C1199.61 196.036 1200.53 195.787 1201.25 196.198ZM1257.09 232.623C1257.85 232.95 1258.21 233.833 1257.88 234.594L1200.38 368.094C1200.05 368.854 1199.17 369.206 1198.41 368.878C1197.65 368.55 1197.29 367.668 1197.62 366.907L1255.12 233.407C1255.45 232.646 1256.33 232.295 1257.09 232.623Z" fill="white"/>
<path fill-rule="evenodd" clip-rule="evenodd" d="M1158.01 171.334C1158.1 170.511 1158.84 169.918 1159.67 170.009L1159.5 171.5C1159.67 170.009 1159.67 170.009 1159.67 170.009L1159.68 170.01L1159.7 170.013L1159.78 170.023C1159.85 170.031 1159.96 170.044 1160.09 170.062C1160.37 170.097 1160.77 170.151 1161.3 170.227C1162.35 170.38 1163.89 170.624 1165.86 170.987C1169.8 171.712 1175.46 172.915 1182.38 174.827C1196.21 178.651 1215.08 185.318 1235.24 196.694C1255.48 208.118 1269.75 222.767 1278.95 234.554C1283.56 240.449 1286.9 245.635 1289.1 249.354C1290.19 251.214 1291.01 252.708 1291.55 253.741C1291.81 254.258 1292.02 254.66 1292.15 254.935C1292.22 255.073 1292.27 255.178 1292.31 255.251C1292.32 255.287 1292.34 255.315 1292.34 255.335L1292.36 255.358L1292.36 255.367C1292.36 255.368 1292.36 255.368 1291 256L1292.36 255.368C1292.71 256.119 1292.38 257.011 1291.63 257.36C1290.88 257.71 1289.99 257.383 1289.64 256.632L1289.64 256.629L1289.63 256.614L1289.6 256.545C1289.57 256.482 1289.52 256.386 1289.46 256.259C1289.33 256.005 1289.14 255.624 1288.89 255.129C1288.37 254.139 1287.58 252.691 1286.51 250.879C1284.37 247.256 1281.1 242.18 1276.59 236.401C1267.56 224.839 1253.58 210.489 1233.76 199.306C1213.86 188.076 1195.23 181.493 1181.58 177.719C1174.75 175.832 1169.18 174.648 1165.31 173.937C1163.38 173.581 1161.88 173.344 1160.86 173.196C1160.36 173.122 1159.97 173.07 1159.71 173.037C1159.58 173.021 1159.49 173.009 1159.42 173.001L1159.35 172.993L1159.34 172.991L1159.33 172.991C1158.51 172.899 1157.92 172.157 1158.01 171.334Z" fill="white"/>
<path d="M1232 448.5C1232 508.423 1189.02 557 1136 557C1082.98 557 1040 508.423 1040 448.5C1040 388.577 1082.98 340 1136 340C1189.02 340 1232 388.577 1232 448.5Z" fill="#744F3A"/>
<path fill-rule="evenodd" clip-rule="evenodd" d="M1027.22 424.808C1039.3 384.537 1082.84 362.796 1122.28 377.345L1145.66 385.966C1179.22 398.346 1198.02 432.666 1192.35 466.373C1194.81 467.001 1197.21 467.921 1199.52 469.146C1218.22 479.074 1223.72 505.308 1211.81 527.741C1202.05 546.123 1183.62 556.249 1167 553.843L1165.29 648.77C1165.19 653.915 1169.07 658.269 1174.19 658.772L1196.23 660.94C1200.44 661.355 1202.21 666.53 1199.14 669.438L1100.28 762.939C1095.56 767.406 1087.9 766.251 1084.71 760.591L1029.16 662.217C1027.3 658.926 1029.68 654.854 1033.45 654.854L1049.18 654.854C1054.63 654.854 1059.05 650.434 1059.05 644.982L1059.05 611.336C1054.52 609.778 1050.06 607.744 1045.74 605.213L1033.39 597.969C1004.4 580.965 990.79 546.346 1000.44 514.152L1027.22 424.808Z" fill="#DD9576"/>
<path fill-rule="evenodd" clip-rule="evenodd" d="M1201.92 500.94L1201.92 500.94L1201.92 500.941L1201.89 500.948L1201.8 500.976C1201.72 501.002 1201.59 501.039 1201.43 501.089C1201.11 501.188 1200.65 501.333 1200.08 501.52C1198.93 501.893 1197.38 502.426 1195.7 503.067C1194.03 503.709 1192.26 504.453 1190.69 505.245C1189.1 506.049 1187.81 506.854 1187.03 507.592C1186.25 508.327 1185.5 509.257 1184.91 510.074L1198.38 513.548C1199.18 513.755 1199.66 514.573 1199.45 515.375C1199.25 516.177 1198.43 516.66 1197.63 516.453L1183.21 512.731L1173.78 528.278C1173.35 528.986 1172.43 529.213 1171.72 528.783C1171.01 528.354 1170.79 527.431 1171.22 526.723L1181.21 510.23L1181.22 510.227L1181.23 510.199C1181.25 510.175 1181.27 510.142 1181.29 510.1C1181.34 510.015 1181.42 509.894 1181.51 509.745C1181.7 509.448 1181.97 509.033 1182.31 508.559C1182.97 507.625 1183.91 506.408 1184.97 505.409C1186.08 504.368 1187.67 503.408 1189.34 502.567C1191.03 501.713 1192.9 500.929 1194.63 500.266C1196.36 499.602 1197.97 499.052 1199.14 498.668C1199.73 498.476 1200.21 498.325 1200.55 498.222C1200.71 498.17 1200.85 498.13 1200.94 498.103L1201.04 498.072L1201.07 498.064L1201.08 498.061C1201.08 498.061 1201.08 498.061 1201.5 499.5L1201.08 498.061C1201.87 497.828 1202.71 498.283 1202.94 499.078C1203.17 499.873 1202.72 500.706 1201.92 500.94Z" fill="#CD764F"/>
<path fill-rule="evenodd" clip-rule="evenodd" d="M1043 471.199C1044.62 471.583 1045.64 473.203 1045.29 474.816L1042.93 485.528C1042.57 487.141 1040.97 488.137 1039.36 487.753C1037.74 487.368 1036.72 485.749 1037.07 484.135L1039.43 473.424C1039.79 471.81 1041.39 470.814 1043 471.199Z" fill="#171625"/>
<path fill-rule="evenodd" clip-rule="evenodd" d="M1091.54 477.248C1093.16 477.632 1094.18 479.252 1093.83 480.865L1091.47 491.576C1091.11 493.19 1089.51 494.186 1087.9 493.801C1086.28 493.417 1085.26 491.797 1085.61 490.184L1087.97 479.473C1088.33 477.859 1089.93 476.863 1091.54 477.248Z" fill="#171625"/>
<path fill-rule="evenodd" clip-rule="evenodd" d="M1062.17 485.598C1062.89 486.006 1063.14 486.921 1062.73 487.642L1043.75 521.203L1057.02 526.093C1057.8 526.379 1058.19 527.242 1057.91 528.019C1057.62 528.796 1056.76 529.194 1055.98 528.908L1041.05 523.408C1040.64 523.256 1040.31 522.93 1040.16 522.517C1040.01 522.104 1040.05 521.645 1040.27 521.262L1060.12 486.165C1060.53 485.444 1061.45 485.19 1062.17 485.598Z" fill="#CD764F"/>
<path d="M1091 602L1059.03 610.939L1059.03 629.5L1091 602Z" fill="#171625"/>
<path d="M1189 470.5C1175.34 484.785 1163.5 495 1163.5 495C1163.5 495 1176.51 467.442 1173.5 449.5C1168.19 417.891 1133 394 1104 389C1073.77 383.789 1049.5 406 1028.5 419.5C997.024 439.735 971.768 348.507 1004 329.5C1010.32 325.773 1017.06 326.817 1023.51 330.311C1021.42 324.505 1020.76 318.318 1022.5 312C1027.71 293.161 1048.52 300.497 1068.18 312.685C1079.76 277.5 1153.34 326.889 1185.5 365C1199 381 1209.15 396.827 1207 430.5C1206.02 445.784 1200 459 1189 470.5Z" fill="#744F3A"/>
<path d="M1085.5 533.579C1090.3 532.293 1095.43 535.256 1094.71 540.173C1094.3 542.885 1093.39 545.524 1092 547.944C1089.08 552.997 1084.27 556.684 1078.64 558.194C1073 559.705 1067 558.914 1061.94 555.997C1059.52 554.599 1057.42 552.769 1055.71 550.621C1052.62 546.728 1055.59 541.595 1060.39 540.309L1072.94 536.944L1085.5 533.579Z" fill="white"/>
<path d="M1024.68 1094.23L1021.09 1101.46C1010.78 1122.26 1020.28 1147.44 1041.76 1156.24L1066.45 1166.36C1071.27 1168.33 1076.42 1169.35 1081.62 1169.35H1108.41L1178.28 1190.42C1181.46 1191.38 1184.9 1190.35 1187.04 1187.81C1190.43 1183.76 1189.24 1177.62 1184.57 1175.14L1151.99 1157.82C1146 1154.64 1145.27 1146.32 1150.63 1142.15C1154.1 1139.46 1158.96 1139.52 1162.35 1142.31L1202.42 1175.3C1205.54 1177.86 1210.15 1177.41 1212.71 1174.28C1215.02 1171.45 1214.89 1167.36 1212.4 1164.69L1171 1120.19L1213.19 1157.08C1215.41 1159.03 1218.45 1159.76 1221.32 1159.05C1227.95 1157.39 1230.41 1149.25 1225.8 1144.2L1174.8 1088.3C1165.32 1077.92 1151.92 1072 1137.86 1072H1060.51C1045.32 1072 1031.43 1080.61 1024.68 1094.23Z" fill="#DD9576"/>
<path d="M845.91 691.779C867.522 654.346 915.487 641.578 953.042 663.261C990.598 684.943 1003.52 732.866 981.911 770.299L812.132 1064.36C790.521 1101.8 742.556 1114.56 705.001 1092.88C667.445 1071.2 654.52 1023.28 676.132 985.844L845.91 691.779Z" fill="url(#paint1_linear_74_88)"/>
<path d="M716.654 1099.25L1015 1189.5L1089.31 1066.28L769.756 951.464C729.078 936.848 684.215 958.084 669.551 998.894C654.888 1039.71 675.976 1084.64 716.654 1099.25Z" fill="url(#paint2_linear_74_88)"/>
<path d="M1260.15 803.592C1230.8 768.129 1235.75 715.583 1271.21 686.227C1306.68 656.872 1359.22 661.823 1388.58 697.286L1575.82 923.482C1605.17 958.945 1600.22 1011.49 1564.76 1040.85C1529.29 1070.2 1476.75 1065.25 1447.39 1029.79L1260.15 803.592Z" fill="url(#paint3_linear_74_88)"/>
<path d="M1592.12 997.962L1674.58 638.907L1507.59 699.873L1431.09 954.813C1419.17 999.281 1445.56 1044.99 1490.03 1056.9C1534.5 1068.82 1580.2 1042.43 1592.12 997.962Z" fill="url(#paint4_linear_74_88)"/>
<path d="M1674.67 636.891C1678.72 647.281 1644.39 670.37 1597.99 688.46C1551.59 706.549 1510.69 712.791 1506.64 702.4C1502.59 692.009 1536.92 668.921 1583.32 650.831C1629.72 632.741 1670.62 626.5 1674.67 636.891Z" fill="#171625"/>
<path d="M1583.37 633.103L1569.5 698.499C1569.5 698.499 1603.08 687.006 1625.5 676.999C1653.5 664.499 1668 650.499 1668 650.499L1673 643.499L1674.79 633.551C1676 621.386 1681.37 610.01 1690 601.352L1752.58 538.564C1756.43 534.701 1755.83 528.292 1751.34 525.199C1747.99 522.891 1743.48 523.206 1740.48 525.958L1735.42 530.599L1737.03 527.606C1738.56 524.755 1737.49 521.202 1734.64 519.67C1732.79 518.676 1730.55 518.749 1728.76 519.862L1722.42 523.822L1723.35 520.359C1723.87 518.392 1723.28 516.295 1721.8 514.898C1719.88 513.094 1716.96 512.887 1714.81 514.403L1667.75 547.593L1668.38 545.257C1669.09 542.588 1667.51 539.844 1664.84 539.129C1663.36 538.734 1661.79 539.034 1660.56 539.944L1596.42 587.551C1588.42 593.487 1583.66 602.825 1583.57 612.784L1583.37 633.103Z" fill="#DD9576"/>
<path fill-rule="evenodd" clip-rule="evenodd" d="M1723.08 522.744C1723.6 523.389 1723.49 524.333 1722.85 524.853L1685.04 555.337C1684.4 555.857 1683.45 555.756 1682.93 555.111C1682.41 554.466 1682.52 553.522 1683.16 553.002L1720.97 522.518C1721.61 521.998 1722.56 522.099 1723.08 522.744ZM1738.13 530.08C1738.65 530.73 1738.54 531.673 1737.89 532.187L1699.57 562.534C1698.92 563.048 1697.98 562.939 1697.47 562.289C1696.95 561.64 1697.06 560.697 1697.71 560.182L1736.03 529.836C1736.68 529.321 1737.62 529.431 1738.13 530.08ZM1668.96 546.697C1669.45 547.361 1669.31 548.301 1668.65 548.796L1637.79 571.809C1637.12 572.305 1636.18 572.168 1635.69 571.503C1635.19 570.839 1635.33 569.9 1635.99 569.404L1666.86 546.391C1667.52 545.896 1668.46 546.033 1668.96 546.697Z" fill="#CD764F"/>
<path fill-rule="evenodd" clip-rule="evenodd" d="M1478.97 814.574C1479.75 814.831 1480.18 815.678 1479.93 816.466L1445.93 920.466C1445.67 921.253 1444.82 921.683 1444.03 921.425C1443.25 921.168 1442.82 920.321 1443.07 919.533L1477.07 815.533C1477.33 814.746 1478.18 814.316 1478.97 814.574Z" fill="#171625"/>
<path d="M864.005 1442.58L866.802 1330H1397.69V1443.85C1397.69 1450.87 1394.18 1457.41 1387.65 1460C1301.61 1494.09 964.863 1489.89 875.172 1459.84C867.874 1457.39 863.814 1450.27 864.005 1442.58Z" fill="#C2BBFF"/>
<path d="M1398 1328.5C1398 1344.24 1279.13 1357 1132.5 1357C985.868 1357 867 1344.24 867 1328.5C867 1312.76 985.868 1300 1132.5 1300C1279.13 1300 1398 1312.76 1398 1328.5Z" fill="#DCE1F2"/>
<path d="M963.214 1315.95L965 1223.5H1306.5V1317.18C1306.5 1323.37 1303.75 1329.3 1298.14 1331.92C1240.71 1358.73 1033.29 1355.53 972.842 1331.87C966.436 1329.36 963.081 1322.83 963.214 1315.95Z" fill="#C2BBFF"/>
<path fill-rule="evenodd" clip-rule="evenodd" d="M962.25 1274.8C962.913 1273.28 964.681 1272.59 966.199 1273.25L1001.26 1288.54C1026.28 1299.46 1054.15 1302.02 1080.74 1295.85L1109.32 1289.22C1127.2 1285.08 1145.75 1284.67 1163.79 1288.04L1204.67 1295.68C1237.75 1301.85 1271.93 1294.65 1299.7 1275.65L1302.81 1273.52C1304.17 1272.59 1306.04 1272.94 1306.98 1274.31C1307.91 1275.67 1307.56 1277.54 1306.19 1278.48L1303.09 1280.6C1274 1300.5 1238.21 1308.04 1203.57 1301.58L1162.69 1293.94C1145.46 1290.72 1127.75 1291.11 1110.68 1295.07L1082.09 1301.7C1054.25 1308.16 1025.06 1305.47 998.861 1294.04L963.8 1278.75C962.282 1278.09 961.588 1276.32 962.25 1274.8Z" fill="white"/>
<path fill-rule="evenodd" clip-rule="evenodd" d="M864.113 1399.18C864.565 1397.59 866.223 1396.66 867.817 1397.11L942.777 1418.34C969.759 1425.98 998.062 1427.78 1025.79 1423.6L1107.92 1411.23C1126.02 1408.51 1144.4 1408.24 1162.58 1410.45L1269.26 1423.38C1304.59 1427.66 1340.42 1422.29 1372.94 1407.85L1396.78 1397.26C1398.3 1396.59 1400.07 1397.27 1400.74 1398.78C1401.41 1400.3 1400.73 1402.07 1399.22 1402.74L1375.38 1413.33C1341.86 1428.22 1304.95 1433.75 1268.54 1429.33L1161.85 1416.4C1144.22 1414.26 1126.38 1414.52 1108.81 1417.17L1026.69 1429.53C998.11 1433.84 968.946 1431.99 941.142 1424.12L866.182 1402.89C864.588 1402.43 863.662 1400.78 864.113 1399.18Z" fill="white"/>
<path d="M1307 1223.5C1307 1239.24 1230.44 1252 1136 1252C1041.56 1252 965 1239.24 965 1223.5C965 1207.76 1041.56 1195 1136 1195C1230.44 1195 1307 1207.76 1307 1223.5Z" fill="#DCE1F2"/>
<path d="M1224 1200C1224 1210.49 1215.49 1219 1205 1219C1194.51 1219 1186 1210.49 1186 1200C1186 1189.51 1194.51 1181 1205 1181C1215.49 1181 1224 1189.51 1224 1200Z" fill="#FBC3DE"/>
<path fill-rule="evenodd" clip-rule="evenodd" d="M1181.24 1160.71C1181.95 1160.29 1182.87 1160.52 1183.29 1161.24L1199.29 1188.24C1199.71 1188.95 1199.48 1189.87 1198.76 1190.29C1198.05 1190.71 1197.13 1190.48 1196.71 1189.76L1180.71 1162.76C1180.29 1162.05 1180.52 1161.13 1181.24 1160.71Z" fill="#FBC3DE"/>
<path d="M1167.17 1188.45C1169.1 1185.13 1173.9 1185.13 1175.82 1188.45L1194.11 1219.97C1196.19 1223.56 1194.72 1228.21 1190.81 1229.61C1177.88 1234.26 1167.72 1234.07 1152.85 1229.39C1148.71 1228.09 1146.99 1223.25 1149.17 1219.49L1167.17 1188.45Z" fill="#FFB99B"/>
<path d="M1132.2 1199.28C1134.13 1196 1138.87 1196 1140.8 1199.28L1158.99 1230.02C1161.12 1233.63 1159.63 1238.34 1155.68 1239.72C1142.85 1244.22 1132.73 1244.04 1117.99 1239.5C1113.8 1238.21 1112.06 1233.31 1114.29 1229.54L1132.2 1199.28Z" fill="#FFB99B"/>
<path d="M1096.17 1188.45C1098.1 1185.13 1102.9 1185.13 1104.82 1188.45L1123.11 1219.97C1125.19 1223.56 1123.72 1228.21 1119.81 1229.61C1106.88 1234.26 1096.72 1234.07 1081.85 1229.39C1077.71 1228.09 1075.99 1223.25 1078.17 1219.49L1096.17 1188.45Z" fill="#FFB99B"/>
<path d="M315.625 959.688C315.625 952.336 321.585 946.376 328.937 946.376H487.351C494.703 946.376 500.663 952.336 500.663 959.688C500.663 967.04 494.703 973 487.351 973H328.937C321.585 973 315.625 967.04 315.625 959.688Z" fill="#FBC3DE"/>
<path d="M376.552 772.216C378.966 768.021 383.465 765.467 388.304 765.545L421.731 766.08C426.569 766.158 430.984 768.855 433.262 773.124L450.205 804.88C454.98 813.83 448.39 824.619 438.246 824.457L369.926 823.362C359.783 823.199 353.542 812.205 358.601 803.412L376.552 772.216Z" fill="#C2BBFF"/>
<path d="M406.045 772.687C408.458 768.492 412.958 765.938 417.797 766.016L451.223 766.551C456.062 766.629 460.477 769.326 462.755 773.595L479.698 805.351C484.473 814.301 477.883 825.09 467.739 824.927L399.419 823.833C389.276 823.67 383.035 812.676 388.094 803.883L406.045 772.687Z" fill="#BCECFF"/>
<path d="M344.805 813.149C344.932 805.187 351.398 798.787 359.361 798.741L534.819 797.721C543.031 797.673 549.677 804.387 549.545 812.599L547.609 933.467C547.481 941.428 541.015 947.829 533.053 947.875L357.595 948.895C349.382 948.942 342.737 942.228 342.868 934.017L344.805 813.149Z" fill="#BCECFF"/>
<path d="M291.172 812.606C291.301 804.52 297.962 798.07 306.048 798.199L346.481 798.847C354.567 798.977 361.018 805.637 360.888 813.723L358.951 934.598C358.822 942.684 352.162 949.134 344.075 949.005L303.642 948.357C295.556 948.227 289.106 941.567 289.235 933.481L291.172 812.606Z" fill="#C2BBFF"/>
<path d="M484.194 873.917C483.842 895.883 465.749 913.405 443.783 913.053C421.816 912.701 404.294 894.609 404.646 872.642C404.998 850.676 423.091 833.153 445.057 833.505C467.024 833.857 484.546 851.95 484.194 873.917Z" fill="#C2BBFF"/>
<path d="M434.284 864.237C434.755 834.833 458.974 811.378 488.378 811.849L545.074 812.757L543.083 936.995L486.388 936.087C456.983 935.615 433.528 911.396 433.999 881.992L434.284 864.237Z" fill="#FBF7B8"/>
<path d="M607.537 875.893C606.987 910.2 578.73 937.566 544.423 937.016C510.116 936.467 482.75 908.21 483.299 873.902C483.849 839.595 512.106 812.229 546.413 812.779C580.721 813.328 608.087 841.585 607.537 875.893Z" fill="#FBC3DE"/>
<path d="M593.237 875.663C592.814 902.072 571.062 923.138 544.653 922.715C518.244 922.292 497.178 900.54 497.601 874.131C498.024 847.721 519.776 826.655 546.185 827.079C572.594 827.502 593.66 849.254 593.237 875.663Z" fill="white"/>
<path fill-rule="evenodd" clip-rule="evenodd" d="M406.569 961.114C389.675 962.434 375.625 975.073 372.728 992.019L294.957 1447.01C294.677 1448.64 293.127 1449.74 291.494 1449.46C289.861 1449.18 288.763 1447.63 289.042 1445.99L366.814 991.008C370.369 970.209 388.398 955 409.5 955C428.062 955 444.012 968.174 447.52 986.402L535.945 1445.93C536.259 1447.56 535.193 1449.13 533.566 1449.45C531.939 1449.76 530.367 1448.69 530.054 1447.07L441.628 987.535C438.859 973.148 426.917 962.487 412.571 961.143L423.499 1446.43C423.536 1448.09 422.223 1449.46 420.567 1449.5C418.911 1449.54 417.538 1448.22 417.5 1446.57L406.569 961.114Z" fill="#FBC3DE"/>
<path d="M1518.89 1394.64C1511.77 1388.63 1516.02 1377 1525.34 1377H1867.66C1876.98 1377 1881.23 1388.63 1874.11 1394.64L1830.15 1431.76C1813.91 1445.48 1793.34 1453 1772.08 1453H1620.92C1599.66 1453 1579.09 1445.48 1562.85 1431.76L1518.89 1394.64Z" fill="#FBC3DE"/>
<path fill-rule="evenodd" clip-rule="evenodd" d="M657.074 1309.09L625.371 1364C622.335 1369.26 622.335 1375.74 625.371 1381L657.074 1435.91C660.111 1441.17 665.723 1444.41 671.797 1444.41H735.203C741.276 1444.41 746.888 1441.17 749.925 1435.91L781.628 1381C784.665 1375.74 784.665 1369.26 781.628 1364L749.925 1309.09C746.888 1303.83 741.276 1300.59 735.203 1300.59H671.797C665.723 1300.59 660.111 1303.83 657.074 1309.09ZM622.773 1362.5C619.201 1368.69 619.201 1376.31 622.773 1382.5L654.476 1437.41C658.049 1443.6 664.651 1447.41 671.797 1447.41H735.203C742.348 1447.41 748.951 1443.6 752.523 1437.41L784.226 1382.5C787.799 1376.31 787.799 1368.69 784.226 1362.5L752.523 1307.59C748.951 1301.4 742.348 1297.59 735.203 1297.59H671.797C664.651 1297.59 658.049 1301.4 654.476 1307.59L622.773 1362.5Z" fill="#FFB99B"/>
<path d="M642 1278C642 1272.48 646.477 1268 652 1268H756C761.523 1268 766 1272.48 766 1278V1295C766 1300.52 761.523 1305 756 1305H652C646.477 1305 642 1300.52 642 1295V1278Z" fill="#DCE1F2"/>
<path fill-rule="evenodd" clip-rule="evenodd" d="M622.773 1362.5C619.201 1368.69 619.201 1376.31 622.773 1382.5L639.805 1412H767.194L784.226 1382.5C787.799 1376.31 787.799 1368.69 784.226 1362.5L775.277 1347H631.722L622.773 1362.5Z" fill="#FFB99B"/>
<path d="M803.379 357.996C805.105 354.646 809.895 354.646 811.621 357.996L824.685 383.347C825.059 384.072 825.616 384.685 826.301 385.125L846.924 398.366C849.766 400.191 849.766 404.343 846.924 406.168L826.715 419.144C825.774 419.748 825.083 420.673 824.769 421.747L811.95 465.729C810.653 470.181 804.347 470.181 803.049 465.729L790.231 421.747C789.917 420.673 789.226 419.748 788.285 419.144L768.075 406.168C765.234 404.343 765.234 400.191 768.075 398.366L788.698 385.125C789.384 384.685 789.941 384.072 790.315 383.347L803.379 357.996Z" fill="#97F7F5"/>
<path d="M1708.06 971.625C1709.92 968.012 1715.08 968.012 1716.94 971.625L1729.64 996.261C1730.04 997.042 1730.64 997.703 1731.38 998.178L1751.45 1011.06C1754.51 1013.03 1754.51 1017.51 1751.45 1019.48L1731.83 1032.07C1730.81 1032.72 1730.07 1033.72 1729.73 1034.88L1717.3 1077.53C1715.9 1082.33 1709.1 1082.33 1707.7 1077.53L1695.27 1034.88C1694.93 1033.72 1694.19 1032.72 1693.17 1032.07L1673.55 1019.48C1670.49 1017.51 1670.49 1013.03 1673.55 1011.06L1693.62 998.178C1694.36 997.703 1694.96 997.042 1695.36 996.261L1708.06 971.625Z" fill="#C2BBFF"/>
<path d="M578.061 631.561C579.927 627.963 585.074 627.963 586.939 631.561L594.565 646.268C594.969 647.048 595.573 647.708 596.314 648.181L608.395 655.891C611.476 657.857 611.476 662.355 608.395 664.321L596.763 671.744C595.744 672.394 594.995 673.392 594.655 674.552L587.298 699.638C585.893 704.429 579.107 704.429 577.702 699.638L570.346 674.552C570.006 673.392 569.257 672.394 568.238 671.744L556.605 664.321C553.525 662.355 553.525 657.857 556.605 655.891L568.687 648.181C569.428 647.708 570.031 647.048 570.436 646.268L578.061 631.561Z" fill="#FFB99B"/>
<path d="M1626 398C1626 468.692 1568.69 526 1498 526C1427.31 526 1370 468.692 1370 398C1370 327.308 1427.31 270 1498 270C1568.69 270 1626 327.308 1626 398Z" fill="#FFB99B"/>
<path d="M1557.13 398.001C1557.13 430.656 1530.65 457.128 1498 457.128C1465.34 457.128 1438.87 430.656 1438.87 398.001C1438.87 365.346 1465.34 338.874 1498 338.874C1530.65 338.874 1557.13 365.346 1557.13 398.001Z" fill="white"/>
<path d="M1509.44 395.401C1511.37 395.401 1512.99 396.992 1512.54 398.875C1511.9 401.539 1510.54 404 1508.57 405.968C1505.77 408.77 1501.96 410.345 1498 410.345C1494.04 410.345 1490.24 408.77 1487.43 405.968C1485.47 404 1484.1 401.539 1483.47 398.875C1483.02 396.992 1484.63 395.401 1486.56 395.401L1498 395.401H1509.44Z" fill="#FFB99B"/>
<path d="M1477.86 385.004C1477.86 387.516 1475.82 389.553 1473.31 389.553C1470.8 389.553 1468.76 387.516 1468.76 385.004C1468.76 382.492 1470.8 380.456 1473.31 380.456C1475.82 380.456 1477.86 382.492 1477.86 385.004Z" fill="#FFB99B"/>
<path d="M1528.54 385.004C1528.54 387.516 1526.5 389.553 1523.99 389.553C1521.48 389.553 1519.44 387.516 1519.44 385.004C1519.44 382.492 1521.48 380.456 1523.99 380.456C1526.5 380.456 1528.54 382.492 1528.54 385.004Z" fill="#FFB99B"/>
<defs>
<linearGradient id="paint0_linear_74_88" x1="472.148" y1="377.5" x2="1206.44" y2="134.187" gradientUnits="userSpaceOnUse">
<stop stop-color="#FFB99B"/>
<stop offset="1" stop-color="#FBF7B8"/>
</linearGradient>
<linearGradient id="paint1_linear_74_88" x1="661.499" y1="303.001" x2="1382.17" y2="427.671" gradientUnits="userSpaceOnUse">
<stop offset="0.205993" stop-color="#FFB99B"/>
<stop offset="1" stop-color="#FBF7B8"/>
</linearGradient>
<linearGradient id="paint2_linear_74_88" x1="1340.8" y1="780.388" x2="1388.35" y2="1492.97" gradientUnits="userSpaceOnUse">
<stop offset="0.205993" stop-color="#FFB99B"/>
<stop offset="1" stop-color="#FBF7B8"/>
</linearGradient>
<linearGradient id="paint3_linear_74_88" x1="219.001" y1="511.999" x2="777.268" y2="-32.9348" gradientUnits="userSpaceOnUse">
<stop stop-color="#FFB99B"/>
<stop offset="1" stop-color="#FBF7B8"/>
</linearGradient>
<linearGradient id="paint4_linear_74_88" x1="1260.44" y1="-133.185" x2="1919.76" y2="14.3485" gradientUnits="userSpaceOnUse">
<stop stop-color="#FFB99B"/>
<stop offset="1" stop-color="#FBF7B8"/>
</linearGradient>
</defs>
</svg>
