<svg width="2238" height="1678" viewBox="0 0 2238 1678" fill="none" xmlns="http://www.w3.org/2000/svg">
<path fill-rule="evenodd" clip-rule="evenodd" d="M1770 449H1326V1164H1770V449ZM1320 443V1170H1776V443H1320Z" fill="#FBC3DE"/>
<path d="M2053 397.831C2053 396.353 2052.35 394.951 2051.21 394.001L1784.21 169.895C1780.96 167.164 1776 169.477 1776 173.724V1165C1776 1167.76 1778.24 1170 1781 1170H2048C2050.76 1170 2053 1167.76 2053 1165V397.831Z" fill="#FBC3DE"/>
<path d="M629 282H962V1170H629V282Z" fill="#FBC3DE"/>
<path d="M688 430C688 424.477 692.477 420 698 420H899C904.523 420 909 424.477 909 430V528C909 533.523 904.523 538 899 538H698C692.477 538 688 533.523 688 528V430Z" fill="white"/>
<path d="M688 626C688 620.477 692.477 616 698 616H899C904.523 616 909 620.477 909 626V724C909 729.523 904.523 734 899 734H698C692.477 734 688 729.523 688 724V626Z" fill="white"/>
<rect x="688" y="812" width="221" height="118" rx="10" fill="white"/>
<path fill-rule="evenodd" clip-rule="evenodd" d="M350 753.528V1164H631V479.241L350 753.528ZM344 751V1170H637V465L344 751Z" fill="#FBC3DE"/>
<path fill-rule="evenodd" clip-rule="evenodd" d="M508.5 596H221V1164H631V406.5H320.119L223.365 590H508.5V596ZM316.5 400.5H637V1170H215V593L316.5 400.5Z" fill="#FBC3DE"/>
<path d="M216.5 1161V595C216.5 593.343 217.843 592 219.5 592H505.566C508.265 592 509.591 595.286 507.648 597.16L346.918 752.115C346.331 752.681 346 753.46 346 754.275V1161C346 1162.66 344.657 1164 343 1164H219.5C217.843 1164 216.5 1162.66 216.5 1161Z" fill="#FBC3DE"/>
<path d="M1819 448C1819 442.477 1823.48 438 1829 438H1992C1997.52 438 2002 442.477 2002 448V494C2002 499.523 1997.52 504 1992 504H1829C1823.48 504 1819 499.523 1819 494V448Z" fill="white"/>
<path d="M1819 570C1819 564.477 1823.48 560 1829 560H1992C1997.52 560 2002 564.477 2002 570V616C2002 621.523 1997.52 626 1992 626H1829C1823.48 626 1819 621.523 1819 616V570Z" fill="white"/>
<path d="M1819 692C1819 686.477 1823.48 682 1829 682H1992C1997.52 682 2002 686.477 2002 692V738C2002 743.523 1997.52 748 1992 748H1829C1823.48 748 1819 743.523 1819 738V692Z" fill="white"/>
<path d="M1564.65 1290.77L1543.03 994.561C1540.88 965.141 1565.65 940.827 1595.03 943.521C1619.61 945.775 1638.43 966.396 1638.43 991.084L1638.43 1288.08C1638.43 1306.96 1624.19 1322.8 1605.42 1324.81C1584.65 1327.03 1566.17 1311.6 1564.65 1290.77Z" fill="#DD9576"/>
<path d="M1498.89 1290.77L1520.51 994.561C1522.65 965.141 1497.88 940.827 1468.51 943.521C1443.92 945.775 1425.11 966.396 1425.11 991.084L1425.11 1288.08C1425.11 1306.96 1439.34 1322.8 1458.12 1324.81C1478.89 1327.03 1497.37 1311.6 1498.89 1290.77Z" fill="#DD9576"/>
<path d="M1676.76 1333.67C1654.95 1325.69 1646.47 1285.01 1639.88 1264.49L1563.43 1264.49L1567.91 1357.66C1568.2 1363.72 1573.2 1368.49 1579.27 1368.49L1759.68 1368.49C1762.93 1368.49 1765.41 1365.58 1764.9 1362.37C1764.56 1360.29 1763.04 1358.61 1760.99 1358.09C1739.53 1352.58 1697.43 1341.22 1676.76 1333.67Z" fill="#171625"/>
<path d="M1386.78 1333.95C1408.58 1325.98 1417.07 1285.29 1423.66 1264.78L1500.11 1264.78L1495.63 1357.95C1495.34 1364.01 1490.33 1368.78 1484.26 1368.78L1303.86 1368.78C1300.6 1368.78 1298.12 1365.87 1298.64 1362.66C1298.97 1360.58 1300.5 1358.9 1302.54 1358.37C1324 1352.86 1366.1 1341.51 1386.78 1333.95Z" fill="#171625"/>
<path fill-rule="evenodd" clip-rule="evenodd" d="M1466.68 674.505L1495.62 676.115C1518.78 677.402 1538.59 681.774 1547.5 701.5L1553 701.5C1588.69 691.519 1624 712.655 1628 749.5L1658 1025.5C1658 1025.5 1628 1057.85 1538 1057C1420.5 1055.89 1394 1021 1394 1021L1403.38 732.463C1404.48 698.802 1433.06 672.636 1466.68 674.505Z" fill="#C2BBFF"/>
<path d="M1570.19 554.953C1555.17 536.813 1557.7 509.935 1575.84 494.919C1593.98 479.903 1620.86 482.436 1635.88 500.576L1731.65 616.278C1746.67 634.418 1744.14 661.296 1726 676.312C1707.86 691.328 1680.98 688.795 1665.96 670.655L1570.19 554.953Z" fill="#DD9576"/>
<path d="M1677.07 548.659L1623.99 484.535C1615.67 474.481 1594.22 478.504 1576.08 493.52C1557.94 508.535 1549.98 528.858 1558.3 538.911L1611.38 603.036L1677.07 548.659Z" fill="url(#paint0_linear_75_345)"/>
<path d="M1739.99 654.377L1774.39 504.617C1778.16 488.209 1764.38 473.085 1747.69 475.309C1739.76 476.367 1732.86 481.295 1729.29 488.462L1657.62 632.305C1651.53 655.051 1665.03 678.432 1687.77 684.526C1710.52 690.621 1733.9 677.123 1739.99 654.377Z" fill="#DD9576"/>
<path fill-rule="evenodd" clip-rule="evenodd" d="M1690.67 566.159C1691.41 566.529 1691.71 567.43 1691.34 568.171L1678.84 593.171C1678.47 593.912 1677.57 594.212 1676.83 593.842C1676.09 593.471 1675.79 592.57 1676.16 591.83L1688.66 566.83C1689.03 566.089 1689.93 565.788 1690.67 566.159Z" fill="#171625"/>
<path d="M1735.52 467.746L1725.38 495.999C1721.31 507.35 1737.99 513.916 1749 509C1755.29 506.193 1773.33 509.239 1774.82 502.516L1781.36 473.063L1782.28 467.975C1782.9 461.752 1785.64 455.934 1790.06 451.505L1822.07 419.388C1824.04 417.412 1823.73 414.133 1821.44 412.552C1819.72 411.371 1817.42 411.532 1815.88 412.94L1813.29 415.314L1814.12 413.783C1814.9 412.324 1814.35 410.507 1812.89 409.723C1811.95 409.215 1810.8 409.252 1809.89 409.821L1806.64 411.847L1807.12 410.075C1807.39 409.069 1807.08 407.997 1806.32 407.282C1805.34 406.359 1803.85 406.254 1802.75 407.029L1778.68 424.006L1779 422.812C1779.36 421.446 1778.55 420.043 1777.19 419.677C1776.43 419.474 1775.63 419.628 1775 420.094L1742.19 444.445C1738.1 447.482 1735.67 452.258 1735.62 457.353L1735.52 467.746Z" fill="#DD9576"/>
<path fill-rule="evenodd" clip-rule="evenodd" d="M1807.55 410.835C1808.07 411.48 1807.97 412.424 1807.32 412.944L1787.98 428.537C1787.34 429.057 1786.4 428.956 1785.88 428.311C1785.36 427.666 1785.46 426.722 1786.1 426.202L1805.44 410.609C1806.08 410.089 1807.03 410.19 1807.55 410.835ZM1815.26 414.592C1815.77 415.242 1815.66 416.185 1815.01 416.7L1795.41 432.222C1794.76 432.737 1793.82 432.627 1793.3 431.978C1792.79 431.328 1792.9 430.385 1793.55 429.871L1813.15 414.348C1813.8 413.833 1814.74 413.943 1815.26 414.592ZM1779.88 423.109C1780.38 423.773 1780.24 424.713 1779.58 425.208L1763.79 436.98C1763.13 437.475 1762.19 437.338 1761.69 436.674C1761.19 436.01 1761.33 435.07 1762 434.575L1777.78 422.803C1778.45 422.308 1779.39 422.445 1779.88 423.109Z" fill="#CD764F"/>
<path d="M1598.27 478H1452.66C1429.94 478 1411.78 496.907 1412.69 519.613L1418.01 651.5L1399.51 710.5C1398.24 727.389 1411.2 741.982 1428.12 742.723L1585.2 752.129C1602.27 752.876 1616.51 739.241 1616.51 722.157L1604.02 648.5L1637.73 524.594C1641.8 500.208 1623 478 1598.27 478Z" fill="url(#paint1_linear_75_345)"/>
<path d="M1622.33 401.141C1619.79 415.608 1573.63 419.581 1519.23 410.016C1464.83 400.45 1422.79 380.968 1425.34 366.501C1427.88 352.034 1474.04 348.061 1528.44 357.627C1582.84 367.192 1624.87 386.674 1622.33 401.141Z" fill="#171625"/>
<path fill-rule="evenodd" clip-rule="evenodd" d="M1475.01 393.5C1475.01 393.5 1462.01 387.5 1463.01 357.5C1463.65 338.357 1482.86 315.429 1496.34 310.849C1521.05 302.452 1555.1 317.868 1574.07 336.484C1594.08 356.109 1594.27 378.089 1585.44 402.355C1599.71 407.135 1610 420.616 1610 436.5C1610 456.382 1593.88 472.5 1574 472.5C1554.12 472.5 1538 456.382 1538 436.5C1538 434.171 1538.22 431.893 1538.64 429.687L1475.01 393.5Z" fill="#744F3A"/>
<path d="M1595.98 477H1471.35C1468.54 477 1467.27 480.524 1469.44 482.314L1509.22 515.119C1510.48 516.163 1510.68 518.028 1509.65 519.308L1502.79 527.884C1501.34 529.701 1502.42 532.408 1504.72 532.73L1545.2 538.389C1545.73 538.462 1546.26 538.396 1546.75 538.198L1579.99 524.719C1581.61 524.062 1582.33 522.162 1581.55 520.597L1576.39 510.282C1575.85 509.202 1576.01 507.904 1576.8 506.988L1598.26 481.952C1599.92 480.006 1598.54 477 1595.98 477Z" fill="#C2BBFF"/>
<path fill-rule="evenodd" clip-rule="evenodd" d="M1479.74 362.27C1484.56 341.62 1505.81 329.32 1526.12 335.417L1538.15 339.03C1555.44 344.219 1565.97 360.912 1564.16 378.058C1565.42 378.298 1566.66 378.686 1567.86 379.231C1577.58 383.647 1581.16 396.684 1575.87 408.348C1571.52 417.906 1562.56 423.577 1554.12 422.883L1556.21 470.729C1556.32 473.322 1558.41 475.393 1561 475.487L1573.93 475.957C1575.69 476.021 1576.83 477.853 1576.11 479.464L1551.5 534.318C1550.05 537.542 1545.82 538.318 1543.33 535.816L1489.67 482.059C1488.15 480.542 1489.14 477.947 1491.28 477.815L1497.95 477.403C1500.69 477.233 1502.78 474.871 1502.61 472.126L1501.56 455.186C1499.23 454.543 1496.92 453.658 1494.67 452.518L1488.23 449.255C1473.1 441.597 1465.18 424.591 1469.03 408.083L1479.74 362.27Z" fill="#DD9576"/>
<path fill-rule="evenodd" clip-rule="evenodd" d="M1487.74 380.633C1489.35 381.018 1490.38 382.637 1490.02 384.251L1488.94 389.146C1488.59 390.759 1486.99 391.755 1485.37 391.371C1483.75 390.986 1482.73 389.367 1483.09 387.754L1484.17 382.858C1484.52 381.245 1486.12 380.249 1487.74 380.633Z" fill="#171625"/>
<path fill-rule="evenodd" clip-rule="evenodd" d="M1512.72 386.133C1514.34 386.518 1515.36 388.137 1515.01 389.751L1513.93 394.646C1513.57 396.259 1511.97 397.255 1510.36 396.871C1508.74 396.486 1507.72 394.867 1508.07 393.254L1509.15 388.358C1509.51 386.745 1511.11 385.749 1512.72 386.133Z" fill="#171625"/>
<path fill-rule="evenodd" clip-rule="evenodd" d="M1498.04 388.701C1498.76 389.109 1499.02 390.024 1498.61 390.745L1489.32 407.16L1495.3 409.363C1496.08 409.649 1496.48 410.512 1496.19 411.289C1495.9 412.066 1495.04 412.464 1494.26 412.178L1486.63 409.365C1486.21 409.213 1485.89 408.887 1485.74 408.474C1485.59 408.061 1485.62 407.602 1485.84 407.219L1496 389.267C1496.41 388.546 1497.32 388.293 1498.04 388.701Z" fill="#CD764F"/>
<path d="M1512.93 414.262C1515.58 413.554 1518.41 415.186 1518 417.893C1517.78 419.387 1517.28 420.84 1516.51 422.173C1514.9 424.955 1512.26 426.986 1509.16 427.817C1506.05 428.649 1502.74 428.213 1499.96 426.607C1498.63 425.837 1497.47 424.829 1496.53 423.647C1494.83 421.503 1496.46 418.676 1499.1 417.968L1512.93 414.262Z" fill="white"/>
<path d="M1522.2 448.109L1501.72 455.133L1502.62 469.734L1522.2 448.109Z" fill="#171625"/>
<path fill-rule="evenodd" clip-rule="evenodd" d="M1558.68 398.525C1558.92 398.56 1559.21 398.62 1559.55 398.716C1560.23 398.902 1561.02 399.193 1561.88 399.563C1563.61 400.304 1565.53 401.316 1567.26 402.302C1567.98 402.713 1568.89 402.463 1569.3 401.744C1569.71 401.025 1569.46 400.108 1568.74 399.697C1566.97 398.683 1564.94 397.609 1563.06 396.806C1562.89 396.734 1562.73 396.664 1562.56 396.596C1563.17 396.48 1563.79 396.409 1564.4 396.372C1565.35 396.315 1566.21 396.343 1566.82 396.387C1567.13 396.408 1567.38 396.433 1567.54 396.453C1567.62 396.462 1567.69 396.47 1567.72 396.476L1567.77 396.481L1567.77 396.482C1567.77 396.482 1567.77 396.482 1567.77 396.483C1568.59 396.607 1569.36 396.046 1569.48 395.228C1569.61 394.409 1569.05 393.643 1568.23 393.517L1568 395C1568.23 393.517 1568.23 393.517 1568.23 393.517L1568.22 393.516L1568.22 393.515L1568.2 393.512C1568.18 393.51 1568.16 393.507 1568.13 393.503C1568.07 393.495 1567.99 393.485 1567.89 393.473C1567.68 393.449 1567.39 393.419 1567.04 393.394C1566.32 393.344 1565.33 393.31 1564.22 393.378C1562.06 393.509 1559.15 394.037 1557.02 395.861C1556.96 395.913 1556.91 395.97 1556.86 396.031C1554.04 399.363 1552.35 402.082 1551.36 403.998C1550.86 404.956 1550.54 405.713 1550.34 406.244C1550.24 406.51 1550.17 406.719 1550.12 406.868C1550.1 406.943 1550.08 407.003 1550.07 407.048C1550.06 407.07 1550.06 407.089 1550.05 407.103L1550.05 407.123L1550.05 407.13L1550.05 407.133L1550.05 407.135C1550.05 407.135 1550.05 407.136 1551.5 407.5L1550.05 407.136C1549.84 407.94 1550.33 408.754 1551.14 408.955C1551.94 409.155 1552.75 408.671 1552.95 407.872L1552.96 407.859C1552.96 407.841 1552.97 407.809 1552.99 407.762C1553.02 407.667 1553.07 407.513 1553.15 407.302C1553.31 406.881 1553.58 406.231 1554.02 405.376C1554.85 403.769 1556.28 401.434 1558.68 398.525Z" fill="#CD764F"/>
<path d="M1475.51 318.5L1427.51 362C1510.01 351 1535.01 359.5 1622.51 397.5L1592.01 340.5L1591.28 328.566C1590.81 320.886 1585.99 314.116 1578.8 311.368C1550.72 300.627 1529.75 295.649 1497.72 294.346C1488.74 293.981 1480.81 299.976 1478.34 308.612L1475.51 318.5Z" fill="#BCECFF"/>
<path d="M1556 557C1556 560.59 1553.09 563.5 1549.5 563.5C1545.91 563.5 1543 560.59 1543 557C1543 553.41 1545.91 550.5 1549.5 550.5C1553.09 550.5 1556 553.41 1556 557Z" fill="white"/>
<path d="M1556 588C1556 591.59 1553.09 594.5 1549.5 594.5C1545.91 594.5 1543 591.59 1543 588C1543 584.41 1545.91 581.5 1549.5 581.5C1553.09 581.5 1556 584.41 1556 588Z" fill="white"/>
<path d="M1556 619C1556 622.59 1553.09 625.5 1549.5 625.5C1545.91 625.5 1543 622.59 1543 619C1543 615.41 1545.91 612.5 1549.5 612.5C1553.09 612.5 1556 615.41 1556 619Z" fill="white"/>
<path d="M1843.99 868.976C1840.38 855.984 1826.91 848.385 1813.92 852.003L1673.97 890.98C1660.98 894.598 1653.38 908.064 1657 921.056L1762.85 1301.13C1766.47 1314.12 1779.93 1321.72 1792.92 1318.1L1932.87 1279.12C1945.86 1275.5 1953.46 1262.04 1949.85 1249.05L1843.99 868.976Z" fill="#BCECFF"/>
<path d="M1599.15 705.805C1598.15 702.385 1594.72 700.282 1591.21 700.941C1587.19 701.699 1584.7 705.766 1585.85 709.699L1765.1 1322.08C1766.1 1325.5 1769.53 1327.6 1773.04 1326.94C1777.06 1326.18 1779.56 1322.12 1778.41 1318.18L1599.15 705.805Z" fill="#BCECFF"/>
<path d="M1765.75 1329.14C1758.48 1343.6 1764.31 1361.22 1778.77 1368.49C1793.23 1375.76 1810.84 1369.93 1818.11 1355.48C1825.38 1341.02 1819.56 1323.4 1805.1 1316.13C1790.64 1308.86 1773.02 1314.68 1765.75 1329.14Z" fill="#171625"/>
<path fill-rule="evenodd" clip-rule="evenodd" d="M1808.6 1226.04L1736 962.265C1731.25 945.029 1741.38 927.21 1758.61 922.466C1775.85 917.721 1793.67 927.847 1798.41 945.084L1871.02 1208.85C1875.77 1226.09 1865.64 1243.91 1848.4 1248.65C1831.17 1253.4 1813.35 1243.27 1808.6 1226.04ZM1757.82 919.573C1776.65 914.389 1796.12 925.454 1801.31 944.287L1873.92 1208.06C1879.1 1226.89 1868.03 1246.36 1849.2 1251.55C1830.37 1256.73 1810.9 1245.67 1805.71 1226.83L1733.1 963.062C1727.92 944.228 1738.99 924.758 1757.82 919.573Z" fill="white"/>
<path d="M1415.01 498.472C1425.84 479.71 1449.83 473.281 1468.6 484.114C1487.36 494.946 1493.79 518.937 1482.95 537.698L1409.56 664.828C1398.72 683.59 1374.73 690.019 1355.97 679.186C1337.21 668.354 1330.78 644.363 1341.61 625.601L1415.01 498.472Z" fill="#DD9576"/>
<path d="M1415.01 498.472C1425.84 479.71 1449.83 473.281 1468.6 484.114C1487.36 494.946 1493.79 518.937 1482.95 537.698L1437.96 615.628L1370.02 576.401L1415.01 498.472Z" fill="url(#paint2_linear_75_345)"/>
<path d="M1363.78 690.053C1341.79 686.519 1327.47 665.002 1332.7 643.35C1337.9 621.809 1360.27 609.195 1381.4 615.896L1518.51 659.389C1532.1 663.7 1540.16 677.66 1537.09 691.582C1533.95 705.849 1520.23 715.189 1505.8 712.871L1363.78 690.053Z" fill="#DD9576"/>
<path fill-rule="evenodd" clip-rule="evenodd" d="M1569.42 686.892C1571.42 683.261 1575.98 681.933 1579.61 683.925L1620.61 706.425C1624.24 708.418 1625.57 712.977 1623.57 716.609C1621.58 720.24 1617.02 721.568 1613.39 719.575L1572.39 697.075C1568.76 695.083 1567.43 690.523 1569.42 686.892Z" fill="#DD9576"/>
<path d="M1524 716.001L1499.03 711.87C1479.23 708.594 1469.08 686.27 1479.63 669.195C1486.57 657.973 1500.36 653.056 1512.83 657.357L1535 665L1577.36 682.842C1582.67 685.08 1586.76 689.503 1588.58 694.976L1604.38 742.612C1605.11 744.795 1604.12 747.178 1602.06 748.206C1600.07 749.198 1597.66 748.641 1596.32 746.878L1589.42 737.864L1592 750.753C1592.43 752.895 1591.37 755.057 1589.42 756.034C1587.29 757.098 1584.7 756.456 1583.31 754.521L1577.38 746.236L1579.61 756.011C1580.11 758.231 1578.97 760.496 1576.88 761.406C1574.61 762.4 1571.95 761.468 1570.79 759.27L1554.39 728.107C1553.14 725.714 1550.96 723.934 1548.37 723.17L1524 716.001Z" fill="#DD9576"/>
<path fill-rule="evenodd" clip-rule="evenodd" d="M1577.99 703.09C1578.77 702.808 1579.63 703.211 1579.91 703.989L1592.41 738.489C1592.69 739.268 1592.29 740.128 1591.51 740.411C1590.73 740.693 1589.87 740.29 1589.59 739.511L1577.09 705.011C1576.81 704.233 1577.21 703.372 1577.99 703.09ZM1564.42 713.615C1565.19 713.297 1566.07 713.66 1566.38 714.425L1579.88 746.925C1580.2 747.69 1579.84 748.568 1579.07 748.886C1578.31 749.203 1577.43 748.841 1577.11 748.076L1563.61 715.576C1563.3 714.811 1563.66 713.933 1564.42 713.615Z" fill="#CD764F"/>
<path fill-rule="evenodd" clip-rule="evenodd" d="M1477.76 547.709C1478.48 548.131 1478.71 549.051 1478.29 549.764L1430.74 630.158L1536.97 665.075C1537.76 665.334 1538.18 666.182 1537.92 666.969C1537.67 667.756 1536.82 668.184 1536.03 667.925L1426.26 631.843L1475.71 548.237C1476.13 547.524 1477.05 547.287 1477.76 547.709Z" fill="#171625"/>
<path fill-rule="evenodd" clip-rule="evenodd" d="M1636.41 531.056C1637.2 531.28 1637.67 532.108 1637.44 532.905L1618.94 598.905C1618.72 599.703 1617.89 600.168 1617.1 599.945C1616.3 599.721 1615.83 598.893 1616.06 598.096L1634.56 532.096C1634.78 531.298 1635.61 530.832 1636.41 531.056Z" fill="#171625"/>
<path d="M740.078 416.454C765.925 374.781 783.359 355.302 822.895 365.286C875.118 378.474 858.914 444.111 856.654 464.456C854.545 483.446 886.302 473.323 918.371 541.47C939.471 586.307 903.446 640.346 847.16 636.419C801.795 633.255 668.339 644.332 645.656 608.99C628.445 582.173 635.106 533.03 665.701 513.513C680.029 504.372 660.589 496.633 681.526 464.456C693.685 445.769 733.477 427.096 740.078 416.454Z" fill="#CD764F"/>
<path fill-rule="evenodd" clip-rule="evenodd" d="M860.258 402.616C856.675 379.96 835.405 364.499 812.749 368.081C790.094 371.664 774.632 392.934 778.215 415.59L778.654 418.37C775.522 417.758 772.253 417.954 769.119 419.099C759.185 422.73 754.369 434.533 758.364 445.461C761.827 454.935 770.775 460.642 779.568 459.626L774.307 507.258C772.831 520.622 781.239 533.092 794.182 536.735L794.819 536.914C812.354 541.849 829.752 528.671 829.752 510.455V487.013C830.34 486.945 830.929 486.865 831.518 486.772C854.174 483.189 869.636 461.919 866.053 439.263L860.258 402.616Z" fill="#F9E0CE"/>
<path fill-rule="evenodd" clip-rule="evenodd" d="M766.001 428.434C766.038 427.606 766.738 426.965 767.566 427.001L767.5 428.5C767.566 427.001 767.566 427.001 767.566 427.001L767.571 427.002L767.579 427.002L767.605 427.003C767.627 427.005 767.659 427.006 767.699 427.009C767.779 427.013 767.893 427.021 768.037 427.032C768.324 427.054 768.733 427.09 769.226 427.149C770.21 427.266 771.552 427.472 772.962 427.833C774.363 428.191 775.894 428.716 777.222 429.498C778.543 430.275 779.793 431.384 780.4 432.962C780.58 433.428 780.724 433.996 780.817 434.4C780.865 434.612 780.904 434.798 780.931 434.932C780.945 435 780.956 435.054 780.963 435.093L780.965 435.101L783.952 446.624C784.16 447.425 783.678 448.244 782.876 448.452C782.075 448.66 781.256 448.178 781.048 447.376L778.254 436.6C775.868 435.845 774.25 435.573 772.922 435.606C771.491 435.641 770.27 436.033 768.629 436.791C767.876 437.138 766.985 436.809 766.638 436.057C766.291 435.305 766.619 434.414 767.371 434.067C769.178 433.233 770.829 432.657 772.847 432.607C774.108 432.576 775.461 432.751 777.035 433.137C776.706 432.766 776.262 432.414 775.701 432.083C774.708 431.499 773.474 431.06 772.219 430.739C770.975 430.421 769.771 430.235 768.873 430.128C768.426 430.075 768.059 430.042 767.808 430.023C767.682 430.013 767.585 430.007 767.521 430.003C767.489 430.001 767.466 430 767.451 429.999L767.436 429.999L767.434 429.999V429.999M766.001 428.434C765.965 429.261 766.607 429.962 767.434 429.999Z" fill="#F1BFA9"/>
<path d="M874.215 434.433L850.852 396.409L858.181 443.137L874.215 434.433Z" fill="#F9E0CE"/>
<path d="M808.125 479.753L829.752 487.138L829.752 497.688L808.125 479.753Z" fill="#171625"/>
<path d="M804.432 406.432C833.972 372.145 856.127 390.079 856.127 390.079C856.127 390.079 838.72 352.1 790.19 372.671C768.897 385.492 761.178 424.894 761.178 424.894C761.178 424.894 764.09 420.473 769.618 419.091C773.838 418.036 778.585 418.564 778.585 418.564C778.585 418.564 790.798 422.258 804.432 406.432Z" fill="#CD764F"/>
<path fill-rule="evenodd" clip-rule="evenodd" d="M846.043 413.512C844.418 413.837 843.365 415.417 843.69 417.042L844.745 422.317C845.07 423.942 846.65 424.995 848.275 424.67C849.899 424.345 850.953 422.765 850.628 421.14L849.573 415.865C849.248 414.241 847.668 413.187 846.043 413.512Z" fill="#171625"/>
<path fill-rule="evenodd" clip-rule="evenodd" d="M842.848 439.353C842.093 439.695 841.759 440.584 842.101 441.339L843.467 440.719C842.101 441.339 842.101 441.339 842.101 441.339L842.103 441.342L842.105 441.347L842.111 441.361L842.132 441.406C842.15 441.443 842.174 441.493 842.206 441.556C842.268 441.683 842.359 441.859 842.477 442.072C842.713 442.499 843.061 443.081 843.518 443.718C844.413 444.964 845.814 446.541 847.709 447.463C849.524 448.347 851.174 448.562 852.388 448.549C852.993 448.542 853.49 448.478 853.848 448.412C854.026 448.379 854.171 448.346 854.277 448.319C854.33 448.305 854.374 448.293 854.408 448.283C854.425 448.278 854.439 448.274 854.451 448.27L854.467 448.265L854.474 448.263L854.478 448.261C854.478 448.261 854.48 448.261 854.017 446.834L854.48 448.261C855.268 448.006 855.699 447.16 855.444 446.372C855.19 445.588 854.352 445.157 853.568 445.403C853.564 445.404 853.551 445.408 853.529 445.413C853.486 445.424 853.411 445.442 853.305 445.462C853.094 445.501 852.768 445.544 852.354 445.549C851.529 445.558 850.353 445.414 849.022 444.766C847.771 444.157 846.722 443.036 845.955 441.968C845.581 441.447 845.294 440.968 845.103 440.621C845.008 440.449 844.937 440.311 844.892 440.22C844.869 440.175 844.853 440.141 844.843 440.12L844.833 440.099L844.832 440.097L844.833 440.099C844.49 439.344 843.602 439.011 842.848 439.353Z" fill="#DB3915"/>
<path fill-rule="evenodd" clip-rule="evenodd" d="M731.345 395.005L735.486 370.156C735.718 368.762 736.632 367.577 737.921 366.999L815.667 332.113C817.177 331.435 818.944 331.703 820.186 332.798L837.783 348.317C837.816 348.346 837.848 348.375 837.88 348.404C855.852 343.558 868.253 342.762 870.241 347.191C873.861 355.26 841.568 377.609 798.113 397.109C754.657 416.61 716.494 425.878 712.874 417.81C711.054 413.755 718.305 406.094 731.485 397C731.287 396.389 731.226 395.713 731.345 395.005Z" fill="#C2BBFF"/>
<path d="M602.929 1341.16C584.766 1335.46 599.632 1301.47 603.433 1276.61C605.229 1264.86 597.093 1255.31 586.549 1249.82L573.883 1243.24C549.909 1230.78 520.379 1240.54 508.552 1264.83L463.635 1357.09C459.752 1365.07 465.56 1374.36 474.43 1374.36L697.823 1374.36C698.21 1374.36 698.594 1374.3 698.964 1374.19C702.947 1373 702.745 1367.12 698.699 1366.17C670.151 1359.5 622.078 1347.16 602.929 1341.16Z" fill="#171625"/>
<path d="M849.412 842.333C859.038 821.441 859.118 797.399 849.633 776.443C820.403 711.861 727.592 715.144 702.998 781.63L619.02 1008.65C603.99 1049.28 629.141 1093.66 671.721 1101.65C703.225 1107.55 734.711 1091.29 748.123 1062.18L849.412 842.333Z" fill="#97F7F5"/>
<path d="M637.744 1303.7L778.066 999.986C788.581 977.226 786.804 950.681 773.347 929.526C741.972 880.201 668.408 885.295 644.13 938.473L477.385 1303.7H637.744Z" fill="#97F7F5"/>
<path d="M1197.05 1337.84C1180.73 1332.72 1147.13 1290.04 1125.63 1257.5C1113.61 1239.3 1091.29 1227.72 1069.84 1231.66C1042 1236.77 1025.75 1266.01 1036.09 1292.35L1062.41 1359.41C1064.19 1363.95 1068.54 1366.96 1073.41 1367.03L1286 1370.06C1289.43 1370.11 1292.02 1366.97 1291.32 1363.61C1290.88 1361.52 1289.26 1359.9 1287.17 1359.46C1264.33 1354.72 1219.25 1344.8 1197.05 1337.84Z" fill="#171625"/>
<path d="M719.706 838.03C697.225 799.912 710.147 750.775 748.471 728.649C786.683 706.587 835.549 719.814 857.416 758.137L977.985 969.44C1000.27 1008.49 984.937 1058.24 944.542 1077.98C908.031 1095.82 863.939 1082.58 843.295 1047.58L719.706 838.03Z" fill="#97F7F5"/>
<path d="M847.891 1056.02C824.174 1018.47 836.451 968.721 874.918 946.512C912.584 924.766 960.755 937.919 982.142 975.79L1165.24 1300.01L1009.63 1312.14L847.891 1056.02Z" fill="#97F7F5"/>
<path fill-rule="evenodd" clip-rule="evenodd" d="M727.285 835.683C728.013 835.288 728.923 835.558 729.319 836.286L795.819 958.786C796.214 959.514 795.944 960.424 795.216 960.82C794.488 961.215 793.577 960.945 793.182 960.217L726.682 837.717C726.287 836.989 726.557 836.078 727.285 835.683Z" fill="#171625"/>
<path d="M1082.95 799.418L1069.14 791.313C1055.55 783.344 1038.06 789.264 1032.11 803.845C1026.69 817.113 1033.1 832.255 1046.39 837.607L1062.91 844.255L1099.3 876.96L1172.62 859.552L1153.3 842.065C1152.17 841.048 1152.74 839.183 1154.24 838.968L1183.65 834.767C1187.31 834.245 1189.38 830.291 1187.73 826.985C1186.87 825.266 1185.16 824.131 1183.24 824.004L1138.86 821.045L1082.95 799.418Z" fill="#F9E0CE"/>
<path d="M804.156 611.854C787.994 595.692 787.994 569.489 804.156 553.328C820.317 537.166 846.52 537.166 862.681 553.328L972.191 662.837C988.352 678.999 988.352 705.202 972.191 721.363C956.029 737.525 929.826 737.525 913.665 721.363L804.156 611.854Z" fill="url(#paint3_linear_75_345)"/>
<path d="M1098.25 796.781L968.181 659.883C952.02 643.721 925.817 643.721 909.655 659.883C893.494 676.044 893.494 702.247 909.656 718.409L1047.08 860.607L1098.25 796.781Z" fill="url(#paint4_linear_75_345)"/>
<path d="M845.072 515.255C844.428 510.752 840.972 507.169 836.495 506.363L779.389 496.092C774.348 495.186 769.384 498.03 767.618 502.838L761.177 520.372L731.065 527.498C709.212 532.669 695.237 554.049 699.269 576.14L729.527 741.92H843.466L862.456 688.116L882.065 617.82C887.331 598.943 883.556 578.692 871.843 562.98L847.159 529.867L845.072 515.255Z" fill="url(#paint5_linear_75_345)"/>
<path fill-rule="evenodd" clip-rule="evenodd" d="M867.344 556.653C868.089 556.29 868.986 556.6 869.349 557.345L876.883 572.819C884.125 587.696 885.984 604.624 882.142 620.718L869.459 673.85C869.267 674.655 868.458 675.153 867.652 674.96C866.846 674.768 866.349 673.959 866.541 673.153L879.224 620.021C882.905 604.603 881.124 588.385 874.185 574.133L866.652 558.658C866.289 557.913 866.599 557.015 867.344 556.653Z" fill="#171625"/>
<path d="M507.799 968.672L543.348 938.201C545.427 936.418 547.216 934.323 548.651 931.99L574.705 889.619L588.705 860.677C594.258 849.197 591.193 835.406 581.3 827.359C569.003 817.358 550.82 819.791 541.586 832.674L523.834 857.442L501.282 876.804C493.89 883.152 488.063 891.12 484.254 900.088L458.919 959.749C457.999 961.915 458.727 964.429 460.662 965.768C462.69 967.173 465.443 966.873 467.122 965.065L477.912 953.446L475.784 960.893C474.735 964.563 477.491 968.216 481.307 968.216C483.15 968.216 484.881 967.331 485.961 965.838L524.148 913.036C525.775 910.787 528.791 910.047 531.273 911.288C534.492 912.898 535.414 917.061 533.176 919.879L500.224 961.375C497.754 964.486 499.47 969.107 503.372 969.85C504.95 970.151 506.579 969.717 507.799 968.672Z" fill="#F9E0CE"/>
<path fill-rule="evenodd" clip-rule="evenodd" d="M500.839 916.29C501.549 916.716 501.78 917.638 501.353 918.348L479.199 955.273C478.772 955.983 477.851 956.214 477.141 955.787C476.43 955.361 476.2 954.44 476.626 953.729L498.781 916.805C499.207 916.094 500.129 915.864 500.839 916.29Z" fill="#F1BFA9"/>
<path d="M702.09 548.299C713.517 528.505 738.828 521.723 758.621 533.151C778.415 544.579 785.197 569.889 773.769 589.683L696.334 723.804C684.906 743.597 659.596 750.379 639.802 738.951C620.009 727.523 613.227 702.213 624.655 682.419L702.09 548.299Z" fill="url(#paint6_linear_75_345)"/>
<path fill-rule="evenodd" clip-rule="evenodd" d="M775.225 584.189C775.95 584.59 776.213 585.503 775.812 586.227L721.312 684.727C720.911 685.452 719.998 685.715 719.273 685.314C718.548 684.913 718.286 684 718.687 683.275L773.187 584.775C773.588 584.05 774.501 583.788 775.225 584.189Z" fill="#171625"/>
<path d="M621.93 686.503C633.358 666.709 658.668 659.927 678.462 671.355C698.256 682.783 705.038 708.093 693.61 727.887L595.483 897.847L523.804 856.463L621.93 686.503Z" fill="url(#paint7_linear_75_345)"/>
<path d="M300.854 931.288C307.867 921.981 321.096 920.122 330.403 927.135L430.65 1002.68C439.957 1009.69 441.816 1022.92 434.803 1032.23L229.648 1304.48C222.635 1313.78 209.405 1315.64 200.098 1308.63L99.8511 1233.09C90.5445 1226.07 88.6852 1212.84 95.6982 1203.54L300.854 931.288Z" fill="#FFB99B"/>
<path d="M532.305 904.148C534.322 901.507 538.098 901 540.739 903.017C543.381 905.034 543.887 908.81 541.87 911.452L228.438 1321.95C226.421 1324.59 222.645 1325.1 220.004 1323.08C217.362 1321.07 216.856 1317.29 218.873 1314.65L532.305 904.148Z" fill="#FFB99B"/>
<path d="M225.241 1327.97C225.241 1341.95 213.905 1353.29 199.921 1353.29C185.938 1353.29 174.602 1341.95 174.602 1327.97C174.602 1313.99 185.938 1302.65 199.921 1302.65C213.905 1302.65 225.241 1313.99 225.241 1327.97Z" fill="#171625"/>
<path fill-rule="evenodd" clip-rule="evenodd" d="M216.234 1229.39L357.926 1040.18C367.05 1027.99 364.57 1010.72 352.386 1001.6C340.202 992.473 322.929 994.953 313.805 1007.14L172.112 1196.35C162.988 1208.53 165.469 1225.81 177.653 1234.93C189.837 1244.06 207.11 1241.57 216.234 1229.39ZM354.184 999.195C340.674 989.078 321.52 991.829 311.403 1005.34L169.711 1194.55C159.594 1208.06 162.344 1227.22 175.855 1237.33C189.365 1247.45 208.518 1244.7 218.635 1231.19L360.328 1041.98C370.445 1028.47 367.694 1009.31 354.184 999.195Z" fill="white"/>
<path d="M1097.92 869.99C1095.56 861.207 1100.78 852.179 1109.56 849.826L1171.54 833.217C1180.33 830.864 1189.35 836.076 1191.71 844.859C1194.06 853.642 1188.85 862.67 1180.06 865.023L1118.08 881.631C1109.3 883.985 1100.27 878.773 1097.92 869.99Z" fill="#FBC3DE"/>
<path fill-rule="evenodd" clip-rule="evenodd" d="M1421.96 741.385C1423.42 742.166 1423.97 743.984 1423.19 745.445L1390.36 806.81L1162.7 855.101C1161.08 855.445 1159.48 854.41 1159.14 852.789C1158.8 851.168 1159.83 849.576 1161.45 849.232L1386.38 801.519L1417.9 742.615C1418.68 741.154 1420.5 740.603 1421.96 741.385Z" fill="#FBC3DE"/>
<path d="M1343.45 742.636C1337.49 741.041 1333.96 734.923 1335.56 728.971L1350.62 672.734C1352.22 666.782 1358.34 663.25 1364.29 664.845L1497.04 700.416C1503 702.011 1506.53 708.129 1504.93 714.081L1489.86 770.318C1488.27 776.27 1482.15 779.802 1476.2 778.207L1343.45 742.636Z" fill="#FFB99B"/>
<path d="M1347.08 740.458C1341.12 738.863 1337.59 732.745 1339.19 726.793L1341.49 718.202C1342.09 715.956 1343.66 714.092 1345.76 713.112C1347.87 712.132 1349.44 710.268 1350.04 708.022L1352.98 697.076C1353.5 695.124 1352.95 693.041 1351.53 691.602C1350.11 690.164 1349.56 688.081 1350.08 686.129L1352.71 676.337C1354.3 670.385 1360.42 666.853 1366.37 668.447L1493.44 702.496C1499.39 704.091 1502.93 710.209 1501.33 716.161L1487.81 766.618C1486.22 772.57 1480.1 776.102 1474.15 774.507L1347.08 740.458Z" fill="white"/>
<path d="M1398.04 749.371C1398.96 745.999 1402.44 744.012 1405.81 744.934L1428.76 751.205C1432.13 752.127 1434.12 755.608 1433.2 758.98L1432.65 760.99C1431.73 764.362 1428.24 766.349 1424.87 765.427L1401.92 759.155C1398.55 758.234 1396.56 754.753 1397.49 751.381L1398.04 749.371Z" fill="#FBC3DE"/>
<path d="M1413.27 684.2C1414.19 680.828 1417.67 678.841 1421.05 679.763L1444 686.034C1447.37 686.956 1449.35 690.437 1448.43 693.809L1447.88 695.819C1446.96 699.191 1443.48 701.178 1440.11 700.256L1417.16 693.985C1413.79 693.063 1411.8 689.582 1412.72 686.21L1413.27 684.2Z" fill="#FBC3DE"/>
<path fill-rule="evenodd" clip-rule="evenodd" d="M1154.85 850.206C1156.94 848.035 1160.12 847.053 1163.22 847.921C1167.71 849.178 1170.33 853.835 1169.07 858.324L1162.46 881.956C1161.2 886.445 1156.54 889.065 1152.05 887.808C1149.79 887.176 1148.01 885.682 1146.95 883.781C1145.28 887.281 1141.34 889.269 1137.41 888.342C1134.44 887.643 1132.21 885.455 1131.32 882.754L1131.13 883.482C1129.98 887.998 1125.39 890.726 1120.87 889.573C1116.35 888.421 1113.63 883.825 1114.78 879.308L1121.62 852.493C1122.77 847.976 1127.37 845.249 1131.89 846.402C1134.48 847.064 1136.49 848.864 1137.5 851.132L1138.2 848.193C1139.26 843.656 1143.81 840.844 1148.35 841.913C1152.26 842.836 1154.89 846.346 1154.85 850.206Z" fill="#F9E0CE"/>
<path fill-rule="evenodd" clip-rule="evenodd" d="M1138.15 853.344C1138.96 853.534 1139.46 854.341 1139.27 855.148L1132.94 882.05C1132.75 882.856 1131.94 883.356 1131.14 883.166C1130.33 882.977 1129.83 882.169 1130.02 881.363L1136.35 854.46C1136.54 853.654 1137.35 853.154 1138.15 853.344ZM1154 854.931C1154.8 855.132 1155.29 855.947 1155.09 856.75L1148.23 884.18C1148.03 884.984 1147.22 885.472 1146.41 885.272C1145.61 885.071 1145.12 884.256 1145.32 883.453L1152.18 856.023C1152.38 855.219 1153.2 854.73 1154 854.931Z" fill="#F1BFA9"/>
<path fill-rule="evenodd" clip-rule="evenodd" d="M754.5 742.001C754.5 741.173 755.172 740.501 756 740.501H841C841.828 740.501 842.5 741.173 842.5 742.001C842.5 742.829 841.828 743.501 841 743.501H756C755.172 743.501 754.5 742.829 754.5 742.001Z" fill="#171625"/>
<path d="M2079 1514C2079 1475.54 2063.72 1438.66 2036.53 1411.47C2009.34 1384.28 1972.46 1369 1934 1369C1895.54 1369 1858.66 1384.28 1831.47 1411.47C1804.28 1438.66 1789 1475.54 1789 1514L2079 1514Z" fill="#C2BBFF"/>
<path fill-rule="evenodd" clip-rule="evenodd" d="M1927.27 1367.76C1928.1 1367.76 1928.77 1368.43 1928.77 1369.26V1425.89L1977.2 1375.98C1977.78 1375.39 1978.73 1375.37 1979.32 1375.95C1979.92 1376.53 1979.93 1377.48 1979.35 1378.07L1928.77 1430.2V1511.87L2032.23 1449.71C2032.94 1449.29 2033.86 1449.52 2034.29 1450.23C2034.71 1450.94 2034.48 1451.86 2033.77 1452.29L1928.04 1515.8C1927.63 1516.05 1927.12 1516.09 1926.68 1515.9L1854.57 1485.35C1853.81 1485.02 1853.45 1484.14 1853.78 1483.38C1854.1 1482.62 1854.98 1482.26 1855.74 1482.58L1923.68 1511.37L1864.35 1410.15C1863.93 1409.44 1864.17 1408.52 1864.88 1408.1C1865.6 1407.68 1866.52 1407.92 1866.94 1408.63L1925.77 1508.99V1369.26C1925.77 1368.43 1926.44 1367.76 1927.27 1367.76Z" fill="white"/>
<path d="M2155 1513.5C2155 1493.21 2146.94 1473.75 2132.59 1459.41C2118.25 1445.06 2098.79 1437 2078.5 1437C2058.21 1437 2038.75 1445.06 2024.41 1459.41C2010.06 1473.75 2002 1493.21 2002 1513.5L2155 1513.5Z" fill="#FBF7B8"/>
<path d="M457 1513.5C457 1493.21 448.94 1473.75 434.594 1459.41C420.247 1445.06 400.789 1437 380.5 1437C360.211 1437 340.753 1445.06 326.406 1459.41C312.06 1473.75 304 1493.21 304 1513.5L457 1513.5Z" fill="#FBF7B8"/>
<path d="M489 1514C489 1502.6 484.522 1491.66 476.552 1483.59C468.582 1475.53 457.772 1471 446.5 1471C435.228 1471 424.418 1475.53 416.448 1483.59C408.478 1491.66 404 1502.6 404 1514L489 1514Z" fill="#C2BBFF"/>
<defs>
<linearGradient id="paint0_linear_75_345" x1="1183.23" y1="661.101" x2="1425.21" y2="234.911" gradientUnits="userSpaceOnUse">
<stop stop-color="#FFB99B"/>
<stop offset="1" stop-color="#FBF7B8"/>
</linearGradient>
<linearGradient id="paint1_linear_75_345" x1="1373.66" y1="478" x2="1713.18" y2="521.019" gradientUnits="userSpaceOnUse">
<stop stop-color="#FFB99B"/>
<stop offset="1" stop-color="#FBF7B8"/>
</linearGradient>
<linearGradient id="paint2_linear_75_345" x1="1426.51" y1="423" x2="1634.89" y2="495.927" gradientUnits="userSpaceOnUse">
<stop stop-color="#FFB99B"/>
<stop offset="1" stop-color="#FBF7B8"/>
</linearGradient>
<linearGradient id="paint3_linear_75_345" x1="738.495" y1="681.786" x2="902.359" y2="566.185" gradientUnits="userSpaceOnUse">
<stop stop-color="#97F7F5"/>
<stop offset="1" stop-color="#FBF7B8"/>
</linearGradient>
<linearGradient id="paint4_linear_75_345" x1="839.038" y1="793.686" x2="1010.1" y2="674.476" gradientUnits="userSpaceOnUse">
<stop stop-color="#97F7F5"/>
<stop offset="1" stop-color="#FBF7B8"/>
</linearGradient>
<linearGradient id="paint5_linear_75_345" x1="620.863" y1="518.262" x2="864.04" y2="510.023" gradientUnits="userSpaceOnUse">
<stop stop-color="#97F7F5"/>
<stop offset="1" stop-color="#FBF7B8"/>
</linearGradient>
<linearGradient id="paint6_linear_75_345" x1="677.84" y1="434.3" x2="878.945" y2="517.57" gradientUnits="userSpaceOnUse">
<stop stop-color="#97F7F5"/>
<stop offset="1" stop-color="#FBF7B8"/>
</linearGradient>
<linearGradient id="paint7_linear_75_345" x1="597.681" y1="572.504" x2="798.786" y2="655.774" gradientUnits="userSpaceOnUse">
<stop stop-color="#97F7F5"/>
<stop offset="1" stop-color="#FBF7B8"/>
</linearGradient>
</defs>
</svg>
