<svg width="2238" height="1678" viewBox="0 0 2238 1678" fill="none" xmlns="http://www.w3.org/2000/svg">
<path fill-rule="evenodd" clip-rule="evenodd" d="M332.5 1045.5C332.5 1044.67 333.172 1044 334 1044H2003.5C2004.33 1044 2005 1044.67 2005 1045.5C2005 1046.33 2004.33 1047 2003.5 1047H334C333.172 1047 332.5 1046.33 332.5 1045.5Z" fill="#171625"/>
<path d="M1613.98 1348.16C1588.47 1340.16 1539.22 1268.8 1511.73 1221.16C1500.1 1200.99 1476.77 1188.44 1453.87 1192.64L1412.16 1200.31C1385.12 1205.27 1367.76 1231.89 1374.11 1258.64L1404.25 1385.56C1405.54 1390.97 1410.37 1394.79 1415.94 1394.79L1742.39 1394.79C1747.34 1394.79 1751.04 1390.24 1750.03 1385.4C1749.39 1382.35 1747.03 1379.98 1743.98 1379.35C1711 1372.5 1646 1358.2 1613.98 1348.16Z" fill="#171625"/>
<path d="M919.614 1100.19C901.602 1032.97 941.494 963.873 1008.72 945.861L1360.07 851.715C1427.29 833.703 1496.39 873.595 1514.4 940.816C1532.41 1008.04 1492.52 1077.13 1425.3 1095.14L1073.94 1189.29C1006.72 1207.3 937.626 1167.41 919.614 1100.19Z" fill="#C2BBFF"/>
<path d="M1367.85 851.117C1435.22 833.066 1505.01 870.522 1527.2 936.64L1647.09 1293.79L1382 1293.79L1278.82 1026.15C1250.6 952.945 1292.07 871.424 1367.85 851.117Z" fill="#C2BBFF"/>
<path fill-rule="evenodd" clip-rule="evenodd" d="M1286.07 1004.56C1286.86 1004.32 1287.7 1004.77 1287.94 1005.57L1343.94 1191.07C1344.18 1191.86 1343.73 1192.7 1342.93 1192.94C1342.14 1193.18 1341.3 1192.73 1341.06 1191.93L1285.06 1006.43C1284.82 1005.64 1285.27 1004.8 1286.07 1004.56Z" fill="#171625"/>
<path d="M536.094 1407.16L620.094 1293H474.389C449.132 1293 425.213 1303.1 405.022 1318.27C362.938 1349.9 316.282 1369.69 236.617 1399.37C232.432 1400.93 233.539 1407.16 238.005 1407.16H536.094Z" fill="#171625"/>
<path d="M602 1240L1072.18 1160.49C1147.92 1147.68 1217 1206.06 1217 1282.88C1217 1351.43 1161.43 1407 1092.88 1407H476L602 1240Z" fill="#C2BBFF"/>
<path d="M758.543 931.666C809.549 880.66 892.247 880.66 943.253 931.666L1179.6 1168.01C1230.61 1219.02 1230.61 1301.72 1179.6 1352.72C1128.6 1403.73 1045.9 1403.73 994.891 1352.72L758.543 1116.38C707.537 1065.37 707.536 982.672 758.543 931.666Z" fill="#C2BBFF"/>
<path fill-rule="evenodd" clip-rule="evenodd" d="M1060.94 1045.94C1061.53 1045.35 1062.47 1045.35 1063.06 1045.94L1187.06 1169.94C1187.65 1170.53 1187.65 1171.47 1187.06 1172.06C1186.47 1172.65 1185.53 1172.65 1184.94 1172.06L1060.94 1048.06C1060.35 1047.47 1060.35 1046.53 1060.94 1045.94Z" fill="#171625"/>
<path fill-rule="evenodd" clip-rule="evenodd" d="M958.983 1181.77C959.108 1182.59 958.545 1183.36 957.726 1183.48L714.726 1220.48C713.907 1220.61 713.142 1220.04 713.017 1219.23C712.893 1218.41 713.455 1217.64 714.274 1217.52L957.274 1180.52C958.093 1180.39 958.858 1180.96 958.983 1181.77Z" fill="#171625"/>
<path d="M502.378 482.39L494.673 490.989C462.45 526.953 464.351 581.937 498.98 615.59L688.076 799.357C727.613 837.78 793.254 825.633 816.423 775.605L842.711 718.844C858.387 684.997 848.591 644.809 819.099 621.971L624.512 471.289C587.189 442.388 533.879 447.233 502.378 482.39Z" fill="url(#paint0_linear_87_2)"/>
<path d="M963.488 708.419C969.28 656.272 1016.25 618.695 1068.39 624.488L1378.44 658.928C1430.59 664.72 1468.17 711.689 1462.38 763.835C1456.58 815.981 1409.61 853.559 1357.47 847.766L1047.42 813.326C995.272 807.534 957.695 760.565 963.488 708.419Z" fill="url(#paint1_linear_87_2)"/>
<path d="M1051.84 623.647L840.707 617.249C780.317 615.419 728.795 660.602 722.726 720.714L720.611 741.667C716.487 782.509 687.117 850.837 681.5 891.5C669.548 978.02 740 1090.5 740 1090.5L1072.5 932.5L1070.99 930.094C1048.96 895.084 1053.64 849.572 1082.32 819.769L1113.07 787.814C1127.57 772.744 1136.37 753.093 1137.95 732.238L1138.85 720.434C1142.75 669.264 1103.13 625.201 1051.84 623.647Z" fill="url(#paint2_linear_87_2)"/>
<path d="M833 620L915.351 686.733C918.433 689.23 921.87 691.256 925.548 692.742L968.074 709.927C983.147 716.019 1000.41 712.381 1011.74 700.724L1038.88 672.808C1043.23 668.331 1046.48 662.899 1048.35 656.945L1057 629.5C1057 629.5 1048.99 553 947 553C886 553 871 590.5 871 590.5C871 590.5 851.1 589.778 842 601.5C834.935 610.6 833 620 833 620Z" fill="#FFB99B"/>
<path d="M1053 453C1053 509.333 1019.33 551 963 551C906.667 551 871 535 850 457C831.386 387.862 929.167 327.5 985.5 327.5C1041.83 327.5 1053 396.667 1053 453Z" fill="#744F3A"/>
<path d="M916 480L1028 561V631.5C1028 635.461 1027.22 639.382 1025.69 643.038L1017.84 661.896C1008.32 684.721 978.786 690.754 961.086 673.486L925.05 638.33C919.263 632.684 916 624.941 916 616.856V480Z" fill="#DD9576"/>
<path d="M1027 585L925.5 529.5L1027 632.5V585Z" fill="#171625"/>
<path d="M912.023 478.16C898.203 436.195 921.02 390.971 962.986 377.151L966.411 376.023C1008.38 362.203 1053.6 385.02 1067.42 426.986L1085.45 481.735C1099.27 523.701 1076.45 568.924 1034.49 582.744L1031.06 583.872C989.097 597.692 943.873 574.876 930.053 532.91L912.023 478.16Z" fill="#DD9576"/>
<path d="M910.018 489.054C922.601 502.21 933.501 511.616 933.501 511.616C933.501 511.616 915.341 466.839 918.117 450.317C923.007 421.207 955.416 399.205 982.122 394.601C1009.96 389.802 1034.16 389.067 1053.5 401.499C1079 406 1093 367 1079 349.5C1073.11 342.14 1062.19 337.335 1056.25 340.552C1058.17 335.206 1057.86 330.14 1056.25 324.322C1051.46 306.973 1033.22 313.097 1015.11 324.321C1004.45 291.919 936.68 337.402 907.067 372.499C894.634 387.233 881.02 399.989 883.001 430.999C883.9 445.075 899.888 478.463 910.018 489.054Z" fill="#744F3A"/>
<path d="M955.808 503.941C961.383 524.746 950.766 545.668 932.094 550.671C913.423 555.674 893.768 542.864 888.193 522.059C882.618 501.253 893.235 480.332 911.906 475.329C930.578 470.326 950.233 483.136 955.808 503.941Z" fill="#DD9576"/>
<path fill-rule="evenodd" clip-rule="evenodd" d="M1012.26 452.769C1011.54 453.177 1011.29 454.092 1011.69 454.813L1032.39 491.385L1017.83 496.747C1017.06 497.034 1016.66 497.896 1016.94 498.673C1017.23 499.451 1018.09 499.849 1018.87 499.562L1035.08 493.59C1035.49 493.438 1035.82 493.112 1035.97 492.699C1036.12 492.286 1036.08 491.827 1035.87 491.444L1014.31 453.336C1013.9 452.615 1012.98 452.361 1012.26 452.769Z" fill="#CD764F"/>
<path d="M990.819 509.565C985.206 508.061 979.205 511.525 980.058 517.273C980.528 520.444 981.592 523.528 983.225 526.358C986.636 532.265 992.253 536.575 998.842 538.341C1005.43 540.106 1012.45 539.182 1018.36 535.772C1021.19 534.138 1023.65 531.998 1025.64 529.488C1029.25 524.936 1025.79 518.936 1020.18 517.432L990.819 509.565Z" fill="white"/>
<path fill-rule="evenodd" clip-rule="evenodd" d="M902.873 508.672L902.876 508.672L902.89 508.67L902.953 508.661C903.01 508.654 903.097 508.643 903.21 508.63C903.436 508.603 903.768 508.567 904.182 508.529C905.012 508.454 906.166 508.372 907.46 508.35C910.11 508.304 913.117 508.512 915.183 509.359C915.575 509.52 915.964 509.717 916.349 509.947C916.234 509.961 916.118 509.975 916.001 509.99C913.736 510.276 910.796 510.829 908.623 511.94C907.468 512.531 906.177 513.46 905.22 514.197C904.731 514.573 904.309 514.915 904.009 515.163C903.859 515.288 903.738 515.389 903.655 515.46C903.613 515.495 903.581 515.523 903.558 515.543L903.532 515.565L903.522 515.573L903.521 515.574C903.521 515.574 903.521 515.574 904.503 516.708L903.521 515.574C902.895 516.117 902.827 517.064 903.37 517.69C903.912 518.316 904.86 518.384 905.486 517.842V517.842L905.491 517.837L905.511 517.819C905.53 517.803 905.559 517.779 905.596 517.747C905.671 517.684 905.782 517.59 905.921 517.475C906.201 517.244 906.595 516.924 907.05 516.574C907.981 515.857 909.091 515.07 909.989 514.611C911.669 513.752 914.167 513.246 916.378 512.966C917.457 512.829 918.423 512.752 919.118 512.709C919.279 512.699 919.425 512.691 919.555 512.684C921.732 515.102 923.515 518.235 924.79 520.889C925.464 522.295 925.984 523.54 926.335 524.431C926.51 524.877 926.642 525.233 926.73 525.475C926.774 525.597 926.807 525.689 926.828 525.751L926.852 525.819L926.857 525.834L926.858 525.837V525.837C927.122 526.622 927.973 527.044 928.758 526.78C929.543 526.515 929.965 525.665 929.701 524.879L928.279 525.358C929.701 524.879 929.701 524.879 929.701 524.879L929.7 524.876L929.698 524.869L929.69 524.846L929.661 524.763C929.636 524.691 929.599 524.587 929.551 524.454C929.455 524.188 929.313 523.807 929.127 523.334C928.755 522.389 928.207 521.075 927.494 519.591C926.081 516.648 923.975 512.93 921.263 510.117C919.834 508.635 918.185 507.348 916.322 506.584C913.652 505.488 910.116 505.303 907.408 505.35C906.023 505.374 904.793 505.461 903.909 505.542C903.467 505.582 903.109 505.621 902.86 505.65C902.736 505.665 902.638 505.677 902.571 505.686L902.493 505.696L902.471 505.699L902.462 505.7C902.462 505.7 902.461 505.7 902.667 507.186L902.461 505.7C901.641 505.814 901.068 506.572 901.181 507.392C901.295 508.213 902.053 508.785 902.873 508.672Z" fill="#CD764F"/>
<path d="M994 363C994 357.477 998.477 353 1004 353H1052.23C1054.63 353 1056.95 352.137 1058.76 350.568L1078.61 333.432C1080.42 331.863 1082.74 331 1085.14 331H1105.43C1107.86 331 1110.22 331.891 1112.05 333.507L1131.27 350.493C1133.1 352.109 1135.45 353 1137.89 353H1182C1187.52 353 1192 357.477 1192 363V475C1192 480.523 1187.52 485 1182 485H1004C998.477 485 994 480.523 994 475V363Z" fill="#BCECFF"/>
<path d="M1143 419C1143 446.614 1120.84 469 1093.5 469C1066.16 469 1044 446.614 1044 419C1044 391.386 1066.16 369 1093.5 369C1120.84 369 1143 391.386 1143 419Z" fill="#FBC3DE"/>
<path d="M1134 419.5C1134 441.315 1116.09 459 1094 459C1071.91 459 1054 441.315 1054 419.5C1054 397.685 1071.91 380 1094 380C1116.09 380 1134 397.685 1134 419.5Z" fill="white"/>
<path d="M1253.97 541.613L1267.5 531.442C1286.66 517.046 1288.94 489.154 1272.39 471.831L1243.36 441.459L1208.37 389.461C1206.28 386.357 1203.37 383.901 1199.95 382.372L1162.5 365.608L1100.2 353.865C1094.49 352.789 1090.28 359.084 1093.46 363.945C1094.17 365.03 1095.18 365.881 1096.37 366.393L1150.4 389.622C1157.74 392.779 1162.5 400.004 1162.5 407.996V449.887H1121.95C1118.27 449.887 1114.95 452.08 1113.5 455.463C1111.23 460.747 1114.32 466.788 1119.92 468.057L1156.32 476.294L1181.03 504.387L1195.11 529.312C1206.99 550.344 1234.66 556.126 1253.97 541.613Z" fill="#DD9576"/>
<path d="M1280.97 408L1452.23 704.626C1477.31 748.071 1462.42 803.625 1418.98 828.708C1371.25 856.267 1310.17 835.306 1289.41 784.244L1181 517.5L1280.97 408Z" fill="url(#paint3_linear_87_2)"/>
<path fill-rule="evenodd" clip-rule="evenodd" d="M1229.37 644.139C1230.12 643.791 1231.01 644.118 1231.36 644.87L1256.36 698.87C1256.71 699.622 1256.38 700.514 1255.63 700.862C1254.88 701.21 1253.99 700.882 1253.64 700.131L1228.64 646.131C1228.29 645.379 1228.62 644.487 1229.37 644.139Z" fill="#171625"/>
<path d="M1062.15 343.74L1006.69 260.103C999.331 249.009 986.336 243.025 973.124 244.647L897.805 253.897L841.3 264.241L809.632 285.787C784.426 302.936 782.057 339.211 804.818 359.493L817.398 370.702C831.81 383.545 852.625 386.231 869.826 377.469L871.029 376.856L910.757 328.379L965.07 319.556L998.517 340.489C1002.81 343.178 1008.35 342.798 1012.24 339.547L1031.81 323.19L1054.67 349.438C1055.56 350.465 1056.86 351.055 1058.22 351.055C1061.98 351.055 1064.23 346.872 1062.15 343.74Z" fill="#DD9576"/>
<path fill-rule="evenodd" clip-rule="evenodd" d="M994.792 282.252C995.205 281.534 996.122 281.287 996.84 281.7L1003.78 285.694C1011.19 289.955 1017.33 296.104 1021.59 303.513L1032.3 322.155C1032.71 322.873 1032.47 323.79 1031.75 324.203C1031.03 324.616 1030.11 324.368 1029.7 323.649L1018.99 305.007C1015 298.058 1009.23 292.291 1002.29 288.294L995.344 284.3C994.626 283.887 994.379 282.97 994.792 282.252ZM982.398 292.556C982.808 291.836 983.724 291.585 984.444 291.996L998.533 300.027C1004.33 303.333 1009.38 307.803 1013.37 313.156L1023.97 327.399C1024.47 328.063 1024.33 329.003 1023.67 329.498C1023 329.992 1022.06 329.855 1021.57 329.19L1010.96 314.947C1007.22 309.926 1002.49 305.734 997.047 302.633L982.958 294.602C982.239 294.192 981.988 293.276 982.398 292.556ZM967.578 307.182C967.843 306.397 968.693 305.975 969.479 306.239L982.604 310.663C991.987 313.825 1000.17 319.793 1006.05 327.758L1012.96 337.109C1013.45 337.776 1013.31 338.715 1012.64 339.207C1011.98 339.699 1011.04 339.558 1010.55 338.891L1003.64 329.54C998.124 322.069 990.446 316.472 981.646 313.506L968.52 309.082C967.735 308.818 967.313 307.967 967.578 307.182Z" fill="#CD764F"/>
<path d="M901 378.5L844.462 263L521.121 467.016C473.078 497.329 465.912 564.54 506.482 604.301C538.752 635.928 589.73 637.979 624.436 609.047L901 378.5Z" fill="url(#paint4_linear_87_2)"/>
<path fill-rule="evenodd" clip-rule="evenodd" d="M1784.58 520.516C1791.86 507.299 1795.92 492.554 1795.92 477.005C1795.92 420.117 1741.53 374 1674.43 374C1607.33 374 1552.94 420.117 1552.94 477.005C1552.94 492.554 1557 507.299 1564.28 520.517C1530.72 545.948 1509.62 582.824 1509.62 623.854C1509.62 655.065 1521.83 683.871 1542.44 707.065C1514.79 733.271 1498 767.769 1498 805.566C1498 887.544 1576.99 954 1674.43 954C1771.87 954 1850.86 887.544 1850.86 805.566C1850.86 767.769 1834.07 733.271 1806.42 707.065C1827.03 683.871 1839.24 655.065 1839.24 623.854C1839.24 582.824 1818.14 545.948 1784.58 520.516Z" fill="#FBC3DE"/>
<path fill-rule="evenodd" clip-rule="evenodd" d="M1673 536.5C1674.66 536.5 1676 537.843 1676 539.5V754.641L1726.89 665.019C1727.71 663.578 1729.54 663.073 1730.98 663.891C1732.42 664.709 1732.93 666.541 1732.11 667.981L1676 766.792V1044C1676 1045.66 1674.66 1047 1673 1047C1671.34 1047 1670 1045.66 1670 1044V842.38L1610.48 749.62C1609.58 748.226 1609.99 746.37 1611.38 745.475C1612.77 744.58 1614.63 744.985 1615.53 746.38L1670 831.27V691.39L1617.49 610.636C1616.58 609.247 1616.98 607.388 1618.36 606.485C1619.75 605.582 1621.61 605.976 1622.52 607.364L1670 680.384V539.5C1670 537.843 1671.34 536.5 1673 536.5Z" fill="#171625"/>
<path d="M1973.25 1042.3C1973.25 1009.88 1960.37 978.781 1937.45 955.854C1914.52 932.927 1883.42 920.047 1851 920.047C1818.58 920.047 1787.48 932.927 1764.55 955.854C1741.63 978.781 1728.75 1009.88 1728.75 1042.3L1851 1042.3H1973.25Z" fill="#FFB99B"/>
<path fill-rule="evenodd" clip-rule="evenodd" d="M1845.32 919C1846.02 919 1846.59 919.566 1846.59 920.265V968.011L1887.42 925.933C1887.91 925.432 1888.71 925.42 1889.21 925.906C1889.71 926.393 1889.73 927.193 1889.24 927.695L1846.59 971.643V1040.5L1933.82 988.098C1934.42 987.739 1935.19 987.932 1935.55 988.531C1935.91 989.13 1935.72 989.907 1935.12 990.266L1845.98 1043.82C1845.63 1044.03 1845.2 1044.06 1844.83 1043.9L1784.03 1018.14C1783.39 1017.87 1783.09 1017.12 1783.36 1016.48C1783.63 1015.84 1784.38 1015.54 1785.02 1015.81L1842.3 1040.08L1792.28 954.742C1791.92 954.139 1792.13 953.365 1792.73 953.011C1793.33 952.658 1794.11 952.86 1794.46 953.463L1844.06 1038.08V920.265C1844.06 919.566 1844.63 919 1845.32 919Z" fill="white"/>
<path d="M620.219 1040.83C620.219 1018.52 611.358 997.129 595.584 981.356C579.81 965.582 558.417 956.721 536.11 956.721C513.802 956.721 492.409 965.582 476.635 981.356C460.862 997.129 452 1018.52 452 1040.83L536.11 1040.83H620.219Z" fill="#FFB99B"/>
<path fill-rule="evenodd" clip-rule="evenodd" d="M532.205 956C532.685 956 533.075 956.39 533.075 956.87V989.72L561.169 960.77C561.504 960.425 562.054 960.417 562.399 960.752C562.744 961.086 562.752 961.637 562.418 961.982L533.075 992.218V1039.59L593.088 1003.54C593.5 1003.29 594.035 1003.43 594.282 1003.84C594.53 1004.25 594.396 1004.78 593.984 1005.03L532.653 1041.88C532.414 1042.02 532.122 1042.04 531.865 1041.93L490.036 1024.21C489.593 1024.02 489.387 1023.51 489.574 1023.07C489.762 1022.62 490.272 1022.42 490.715 1022.61L530.126 1039.3L495.708 980.59C495.464 980.176 495.604 979.643 496.018 979.4C496.433 979.157 496.966 979.296 497.209 979.71L531.335 1037.93V956.87C531.335 956.39 531.724 956 532.205 956Z" fill="white"/>
<path d="M591 305C591 368.513 539.513 420 476 420C412.487 420 361 368.513 361 305C361 241.487 412.487 190 476 190C539.513 190 591 241.487 591 305Z" fill="#DCE1F2"/>
<circle cx="476" cy="305" r="53.1218" fill="white"/>
<path d="M485.72 285.736C492.282 285.736 497.599 291.101 497.599 298.611C497.599 312.673 483.399 321.093 477.157 324.751C476.443 325.169 475.558 325.169 474.844 324.751C468.602 321.093 454.401 312.673 454.401 298.611C454.401 291.101 459.801 285.736 466.281 285.736C470.298 285.736 473.84 287.882 476 290.028C478.16 287.882 481.702 285.736 485.72 285.736Z" fill="#DCE1F2"/>
<path d="M1724.77 1101.7C1726.63 1098.1 1731.78 1098.1 1733.64 1101.7L1741.27 1116.41C1741.67 1117.19 1742.28 1117.85 1743.02 1118.32L1755.1 1126.03C1758.18 1127.99 1758.18 1132.49 1755.1 1134.46L1743.47 1141.88C1742.45 1142.53 1741.7 1143.53 1741.36 1144.69L1734 1169.78C1732.6 1174.57 1725.81 1174.57 1724.41 1169.78L1717.05 1144.69C1716.71 1143.53 1715.96 1142.53 1714.94 1141.88L1703.31 1134.46C1700.23 1132.49 1700.23 1127.99 1703.31 1126.03L1715.39 1118.32C1716.13 1117.85 1716.74 1117.19 1717.14 1116.41L1724.77 1101.7Z" fill="#FFB99B"/>
<path d="M493.767 774.698C495.632 771.101 500.779 771.101 502.644 774.698L510.27 789.406C510.674 790.186 511.278 790.846 512.019 791.319L524.1 799.029C527.181 800.994 527.181 805.493 524.1 807.459L512.468 814.882C511.449 815.532 510.7 816.53 510.36 817.69L503.003 842.776C501.598 847.567 494.812 847.567 493.407 842.776L486.051 817.69C485.711 816.53 484.962 815.532 483.943 814.882L472.31 807.459C469.23 805.493 469.23 800.994 472.31 799.029L484.392 791.319C485.133 790.846 485.736 790.186 486.141 789.406L493.767 774.698Z" fill="#FBC3DE"/>
<path d="M1328.44 250.787C1330.35 247.071 1335.65 247.071 1337.56 250.787L1352.02 278.91C1352.44 279.713 1353.05 280.393 1353.81 280.881L1376.64 295.57C1379.79 297.594 1379.79 302.201 1376.64 304.225L1354.27 318.619C1353.23 319.289 1352.46 320.315 1352.12 321.507L1337.93 370.297C1336.49 375.234 1329.51 375.234 1328.07 370.296L1313.88 321.507C1313.54 320.315 1312.77 319.289 1311.73 318.619L1289.36 304.225C1286.21 302.201 1286.21 297.594 1289.36 295.57L1312.19 280.881C1312.95 280.393 1313.56 279.713 1313.98 278.91L1328.44 250.787Z" fill="#97F7F5"/>
<defs>
<linearGradient id="paint0_linear_87_2" x1="776.5" y1="694.5" x2="109.759" y2="1028.62" gradientUnits="userSpaceOnUse">
<stop stop-color="#FBF7B8"/>
<stop offset="1" stop-color="#F7CDE1"/>
</linearGradient>
<linearGradient id="paint1_linear_87_2" x1="1791.87" y1="313.458" x2="1207.77" y2="937.507" gradientUnits="userSpaceOnUse">
<stop stop-color="#FBF7B8"/>
<stop offset="1" stop-color="#F7CDE1"/>
</linearGradient>
<linearGradient id="paint2_linear_87_2" x1="720" y1="541" x2="1253.7" y2="594.28" gradientUnits="userSpaceOnUse">
<stop stop-color="#FBF7B8"/>
<stop offset="1" stop-color="#F7CDE1"/>
</linearGradient>
<linearGradient id="paint3_linear_87_2" x1="2112" y1="494" x2="1190.56" y2="812.186" gradientUnits="userSpaceOnUse">
<stop stop-color="#FBF7B8"/>
<stop offset="1" stop-color="#F7CDE1"/>
</linearGradient>
<linearGradient id="paint4_linear_87_2" x1="698" y1="660" x2="-41.0877" y2="618.971" gradientUnits="userSpaceOnUse">
<stop stop-color="#FBF7B8"/>
<stop offset="1" stop-color="#F7CDE1"/>
</linearGradient>
</defs>
</svg>
