<svg width="2238" height="1678" viewBox="0 0 2238 1678" fill="none" xmlns="http://www.w3.org/2000/svg">
<path d="M775.757 544.688C775.757 537.336 781.717 531.376 789.069 531.376H947.483C954.835 531.376 960.795 537.336 960.795 544.688C960.795 552.04 954.835 558 947.483 558H789.069C781.717 558 775.757 552.04 775.757 544.688Z" fill="#FBC3DE"/>
<path fill-rule="evenodd" clip-rule="evenodd" d="M866.631 546.115C849.546 547.43 835.184 559.888 831.646 576.899L781.069 820.111C780.731 821.733 779.143 822.775 777.521 822.437C775.899 822.1 774.857 820.511 775.194 818.889L825.772 575.677C830.093 554.896 848.406 540 869.631 540C888.367 540 904.731 552.671 909.421 570.809L973.536 818.749C973.951 820.353 972.987 821.99 971.383 822.404C969.778 822.819 968.142 821.855 967.727 820.251L903.612 572.312C899.859 557.798 887.354 547.383 872.631 546.127V819.5C872.631 821.157 871.288 822.5 869.631 822.5C867.975 822.5 866.631 821.157 866.631 819.5V546.115Z" fill="#FBC3DE"/>
<path d="M804.72 403.525C804.72 401.034 806.74 399.014 809.231 399.014H834.798C837.289 399.014 839.309 401.034 839.309 403.525V417.06C839.309 419.552 837.289 421.572 834.798 421.572H809.231C806.74 421.572 804.72 419.552 804.72 417.06V403.525Z" fill="#FBF7B8"/>
<path d="M936.059 411.044C936.059 408.552 938.079 406.532 940.57 406.532H952.1C954.592 406.532 956.612 408.552 956.612 411.044V417.06C956.612 419.551 954.592 421.571 952.1 421.571H940.57C938.079 421.571 936.059 419.551 936.059 417.059V411.044Z" fill="#FBF7B8"/>
<path d="M771.132 421.393C771.132 417.338 774.418 414.052 778.473 414.052H838.635C840.664 414.052 842.602 413.212 843.99 411.732L858.439 396.32C859.826 394.84 861.765 394 863.794 394H900.231C902.442 394 904.535 394.996 905.929 396.712L917.814 411.34C919.208 413.056 921.301 414.052 923.512 414.052H956.791C960.845 414.052 964.132 417.338 964.132 421.393V523.514C964.132 527.568 960.845 530.855 956.791 530.855H778.473C774.418 530.855 771.132 527.568 771.132 523.514V421.393Z" fill="#BCECFF"/>
<path d="M771.132 418.385C771.132 414.33 774.418 411.044 778.473 411.044H815.425C819.479 411.044 822.766 414.33 822.766 418.385V527.023C822.766 531.077 819.479 534.363 815.425 534.363H778.473C774.418 534.363 771.132 531.077 771.132 527.023V418.385Z" fill="#C2BBFF"/>
<path d="M923.025 472.453C923.025 494.74 904.958 512.808 882.671 512.808C860.384 512.808 842.316 494.74 842.316 472.453C842.316 450.166 860.384 432.099 882.671 432.099C904.958 432.099 923.025 450.166 923.025 472.453Z" fill="#FBC3DE"/>
<path d="M917.009 472.453C917.009 491.418 901.635 506.792 882.67 506.792C863.705 506.792 848.331 491.418 848.331 472.453C848.331 453.488 863.705 438.114 882.67 438.114C901.635 438.114 917.009 453.488 917.009 472.453Z" fill="white"/>
<path d="M1463.13 847H1798.13V1421C1798.13 1426.52 1793.65 1431 1788.13 1431H1473.13C1467.61 1431 1463.13 1426.52 1463.13 1421V847Z" fill="#DCE1F2"/>
<path d="M665.132 835C665.132 826.716 671.848 820 680.132 820H1823.13C1831.42 820 1838.13 826.716 1838.13 835V866C1838.13 874.284 1831.42 881 1823.13 881H680.132C671.848 881 665.132 874.284 665.132 866V835Z" fill="#DCE1F2"/>
<path fill-rule="evenodd" clip-rule="evenodd" d="M1765.13 928H1496.13C1492.27 928 1489.13 931.134 1489.13 935V1104C1489.13 1107.87 1492.27 1111 1496.13 1111H1765.13C1769 1111 1772.13 1107.87 1772.13 1104V935C1772.13 931.134 1769 928 1765.13 928ZM1496.13 925C1490.61 925 1486.13 929.477 1486.13 935V1104C1486.13 1109.52 1490.61 1114 1496.13 1114H1765.13C1770.65 1114 1775.13 1109.52 1775.13 1104V935C1775.13 929.477 1770.65 925 1765.13 925H1496.13Z" fill="white"/>
<path fill-rule="evenodd" clip-rule="evenodd" d="M1765.13 1147H1496.13C1492.27 1147 1489.13 1150.13 1489.13 1154V1323C1489.13 1326.87 1492.27 1330 1496.13 1330H1765.13C1769 1330 1772.13 1326.87 1772.13 1323V1154C1772.13 1150.13 1769 1147 1765.13 1147ZM1496.13 1144C1490.61 1144 1486.13 1148.48 1486.13 1154V1323C1486.13 1328.52 1490.61 1333 1496.13 1333H1765.13C1770.65 1333 1775.13 1328.52 1775.13 1323V1154C1775.13 1148.48 1770.65 1144 1765.13 1144H1496.13Z" fill="white"/>
<path fill-rule="evenodd" clip-rule="evenodd" d="M1478.13 882C1478.13 881.172 1478.8 880.5 1479.63 880.5H1790.63C1791.46 880.5 1792.13 881.172 1792.13 882C1792.13 882.828 1791.46 883.5 1790.63 883.5H1479.63C1478.8 883.5 1478.13 882.828 1478.13 882Z" fill="white"/>
<path d="M1650.13 964C1650.13 974.493 1641.63 983 1631.13 983C1620.64 983 1612.13 974.493 1612.13 964C1612.13 953.507 1620.64 945 1631.13 945C1641.63 945 1650.13 953.507 1650.13 964Z" fill="white"/>
<path d="M1650.13 1183C1650.13 1193.49 1641.63 1202 1631.13 1202C1620.64 1202 1612.13 1193.49 1612.13 1183C1612.13 1172.51 1620.64 1164 1631.13 1164C1641.63 1164 1650.13 1172.51 1650.13 1183Z" fill="white"/>
<path d="M1152.91 516.458C1151.44 504.528 1160.74 494 1172.76 494H1304.46C1314.55 494 1323.06 501.523 1324.3 511.542L1359.35 794.542C1360.83 806.472 1351.52 817 1339.5 817H1207.81C1197.71 817 1189.2 809.477 1187.96 799.458L1152.91 516.458Z" fill="#FBF7B8"/>
<path d="M999.132 416C999.132 404.954 1008.09 396 1019.13 396H1504.13C1515.18 396 1524.13 404.954 1524.13 416V699C1524.13 710.046 1515.18 719 1504.13 719H1019.13C1008.09 719 999.132 710.046 999.132 699V416Z" fill="#FBF7B8"/>
<path d="M1174.63 718H1347.13" stroke="white" stroke-width="3" stroke-linecap="round"/>
<path d="M999.132 416C999.132 404.954 1008.09 396 1019.13 396H1504.13C1515.18 396 1524.13 404.954 1524.13 416V656H999.132V416Z" fill="#FBC3DE"/>
<path d="M1278.13 775H1342.85C1371.03 775 1395.99 793.18 1404.63 820H1278.13V775Z" fill="#171625"/>
<path d="M614.631 429.001C618.268 488.999 677.868 535.5 720.718 535.5C763.568 535.5 792.131 476.756 792.131 435.927C792.131 395.098 773.131 359.001 726.131 352C679.131 345 610.631 363.001 614.631 429.001Z" fill="#744F3A"/>
<path fill-rule="evenodd" clip-rule="evenodd" d="M798.291 416.837C791.033 389.752 763.193 373.679 736.109 380.936C709.024 388.193 692.951 416.033 700.208 443.118L701.88 449.357C695.701 446.012 688.466 445.175 681.702 447.648C668.413 452.505 661.972 468.292 667.314 482.91C671.874 495.385 683.544 502.977 695.127 501.914L684.021 583.583C682.228 596.764 692.476 608.5 705.779 608.5H734.992C747.12 608.5 756.951 598.669 756.951 586.541V537.364C763.676 538.388 770.718 538.069 777.71 536.196C804.795 528.939 820.869 501.099 813.611 474.014L798.291 416.837Z" fill="#F9E0CE"/>
<path d="M702.42 486.675C702.42 486.675 701.876 478.056 698.614 472.157M684.024 464.473C684.024 464.473 691.703 465.43 695.442 468.279C696.713 469.247 697.757 470.609 698.614 472.157M698.614 472.157C698.614 472.157 692.349 470.619 688.464 471.451C686.394 471.894 683.389 473.354 683.389 473.354" stroke="#F1BFA9" stroke-width="3" stroke-linecap="round" stroke-linejoin="round"/>
<path fill-rule="evenodd" clip-rule="evenodd" d="M788.162 435.913C786.538 436.238 785.484 437.819 785.809 439.443L787.311 446.956C787.636 448.58 789.217 449.634 790.841 449.309C792.466 448.984 793.52 447.403 793.195 445.779L791.692 438.267C791.367 436.642 789.787 435.588 788.162 435.913Z" fill="#171625"/>
<path fill-rule="evenodd" clip-rule="evenodd" d="M785.881 474.075C785.121 474.404 784.771 475.287 785.1 476.047L786.477 475.452C785.1 476.047 785.1 476.047 785.1 476.047L785.102 476.051L785.105 476.057L785.112 476.074C785.118 476.088 785.127 476.107 785.138 476.131C785.159 476.179 785.19 476.246 785.23 476.33C785.31 476.499 785.427 476.736 785.579 477.025C785.884 477.602 786.335 478.393 786.927 479.256C788.09 480.953 789.89 483.068 792.306 484.3C794.645 485.492 796.769 485.783 798.329 485.764C799.107 485.755 799.744 485.669 800.197 485.582C800.424 485.538 800.607 485.494 800.739 485.458C800.805 485.44 800.858 485.424 800.899 485.412C800.92 485.406 800.937 485.4 800.95 485.396L800.969 485.39L800.976 485.388L800.979 485.387L800.98 485.386C800.98 485.386 800.982 485.386 800.5 483.965L800.982 485.386C801.766 485.119 802.186 484.268 801.92 483.483C801.654 482.699 800.803 482.279 800.019 482.544L800.02 482.544L800.022 482.543L800.026 482.542L800.029 482.541C800.029 482.541 800.028 482.541 800.023 482.543C800.013 482.546 799.991 482.552 799.958 482.561C799.891 482.579 799.781 482.607 799.63 482.636C799.329 482.694 798.871 482.757 798.294 482.764C797.143 482.778 795.512 482.567 793.669 481.627C791.903 480.727 790.448 479.086 789.401 477.56C788.888 476.812 788.496 476.124 788.233 475.626C788.102 475.377 788.004 475.177 787.94 475.043C787.908 474.976 787.885 474.926 787.871 474.894L787.855 474.86L787.853 474.856L787.853 474.855C787.524 474.095 786.641 473.746 785.881 474.075Z" fill="#DB3915"/>
<path d="M819.531 459.716L800.867 429.34L806.722 466.669L819.531 459.716Z" fill="#F9E0CE"/>
<path d="M736.089 530.349L756.949 537.302V558.163L736.089 530.349Z" fill="#171625"/>
<path d="M764.634 419.458C786.885 405.991 789.18 396.091 778.175 386.521C769.757 379.201 731.331 368.589 706.81 381.032C690.142 389.49 682.656 398.232 682.656 398.232C682.656 398.232 690.342 436.293 694.733 442.515C699.125 448.737 716.313 457.99 726.207 471.793C726.207 448.737 716.985 446.468 716.692 440.319C716.326 432.634 736.82 436.293 764.634 419.458Z" fill="#744F3A"/>
<path d="M559.391 679.874C556.233 689.249 554.353 699.006 553.803 708.883L541.632 927.5L855.632 915.5L826.384 792.077C824.56 785.068 823.835 777.819 824.235 770.588L830.881 650.383C833.19 608.626 799.952 573.5 758.132 573.5H686.632L658.843 575.831C627.251 578.48 598.338 594.632 579.517 620.144L559.391 679.874Z" fill="url(#paint0_linear_86_13)"/>
<path d="M717.132 610.623C736.463 577.142 779.275 565.67 812.756 585L968.638 674.999C1002.12 694.329 1013.59 737.142 994.26 770.623C974.93 804.104 932.118 815.575 898.637 796.245L742.755 706.246C709.273 686.916 697.802 644.104 717.132 610.623Z" fill="url(#paint1_linear_86_13)"/>
<path d="M1263.63 773L1214.63 761.5L1195.51 758.603C1187.18 757.341 1178.95 761.431 1174.94 768.832L1163.72 789.484C1157.11 801.659 1164.58 816.707 1178.27 818.8L1186.13 820H1359.88C1362.59 820 1363.78 816.577 1361.64 814.903C1361.31 814.638 1360.92 814.452 1360.5 814.36L1316.64 804.666C1315.7 804.457 1315.57 803.158 1316.46 802.772L1345.45 790.186C1349.19 788.563 1353.53 789.37 1356.44 792.226L1378.76 814.157C1379.97 815.353 1381.55 816.119 1383.24 816.337C1389.09 817.092 1393.64 811.351 1391.57 805.829L1387.13 794L1397.75 809.294C1398.79 810.787 1400.84 811.153 1402.33 810.111C1403.66 809.184 1404.11 807.43 1403.4 805.978L1383.73 765.791C1382.4 763.077 1379.92 761.11 1376.98 760.437L1331.7 750.099C1322.91 748.092 1313.71 749.112 1305.57 752.993L1263.63 773Z" fill="#F9E0CE"/>
<path fill-rule="evenodd" clip-rule="evenodd" d="M1182.63 820C1182.63 819.172 1183.3 818.5 1184.13 818.5H1350.13C1350.96 818.5 1351.63 819.172 1351.63 820C1351.63 820.828 1350.96 821.5 1350.13 821.5H1184.13C1183.3 821.5 1182.63 820.828 1182.63 820Z" fill="#171625"/>
<path fill-rule="evenodd" clip-rule="evenodd" d="M1354.19 766.077C1354.43 765.282 1355.26 764.828 1356.06 765.061L1373.06 770.061C1373.41 770.164 1373.71 770.392 1373.9 770.701L1390.9 797.701C1391.34 798.402 1391.13 799.328 1390.43 799.77C1389.73 800.211 1388.8 800.001 1388.36 799.3L1371.67 772.779L1355.21 767.939C1354.41 767.706 1353.96 766.872 1354.19 766.077ZM1350.7 778.053C1350.95 777.262 1351.79 776.822 1352.58 777.069L1368.58 782.069C1368.9 782.17 1369.18 782.378 1369.37 782.659L1389.37 812.159C1389.84 812.844 1389.66 813.777 1388.97 814.242C1388.29 814.707 1387.36 814.528 1386.89 813.842L1367.18 784.776L1351.68 779.932C1350.89 779.685 1350.45 778.844 1350.7 778.053Z" fill="#F1BFA9"/>
<path d="M888.606 731.962C895.245 692.236 935.307 667.409 973.837 679.146L1237.63 759.5L1175.63 818.5L951.753 809.61C911.62 808.017 881.986 771.577 888.606 731.962Z" fill="url(#paint2_linear_86_13)"/>
<path fill-rule="evenodd" clip-rule="evenodd" d="M762.958 703.567C763.473 702.918 764.417 702.81 765.065 703.326L826.065 751.826C826.714 752.342 826.822 753.285 826.306 753.934C825.79 754.582 824.847 754.69 824.198 754.174L763.198 705.674C762.55 705.159 762.442 704.215 762.958 703.567Z" fill="#171625"/>
<path d="M1461.87 1394.41C1444.97 1388.69 1395.15 1342.44 1366.44 1309.44C1353.02 1294 1331.23 1283.19 1311.04 1286.43C1283.06 1290.92 1267.37 1321.16 1279.81 1346.62L1314.17 1416.89C1316.14 1420.93 1320.19 1423.52 1324.68 1423.62L1550.1 1428.73C1553.52 1428.81 1556.16 1425.71 1555.53 1422.34C1555.14 1420.22 1553.54 1418.54 1551.44 1418.05C1528.7 1412.8 1483.9 1401.87 1461.87 1394.41Z" fill="#171625"/>
<path d="M984.961 978.073C1006.78 923.999 1078.27 912.513 1115.92 957.031L1441.13 1341.5H1272.63L1001.13 1060.91C979.846 1038.92 973.511 1006.45 984.961 978.073Z" fill="#FFB99B"/>
<path d="M543.924 1013.1C541.574 964.668 579.355 923.707 627.814 922.145L1034.17 909.045C1089.4 907.264 1131.09 958.682 1117.94 1012.36C1109.14 1048.24 1077.8 1074.07 1040.9 1075.86L634.818 1095.57C586.943 1097.9 546.248 1060.97 543.924 1013.1Z" fill="#FFB99B"/>
<path d="M1210.6 1390.92C1194.75 1385.95 1165.64 1345.63 1146.07 1313.55C1133.94 1293.67 1110.41 1281.19 1087.51 1285.4L1086.04 1285.67C1058.99 1290.63 1041.63 1317.25 1047.99 1344L1064.61 1414C1065.9 1419.41 1070.73 1423.23 1076.29 1423.23L1299.58 1423.23C1303.01 1423.23 1305.58 1420.08 1304.87 1416.72C1304.43 1414.61 1302.8 1412.97 1300.68 1412.53C1277.83 1407.79 1232.79 1397.88 1210.6 1390.92Z" fill="#171625"/>
<path d="M1013.19 913.305C1060.15 900.721 1107.91 930.696 1117 978.46L1186.13 1341.83H1046.9L954.398 1017C941.608 972.081 968.079 925.392 1013.19 913.305Z" fill="#FFB99B"/>
<path fill-rule="evenodd" clip-rule="evenodd" d="M1110.32 975.532C1111.13 975.362 1111.93 975.882 1112.1 976.692L1165.6 1231.69C1165.77 1232.5 1165.25 1233.3 1164.44 1233.47C1163.63 1233.64 1162.83 1233.12 1162.66 1232.31L1109.16 977.308C1108.99 976.498 1109.51 975.702 1110.32 975.532Z" fill="#171625"/>
<path d="M645.132 366.5L691.132 446L706.132 431L669.132 356C669.132 356 659.915 358.553 654.132 361.5C650.701 363.249 645.132 366.5 645.132 366.5Z" fill="#97F7F5"/>
<path fill-rule="evenodd" clip-rule="evenodd" d="M710.302 479.003C710.852 477.44 712.566 476.62 714.128 477.17L793.628 505.17C795.191 505.721 796.012 507.434 795.461 508.996C794.911 510.559 793.198 511.38 791.635 510.829L712.135 482.829C710.572 482.279 709.752 480.566 710.302 479.003Z" fill="#97F7F5"/>
<path d="M748.132 467.5C748.132 492.629 727.761 513 702.632 513C677.503 513 657.132 492.629 657.132 467.5C657.132 442.371 677.503 422 702.632 422C727.761 422 748.132 442.371 748.132 467.5Z" fill="#97F7F5"/>
<path fill-rule="evenodd" clip-rule="evenodd" d="M518.68 1079.5H713.096L783.074 1433.42C783.396 1435.04 782.339 1436.62 780.713 1436.94C779.088 1437.26 777.51 1436.21 777.188 1434.58L708.167 1085.5H523.583L452.571 1434.6C452.241 1436.22 450.657 1437.27 449.033 1436.94C447.41 1436.61 446.361 1435.03 446.692 1433.4L518.68 1079.5Z" fill="#FBC3DE"/>
<path fill-rule="evenodd" clip-rule="evenodd" d="M669.18 1076H863.596L933.574 1429.92C933.896 1431.54 932.839 1433.12 931.213 1433.44C929.588 1433.76 928.01 1432.71 927.688 1431.08L858.667 1082H674.083L603.071 1431.1C602.741 1432.72 601.157 1433.77 599.533 1433.44C597.91 1433.11 596.861 1431.53 597.192 1429.9L669.18 1076Z" fill="#FBC3DE"/>
<path d="M400.305 777.336L454.051 1054.28C455.433 1061.4 457.435 1068.49 461.48 1074.51C474.148 1093.37 495.514 1105 518.703 1105H722.132L940.632 1088.5C945.073 1087.68 944.63 1081.18 940.118 1080.97L722.132 1065L654.933 749.421C648.051 717.104 619.509 694 586.468 694H469.023C425.012 694 391.92 734.132 400.305 777.336Z" fill="#FBF7B8"/>
<path d="M779.132 507.5C779.132 503.358 782.49 500 786.632 500H797.632C801.774 500 805.132 503.358 805.132 507.5C805.132 511.642 801.774 515 797.632 515H786.632C782.49 515 779.132 511.642 779.132 507.5Z" fill="#97F7F5"/>
<path d="M1627.13 424.5C1627.13 486.632 1576.76 537 1514.63 537C1452.5 537 1402.13 486.632 1402.13 424.5C1402.13 362.368 1452.5 312 1514.63 312C1576.76 312 1627.13 362.368 1627.13 424.5Z" fill="#DCE1F2"/>
<path d="M1566.6 424.501C1566.6 453.202 1543.33 476.468 1514.63 476.468C1485.93 476.468 1462.66 453.202 1462.66 424.501C1462.66 395.801 1485.93 372.534 1514.63 372.534C1543.33 372.534 1566.6 395.801 1566.6 424.501Z" fill="white"/>
<path d="M1524.68 422.215C1526.39 422.215 1527.8 423.614 1527.41 425.269C1526.85 427.61 1525.65 429.773 1523.92 431.503C1521.46 433.966 1518.12 435.35 1514.63 435.35C1511.15 435.35 1507.81 433.966 1505.35 431.503C1503.62 429.773 1502.42 427.61 1501.86 425.269C1501.46 423.614 1502.88 422.215 1504.58 422.215L1514.63 422.215H1524.68Z" fill="#DCE1F2"/>
<path d="M1496.93 413.078C1496.93 415.285 1495.14 417.075 1492.93 417.075C1490.72 417.075 1488.93 415.285 1488.93 413.078C1488.93 410.87 1490.72 409.08 1492.93 409.08C1495.14 409.08 1496.93 410.87 1496.93 413.078Z" fill="#DCE1F2"/>
<path d="M1541.47 413.078C1541.47 415.285 1539.68 417.075 1537.47 417.075C1535.27 417.075 1533.48 415.285 1533.48 413.078C1533.48 410.87 1535.27 409.08 1537.47 409.08C1539.68 409.08 1541.47 410.87 1541.47 413.078Z" fill="#DCE1F2"/>
<path d="M1757.13 640.5C1757.13 693.243 1714.38 736 1661.63 736C1608.89 736 1566.13 693.243 1566.13 640.5C1566.13 587.757 1608.89 545 1661.63 545C1714.38 545 1757.13 587.757 1757.13 640.5Z" fill="#FFB99B"/>
<path d="M1683.09 606.166C1689.92 606.166 1696.47 608.879 1701.3 613.708C1706.13 618.537 1708.84 625.087 1708.84 631.916V649.083C1708.84 655.912 1706.13 662.462 1701.3 667.291C1696.47 672.12 1689.92 674.833 1683.09 674.833H1640.17C1633.34 674.833 1626.79 672.12 1621.96 667.291C1617.14 662.462 1614.42 655.912 1614.42 649.083V631.916C1614.42 625.087 1617.14 618.537 1621.96 613.708C1626.79 608.879 1633.34 606.166 1640.17 606.166H1683.09ZM1653.05 627.624H1644.46V636.208H1635.88V644.791H1644.46L1644.46 653.374H1653.05L1653.04 644.791H1661.63V636.208H1653.05V627.624ZM1687.38 644.791H1678.8V653.374H1687.38V644.791ZM1678.8 627.624H1670.21V636.208H1678.8V627.624Z" fill="white"/>
<defs>
<linearGradient id="paint0_linear_86_13" x1="542.132" y1="478" x2="1087.02" y2="657.461" gradientUnits="userSpaceOnUse">
<stop stop-color="#BCECFF"/>
<stop offset="1" stop-color="#C2BBFF"/>
</linearGradient>
<linearGradient id="paint1_linear_86_13" x1="569.632" y1="379" x2="1005.46" y2="1066.02" gradientUnits="userSpaceOnUse">
<stop stop-color="#BCECFF"/>
<stop offset="1" stop-color="#C2BBFF"/>
</linearGradient>
<linearGradient id="paint2_linear_86_13" x1="443.632" y1="246" x2="1326.5" y2="1028.78" gradientUnits="userSpaceOnUse">
<stop stop-color="#BCECFF"/>
<stop offset="1" stop-color="#C2BBFF"/>
</linearGradient>
</defs>
</svg>
