<?xml version="1.0" encoding="utf-8"?>
<!-- Generator: Adobe Illustrator 24.3.0, SVG Export Plug-In . SVG Version: 6.00 Build 0)  -->
<svg version="1.1" xmlns="http://www.w3.org/2000/svg" xmlns:xlink="http://www.w3.org/1999/xlink" x="0px" y="0px"
	 viewBox="0 0 2238 1678" style="enable-background:new 0 0 2238 1678;" xml:space="preserve">
<style type="text/css">
	.st0{fill-rule:evenodd;clip-rule:evenodd;fill:#171625;}
	.st1{fill-rule:evenodd;clip-rule:evenodd;fill:#744F3A;}
	.st2{fill-rule:evenodd;clip-rule:evenodd;fill:#DD9576;}
	.st3{fill:#171625;}
	.st4{fill:#744F3A;}
	.st5{fill-rule:evenodd;clip-rule:evenodd;fill:#CD764F;}
	.st6{fill-rule:evenodd;clip-rule:evenodd;fill:#DB3915;}
	.st7{fill:#FFFFFF;}
	.st8{fill:#DD9576;}
	.st9{fill:url(#SVGID_1_);}
	.st10{fill:url(#SVGID_2_);}
	.st11{fill:url(#SVGID_3_);}
	.st12{fill:none;stroke:#171625;stroke-width:3;stroke-linecap:round;}
	.st13{fill:url(#SVGID_4_);}
	.st14{fill:url(#SVGID_5_);}
	.st15{fill:#BCECFF;}
	.st16{fill-rule:evenodd;clip-rule:evenodd;fill:#FFFFFF;}
	.st17{fill:url(#SVGID_6_);}
	.st18{fill:#FFB99B;}
	.st19{fill:#C2BBFF;}
	.st20{fill:#FBC3DE;}
	.st21{fill:#DCE1F2;}
	.st22{fill-rule:evenodd;clip-rule:evenodd;fill:#C2BBFF;}
	.st23{fill:#F1BFA9;}
	.st24{fill:url(#SVGID_7_);}
	.st25{fill:url(#SVGID_8_);}
	.st26{fill:url(#SVGID_9_);}
	.st27{fill-rule:evenodd;clip-rule:evenodd;fill:#F1BFA9;}
	.st28{fill:none;stroke:#F1BFA9;stroke-width:4;stroke-linecap:round;stroke-linejoin:round;}
	.st29{fill:none;stroke:#FCF6F9;stroke-width:3;}
	.st30{fill:url(#SVGID_10_);}
	.st31{fill:url(#SVGID_11_);}
	.st32{fill:#97F7F5;}
	.st33{fill-rule:evenodd;clip-rule:evenodd;fill:#F9E0CE;}
	.st34{fill:#F9E0CE;}
	.st35{fill:#F7CDE1;}
	.st36{fill:#FBF7B8;}
	.st37{fill:url(#SVGID_12_);}
	.st38{fill:url(#SVGID_13_);}
	.st39{fill:url(#SVGID_14_);}
	.st40{fill-rule:evenodd;clip-rule:evenodd;fill:#FBC3DE;}
	.st41{fill-rule:evenodd;clip-rule:evenodd;fill:#F7CDE1;}
	.st42{fill:url(#SVGID_15_);}
	.st43{fill:url(#SVGID_16_);}
	.st44{fill:url(#SVGID_17_);}
	.st45{fill:url(#SVGID_18_);}
	.st46{fill:#FCF6F9;}
	.st47{fill-rule:evenodd;clip-rule:evenodd;fill:#BCECFF;}
	.st48{fill:url(#SVGID_19_);}
	.st49{fill:url(#SVGID_20_);}
	.st50{fill:url(#SVGID_21_);}
	.st51{fill:url(#SVGID_22_);}
	.st52{fill:#CD764F;}
	.st53{fill:url(#SVGID_23_);}
	.st54{fill:url(#SVGID_24_);}
	.st55{fill:url(#SVGID_25_);}
	.st56{fill-rule:evenodd;clip-rule:evenodd;fill:#97F7F5;}
	.st57{fill-rule:evenodd;clip-rule:evenodd;fill:#FFB99B;}
	.st58{fill:url(#SVGID_26_);}
	.st59{fill:url(#SVGID_27_);}
	.st60{fill:url(#SVGID_28_);}
	.st61{fill:url(#SVGID_29_);}
	.st62{fill:url(#SVGID_30_);}
</style>
<g id="Layer_1">
	<path class="st0" d="M-1633,1475c0-1.1,0.9-2,2-2h786c1.1,0,2,0.9,2,2s-0.9,2-2,2h-786C-1632.1,1477-1633,1476.1-1633,1475z"/>
	<path class="st1" d="M-1142.9,457.5c-11.7,19.9-35.4,33.5-62.6,33.5c-38.9,0-70.5-27.8-70.5-62c0-14.2,5.4-27.2,14.5-37.7
		c-5.4-10.2-8.5-21.9-8.5-34.3c0-35.3,24.8-64.6,57.6-70.8c12.8-12.5,30.9-20.2,50.9-20.2c37.1,0,67.5,26.6,70.3,60.4
		c29,4.9,53.2,28,58.8,59.2c7.1,39.6-18.5,77.2-57.1,84.2C-1108.9,473.3-1127.9,468.3-1142.9,457.5z"/>
	<path class="st2" d="M-1222.5,342.3c4.2-25.9,28.1-43.8,54.1-40.7c22.7,2.7,39.9,20.6,42.6,42.3c1.6-0.1,3.3,0,4.9,0.4
		c12.9,2.6,20.8,17.2,17.6,32.6c-1.9,9.3-7.3,16.7-14.1,20.6l14.1,66.7c3.9,18.3-6.7,36.6-24.5,42.5c-21.1,7-43.5-6.2-47.7-28
		l-5-25.9c-4.2,0.1-8.4-0.3-12.7-1.3c-25.6-6-42.2-30.8-38-56.7L-1222.5,342.3z"/>
	<path class="st3" d="M-1152.5,443l-28,10.5l3.5,17.5L-1152.5,443z"/>
	<path class="st4" d="M-1197,305.5c-7.5,27.5-12.5,42.5-41,51.5c0,0-7.5-11.5,8.5-33.5S-1215.2,305.9-1197,305.5
		c0,0,36.8-13.1,52-3.5c16.2,10.2,29.5,33.5,29.5,33.5l3,7c-6.6,1.2-12.8,1.8-18.7,1.9l-9.8,22.6l-8.4-23.9
		C-1174.2,338.8-1190.8,324.3-1197,305.5z"/>
	<path class="st0" d="M-1209.4,365.1c1.6,0.3,2.7,1.9,2.3,3.5l-1.5,7.5c-0.3,1.6-1.9,2.7-3.5,2.4c-1.6-0.3-2.7-1.9-2.3-3.5l1.5-7.5
		C-1212.6,365.8-1211,364.7-1209.4,365.1z"/>
	<path class="st0" d="M-1169.9,367.1c1.6,0.3,2.7,1.9,2.3,3.5l-1.5,7.5c-0.3,1.6-1.9,2.7-3.5,2.4c-1.6-0.3-2.7-1.9-2.3-3.5l1.5-7.5
		C-1173.1,367.8-1171.5,366.7-1169.9,367.1z"/>
	<path class="st5" d="M-1193.7,376c0.8,0.2,1.3,1,1.1,1.8l-5,21.3l7.3-1.2c0.8-0.1,1.6,0.4,1.7,1.2c0.1,0.8-0.4,1.6-1.2,1.7
		l-9.5,1.5c-0.5,0.1-1-0.1-1.3-0.5s-0.5-0.9-0.4-1.4l5.5-23.5C-1195.3,376.4-1194.5,375.9-1193.7,376z"/>
	<path class="st6" d="M-1170.4,401.6c0.8,0.3,1.1,1.2,0.8,2l-1.4-0.6c1.4,0.6,1.4,0.6,1.4,0.6v0l0,0v0c0,0,0,0,0,0.1
		c0,0,0,0.1-0.1,0.2c-0.1,0.2-0.2,0.4-0.3,0.7c-0.3,0.6-0.8,1.4-1.3,2.2c-1.2,1.7-3,3.8-5.4,5c-2.3,1.2-4.5,1.5-6,1.5
		c-0.8,0-1.4-0.1-1.9-0.2c-0.2,0-0.4-0.1-0.5-0.1c-0.1,0-0.1,0-0.2,0c0,0,0,0,0,0l0,0l0,0v0l0,0c0,0,0,0,0.5-1.4l-0.5,1.4
		c-0.8-0.3-1.2-1.1-0.9-1.9c0.3-0.8,1.1-1.2,1.9-0.9l0,0v0l0,0v0c0,0,0,0,0,0c0,0,0,0,0.1,0c0.1,0,0.2,0,0.3,0.1
		c0.3,0.1,0.8,0.1,1.3,0.1c1.2,0,2.8-0.2,4.6-1.1c1.8-0.9,3.2-2.5,4.3-4.1c0.5-0.7,0.9-1.4,1.2-1.9c0.1-0.2,0.2-0.4,0.3-0.6
		c0-0.1,0-0.1,0.1-0.1l0,0v0l0,0 M-1170.4,401.6c-0.8-0.3-1.7,0-2,0.8L-1170.4,401.6z"/>
	<path class="st5" d="M-1116.1,364.3L-1116.1,364.3L-1116.1,364.3L-1116.1,364.3L-1116.1,364.3c-0.1,0-0.2,0-0.2,0
		c-0.2,0-0.4-0.1-0.6-0.1c-0.5-0.1-1.3-0.1-2.2-0.2c-1.7-0.1-3.7,0-5.1,0.5c-0.3,0.1-0.6,0.3-0.9,0.4c0.1,0,0.2,0,0.3,0
		c1.5,0.2,3.4,0.7,4.8,1.4c0.7,0.4,1.6,1.1,2.2,1.6c0.3,0.3,0.6,0.5,0.8,0.7c0.1,0.1,0.2,0.2,0.2,0.2c0,0,0.1,0,0.1,0.1l0,0l0,0v0
		c0,0,0,0-0.6,0.7l0.6-0.7c0.4,0.4,0.4,1,0.1,1.4c-0.3,0.4-0.9,0.4-1.3,0.1l0,0 M-1118,370.4L-1118,370.4L-1118,370.4
		C-1118,370.4-1118,370.3-1118,370.4c-0.1-0.1-0.2-0.2-0.3-0.3c-0.2-0.2-0.4-0.4-0.7-0.6c-0.6-0.5-1.3-1-1.9-1.4
		c-1.1-0.6-2.7-1-4.2-1.2c-0.7-0.1-1.3-0.2-1.8-0.2c-0.1,0-0.2,0-0.3,0c-1.5,1.6-2.7,3.7-3.6,5.4c-0.5,0.9-0.8,1.8-1.1,2.4
		c-0.1,0.3-0.2,0.5-0.3,0.7c0,0.1-0.1,0.1-0.1,0.2l0,0v0v0c-0.2,0.5-0.7,0.8-1.2,0.6c-0.5-0.2-0.7-0.7-0.6-1.2l0.9,0.3
		c-0.9-0.3-0.9-0.3-0.9-0.3v0l0,0l0-0.1c0,0,0-0.1,0.1-0.2c0.1-0.2,0.2-0.4,0.3-0.7c0.3-0.6,0.6-1.5,1.1-2.5c1-1.9,2.4-4.4,4.2-6.2
		c1-1,2.1-1.8,3.3-2.3c1.8-0.7,4.1-0.7,5.8-0.7c0.9,0,1.7,0.1,2.3,0.2c0.3,0,0.5,0.1,0.7,0.1c0.1,0,0.1,0,0.2,0l0,0l0,0l0,0
		c0,0,0,0-0.2,1l0.2-1c0.5,0.1,0.9,0.6,0.8,1.1c-0.1,0.5-0.6,0.9-1.1,0.8"/>
	<circle class="st7" cx="-1115.5" cy="395.5" r="11.5"/>
	<path class="st3" d="M-1478.8,410c-2.1-6.1,2-12.6,8.5-13.2l72.3-7c4.5-0.4,8.7,2.2,10.3,6.4l42.7,112c2.2,5.7-1.2,12-7.2,13.3
		l-73,16.1c-5,1.1-9.9-1.7-11.6-6.5L-1478.8,410z"/>
	<path class="st8" d="M-1456.2,482.4l18.2,51.6c5.2,14.7,21.1,22.6,36,17.9l5.7-1.8c19-6.1,24-30.6,8.8-43.6l3-13.5l15.6-9
		c1.7-1,2.9-2.7,3.1-4.7c0.5-4.1-2.9-7.6-7-7.1l-0.5,0l6.8-4c1.7-1,2.9-2.8,3.2-4.8c0.6-3.8-2.1-7.2-5.9-7.6l-3.2-0.3l5.9-2.2
		c2.3-0.9,4.1-2.8,4.6-5.3c1.1-4.9-2.9-9.4-7.9-8.9l-62.8,6.3C-1450.6,447.1-1462.2,465.3-1456.2,482.4z"/>
	<path class="st5" d="M-1370.5,454.8c0.1,0.8-0.5,1.6-1.3,1.7l-44,5.5c-0.8,0.1-1.6-0.5-1.7-1.3c-0.1-0.8,0.5-1.6,1.3-1.7l44-5.5
		C-1371.4,453.4-1370.6,454-1370.5,454.8z M-1370.5,471.3c0.1,0.8-0.4,1.6-1.2,1.7l-35,5.5c-0.8,0.1-1.6-0.4-1.7-1.2
		c-0.1-0.8,0.4-1.6,1.2-1.7l35-5.5C-1371.4,469.9-1370.6,470.4-1370.5,471.3z"/>
	
		<linearGradient id="SVGID_1_" gradientUnits="userSpaceOnUse" x1="-1578.0894" y1="7947.8594" x2="-751.6942" y2="7655.3955" gradientTransform="matrix(1 0 0 -1 0 8472)">
		<stop  offset="0" style="stop-color:#97F7F5"/>
		<stop  offset="1" style="stop-color:#FBF7B8"/>
	</linearGradient>
	<path class="st9" d="M-1271.6,527.8c11.7-25.3,41.7-36.4,67-24.7c25.3,11.7,36.4,41.7,24.7,67l-79.2,171.6
		c-11.7,25.3-41.7,36.4-67,24.7c-25.3-11.7-36.4-41.7-24.7-67L-1271.6,527.8z"/>
	
		<linearGradient id="SVGID_2_" gradientUnits="userSpaceOnUse" x1="-1682.6302" y1="7740.4482" x2="-778.0193" y2="7984.6035" gradientTransform="matrix(1 0 0 -1 0 8472)">
		<stop  offset="0" style="stop-color:#97F7F5"/>
		<stop  offset="1" style="stop-color:#FBF7B8"/>
	</linearGradient>
	<path class="st10" d="M-1352.5,741.3c10.1,24.5,37.8,36.5,62.5,27c26.8-10.2,39-41.3,26.4-67l-96.4-196.8l-82,19L-1352.5,741.3z"/>
	
		<linearGradient id="SVGID_3_" gradientUnits="userSpaceOnUse" x1="-1511.1509" y1="7926.7432" x2="-982.7908" y2="7835.3882" gradientTransform="matrix(1 0 0 -1 0 8472)">
		<stop  offset="0" style="stop-color:#97F7F5"/>
		<stop  offset="1" style="stop-color:#FBF7B8"/>
	</linearGradient>
	<path class="st11" d="M-1256,510c-36.5,44.5,50.5,251,50.5,251h160c0,0,66.5-220.5,26.5-265.5c-31.6-35.6-81-22.5-81-22.5l-1.5,0.2
		l-4-20.7l-71.5,19l1,11C-1176,482.5-1231.3,480-1256,510z"/>
	<path class="st12" d="M-1209.5,749.5l-35-90L-1256,612"/>
	<path class="st8" d="M-877,926c-10-22.7-18-46.5-18-46.5c-5-9.5-1.7-21.3,7.6-26.7l8.5-5c8.8-5.1,19.9-3.6,26.9,3.7l35.5,32.5
		l41.3,67.4c1.4,2.4,2.1,5.1,2,7.9l-0.3,6.2c-0.2,4.1-3.8,7.3-7.9,7c3.3,1.8,4.2,6.2,1.7,9.1l-0.9,1.1c-2,2.3-5.2,3.1-8,2l-2.8-1.1
		l0.5,1.5c1.1,3.4-0.5,7.1-3.8,8.6c-2.6,1.2-5.6,0.7-7.6-1.3L-842,955l-15-16.5l8.8,29.7c0.4,1.3-0.2,2.7-1.4,3.4
		c-1.4,0.8-3.1,0.3-3.9-1C-857.4,963.9-868.9,944.4-877,926z"/>
	<path class="st5" d="M-809.5,922.4c0.6-0.5,1.6-0.5,2.1,0.2l34,40.5c0.5,0.6,0.4,1.6-0.2,2.1c-0.6,0.5-1.6,0.5-2.1-0.2l-34-40.5
		C-810.2,923.8-810.1,922.9-809.5,922.4z M-820.1,933.4c0.6-0.6,1.6-0.6,2.1,0l37.5,38.5c0.6,0.6,0.6,1.5,0,2.1
		c-0.6,0.6-1.6,0.6-2.1,0l-37.5-38.5C-820.7,935-820.6,934-820.1,933.4z M-833.6,940.4c0.6-0.6,1.5-0.6,2.1,0l42,42
		c0.6,0.6,0.6,1.5,0,2.1c-0.6,0.6-1.5,0.6-2.1,0l-42-42C-834.2,942-834.2,941-833.6,940.4z"/>
	
		<linearGradient id="SVGID_4_" gradientUnits="userSpaceOnUse" x1="-1305.0936" y1="7671.25" x2="-951.3937" y2="7900.0942" gradientTransform="matrix(1 0 0 -1 0 8472)">
		<stop  offset="0" style="stop-color:#97F7F5"/>
		<stop  offset="1" style="stop-color:#FBF7B8"/>
	</linearGradient>
	<path class="st13" d="M-1098,552.2c-14.3-23.9-6.6-54.9,17.4-69.3c23.9-14.3,54.9-6.6,69.3,17.4l97.2,162.1
		c14.3,23.9,6.6,54.9-17.4,69.3c-23.9,14.3-54.9,6.6-69.3-17.4L-1098,552.2z"/>
	
		<linearGradient id="SVGID_5_" gradientUnits="userSpaceOnUse" x1="-1215.8319" y1="7524.7983" x2="-861.4968" y2="7752.7334" gradientTransform="matrix(1 0 0 -1 0 8472)">
		<stop  offset="0" style="stop-color:#97F7F5"/>
		<stop  offset="1" style="stop-color:#FBF7B8"/>
	</linearGradient>
	<path class="st14" d="M-1008.1,701.2c-13.5-23.8-5.5-54.1,18-68.2c24.3-14.6,55.9-6.3,69.9,18.4l113.9,201.3l-86.6,51.9
		L-1008.1,701.2z"/>
	<path class="st3" d="M-1028.8,1533.7c15.2-5.5,12.2-38.2,11.3-64.6c-0.7-17.4,12.4-29.8,29.6-32.3l32.4-4.7
		c27.3-4,51.9,17.1,52.1,44.7l0.5,67.8c0,6-4.7,11.1-10.7,11.4l-198,12.1c-3.2,0.2-5.8-2.7-5.3-5.9c0.3-2,1.8-3.6,3.7-4.1
		C-1091.7,1552.7-1049.5,1541.3-1028.8,1533.7z"/>
	<path class="st15" d="M-1205.1,835.9c-12.1-47.8,21.7-95,70.8-99l59.2-4.8c24-1.9,45.4,15.2,48.7,39l35.5,251.6
		c6,42.7-22.4,82.7-64.8,90.9c-42.2,8.2-83.6-18-94.2-59.7L-1205.1,835.9z"/>
	<path class="st15" d="M-1165.3,1045.7c-12.5-50.1,20.6-100.2,71.6-108.3c46.9-7.5,91.4,23.6,100.4,70.2l93.1,479.6l-149.4,23.5
		L-1165.3,1045.7z"/>
	<path class="st3" d="M-1470.7,1458.2c16.6-0.3,49.4-37.6,71.5-65.1c11.7-14.6,31.8-19.9,48.9-12.3c18.9,8.4,28.3,29.8,21.7,49.4
		l-26.5,79.2c-1.9,5.7-8,9-13.8,7.4l-191.2-52.9c-3.1-0.9-4.7-4.4-3.1-7.3c1-1.8,2.9-2.8,4.9-2.7
		C-1536.4,1455.7-1492.8,1458.7-1470.7,1458.2z"/>
	<path class="st15" d="M-1275.5,931.9l64.3,1.7c54.2,1.4,91.1,55.3,73,106.3l-158.6,445.8l-140.5-56.1L-1275.5,931.9z"/>
	<path class="st15" d="M-1209.5,750l60.9-11c61.2-11,110.9,49.3,88.3,107.3l-74.9,192.4c-16.8,43.2-65.8,64.1-108.6,46.4
		c-40.5-16.7-61-62.2-46.5-103.6L-1209.5,750z"/>
	<path class="st16" d="M-1071.4,900.1c0.8,0.3,1.1,1.2,0.8,2l-127.5,294c-0.3,0.8-1.2,1.1-2,0.8s-1.1-1.2-0.8-2l127.5-294
		C-1073.1,900.1-1072.2,899.8-1071.4,900.1z"/>
	<path class="st0" d="M-1308.5,608.6c0.8-0.3,1.6,0.1,1.9,0.9l64,178c0.3,0.8-0.1,1.6-0.9,1.9c-0.8,0.3-1.6-0.1-1.9-0.9l-64-178
		C-1309.7,609.7-1309.3,608.9-1308.5,608.6z M-1370.2,701.5c0.8,0.1,1.4,0.9,1.2,1.7l-15.5,85c-0.1,0.8-0.9,1.4-1.7,1.2
		c-0.8-0.1-1.4-0.9-1.2-1.7l15.5-85C-1371.8,701.9-1371,701.4-1370.2,701.5z"/>
	
		<linearGradient id="SVGID_6_" gradientUnits="userSpaceOnUse" x1="-1524.9923" y1="7668.5537" x2="-1158.0214" y2="7551.9453" gradientTransform="matrix(1 0 0 -1 0 8472)">
		<stop  offset="0" style="stop-color:#FBF7B8"/>
		<stop  offset="1" style="stop-color:#FBC3DE"/>
	</linearGradient>
	<path class="st17" d="M-1425.3,799.4c3.1-13.7,15.2-23.4,29.3-23.4h156c14,0,26.2,9.7,29.3,23.4l26.5,118
		c4.2,18.8-10.1,36.6-29.3,36.6h-209c-19.2,0-33.5-17.8-29.3-36.6L-1425.3,799.4z"/>
	<path class="st16" d="M-1230,776.4c0.6,0.6,0.7,1.5,0.1,2.1l-74.1,82c-8.6,9.5-23.5,9.4-32-0.1l-71.2-79.9
		c-0.6-0.6-0.5-1.6,0.1-2.1c0.6-0.6,1.6-0.5,2.1,0.1l71.2,79.9c7.3,8.2,20.2,8.3,27.5,0.1l74.1-82
		C-1231.6,775.9-1230.6,775.8-1230,776.4z"/>
	<path class="st7" d="M-1304,863c0,7.7-6.3,14-14,14s-14-6.3-14-14c0-7.7,6.3-14,14-14S-1304,855.3-1304,863z"/>
	<path class="st0" d="M-1084,485.6c-15.2,14.7-19,37.6-9.3,56.4l44.6,86.3c0.4,0.7,0.1,1.6-0.6,2c-0.7,0.4-1.6,0.1-2-0.6l-44.6-86.3
		c-10.3-20-6.3-44.4,9.9-59.9L-1084,485.6z"/>
	<path class="st18" d="M-272,1476c0-74.3-29.5-145.5-82-198s-123.7-82-198-82s-145.5,29.5-198,82s-82,123.7-82,198H-272z"/>
	<path class="st16" d="M-565,1195c0.8,0,1.5,0.7,1.5,1.5v112.8l95.9-98.8c0.6-0.6,1.5-0.6,2.1,0c0.6,0.6,0.6,1.5,0,2.1l-98.1,101.1
		v160.7l243.2-152.1c0.7-0.4,1.6-0.2,2.1,0.5c0.4,0.7,0.2,1.6-0.5,2.1l-245.5,153.5c-0.4,0.3-0.9,0.3-1.4,0.1l-139-58.9h-72.9
		c-0.8,0-1.5-0.7-1.5-1.5s0.7-1.5,1.5-1.5h67.2l-96.4-50.7c-0.7-0.4-1-1.3-0.6-2c0.4-0.7,1.3-1,2-0.6l101.7,53.5l135,57.2
		l-116.7-199.1c-0.4-0.7-0.2-1.6,0.5-2.1c0.7-0.4,1.6-0.2,2.1,0.5l116.2,198.2v-275C-566.5,1195.7-565.8,1195-565,1195z"/>
	<path class="st18" d="M-1715,1476c0-38.5-15.3-75.3-42.5-102.5c-27.2-27.2-64.1-42.5-102.5-42.5s-75.3,15.3-102.5,42.5
		c-27.2,27.2-42.5,64.1-42.5,102.5h145H-1715z"/>
	<path class="st16" d="M-1866.7,1329.8c0.8,0,1.5,0.7,1.5,1.5v56.6l48.4-49.9c0.6-0.6,1.5-0.6,2.1,0c0.6,0.6,0.6,1.5,0,2.1
		l-50.6,52.1v81.7l103.5-62.2c0.7-0.4,1.6-0.2,2.1,0.5c0.4,0.7,0.2,1.6-0.5,2.1l-105.7,63.5c-0.4,0.2-0.9,0.3-1.4,0.1l-72.1-30.6
		c-0.8-0.3-1.1-1.2-0.8-2c0.3-0.8,1.2-1.1,2-0.8l67.9,28.8l-59.3-101.2c-0.4-0.7-0.2-1.6,0.5-2.1c0.7-0.4,1.6-0.2,2.1,0.5
		l58.8,100.4v-139.7C-1868.2,1330.4-1867.6,1329.8-1866.7,1329.8z"/>
	<path class="st19" d="M-1639,1475.5c0-20.3-8.1-39.8-22.4-54.1c-14.3-14.3-33.8-22.4-54.1-22.4s-39.7,8.1-54.1,22.4
		c-14.3,14.3-22.4,33.8-22.4,54.1h76.5H-1639z"/>
	<path class="st0" d="M-756.7,1278.2c0.7-0.4,1.6-0.2,2,0.6l111.5,196c0.4,0.7,0.2,1.6-0.6,2c-0.7,0.4-1.6,0.2-2-0.6l-111.5-196
		C-757.7,1279.5-757.5,1278.6-756.7,1278.2z"/>
	<path class="st19" d="M-817.5,1266.4c3.8,6.8,11.6,11.1,21.6,11.8c10,0.7,21.4-2.1,31.7-7.9c10.3-5.8,18.7-14.1,23.3-23
		c4.6-8.9,5-17.8,1.2-24.6L-817.5,1266.4z"/>
	<path class="st19" d="M-746,1276.5c0,6.9-5.6,12.5-12.5,12.5s-12.5-5.6-12.5-12.5s5.6-12.5,12.5-12.5S-746,1269.6-746,1276.5z"/>
	<path class="st3" d="M-708.3,1296.6c0.9-1.3,2.9-1,3.3,0.6c1.6,6,4.3,18,2.8,26.5c-1.5,8.5-8.1,18.9-11.7,23.9
		c-0.9,1.3-2.9,1-3.3-0.6c-1.6-6-4.3-18-2.8-26.5C-718.5,1312.1-711.8,1301.7-708.3,1296.6z"/>
	<path class="st3" d="M-737.2,1385.9c-1.6,0.3-2,2.2-0.8,3.2c4.9,3.8,14.9,11,23.2,13c8.4,2,20.5,0,26.6-1.3c1.6-0.3,2-2.2,0.8-3.2
		c-4.9-3.8-14.8-11-23.2-13C-719,1382.7-731.2,1384.7-737.2,1385.9z"/>
	<path class="st0" d="M-628.4,1188c0.8,0.1,1.5,0.8,1.4,1.6l-15.2,287.2c0,0.8-0.8,1.5-1.6,1.4c-0.8,0-1.5-0.8-1.4-1.6l15.2-287.2
		C-629.9,1188.6-629.2,1188-628.4,1188z"/>
	<path class="st19" d="M-672.4,1149.4c-0.6,7.8,3.6,15.6,11.5,21.8c7.9,6.1,19,10.1,30.8,10.9c11.8,0.9,23.3-1.4,32.1-6.3
		c8.8-4.9,14-12,14.6-19.8L-672.4,1149.4z"/>
	<path class="st19" d="M-618.3,1197.3c-3.8,5.8-11.6,7.3-17.3,3.5c-5.8-3.8-7.3-11.6-3.5-17.3c3.8-5.8,11.6-7.3,17.3-3.5
		C-616.1,1183.8-614.5,1191.6-618.3,1197.3z"/>
	<path class="st3" d="M-598.1,1257.5c1.5-0.6,2.9,0.8,2.4,2.3c-2,5.9-6.4,17.4-12.3,23.6c-5.9,6.2-17.2,11.2-22.9,13.5
		c-1.5,0.6-2.9-0.8-2.4-2.3c2-5.8,6.4-17.4,12.3-23.6C-615.1,1264.8-603.8,1259.8-598.1,1257.5z"/>
	<path class="st20" d="M-1553,552.5c0,60.5-49,109.5-109.5,109.5S-1772,613-1772,552.5c0-60.5,49-109.5,109.5-109.5
		S-1553,492-1553,552.5z"/>
	<path class="st7" d="M-1611.9,552.5c0,27.9-22.6,50.6-50.6,50.6s-50.6-22.6-50.6-50.6c0-27.9,22.6-50.6,50.6-50.6
		S-1611.9,524.6-1611.9,552.5z"/>
	<path class="st20" d="M-1652.7,550.3c1.7,0,3,1.4,2.7,3c-0.5,2.3-1.7,4.4-3.4,6.1c-2.4,2.4-5.6,3.7-9,3.7c-3.4,0-6.6-1.3-9-3.7
		c-1.7-1.7-2.8-3.8-3.4-6.1c-0.4-1.6,1-3,2.7-3h9.8H-1652.7z"/>
	<path class="st20" d="M-1679.7,541.4c0,2.1-1.7,3.9-3.9,3.9c-2.1,0-3.9-1.7-3.9-3.9c0-2.1,1.7-3.9,3.9-3.9
		C-1681.5,537.5-1679.7,539.2-1679.7,541.4z"/>
	<path class="st20" d="M-1636.4,541.4c0,2.1-1.7,3.9-3.9,3.9s-3.9-1.7-3.9-3.9c0-2.1,1.7-3.9,3.9-3.9S-1636.4,539.2-1636.4,541.4z"
		/>
	<circle class="st21" cx="-845" cy="369" r="74"/>
	<circle class="st7" cx="-845" cy="369" r="34.2"/>
	<path class="st21" d="M-838.8,356.6c4.2,0,7.7,3.5,7.7,8.3c0,8.8-8.6,14.1-12.7,16.6c-0.7,0.4-1.6,0.4-2.3,0
		c-4.2-2.5-12.7-7.8-12.7-16.6c0-4.8,3.5-8.3,7.7-8.3c2.6,0,4.9,1.4,6.2,2.8C-843.6,358-841.3,356.6-838.8,356.6z"/>
	<path class="st19" d="M-782.8,717c-1.4-5.3,1.7-10.8,7.1-12.2l35.7-9.6c5.3-1.4,10.8,1.7,12.2,7.1l9.6,35.7
		c1.4,5.3-1.7,10.8-7.1,12.2l-35.7,9.6c-5.3,1.4-10.8-1.7-12.2-7.1L-782.8,717z"/>
	<path class="st19" d="M-1422.9,287.9c-0.7-2.7,0.9-5.4,3.5-6.1l20.1-5.4c2.7-0.7,5.4,0.9,6.1,3.5l5.4,20c0.7,2.7-0.9,5.4-3.5,6.1
		l-20.1,5.4c-2.7,0.7-5.4-0.9-6.1-3.5L-1422.9,287.9z"/>
	<path class="st21" d="M-1631.2,865.1c1.4-2.4,4.5-3.2,6.8-1.8l17.9,10.5c2.4,1.4,3.2,4.5,1.8,6.8l-10.5,17.9
		c-1.4,2.4-4.5,3.2-6.8,1.8l-17.9-10.5c-2.4-1.4-3.2-4.5-1.8-6.8L-1631.2,865.1z"/>
</g>
<g id="Layer_2">
	<path class="st22" d="M-1102.7,3110.4c312.3,0,565.5-253.2,565.5-565.5c0-312.3-253.2-565.5-565.5-565.5
		c-312.3,0-565.5,253.2-565.5,565.5C-1668.2,2857.2-1415.1,3110.4-1102.7,3110.4z M-1102.7,3113.4c314,0,568.5-254.5,568.5-568.5
		c0-314-254.5-568.5-568.5-568.5c-314,0-568.5,254.5-568.5,568.5C-1671.2,2858.9-1416.7,3113.4-1102.7,3113.4z"/>
	<path class="st23" d="M-1507.7,2592.9l20.6,20c17.2,16.7,15.2,44.9-4.2,59c-15.4,11.2-36.8,9.5-50.2-4.1l-27.6-27.9l-26.1-13
		c-3.2-1.6-6.8-2.3-10.4-2.1l-93.9,6.9c-1.7,0.1-3.3-0.4-4.7-1.4c-4.5-3.5-2.9-10.7,2.7-12l22.8-4.9c-4.1-4.3-2.1-11.3,3.6-12.9
		l96.4-25.6l-25.2-14.2c-3.3-1.9-4.9-5.9-3.6-9.5c1.3-3.8,5.3-6.1,9.3-5.2l67.1,15.3c6,1.4,11,5.4,13.6,10.9L-1507.7,2592.9z"/>
	<path class="st2" d="M-1606.8,2606.3c0.1,0.8-0.5,1.6-1.3,1.6l-68,7c-0.8,0.1-1.6-0.5-1.6-1.3c-0.1-0.8,0.5-1.6,1.3-1.6l68-7
		C-1607.6,2604.8-1606.8,2605.4-1606.8,2606.3z"/>
	
		<linearGradient id="SVGID_7_" gradientUnits="userSpaceOnUse" x1="-1260.5331" y1="5793.0537" x2="-1013.4031" y2="5575.9868" gradientTransform="matrix(1 0 0 -1 0 8472)">
		<stop  offset="0" style="stop-color:#97F7F5"/>
		<stop  offset="1" style="stop-color:#FBC3DE"/>
	</linearGradient>
	<path class="st24" d="M-1139.3,2585.2c25.9-27.5,69.1-28.8,96.6-2.9c27.5,25.9,28.8,69.1,2.9,96.6l-203.1,215.9
		c-25.9,27.5-69.1,28.8-96.6,2.9c-27.5-25.9-28.8-69.1-2.9-96.6L-1139.3,2585.2z"/>
	
		<linearGradient id="SVGID_8_" gradientUnits="userSpaceOnUse" x1="-1408.8352" y1="5685.5488" x2="-1107.6152" y2="5879.3096" gradientTransform="matrix(1 0 0 -1 0 8472)">
		<stop  offset="0" style="stop-color:#97F7F5"/>
		<stop  offset="1" style="stop-color:#FBC3DE"/>
	</linearGradient>
	<path class="st25" d="M-1245.1,2798.6l-226.1-183.2l-106.3,61.3l238.7,221.3c27.5,25.9,70.7,24.6,96.6-2.8
		C-1216.4,2867.7-1217.7,2824.5-1245.1,2798.6z"/>
	<path class="st22" d="M-783.2,3015.4c-92.2,64.6-198.4,98-319.5,98c-29.8,0-59.1-2.3-87.7-6.7l42.2-146.3l363,3.5L-783.2,3015.4z"
		/>
	
		<linearGradient id="SVGID_9_" gradientUnits="userSpaceOnUse" x1="-1262.24" y1="5739.3462" x2="-796.0101" y2="5666.1733" gradientTransform="matrix(1 0 0 -1 0 8472)">
		<stop  offset="0" style="stop-color:#97F7F5"/>
		<stop  offset="1" style="stop-color:#FBC3DE"/>
	</linearGradient>
	<path class="st26" d="M-828.7,2545.9c-13.9-5.9-247,11-278,29.5c-13,7.8-11,53.2-11,77c0,63-6.5,73-5,114.5s-24,133.5-33,174.5
		s5.7,60.4,20.5,65.5c30.5,10.5,231,6.7,351.5,0v-344.5C-783.7,2662.4-783.7,2564.9-828.7,2545.9z"/>
	<path class="st16" d="M-982.7,2610.4c0.8,0,1.5,0.7,1.5,1.5v394.5c0,0.8-0.7,1.5-1.5,1.5s-1.5-0.7-1.5-1.5v-394.5
		C-984.2,2611.1-983.6,2610.4-982.7,2610.4z"/>
	<path class="st19" d="M-1071.7,2565.2l49.4-6.8l134-12.1c3-0.3,4.5,3.6,2.1,5.4l-48.5,36.3c-1.4,1-1.6,3-0.5,4.3l22,26.9
		c1.8,2.1-0.1,5.3-2.8,4.9l-67.6-11.1c-0.4-0.1-0.8-0.1-1.1,0l-60.5,13.6c-3.1,0.7-5-3.2-2.6-5.2l22.3-18.2c1.6-1.3,1.4-3.9-0.4-4.9
		l-46.8-27.4C-1075.2,2569.4-1074.5,2565.6-1071.7,2565.2z"/>
	<path class="st0" d="M-1085.2,2327.9c0,24.4,17.2,45.1,40.6,51.5c5.3,10.9,14.2,20.3,25.4,27.2c15.3,38.6,48,106.9,80.1,84.4
		c44-30.9,68-86.7,60.6-108.9c-4.1-12.1-9.9-22.1-16.8-30.4c-2.3-33.6-36.1-60.3-77.4-60.3c-4.9,0-9.8,0.4-14.5,1.1
		c-10.3-11.1-25.3-18.1-42-18.1C-1060.2,2274.4-1085.2,2298.4-1085.2,2327.9z"/>
	<path class="st27" d="M-1064.4,2354.9c8.6-31.1,40.3-49.8,71.7-42.4c27.4,6.4,46,30.6,46.4,57.5c2,0.1,4,0.5,5.9,1.1
		c15.4,4.9,23.1,23.9,17.2,42.3c-3.1,9.7-9.3,17.3-16.8,21.6l19.4,115.7c0.6,3.2-0.5,6.5-2.9,8.8l-51.8,50.2
		c-4.4,4.3-11.6,3.6-15.1-1.4l-30.8-43.7c-1-1.5-1.6-3.2-1.8-5l-4.9-63.7c-5.1-0.4-10.2-1.5-15.3-3.3
		c-30.5-10.8-47.4-43.4-38.7-74.5L-1064.4,2354.9z"/>
	<path class="st3" d="M-993.2,2480.4l-35,15.5l2.5,33L-993.2,2480.4z"/>
	<path class="st0" d="M-1051.7,2385.1c1.6,0.5,2.5,2.2,1.9,3.8l-2.8,9c-0.5,1.6-2.2,2.5-3.8,1.9c-1.6-0.5-2.4-2.2-1.9-3.8l2.9-9
		C-1055,2385.5-1053.3,2384.6-1051.7,2385.1z M-1003.7,2392.9c1.6,0.5,2.5,2.2,2,3.8l-2.8,9c-0.5,1.6-2.2,2.5-3.8,2
		c-1.6-0.5-2.5-2.2-2-3.8l2.9-9C-1006.9,2393.3-1005.2,2392.4-1003.7,2392.9z"/>
	<path class="st2" d="M-1033.8,2400.4c0.8,0.3,1.2,1.1,0.9,1.9l-9.2,25.9l9.6-0.4c0.8,0,1.5,0.6,1.6,1.4c0,0.8-0.6,1.5-1.4,1.6
		l-11.8,0.5c-0.5,0-1-0.2-1.3-0.6c-0.3-0.4-0.4-0.9-0.2-1.4l9.9-28C-1035.5,2400.5-1034.6,2400.1-1033.8,2400.4z"/>
	<path class="st6" d="M-1008.9,2434.8c0.7,0.4,1,1.3,0.6,2l-1.3-0.7c1.3,0.7,1.3,0.7,1.3,0.7l0,0v0l0,0c0,0,0,0,0,0.1
		c0,0.1-0.1,0.1-0.1,0.2c-0.1,0.2-0.3,0.5-0.5,0.8c-0.4,0.7-1.1,1.5-1.9,2.5c-1.6,1.9-4.1,4.2-7.1,5.3c-3,1.1-5.5,1.2-7.4,1
		c-0.9-0.1-1.7-0.3-2.2-0.5c-0.3-0.1-0.5-0.2-0.6-0.2c-0.1,0-0.1-0.1-0.2-0.1c0,0-0.1,0-0.1,0l0,0l0,0v0l0,0c0,0,0,0,0.6-1.4
		l-0.6,1.4c-0.8-0.4-1.1-1.2-0.7-2c0.4-0.7,1.2-1.1,2-0.7l0,0c0,0,0.1,0,0.1,0c0.1,0,0.2,0.1,0.4,0.1c0.4,0.1,1,0.3,1.7,0.4
		c1.4,0.2,3.5,0.1,6-0.8c2.4-0.9,4.4-2.7,5.9-4.5c0.7-0.9,1.3-1.7,1.7-2.2c0.2-0.3,0.4-0.5,0.4-0.7c0-0.1,0.1-0.1,0.1-0.2l0,0v0
		C-1010.6,2434.6-1009.6,2434.4-1008.9,2434.8z"/>
	<path class="st28" d="M-958.9,2413.9c0,0,1.5-8.3,5.2-13.6 M-938.8,2394.4c0,0-7.5,0.1-11.4,2.4c-1.3,0.8-2.5,2-3.5,3.4
		 M-953.7,2400.3c0,0,6.2-0.8,9.9,0.4c1.9,0.6,4.7,2.4,4.7,2.4"/>
	<path class="st3" d="M-973.2,2313.4c-21.8-12.9-51.5-23.9-75.5-6.5c-14.7,10.6-20.5,45.5-20.5,45.5s22.5-39,39.5-21.5
		c34.3,35.3,52,8.3,60,31.5c5.2,15.1,0,41,0,41l14-28.5l32-18.5C-923.7,2356.4-953.6,2325-973.2,2313.4z"/>
	<path class="st15" d="M-948.2,2320.4c11.5,19.3,12.5,51.5,12.5,51.5h14c1.7-12.2-6-45-12.5-54.5c-12.1-17.7-33-26.5-33-26.5
		l-20,1.5C-987.2,2292.4-958.6,2303-948.2,2320.4z"/>
	<path class="st15" d="M-895.7,2403.9c0,23.5-19,42.5-42.5,42.5s-42.5-19-42.5-42.5c0-23.5,19-42.5,42.5-42.5
		S-895.7,2380.4-895.7,2403.9z"/>
	<path class="st29" d="M-911.7,2405.9c0,14.9-12.1,27-27,27s-27-12.1-27-27c0-14.9,12.1-27,27-27S-911.7,2391-911.7,2405.9z"/>
	<path class="st23" d="M-965.8,2660.7c22.3,20.6,43,43.5,43,43.5c10.3,8.2,12.3,23.1,4.6,33.8l-7.1,9.7c-7.3,10.1-20.6,13.8-32.1,9
		l-55.8-19.2l-79.4-55.5c-2.8-1.9-4.9-4.7-6.1-7.9l-2.7-7.2c-1.8-4.8,0.7-10,5.5-11.7c-4.6-0.4-7.7-5-6.4-9.4l0.5-1.6
		c1.1-3.5,4.3-6,8-6.1l3.7-0.1l-1.3-1.5c-2.9-3.3-2.9-8.2,0-11.5c2.3-2.6,6-3.5,9.2-2.3l62.8,22.6l24.9,11.2l-24.5-29.1
		c-1.1-1.3-1.1-3.2-0.1-4.5c1.2-1.5,3.3-1.9,4.9-0.7C-1006.4,2627.7-984,2644-965.8,2660.7z"/>
	<path class="st2" d="M-1035.8,2700c-0.4,0.7-1.3,1-2,0.7l-58-28.9c-0.7-0.4-1-1.3-0.7-2s1.3-1,2-0.7l58,28.9
		C-1035.8,2698.3-1035.5,2699.2-1035.8,2700z M-1029.4,2682.4c-0.3,0.8-1.2,1.1-1.9,0.8l-61-24.9c-0.8-0.3-1.1-1.2-0.8-2
		c0.3-0.8,1.2-1.1,2-0.8l61,24.9C-1029.4,2680.7-1029,2681.6-1029.4,2682.4z M-1017.6,2667.9c-0.3,0.8-1.2,1.1-2,0.8l-67.7-26.7
		c-0.8-0.3-1.1-1.2-0.8-1.9c0.3-0.8,1.2-1.1,2-0.8l67.7,26.7C-1017.7,2666.2-1017.3,2667.1-1017.6,2667.9z"/>
	
		<linearGradient id="SVGID_10_" gradientUnits="userSpaceOnUse" x1="-919.8871" y1="5580.2148" x2="-708.6571" y2="5766.3857" gradientTransform="matrix(1 0 0 -1 0 8472)">
		<stop  offset="0" style="stop-color:#97F7F5"/>
		<stop  offset="1" style="stop-color:#FBC3DE"/>
	</linearGradient>
	<path class="st30" d="M-884.8,2658.9c-23.4-29.6-18.5-72.5,11.1-96c29.6-23.4,72.5-18.5,96,11.1l184.2,232.2
		c23.5,29.6,18.5,72.5-11.1,96c-29.6,23.4-72.5,18.5-96-11.1L-884.8,2658.9z"/>
	<path class="st0" d="M-895.9,2590.5c0.8,0.2,1.3,1,1.1,1.8l-1.1,4.7c-5.4,21.9,0.3,45.2,15.4,62l45.9,51.5c0.6,0.6,0.5,1.6-0.1,2.1
		s-1.6,0.5-2.1-0.1l-45.9-51.5c-15.7-17.6-21.7-41.8-16.1-64.7l1.2-4.7C-897.5,2590.8-896.7,2590.3-895.9,2590.5z"/>
	
		<linearGradient id="SVGID_11_" gradientUnits="userSpaceOnUse" x1="-825.228" y1="5442.749" x2="-792.038" y2="5682.6191" gradientTransform="matrix(1 0 0 -1 0 8472)">
		<stop  offset="0" style="stop-color:#97F7F5"/>
		<stop  offset="1" style="stop-color:#FBC3DE"/>
	</linearGradient>
	<path class="st31" d="M-1012.2,2779.1l71-105.2l318.5,107.3c35.3,13.4,53,52.9,39.5,88.2c-13.4,35.3-52.9,53-88.2,39.5
		L-1012.2,2779.1z"/>
	<path class="st0" d="M-940.7,2675.4c0.3-0.8,1.1-1.2,1.9-0.9l221.5,75.5c0.8,0.3,1.2,1.1,0.9,1.9c-0.3,0.8-1.1,1.2-1.9,0.9
		l-221.5-75.5C-940.5,2677.1-940.9,2676.2-940.7,2675.4z"/>
	<path class="st0" d="M-919.6,2815.9c0.3-0.8,1.2-1.2,1.9-0.9l142,53.5c0.8,0.3,1.2,1.2,0.9,1.9c-0.3,0.8-1.2,1.2-1.9,0.9l-142-53.5
		C-919.5,2817.5-919.9,2816.7-919.6,2815.9z"/>
	<path class="st0" d="M-1556.9,2203.5c0.5-0.7,1.4-0.8,2.1-0.3l244.5,188.5c0.7,0.5,0.8,1.4,0.3,2.1s-1.4,0.8-2.1,0.3l-244.5-188.5
		C-1557.3,2205.1-1557.4,2204.2-1556.9,2203.5z"/>
	<path class="st19" d="M-1293.9,2340.2c15.4-20.2,44.3-24,64.4-8.6c20.2,15.4,24.1,44.3,8.6,64.4l-66.8,87.5
		c-15.4,20.2-44.3,24-64.4,8.6c-20.2-15.4-24-44.3-8.6-64.4L-1293.9,2340.2z"/>
	<path class="st0" d="M-1312.4,2363.5c0.5-0.7,1.4-0.8,2.1-0.3l71.2,52.9c0.7,0.5,0.8,1.4,0.3,2.1l-30.1,40.6
		c-0.5,0.7-1.4,0.8-2.1,0.3l-71.2-52.9c-0.7-0.5-0.8-1.4-0.3-2.1L-1312.4,2363.5z M-1310.9,2366.5l-28.3,38.1l68.8,51.1l28.3-38.1
		L-1310.9,2366.5z"/>
	<path class="st0" d="M-1307.5,2330.9c0.6,0.1,1,0.5,1.2,1.1l11.5,42c0.2,0.8-0.3,1.6-1.1,1.8c-0.8,0.2-1.6-0.3-1.8-1.1l-10.7-39.1
		l-56.7,72.7l42.6,8.5c0.8,0.2,1.3,1,1.2,1.8c-0.2,0.8-1,1.3-1.8,1.2l-45-9c-0.5-0.1-0.9-0.5-1.1-0.9c-0.2-0.5-0.1-1,0.2-1.4l60-77
		C-1308.6,2331.1-1308,2330.8-1307.5,2330.9z"/>
	<path class="st0" d="M-1209.1,2404.8c-0.3-0.5-0.8-0.8-1.4-0.8l-43.5,0.5c-0.8,0-1.5,0.7-1.5,1.5c0,0.8,0.7,1.5,1.5,1.5l40.6-0.5
		l-54.3,74.5l-20-38.6c-0.4-0.7-1.3-1-2-0.6c-0.7,0.4-1,1.3-0.6,2l21.1,40.8c0.2,0.5,0.7,0.8,1.2,0.8c0.5,0,1-0.2,1.3-0.6l57.4-78.9
		C-1208.9,2405.9-1208.8,2405.3-1209.1,2404.8z"/>
	<path class="st0" d="M-1256.3,2363.2c0.7,0.5,0.8,1.4,0.3,2.1l-66,87.5c-0.5,0.7-1.4,0.8-2.1,0.3c-0.7-0.5-0.8-1.4-0.3-2.1l66-87.5
		C-1257.9,2362.9-1257,2362.7-1256.3,2363.2z"/>
	<path class="st20" d="M-1156.2,2127c1.9-3.6,7-3.6,8.9,0l11.5,22.3c0.4,0.8,1,1.4,1.7,1.9l18.2,11.7c3.1,2,3.1,6.5,0,8.4
		l-17.8,11.4c-1,0.7-1.8,1.6-2.1,2.8l-11.3,38.5c-1.4,4.8-8.2,4.8-9.6,0l-11.3-38.5c-0.3-1.2-1.1-2.2-2.1-2.8l-17.8-11.4
		c-3.1-2-3.1-6.5,0-8.4l18.2-11.7c0.7-0.5,1.3-1.1,1.7-1.9L-1156.2,2127z"/>
	<path class="st18" d="M-1342.2,2563c1.9-3.6,7-3.6,8.9,0l5.3,10.2c0.4,0.8,1,1.4,1.7,1.9l8.4,5.4c3.1,2,3.1,6.5,0,8.4l-8,5.1
		c-1,0.7-1.8,1.6-2.1,2.8l-5,17.1c-1.4,4.8-8.2,4.8-9.6,0l-5-17.1c-0.3-1.2-1.1-2.2-2.1-2.8l-8-5.1c-3.1-2-3.1-6.5,0-8.4l8.4-5.4
		c0.7-0.5,1.3-1.1,1.7-1.9L-1342.2,2563z"/>
	<path class="st32" d="M-701.2,2495c1.9-3.6,7-3.6,8.9,0l11.5,22.3c0.4,0.8,1,1.4,1.7,1.9l18.2,11.7c3.1,2,3.1,6.5,0,8.4l-17.8,11.4
		c-1,0.7-1.8,1.6-2.1,2.8l-11.3,38.5c-1.4,4.8-8.2,4.8-9.6,0l-11.3-38.5c-0.3-1.2-1.1-2.2-2.1-2.8l-17.8-11.4c-3.1-2-3.1-6.5,0-8.4
		l18.2-11.7c0.7-0.5,1.3-1.1,1.7-1.9L-701.2,2495z"/>
	<path class="st21" d="M-808.2,2260.4c0-11,8.9-20,20-20h216c11.1,0,20,9,20,20V2396c0,11-8.9,20-20,20h-188.7
		c-6.1,0-12.1,1.9-17.2,5.4l-14.5,10.1c-6.6,4.6-15.7-0.1-15.7-8.2V2260.4z"/>
	<path class="st3" d="M-758.7,2293.9c-0.8,0-1.5,0.7-1.5,1.5c0,0.8,0.7,1.5,1.5,1.5h162c0.8,0,1.5-0.7,1.5-1.5
		c0-0.8-0.7-1.5-1.5-1.5H-758.7z"/>
	<path class="st3" d="M-758.7,2329.9c-0.8,0-1.5,0.7-1.5,1.5c0,0.8,0.7,1.5,1.5,1.5h62c0.8,0,1.5-0.7,1.5-1.5c0-0.8-0.7-1.5-1.5-1.5
		H-758.7z"/>
	<path class="st3" d="M-681.7,2331.4c0-0.8,0.7-1.5,1.5-1.5h84c0.8,0,1.5,0.7,1.5,1.5c0,0.8-0.7,1.5-1.5,1.5h-84
		C-681.1,2332.9-681.7,2332.2-681.7,2331.4z"/>
	<path class="st3" d="M-758.7,2365.9c-0.8,0-1.5,0.7-1.5,1.5c0,0.8,0.7,1.5,1.5,1.5h162c0.8,0,1.5-0.7,1.5-1.5
		c0-0.8-0.7-1.5-1.5-1.5H-758.7z"/>
</g>
<g id="Layer_3">
	<path class="st1" d="M-837.5,3963.7c2.9-8.6,4.5-17.7,4.5-27.2c0-48.4-41.2-87.7-92.1-87.7c-50.8,0-92.1,39.3-92.1,87.7
		s41.2,87.7,92.1,87.7c0.6,0,1.2,0,1.7,0c0,0,0,0,0,0c0,35.5,28.8,64.3,64.3,64.3s64.3-28.8,64.3-64.3
		C-794.8,3996.3-812.6,3972.6-837.5,3963.7z"/>
	<path class="st33" d="M-1017.1,3913.9c8.6-32.1,41.6-51.2,73.8-42.6c32.1,8.6,51.2,41.6,42.6,73.8l-2,7.4c7.3-4,15.9-5,23.9-2
		c15.8,5.8,23.4,24.5,17.1,41.8c-5.4,14.8-19.3,23.8-33,22.5l8.8,65.5c1.7,12.9-6.3,25.1-18.9,28.6l-30.2,8.3
		c-16.6,4.6-33-7.9-33-25.1v-35.2c-8,1.2-16.3,0.8-24.6-1.4c-32.1-8.6-51.2-41.6-42.6-73.8L-1017.1,3913.9z"/>
	<path class="st27" d="M-880,3970.2c0.1,0.8-0.5,1.6-1.3,1.7l0,0l0,0l-0.1,0c-0.1,0-0.2,0-0.3,0c-0.2,0-0.6,0.1-1,0.2
		c-0.9,0.2-2.1,0.4-3.5,0.7c-2.8,0.7-5.9,1.8-7.9,3.3c-0.5,0.4-0.9,0.8-1.3,1.2c0.2,0,0.5-0.1,0.8-0.1c2.5-0.3,5.7-0.6,8.3,0
		c1.4,0.3,3,0.9,4.2,1.4c0.6,0.3,1.2,0.5,1.5,0.7c0.2,0.1,0.3,0.2,0.5,0.2c0,0,0.1,0,0.1,0.1l0,0l0,0l0,0c0,0,0,0-0.6,1.3l0.6-1.3
		c0.8,0.4,1.1,1.3,0.7,2c-0.4,0.7-1.3,1.1-2,0.7 M-881.4,3982.3L-881.4,3982.3L-881.4,3982.3c-0.1,0-0.1,0-0.1-0.1
		c-0.1,0-0.2-0.1-0.4-0.2c-0.4-0.2-0.9-0.4-1.4-0.6c-1.2-0.5-2.6-1-3.7-1.2c-2-0.4-4.8-0.3-7.2,0.1c-1.2,0.2-2.2,0.4-3,0.5
		c-0.2,0-0.4,0.1-0.5,0.1c-1.6,3.2-2.6,7-3.2,10.2c-0.3,1.7-0.5,3.1-0.6,4.2c-0.1,0.5-0.1,0.9-0.1,1.2c0,0.1,0,0.2,0,0.3v0.1l0,0v0
		c0,0.8-0.8,1.5-1.6,1.4c-0.8-0.1-1.4-0.8-1.4-1.6l1.4,0.1c-1.4-0.1-1.4-0.1-1.4-0.1v0v0v0c0,0,0-0.1,0-0.1c0-0.1,0-0.2,0-0.4
		c0-0.3,0.1-0.7,0.1-1.3c0.1-1.1,0.3-2.6,0.7-4.4c0.7-3.5,1.8-8,3.9-11.7c1.1-2,2.4-3.8,4.2-5.1c2.5-1.9,6.1-3.1,9-3.8
		c1.5-0.4,2.8-0.6,3.7-0.8c0.5-0.1,0.9-0.1,1.1-0.2c0.1,0,0.2,0,0.3,0l0.1,0l0,0l0,0c0,0,0,0,0.2,1.5l-0.2-1.5
		c0.8-0.1,1.6,0.5,1.7,1.3"/>
	<path class="st0" d="M-1005.2,3937.1c1.6,0.3,2.7,1.9,2.4,3.5l-1.8,8.9c-0.3,1.6-1.9,2.7-3.5,2.4c-1.6-0.3-2.7-1.9-2.3-3.5l1.8-8.9
		C-1008.4,3937.8-1006.8,3936.8-1005.2,3937.1z"/>
	<path class="st6" d="M-1002.5,3982.1c0.8,0.3,1.1,1.2,0.8,2l-1.3-0.6c1.3,0.6,1.3,0.6,1.3,0.6v0v0l0,0l0,0c0,0,0,0,0,0.1
		c0,0.1-0.1,0.1-0.1,0.2c-0.1,0.2-0.2,0.5-0.4,0.8c-0.4,0.7-0.9,1.6-1.6,2.6c-1.4,2-3.5,4.5-6.3,5.9c-2.7,1.4-5.2,1.7-7,1.7
		c-0.9,0-1.6-0.1-2.2-0.2c-0.3-0.1-0.5-0.1-0.6-0.1c-0.1,0-0.1,0-0.2-0.1c0,0,0,0-0.1,0l0,0v0l0,0l0,0c0,0,0,0,0.5-1.4l-0.5,1.4
		c-0.8-0.3-1.2-1.1-0.9-1.9c0.3-0.8,1.1-1.2,1.9-0.9l0,0c0,0,0,0,0.1,0c0.1,0,0.2,0.1,0.4,0.1c0.4,0.1,0.9,0.1,1.6,0.2
		c1.4,0,3.4-0.2,5.6-1.4c2.2-1.1,3.9-3.1,5.2-4.9c0.6-0.9,1.1-1.7,1.4-2.3c0.2-0.3,0.3-0.5,0.4-0.7c0-0.1,0.1-0.1,0.1-0.2l0,0v0l0,0
		C-1004.1,3982.1-1003.2,3981.8-1002.5,3982.1z"/>
	<path class="st34" d="M-1042.3,3964.8l22.1-36l-7,44.3L-1042.3,3964.8z"/>
	<path class="st3" d="M-943.3,4048.6l-24.8,8.2v24.8L-943.3,4048.6z"/>
	<path class="st4" d="M-977.2,3917c-26.4-16-29.1-27.7-16.1-39.1c10-8.7,55.6-21.3,84.7-6.5c19.8,10,28.7,20.4,28.7,20.4
		s-9.1,45.2-14.3,52.5c-5.2,7.4-25.6,18.4-37.3,34.7c0-27.4,10.9-30,11.3-37.3C-919.8,3932.7-944.2,3937-977.2,3917z"/>
	<path class="st15" d="M-903.3,3952.2l-36-102c0,0,5.5-1,9.1-1.3c5.2-0.4,13.5,0,13.5,0l35.6,100.7c0,0-6.3-0.7-10.4-0.4
		C-896.5,3949.5-903.3,3952.2-903.3,3952.2z"/>
	<path class="st15" d="M-914.4,3817.4c9.1-7.1,37.3-17.2,37.3-17.2s-3.7,30-8.4,40.3c-6.9,14.9-40.7,25.2-40.7,25.2
		S-927.8,3827.8-914.4,3817.4z"/>
	<path class="st15" d="M-963,3838.6c-3.7-10.9-4-40.8-4-40.8s27.2,13.4,35.3,21.2c11.8,11.4,10.4,46.7,10.4,46.7
		S-957.5,3854.7-963,3838.6z"/>
	<path class="st34" d="M-1230.3,3860.9l37.7,78.1l1.5,2.7c9.4,17.3-0.2,38.8-19.4,43.4l-17.4,4.2c-15.5,3.7-31.2-5.3-35.8-20.6
		l-2.9-9.7l-18-37.5l-27-11l-5-69l70.6,8.2C-1239.2,3850.6-1233.2,3854.8-1230.3,3860.9z"/>
	<path class="st34" d="M-1047.1,4200.7l-145.8-262.1l-74.7,19.7l94.8,295.9c14.8,34.7,54.9,50.9,89.6,36.1
		C-1048.5,4275.5-1032.3,4235.4-1047.1,4200.7z"/>
	<path class="st35" d="M-1327,3819.8l12.9-16.8c0.9-1.2,1.4-2.7,1.4-4.2c0-3.8-3.1-6.9-6.8-6.9c-3.8,0-6.8,3.1-6.8,6.8v2.8
		c0,1.4-0.4,2.8-1.2,4l-6.2,9.4c-1,1.6-0.9,3.7,0.4,5.1C-1331.5,3822-1328.5,3821.9-1327,3819.8z"/>
	<path class="st36" d="M-1320.1,3794l-25-0.8c-1.1,0-2.1-0.7-2.6-1.7l-2.4-5.2c-0.9-2,0.5-4.2,2.7-4.2h90c6.1,0,9.5,7,5.9,11.8
		l-1.2,1.6c-0.8,1.1-1.9,1.9-3.2,2.4l-9.3,3.7c-2.8,1.1-4.7,3.8-4.7,6.9v7.9c0,4.1-3.3,7.4-7.4,7.4h-28.4c-4.1,0-7.4-3.3-7.4-7.4
		v-15C-1313,3797.4-1316.2,3794.1-1320.1,3794z"/>
	<path class="st19" d="M-1272.7,3837.3h-35.4c-3.5,0-6.6,2.5-7.2,6l-7.3,37.9c-0.2,1.2-0.7,2.3-1.5,3.2l-22.3,27.9
		c-1,1.3-1.6,2.9-1.6,4.6v85.4c0,8.1,6.6,14.7,14.7,14.7h82.1c8.1,0,14.7-6.6,14.7-14.7v-86.6c0-1-0.2-1.9-0.5-2.8l-28.9-71.1
		C-1267,3839.1-1269.7,3837.3-1272.7,3837.3z"/>
	<path class="st35" d="M-1315.6,3819.3c0-2.8,2.3-5.2,5.2-5.2h38.3c2.8,0,5.2,2.3,5.2,5.2v13.3c0,2.8-2.3,5.2-5.2,5.2h-38.3
		c-2.8,0-5.2-2.3-5.2-5.2V3819.3z"/>
	<path class="st33" d="M-1334.2,3850.9c4.5-4.5,11.8-4.5,16.3,0l26,26c4.5,4.5,4.5,11.8,0,16.3s-11.8,4.5-16.3,0l-26-26
		C-1338.7,3862.7-1338.7,3855.4-1334.2,3850.9z"/>
	<path class="st33" d="M-1343.2,3868.9c4.5-4.5,11.8-4.5,16.3,0l26,26c4.5,4.5,4.5,11.8,0,16.3s-11.8,4.5-16.3,0l-26-26
		C-1347.7,3880.7-1347.7,3873.4-1343.2,3868.9z"/>
	<path class="st33" d="M-1352.2,3886.9c4.5-4.5,11.8-4.5,16.3,0l26,26c4.5,4.5,4.5,11.8,0,16.3s-11.8,4.5-16.3,0l-26-26
		C-1356.7,3898.7-1356.7,3891.4-1352.2,3886.9z"/>
	<path class="st27" d="M-1335.2,3865c0.6-0.6,1.5-0.7,2.1-0.1l32.5,29.5c0.6,0.6,0.7,1.5,0.1,2.1c-0.6,0.6-1.5,0.7-2.1,0.1
		l-32.5-29.5C-1335.7,3866.6-1335.7,3865.7-1335.2,3865z M-1345.2,3884c0.6-0.6,1.5-0.7,2.1-0.1l31,28c0.6,0.6,0.7,1.5,0.1,2.1
		c-0.6,0.6-1.5,0.7-2.1,0.1l-31-28C-1345.7,3885.6-1345.7,3884.7-1345.2,3884z"/>
	
		<linearGradient id="SVGID_12_" gradientUnits="userSpaceOnUse" x1="-1048.016" y1="4093.0879" x2="-785.016" y2="4061.2041" gradientTransform="matrix(1 0 0 -1 0 8472)">
		<stop  offset="0" style="stop-color:#BCECFF"/>
		<stop  offset="1" style="stop-color:#C2BBFF"/>
	</linearGradient>
	<path class="st37" d="M-897.7,4084.9l-59.7,9.4c-41.2,6.5-74.1,37.9-82.5,78.8l-60.1,294.9c-3,15.2-4.5,71.5-4.5,110.5
		c0,58.5,110.6,145.8,217,124.5c162.5-32.5,173-104.5,168.5-154.5c-2.2-24.4-98.7-309.9-145.7-444
		C-869.6,4090.9-883.4,4082.7-897.7,4084.9z"/>
	<path class="st20" d="M-924.7,4109.9l-45.4,14.2c-7.2,2.2-12.6,8.8-14.2,17.1l-52.2,271.3c-3.1,15.9,9.2,30.3,23.2,27.2l154.1-33.3
		c11.3-2.5,18.5-15.3,15.6-28l-56.4-252.1C-902.9,4113.9-914,4106.5-924.7,4109.9z"/>
	<path class="st19" d="M-1497.3,3741.7c6.5,26.9-1.4,51.8-17.7,55.8c-16.3,3.9-34.7-14.6-41.3-41.5c-6.5-26.9,1.4-51.8,17.7-55.8
		C-1522.3,3696.3-1503.8,3714.8-1497.3,3741.7z"/>
	<path class="st19" d="M-1534.5,3827.3c22.8,15.6,33.7,39.4,24.2,53.3c-9.4,13.8-35.6,12.4-58.4-3.2c-22.8-15.6-33.7-39.4-24.2-53.3
		C-1583.5,3810.3-1557.4,3811.7-1534.5,3827.3z"/>
	<path class="st19" d="M-1460.1,3807c-9.2,17-25.1,26.2-35.3,20.6c-10.3-5.6-11.1-23.9-1.9-40.8s25.1-26.2,35.3-20.6
		C-1451.7,3771.8-1450.9,3790.1-1460.1,3807z"/>
	<path class="st0" d="M-1521.3,3758.1c0.8-0.2,1.6,0.4,1.8,1.2l15.7,80.6l21-36.5c0.4-0.7,1.3-1,2-0.6c0.7,0.4,1,1.3,0.6,2
		l-22.7,39.5l6.9,36.9l0,0l23.5,122c0.2,0.8-0.4,1.6-1.2,1.8c-0.8,0.2-1.6-0.4-1.8-1.2l-23.4-121.3l-46.3-23.2c-0.7-0.4-1-1.3-0.7-2
		c0.4-0.7,1.3-1,2-0.7l44.3,22.2l-6.4-34.5l0,0l-16.5-84.5C-1522.7,3759-1522.1,3758.2-1521.3,3758.1z"/>
	<path class="st36" d="M-1561.2,3981.5c-3-5.8,0.3-12.9,6.7-14.3l143.6-32.3c6.4-1.4,12.4,3.5,12.2,10.1l-4.4,139.4
		c-0.1,4.6-3.4,8.4-7.8,9.4l-75.6,17c-4.5,1-9-1.1-11.1-5.2L-1561.2,3981.5z"/>
	<path class="st34" d="M-1341.9,4097.2l20.6,20c17.2,16.7,15.2,44.9-4.2,59c-15.4,11.2-36.8,9.5-50.2-4.1l-27.7-27.9l-26.1-13
		c-3.2-1.6-6.8-2.3-10.4-2.1l-93.9,6.9c-1.7,0.1-3.3-0.4-4.7-1.4c-4.5-3.5-2.9-10.8,2.7-12l22.8-4.9c-4.1-4.3-2.1-11.3,3.6-12.9
		l96.4-25.6l-25.2-14.2c-3.3-1.9-4.9-5.9-3.6-9.5c1.3-3.8,5.3-6.1,9.3-5.2l67.1,15.3c6,1.4,11,5.4,13.6,10.9L-1341.9,4097.2z"/>
	<path class="st27" d="M-1441.6,4110.9c0.1,0.8-0.5,1.6-1.3,1.6l-68,7c-0.8,0.1-1.6-0.5-1.6-1.3c-0.1-0.8,0.5-1.6,1.3-1.6l68-7
		C-1442.4,4109.5-1441.6,4110.1-1441.6,4110.9z"/>
	<path class="st34" d="M-1002.8,4109.9c23.3-24.8,65.7-22.8,94.6,4.5c28.9,27.2,33.5,69.4,10.2,94.2l-183.1,194.5
		c-23.3,24.8-65.7,22.8-94.6-4.5c-29-27.2-33.5-69.4-10.2-94.2L-1002.8,4109.9z"/>
	<path class="st20" d="M-1002.8,4319.6l104.9-111c23.3-24.8,18.7-66.9-10.2-94.2c-29-27.2-71.3-29.3-94.6-4.5l-86.3,92.2
		L-1002.8,4319.6z"/>
	<path class="st34" d="M-1079.3,4302.9l-238.6-181.7l-60.5,48l205.4,233.1c27.4,25.9,70.7,24.6,96.6-2.8
		C-1050.5,4372-1051.8,4328.7-1079.3,4302.9z"/>
	<path class="st0" d="M-895.5,4204c0.6,0.6,0.6,1.5,0.1,2.1l-185,200c-0.6,0.6-1.5,0.6-2.1,0.1s-0.6-1.5-0.1-2.1l185-200
		C-897.1,4203.4-896.1,4203.4-895.5,4204z"/>
	<path class="st0" d="M-1067.5,4179.5c0.6,0.6,0.6,1.5,0.1,2.1l-72.4,77l-45.1-33.8c-0.7-0.5-0.8-1.4-0.3-2.1
		c0.5-0.7,1.4-0.8,2.1-0.3l42.9,32.2l70.6-75C-1069.1,4178.9-1068.1,4178.9-1067.5,4179.5z"/>
	<path class="st3" d="M-592,4770.2l-84-114.2h145.7c25.3,0,49.2,10.1,69.4,25.3c42.1,31.6,88.7,51.4,168.4,81.1
		c4.2,1.6,3.1,7.8-1.4,7.8H-592z"/>
	
		<linearGradient id="SVGID_13_" gradientUnits="userSpaceOnUse" x1="-1359.2058" y1="3928.5793" x2="-762.4397" y2="3809.3992" gradientTransform="matrix(1 0 0 -1 0 8472)">
		<stop  offset="0.2865" style="stop-color:#BCECFF"/>
		<stop  offset="1" style="stop-color:#C2BBFF"/>
	</linearGradient>
	<path class="st38" d="M-1315.3,4674c-11.4-53.5,22.6-106.1,76.1-117.6l395-84.5c53.5-11.4,106.1,22.6,117.6,76.1
		c11.4,53.5-22.6,106.1-76.1,117.6l-395,84.5C-1251.2,4761.5-1303.9,4727.4-1315.3,4674z"/>
	
		<linearGradient id="SVGID_14_" gradientUnits="userSpaceOnUse" x1="-1005.2779" y1="3818.5842" x2="-391.2679" y2="3432.8943" gradientTransform="matrix(1 0 0 -1 0 8472)">
		<stop  offset="0" style="stop-color:#BCECFF"/>
		<stop  offset="1" style="stop-color:#C2BBFF"/>
	</linearGradient>
	<path class="st39" d="M-1316,4675c0-55.3,46.6-99.2,101.8-95.9l575.2,34.4l112,157.5h-693C-1273,4771.1-1316,4728.1-1316,4675z"/>
	<path class="st0" d="M-1148.5,4582c0-0.8,0.7-1.5,1.6-1.4l392,26c0.8,0,1.5,0.7,1.4,1.6s-0.7,1.5-1.6,1.4l-392-26
		C-1147.9,4583.5-1148.6,4582.8-1148.5,4582z"/>
	<path class="st0" d="M-976.1,4497.7c0.2,0.8-0.3,1.6-1.1,1.8l-123,29.5c-0.8,0.2-1.6-0.3-1.8-1.1c-0.2-0.8,0.3-1.6,1.1-1.8
		l123-29.5C-977.1,4496.4-976.3,4496.9-976.1,4497.7z"/>
	<path class="st0" d="M-1383.8,4441.9c-0.8-0.2-1.6,0.3-1.8,1.1l-48.5,220.2c-0.2,0.8,0.3,1.6,1.1,1.8c0.8,0.2,1.6-0.3,1.8-1.1
		l48.5-220.2C-1382.5,4442.9-1383,4442.1-1383.8,4441.9z"/>
	<path class="st19" d="M-1329.2,4412.7c-1.6,7.7-7.8,14-17.2,17.7c-9.3,3.6-21.1,4.3-32.7,1.8c-11.6-2.5-22-7.9-29-15.1
		c-7-7.2-10-15.5-8.4-23.1L-1329.2,4412.7z"/>
	<path class="st19" d="M-1394.6,4443.5c2,6.6,9,10.3,15.6,8.2s10.3-9,8.2-15.6c-2-6.6-9-10.3-15.6-8.2
		C-1392.9,4429.9-1396.6,4436.9-1394.6,4443.5z"/>
	<path class="st3" d="M-1424.6,4473.9c-1.3-1-3-0.1-3,1.5c0.3,6.2,1.2,18.5,5.2,26.1c3.9,7.6,13.4,15.6,18.2,19.4c1.3,1,3,0.1,3-1.5
		c-0.3-6.2-1.2-18.5-5.2-26.1C-1410.3,4485.6-1419.7,4477.7-1424.6,4473.9z"/>
	<path class="st3" d="M-1370.5,4550.6c1.6-0.1,2.6,1.6,1.7,2.9c-3.5,5.1-10.9,14.9-18.3,19.3s-19.6,6-25.8,6.6
		c-1.6,0.1-2.6-1.6-1.7-2.9c3.5-5.1,10.9-14.9,18.3-19.3C-1388.9,4552.8-1376.7,4551.2-1370.5,4550.6z"/>
	<path class="st0" d="M-1476.5,4439.2c0.8-0.1,1.6,0.5,1.7,1.3l31.7,223.3c0.1,0.8-0.5,1.6-1.3,1.7c-0.8,0.1-1.6-0.5-1.7-1.3
		l-31.7-223.3C-1477.9,4440.1-1477.4,4439.3-1476.5,4439.2z"/>
	<path class="st19" d="M-1528.8,4406c1.1,7.8,6.7,14.5,15.8,18.9s20.7,5.9,32.4,4.3c11.7-1.6,22.6-6.2,30.1-12.8
		c7.5-6.6,11.2-14.7,10.1-22.4L-1528.8,4406z"/>
	<path class="st19" d="M-1465.9,4441.6c-2.5,6.4-9.8,9.6-16.2,7c-6.4-2.5-9.6-9.8-7-16.2c2.5-6.4,9.8-9.6,16.2-7
		C-1466.5,4427.9-1463.4,4435.2-1465.9,4441.6z"/>
	<path class="st3" d="M-1438.3,4474.2c1.3-0.9,3,0.1,2.8,1.8c-0.7,6.1-2.6,18.3-7.1,25.6c-4.5,7.3-14.5,14.5-19.6,18
		c-1.3,0.9-3-0.1-2.8-1.8c0.7-6.1,2.6-18.3,7.1-25.6C-1453.4,4484.8-1443.4,4477.6-1438.3,4474.2z"/>
	<path class="st3" d="M-1498,4546.6c-1.6-0.3-2.7,1.3-1.9,2.7c3.1,5.3,9.8,15.7,16.8,20.6c7.1,4.9,19.1,7.5,25.2,8.6
		c1.6,0.3,2.7-1.3,1.9-2.7c-3.1-5.3-9.8-15.7-16.8-20.6C-1479.9,4550.2-1491.9,4547.6-1498,4546.6z"/>
	<path class="st18" d="M-1516.8,4609.6c-1.6-6.3,3.1-12.5,9.7-12.5h147.2c6.5,0,11.3,6.2,9.7,12.5l-34.8,135
		c-1.1,4.4-5.1,7.5-9.7,7.5h-77.5c-4.6,0-8.5-3.1-9.7-7.5L-1516.8,4609.6z"/>
	<path class="st18" d="M-1509,4751.1c0-4.4,3.6-8,8-8h130c4.4,0,8,3.6,8,8v12c0,4.4-3.6,8-8,8h-130c-4.4,0-8-3.6-8-8V4751.1z"/>
	<path class="st20" d="M-1958,4087.1c0-5.5,4.5-10,10-10h119c5.5,0,10,4.5,10,10c0,5.5-4.5,10-10,10h-119
		C-1953.6,4097.1-1958,4092.6-1958,4087.1z"/>
	<path class="st19" d="M-1912.3,3946.2c1.8-3.2,5.2-5.1,8.8-5l25.1,0.4c3.6,0.1,7,2.1,8.7,5.3l12.7,23.9c3.6,6.7-1.4,14.8-9,14.7
		l-51.3-0.8c-7.6-0.1-12.3-8.4-8.5-15L-1912.3,3946.2z"/>
	<path class="st15" d="M-1890.1,3946.6c1.8-3.2,5.2-5.1,8.8-5l25.1,0.4c3.6,0.1,7,2.1,8.7,5.3l12.7,23.9c3.6,6.7-1.4,14.8-9,14.7
		l-51.3-0.8c-7.6-0.1-12.3-8.4-8.5-15L-1890.1,3946.6z"/>
	<path class="st15" d="M-1936.1,3977c0.1-6,5-10.8,10.9-10.8l131.8-0.8c6.2,0,11.2,5,11.1,11.2l-1.5,90.8c-0.1,6-5,10.8-10.9,10.8
		l-131.8,0.8c-6.2,0-11.2-5-11.1-11.2L-1936.1,3977z"/>
	<path class="st19" d="M-1976.4,3976.6c0.1-6.1,5.1-10.9,11.2-10.8l30.4,0.5c6.1,0.1,10.9,5.1,10.8,11.2l-1.5,90.8
		c-0.1,6.1-5.1,10.9-11.2,10.8l-30.4-0.5c-6.1-0.1-10.9-5.1-10.8-11.2L-1976.4,3976.6z"/>
	<path class="st19" d="M-1831.4,4022.6c-0.3,16.5-13.9,29.7-30.4,29.4c-16.5-0.3-29.7-13.9-29.4-30.4s13.9-29.7,30.4-29.4
		C-1844.3,3992.5-1831.2,4006.1-1831.4,4022.6z"/>
	<path class="st36" d="M-1868.9,4015.4c0.4-22.1,18.5-39.7,40.6-39.4l42.6,0.7l-1.5,93.3l-42.6-0.7c-22.1-0.4-39.7-18.5-39.4-40.6
		L-1868.9,4015.4z"/>
	<path class="st20" d="M-1738.8,4024.1c-0.4,25.8-21.6,46.3-47.4,45.9c-25.8-0.4-46.3-21.6-45.9-47.4c0.4-25.8,21.6-46.3,47.4-45.9
		C-1758.9,3977.1-1738.4,3998.3-1738.8,4024.1z"/>
	<path class="st7" d="M-1749.5,4023.9c-0.3,19.8-16.7,35.7-36.5,35.3c-19.8-0.3-35.7-16.7-35.3-36.5c0.3-19.8,16.7-35.7,36.5-35.3
		C-1765,3987.8-1749.2,4004.1-1749.5,4023.9z"/>
	<path class="st40" d="M-1925.2,4086.1h65.2l164.8,691.3c0.4,1.6-0.6,3.2-2.2,3.6c-1.6,0.4-3.2-0.6-3.6-2.2l-163.7-686.7h-21.7
		l27.1,685.9c0.1,1.7-1.2,3-2.9,3.1c-1.7,0.1-3-1.2-3.1-2.9l-27.1-686.1h-27.3l-62.4,686.3c-0.1,1.6-1.6,2.9-3.3,2.7
		c-1.7-0.1-2.9-1.6-2.7-3.3L-1925.2,4086.1z"/>
	<path class="st32" d="M-1112,3691.6c1.9-3.6,7-3.6,8.9,0l11.5,22.3c0.4,0.8,1,1.4,1.7,1.9l18.2,11.7c3.1,2,3.1,6.5,0,8.4
		l-17.8,11.4c-1,0.7-1.8,1.6-2.1,2.8l-11.3,38.5c-1.4,4.8-8.2,4.8-9.6,0l-11.3-38.5c-0.3-1.2-1.1-2.2-2.1-2.8l-17.8-11.4
		c-3.1-2-3.1-6.5,0-8.4l18.2-11.7c0.7-0.5,1.3-1.1,1.7-1.9L-1112,3691.6z"/>
	<path class="st36" d="M-1673,4278.7c1.9-3.6,7-3.6,8.9,0l6.5,12.5c0.4,0.8,1,1.4,1.7,1.9l10.3,6.6c3.1,2,3.1,6.4,0,8.4l-9.9,6.3
		c-1,0.7-1.8,1.6-2.1,2.8l-6.2,21.2c-1.4,4.8-8.2,4.8-9.6,0l-6.2-21.2c-0.3-1.2-1.1-2.2-2.1-2.8l-9.9-6.3c-3.1-2-3.1-6.4,0-8.4
		l10.3-6.6c0.7-0.5,1.3-1.1,1.7-1.9L-1673,4278.7z"/>
	<path class="st18" d="M-625,4056.6c1.9-3.6,7-3.6,8.9,0l14.3,27.6c0.4,0.8,1,1.4,1.8,1.9l22.5,14.4c3.1,2,3.1,6.5,0,8.4l-22,14.1
		c-1,0.7-1.8,1.6-2.1,2.8l-14,47.8c-1.4,4.8-8.2,4.8-9.6,0l-14-47.8c-0.3-1.2-1.1-2.2-2.1-2.8l-22-14.1c-3.1-2-3.1-6.5,0-8.4
		l22.5-14.4c0.7-0.5,1.3-1.1,1.8-1.9L-625,4056.6z"/>
</g>
<g id="Layer_4">
	<path class="st15" d="M-1710.8,5255.5c0-60.8,49.2-110,110-110h574c60.8,0,110,49.2,110,110v1355c0,60.8-49.2,110-110,110h-574
		c-60.8,0-110-49.2-110-110V5255.5z"/>
	<path class="st20" d="M-1680.8,5284.5c0-60.8,49.2-110,110-110h87.7c22.9,0,44.7,10.2,59.4,27.7c14.7,17.6,36.5,27.7,59.4,27.7
		h111.7c19.9,0,38.4-10.6,48.4-27.7c10.1-17.2,28.5-27.7,48.4-27.7h99.9c60.8,0,110,49.2,110,110v1297c0,60.8-49.2,110-110,110h-515
		c-60.8,0-110-49.2-110-110V5284.5z"/>
	<path class="st7" d="M-1696.8,5269.5c0-60.8,49.2-110,110-110h104.6c22.4,0,43.7,9.7,58.4,26.5c14.8,16.8,36.1,26.5,58.4,26.5
		h113.7c19.3,0,37.3-10,47.4-26.5s28.1-26.5,47.4-26.5h116c60.8,0,110,49.2,110,110v14h-766V5269.5z"/>
	<path class="st7" d="M-1696.8,5283.5h766v188h-766V5283.5z"/>
	<path class="st21" d="M-1696.8,5471.5h766v735h-766V5471.5z"/>
	<path class="st7" d="M-1696.8,6206.5h766v390c0,60.8-49.2,110-110,110h-546c-60.8,0-110-49.2-110-110V6206.5z"/>
	<path class="st41" d="M-1665.8,6402.5c0-5.5,4.5-10,10-10l690,2c5.5,0,10,4.5,10,10s-4.5,10-10,10l-690-2
		C-1661.4,6412.5-1665.8,6408-1665.8,6402.5z"/>
	<path class="st41" d="M-1665.8,6465.5c0-5.5,4.5-10,10-10h275c5.5,0,10,4.5,10,10s-4.5,10-10,10h-275
		C-1661.3,6475.5-1665.8,6471-1665.8,6465.5z"/>
	<path class="st41" d="M-1665.8,6525.5c0-5.5,4.5-10,10-10h484c5.5,0,10,4.5,10,10s-4.5,10-10,10h-484
		C-1661.3,6535.5-1665.8,6531-1665.8,6525.5z"/>
	<path class="st41" d="M-1354.8,6465.5c0-5.5,4.5-10,10-10h379c5.5,0,10,4.5,10,10s-4.5,10-10,10h-379
		C-1350.3,6475.5-1354.8,6471-1354.8,6465.5z"/>
	<path class="st20" d="M-1491.8,6277.6c-1.3-0.5-1.4-1.2,0-1.6l49.3-16.4c1.4-0.5,2.1,0.3,1.8,1.6l-14.1,49.3
		c-0.4,1.4-1.2,1.4-1.8,0.1l-8.5-19.1c-0.5-1.1-0.4-2.4,0.4-3.4c2.4-3.1-1.8-7-4.9-4.7c-0.9,0.7-2.1,0.9-3.2,0.5L-1491.8,6277.6z"/>
	<path class="st20" d="M-1020.8,6263.5c0-1.7,1.3-3,3-3h41c1.7,0,3,1.3,3,3v38.8c0,2.3-2.5,3.8-4.5,2.6l-17.5-10.1
		c-0.9-0.5-2.1-0.5-3,0l-17.5,10.1c-2,1.2-4.5-0.3-4.5-2.6V6263.5z"/>
	<path class="st20" d="M-1618.1,6253.5c7.9,0,14.3,6.5,14.3,15.6c0,16.8-16.7,27-24.3,31.5c-1,0.6-2.3,0.6-3.3,0
		c-7.6-4.5-24.3-14.6-24.3-31.5c0-9.1,6.5-15.6,14.3-15.6c4.8,0,9.1,2.6,11.7,5.2C-1627.2,6256.1-1622.9,6253.5-1618.1,6253.5z"/>
	<path class="st20" d="M-1560,6300.3l-9.1,2c-2.1,0.5-4.1-1.4-3.6-3.6l2-9.1c-2-3.8-3-7.9-3-12.2c0-14.3,11.6-25.8,25.8-25.8
		c14.3,0,25.8,11.6,25.8,25.8s-11.6,25.8-25.8,25.8C-1552,6303.3-1556.2,6302.3-1560,6300.3z"/>
	<path class="st19" d="M-1519.8,5377.5c0,37.6-30.4,68-68,68c-37.6,0-68-30.4-68-68s30.4-68,68-68
		C-1550.2,5309.5-1519.8,5339.9-1519.8,5377.5z"/>
	<path class="st41" d="M-1474.8,5352.5c0-5.5,4.5-10,10-10h296c5.5,0,10,4.5,10,10s-4.5,10-10,10h-296
		C-1470.3,5362.5-1474.8,5358-1474.8,5352.5z"/>
	<path class="st41" d="M-1474.8,5401.5c0-5.5,4.5-10,10-10h152c5.5,0,10,4.5,10,10s-4.5,10-10,10h-152
		C-1470.3,5411.5-1474.8,5407-1474.8,5401.5z"/>
	<path class="st8" d="M-779.6,5734l-46.7,85.9l-1.5,2.7c-9.2,17.1,0.2,38.3,19.1,42.9l17.2,4.1c15.3,3.7,30.8-5.3,35.3-20.4l2.8-9.6
		l16.8-19.7l27.6-28.1l4.9-68.1h-58.3C-769.5,5723.7-776.1,5727.6-779.6,5734z"/>
	<path class="st20" d="M-746,5703.9h32.2c3.6,0,6.7,2.7,7.2,6.2l7.6,53.2c0.2,1.3,0.7,2.5,1.5,3.5l21.9,27.4c1,1.3,1.6,2.9,1.6,4.5
		v75.8c0,10.7-11.2,17.7-20.8,13.1l-8-3.8c-3-1.4-5.4-3.9-6.8-6.9l-42.9-90.1c-0.5-1-0.7-2-0.7-3.1v-72.5
		C-753.2,5707.2-750,5703.9-746,5703.9z"/>
	<path class="st2" d="M-686.5,5732.9c-4.4-4.4-11.6-4.4-16,0l-25.7,25.7c-4.4,4.4-4.4,11.6,0,16.1c4.4,4.4,11.6,4.4,16.1,0
		l25.7-25.7C-682,5744.6-682,5737.4-686.5,5732.9z"/>
	<path class="st2" d="M-698.3,5713.2c-4.4-4.4-11.6-4.4-16.1,0l-25.7,25.7c-4.4,4.4-4.4,11.6,0,16.1c4.4,4.4,11.6,4.4,16,0
		l25.7-25.7C-693.9,5724.8-693.9,5717.6-698.3,5713.2z"/>
	<path class="st2" d="M-677.6,5750.7c-4.4-4.4-11.6-4.4-16.1,0l-25.7,25.7c-4.4,4.4-4.4,11.6,0,16.1c4.4,4.4,11.6,4.4,16.1,0
		l25.7-25.7C-673.1,5762.3-673.1,5755.1-677.6,5750.7z"/>
	<path class="st2" d="M-668.7,5768.5c-4.4-4.4-11.6-4.4-16,0l-25.7,25.7c-4.4,4.4-4.4,11.6,0,16.1c4.4,4.4,11.6,4.4,16.1,0
		l25.7-25.7C-664.3,5780.1-664.3,5772.9-668.7,5768.5z"/>
	<path class="st5" d="M-685.5,5746.9c-0.5-0.6-1.5-0.7-2.1-0.1l-32.1,29.1c-0.6,0.6-0.7,1.5-0.1,2.1c0.6,0.6,1.5,0.7,2.1,0.1
		l32.1-29.1C-685,5748.4-684.9,5747.5-685.5,5746.9z M-675.6,5765.6c-0.6-0.6-1.5-0.7-2.1-0.1l-30.6,27.6c-0.6,0.6-0.7,1.5-0.1,2.1
		c0.6,0.6,1.5,0.7,2.1,0.1l30.6-27.6C-675.1,5767.2-675.1,5766.2-675.6,5765.6z"/>
	<path class="st5" d="M-698.3,5728.6c-0.6-0.6-1.5-0.7-2.1-0.1l-32.1,29.1c-0.6,0.6-0.7,1.5-0.1,2.1c0.6,0.6,1.5,0.7,2.1,0.1
		l32.1-29.1C-697.8,5730.2-697.8,5729.2-698.3,5728.6z"/>
	<path class="st4" d="M-1237.4,5595.3c41,36.1,120.9,223.7,140.7,364.1l-445.3,77.2c-14.6-35-47.2-53.4-43-94.1
		c12.3-117.3,112.2-174.1,123-204.5c10.9-30.3,22.7-102.5,73.5-142.6C-1337.6,5555.2-1270.5,5566.2-1237.4,5595.3z"/>
	
		<linearGradient id="SVGID_15_" gradientUnits="userSpaceOnUse" x1="-157.7993" y1="1501.2249" x2="-83.5403" y2="1823.6578" gradientTransform="matrix(0.866 0.5 0.5 -0.866 -1851.9247 7597.4771)">
		<stop  offset="0" style="stop-color:#97F7F5"/>
		<stop  offset="1" style="stop-color:#FBF7B8"/>
	</linearGradient>
	<path class="st42" d="M-1154.7,5869l286.1,165.2c34.9,20.1,46.8,64.7,26.7,99.6h0c-20.1,34.9-64.7,46.8-99.6,26.7l-286.1-165.2
		c-34.9-20.1-46.8-64.7-26.7-99.6l0,0C-1234.2,5860.8-1189.6,5848.8-1154.7,5869z"/>
	
		<linearGradient id="SVGID_16_" gradientUnits="userSpaceOnUse" x1="-523.2397" y1="2239.3044" x2="-956.2496" y2="2546.0725" gradientTransform="matrix(1 0 0 -1 0 8472)">
		<stop  offset="0" style="stop-color:#97F7F5"/>
		<stop  offset="1" style="stop-color:#FBF7B8"/>
	</linearGradient>
	<path class="st43" d="M-977.5,6076.7l146.4-257.7l79.5,22l-91.4,293c-14.6,34.3-56.5,49.2-93.6,33.4S-992.1,6111-977.5,6076.7z"/>
	
		<linearGradient id="SVGID_17_" gradientUnits="userSpaceOnUse" x1="-2079.9861" y1="2808.8308" x2="-879.6501" y2="1950.1508" gradientTransform="matrix(1 0 0 -1 0 8472)">
		<stop  offset="0" style="stop-color:#97F7F5"/>
		<stop  offset="1" style="stop-color:#FBF7B8"/>
	</linearGradient>
	<path class="st44" d="M-1393.3,5976.9l-120,230.3l-159.5,1.7l162.7-299.4c19.1-33.1,60.7-44.8,93-26.2
		C-1384.9,5901.9-1374.2,5943.8-1393.3,5976.9z"/>
	
		<linearGradient id="SVGID_18_" gradientUnits="userSpaceOnUse" x1="-1892.286" y1="2573.9146" x2="-1103.2061" y2="2388.3906" gradientTransform="matrix(1 0 0 -1 0 8472)">
		<stop  offset="0" style="stop-color:#97F7F5"/>
		<stop  offset="1" style="stop-color:#FBF7B8"/>
	</linearGradient>
	<path class="st45" d="M-1492.2,5967.1l64.7,242.3h256.3l35.2-176.2c1.9-9.5,2.9-19.2,2.9-29v-84.1c0-34-28.7-59.6-62.7-57.7
		l-247.6,12.5c-6.6,0.4-13,2.6-18.4,6.6C-1488.8,5901-1500.8,5935-1492.2,5967.1z"/>
	<path class="st15" d="M-1348.8,6209.3l40-286.8h14.8l69.6,286.8H-1348.8z"/>
	<path class="st46" d="M-1327.3,5868.8l-93.8,6.4l-1.6,15.5c-2.7,26,20.1,47.3,45.9,43l71.2-12.1L-1327.3,5868.8z"/>
	<path class="st46" d="M-1270,5865.3l55.8-2l1,1.5c18.5,27.8-3.6,64.5-36.8,61.2l-48.6-4.9L-1270,5865.3z"/>
	<path class="st2" d="M-1254.8,5643.9c-16.3-33.9-56.5-48.8-91-33.8c-30.1,13-46.4,44.6-41.3,75.5c-2.3,0.6-4.5,1.4-6.6,2.5
		c-16.6,8.8-21.5,32.1-10.9,52.1c7.7,14.6,21.6,23.3,35,23.5l4.3,95.8c0.2,5.2-3.6,9.7-8.8,10.3l-42.9,4.5c-4.5,0.5-6,6.3-2.3,8.9
		l20.3,14.4c59.4,42,141.2,30.5,186.7-26.3c2.6-3.2,0.3-8-3.8-8h-42.2c-5.5,0-9.9-4.4-9.9-9.9v-40c6-1.6,12-4,17.6-7.2
		c32.7-18.7,45.4-59.5,29-93.5L-1254.8,5643.9z"/>
	<path class="st0" d="M-1268.2,5852.1v-38.6c0.2-0.1,0.5-0.1,0.7-0.2l-0.7,0.2l-23.2-1.5L-1268.2,5852.1z"/>
	<path class="st0" d="M-1310.9,5698.6c-1.5,0.7-2.1,2.5-1.3,4l4.4,8.8c0.7,1.5,2.5,2.1,4,1.3c1.5-0.7,2.1-2.5,1.3-4l-4.4-8.8
		C-1307.6,5698.4-1309.4,5697.8-1310.9,5698.6z"/>
	<path class="st0" d="M-1263.1,5681.3c-1.5,0.7-2.1,2.5-1.3,4l4.4,8.8c0.7,1.5,2.5,2.1,4,1.3c1.5-0.7,2.1-2.5,1.3-4l-4.4-8.8
		C-1259.8,5681.2-1261.6,5680.6-1263.1,5681.3z"/>
	<path class="st5" d="M-1278.1,5695.4c-0.7,0.4-1,1.3-0.6,2l16.1,28.1l-11.5,1.5c-0.8,0.1-1.4,0.9-1.3,1.7c0.1,0.8,0.9,1.4,1.7,1.3
		l13.7-1.8c0.5-0.1,0.9-0.4,1.1-0.8c0.2-0.4,0.2-1,0-1.4l-17.2-30.1C-1276.4,5695.3-1277.3,5695-1278.1,5695.4z"/>
	<path class="st7" d="M-1270.3,5747.8c4.8,1.3,7.8,6.4,4.7,10.3c-1.7,2.1-3.8,4-6.2,5.4c-5.1,2.9-11.1,3.7-16.7,2.2
		c-5.6-1.5-10.4-5.2-13.4-10.2c-1.4-2.4-2.3-5.1-2.7-7.8c-0.7-4.9,4.4-7.9,9.2-6.6L-1270.3,5747.8z"/>
	<path class="st5" d="M-1390.4,5716.7L-1390.4,5716.7L-1390.4,5716.7L-1390.4,5716.7c0.1,0,0.2,0,0.4-0.1c0.2,0,0.6-0.1,1-0.1
		c0.9-0.1,2.1-0.2,3.4-0.3c2.7-0.1,5.9,0,8.1,0.8c0.5,0.2,0.9,0.4,1.4,0.7c-0.2,0-0.3,0-0.5,0.1c-2.3,0.4-5.4,1-7.6,2.2
		c-1.2,0.6-2.5,1.6-3.5,2.4c-0.5,0.4-0.9,0.8-1.2,1c-0.2,0.1-0.3,0.2-0.4,0.3c0,0-0.1,0.1-0.1,0.1l0,0l0,0l0,0c0,0,0,0,0.9,1l-0.9-1
		c-0.6,0.6-0.7,1.5-0.1,2.1c0.6,0.6,1.5,0.7,2.1,0.1 M-1387.5,5726.2L-1387.5,5726.2L-1387.5,5726.2c0,0,0.1-0.1,0.1-0.1
		c0.1-0.1,0.2-0.2,0.3-0.3c0.3-0.2,0.7-0.6,1.1-1c0.9-0.8,2.1-1.6,3-2.1c1.7-0.9,4.3-1.5,6.6-1.9c1.1-0.2,2.1-0.3,2.8-0.3
		c0.2,0,0.3,0,0.5,0c2.3,2.5,4.3,5.7,5.7,8.4c0.7,1.4,1.3,2.7,1.7,3.6c0.2,0.5,0.3,0.8,0.4,1.1c0,0.1,0.1,0.2,0.1,0.3l0,0.1l0,0l0,0
		c0.3,0.8,1.1,1.2,1.9,0.9c0.8-0.3,1.2-1.1,0.9-1.9l-1.4,0.5c1.4-0.5,1.4-0.5,1.4-0.5l0,0l0,0l0-0.1c0-0.1-0.1-0.2-0.1-0.3
		c-0.1-0.3-0.3-0.7-0.5-1.1c-0.4-1-1-2.3-1.8-3.8c-1.5-3-3.8-6.8-6.7-9.6c-1.5-1.5-3.3-2.8-5.2-3.5c-2.8-1.1-6.5-1.1-9.3-1
		c-1.4,0.1-2.7,0.2-3.6,0.3c-0.5,0.1-0.8,0.1-1.1,0.1c-0.1,0-0.2,0-0.3,0l-0.1,0l0,0l0,0c0,0,0,0,0.2,1.5l-0.2-1.5
		c-0.8,0.1-1.4,0.9-1.2,1.7s0.9,1.4,1.7,1.2"/>
	<path class="st4" d="M-1367.9,5615.2c22.3-19.3,54.2-38,85.2-23.1c19,9.2,32.9,47.9,32.9,47.9s-33.9-40.1-49.7-16.5
		c-32,47.6-57.9,20.3-62.3,48.5c-2.9,18.4,8.5,47,8.5,47s-14.2-21.6-27.5-30.7c-12.1-8.2-34.9-13.7-34.9-13.7
		S-1388,5632.6-1367.9,5615.2z"/>
	<path class="st36" d="M-1358.4,5759.7c0,7.9-6.4,14.3-14.3,14.3c-7.9,0-14.3-6.4-14.3-14.3c0-7.9,6.4-14.3,14.3-14.3
		C-1364.8,5745.4-1358.4,5751.8-1358.4,5759.7z"/>
	<path class="st36" d="M-1363.3,5782.9c0,4.9-4,8.9-8.9,8.9s-8.9-4-8.9-8.9s4-8.9,8.9-8.9S-1363.3,5778-1363.3,5782.9z"/>
	<path class="st20" d="M-825.1,5706.5l-17.9-39.9c-5.5-12.3-2.1-26.7,8.4-35.2l263.8-212.9c15.5-12.5,38.6-6.5,46.1,12l77.3,191.8
		c7,17.3-3.6,36.7-22,40.2l-323.1,61C-806,5726-819.4,5719-825.1,5706.5z"/>
	<path class="st3" d="M-459.8,5513.1c29.8,67.4,31.6,132,3.9,144.3c-27.7,12.2-74.3-32.5-104.1-99.9c-29.8-67.4-31.6-132-3.9-144.3
		C-536.3,5400.9-489.6,5445.7-459.8,5513.1z"/>
	<path class="st0" d="M-1297.6,5925.9c-0.8,1.1-1.2,2.4-0.8,4.3c0,0.1,0,0.2,0,0.2c0.1,0.2,0.3,0.4,0.5,0.7c0.7,1,1.6,2.5,2.7,4.3
		c1,1.7,2.2,3.7,3.5,5.9c4.1,4.7,9.8,9.8,16.5,15c8.6,6.7,17,12,23.7,14.7c3.4,1.4,6.2,2,8.3,1.9c2-0.1,3.2-0.7,4-1.7
		c0.9-1.1,1.5-3.2,1.4-6.3c-0.1-3-0.9-6.8-2.4-10.7c-3.1-8-8.9-16.7-17.2-23.1c-8.2-6.4-17.3-9.3-24.9-9.6c-3.8-0.2-7.2,0.2-9.8,1.1
		C-1294.7,5923.4-1296.6,5924.7-1297.6,5925.9z M-1286.8,5950.5c3,2.7,6.3,5.5,9.8,8.2c17.5,13.5,34.4,22,40.3,14.4
		c5.9-7.6-1.3-30.8-18.8-44.4c-17.5-13.5-38.5-12.3-44.4-4.7c-0.3,0.3-0.5,0.7-0.7,1c-0.2-0.3-0.3-0.5-0.6-0.8
		c-5.9-7.6-27-8.9-44.4,4.7s-24.7,36.7-18.8,44.4c5.9,7.6,22.8-0.8,40.3-14.4c3.7-2.9,7.2-5.8,10.3-8.6
		c-6.1,11.7-12.2,26.8-11.8,39.7c0.3,8.5,3.5,18.9,6.5,26.9c1.5,4.1,3.1,7.6,4.2,10.1c0.6,1.3,1,2.3,1.4,3c0.2,0.3,0.3,0.6,0.4,0.8
		c0,0.1,0.1,0.2,0.1,0.2l0,0.1l0,0l0,0v0c0,0,0,0,1.3-0.7l-1.3,0.7c0.4,0.7,1.3,1,2,0.7c0.7-0.4,1-1.3,0.7-2l0,0l0,0l0,0l0,0l0,0
		c0,0-0.1-0.1-0.1-0.2c-0.1-0.2-0.2-0.4-0.4-0.8c-0.3-0.7-0.8-1.7-1.4-2.9c-1.1-2.5-2.6-6-4.1-10c-3.1-8-6.1-18-6.3-26
		c-0.4-12.1,5.5-26.7,11.5-38.4c1.9-3.7,3.8-7.1,5.6-10c2.1-2.6,3.7-5.1,4.7-7.5c0.1-0.2,0.2-0.3,0.3-0.5c1.2,2.9,3.4,6.1,6.3,9.5
		c1.4,2.5,2.9,5.4,4.4,8.4c5.8,11.7,11.4,26.3,11.1,38.4c-0.2,8-3.2,18-6.1,26c-1.5,4-2.9,7.5-4,10c-0.5,1.2-1,2.2-1.3,2.9
		c-0.2,0.3-0.3,0.6-0.4,0.8c0,0.1-0.1,0.2-0.1,0.2l0,0l0,0l0,0l0,0c-0.4,0.7,0,1.6,0.7,2c0.7,0.4,1.6,0,2-0.7l-1.4-0.6
		c1.4,0.6,1.4,0.6,1.4,0.6l0,0l0,0l0,0l0-0.1c0,0,0.1-0.1,0.1-0.2c0.1-0.2,0.2-0.5,0.4-0.8c0.3-0.7,0.8-1.7,1.3-3
		c1.1-2.5,2.6-6.1,4-10.1c2.9-8.1,6-18.4,6.3-26.9C-1275.2,5977.3-1281,5962.3-1286.8,5950.5z M-1325.9,5956.6
		c7.6-5.9,13.8-11.6,18-16.8c1-1.6,1.9-3.1,2.7-4.4c0.7-1,1.3-2,1.8-2.8c0.3-0.8,0.6-1.5,0.7-2.2c0.4-1.9,0.1-3.2-0.8-4.3
		c-1-1.3-2.8-2.5-5.5-3.4c-2.7-0.9-6-1.3-9.8-1.1c-7.6,0.4-16.6,3.3-24.9,9.7c-8.3,6.4-14.1,15.1-17.2,23.1c-1.5,4-2.3,7.7-2.4,10.7
		c-0.1,3.1,0.5,5.2,1.4,6.3c0.8,1,2,1.7,4,1.7c2.1,0.1,4.9-0.6,8.3-1.9C-1342.9,5968.6-1334.6,5963.3-1325.9,5956.6z"/>
	<path class="st18" d="M-1144.8,5458c0-15.2,12.3-27.5,27.5-27.5h227c15.2,0,27.5,12.3,27.5,27.5v138.3c0,15.2-12.3,27.5-27.5,27.5
		h-199.7c-8.4,0-16.7,2.6-23.6,7.4l-9.5,6.6c-9.1,6.4-21.6-0.2-21.6-11.3v-2.8V5458z"/>
	<path class="st16" d="M-1090.3,5489.6c-0.8,0-1.5,0.7-1.5,1.5s0.7,1.5,1.5,1.5h178.5c0.8,0,1.5-0.7,1.5-1.5s-0.7-1.5-1.5-1.5
		H-1090.3z M-1090.3,5529.2c-0.8,0-1.5,0.7-1.5,1.5c0,0.8,0.7,1.5,1.5,1.5h68.3c0.8,0,1.5-0.7,1.5-1.5c0-0.8-0.7-1.5-1.5-1.5
		H-1090.3z M-1005.3,5530.7c0-0.8,0.7-1.5,1.5-1.5h92.5c0.8,0,1.5,0.7,1.5,1.5c0,0.8-0.7,1.5-1.5,1.5h-92.5
		C-1004.6,5532.2-1005.3,5531.6-1005.3,5530.7z M-1090.3,5568.9c-0.8,0-1.5,0.7-1.5,1.5c0,0.8,0.7,1.5,1.5,1.5h178.5
		c0.8,0,1.5-0.7,1.5-1.5c0-0.8-0.7-1.5-1.5-1.5H-1090.3z"/>
	<path class="st18" d="M-1629.8,5733.5c0,58.5-47.5,106-106,106s-106-47.5-106-106s47.5-106,106-106S-1629.8,5675-1629.8,5733.5z"/>
	<path class="st7" d="M-1686.8,5733.5c0,27-21.9,49-49,49c-27,0-49-21.9-49-49s21.9-49,49-49
		C-1708.8,5684.5-1686.8,5706.5-1686.8,5733.5z"/>
	<path class="st18" d="M-1726.8,5715.7c6,0,11,4.9,11,11.9c0,12.5-12.2,20.2-18.2,23.7c-1,0.6-2.3,0.6-3.3,0
		c-6-3.5-18.2-11.2-18.2-23.7c0-6.9,5-11.9,10.9-11.9c3.7,0,7,2,9,4C-1733.8,5717.7-1730.5,5715.7-1726.8,5715.7z"/>
	<path class="st7" d="M-1552.7,5540.1c1.9-3.6,7-3.6,8.9,0l11.5,22.3c0.4,0.8,1,1.4,1.7,1.9l18.2,11.7c3.1,2,3.1,6.5,0,8.4
		l-17.8,11.4c-1,0.7-1.8,1.6-2.1,2.8l-11.3,38.5c-1.4,4.8-8.2,4.8-9.6,0l-11.3-38.5c-0.3-1.2-1.1-2.2-2.1-2.8l-17.8-11.4
		c-3.1-2-3.1-6.5,0-8.4l18.2-11.7c0.7-0.5,1.3-1.1,1.7-1.9L-1552.7,5540.1z"/>
	<path class="st19" d="M-1035.3,5757.2c1.9-3.6,7-3.6,8.9,0l5.5,10.7c0.4,0.8,1,1.4,1.7,1.9l8.8,5.7c3.1,2,3.1,6.4,0,8.4l-8.4,5.4
		c-1,0.7-1.8,1.7-2.1,2.8l-5.2,17.9c-1.4,4.8-8.2,4.8-9.6,0l-5.2-17.9c-0.3-1.2-1.1-2.2-2.1-2.8l-8.4-5.4c-3.1-2-3.1-6.4,0-8.4
		l8.8-5.7c0.7-0.5,1.3-1.1,1.7-1.9L-1035.3,5757.2z"/>
</g>
<g id="Layer_5">
	<path class="st47" d="M-123.3,7153.5h-965.2c-12.1,0-21.8,9.8-21.8,21.8v637c0,12,9.8,21.8,21.8,21.8h965.2
		c12,0,21.8-9.8,21.8-21.8v-637C-101.5,7163.3-111.3,7153.5-123.3,7153.5z M-1088.5,7147.5c-15.4,0-27.8,12.5-27.8,27.8v637
		c0,15.4,12.5,27.8,27.8,27.8h965.2c15.4,0,27.8-12.4,27.8-27.8v-637c0-15.4-12.4-27.8-27.8-27.8H-1088.5z"/>
	<path class="st15" d="M-1116.3,7720.5H-95.5v91.8c0,15.4-12.4,27.8-27.8,27.8h-965.2c-15.4,0-27.8-12.4-27.8-27.8V7720.5z"/>
	<path class="st7" d="M-1050.2,7779.1l25.3-16.8c0.2-0.1,0.4-0.2,0.6-0.2c0.2,0,0.4,0,0.6,0.1c0.2,0.1,0.4,0.3,0.5,0.5
		c0.1,0.2,0.2,0.4,0.2,0.6v34.9c0,0.2-0.1,0.4-0.2,0.6c-0.1,0.2-0.3,0.4-0.5,0.5c-0.2,0.1-0.4,0.2-0.6,0.1c-0.2,0-0.4-0.1-0.6-0.2
		l-25.3-16.8v15.7c0,0.7-0.3,1.3-0.7,1.8c-0.5,0.5-1.1,0.7-1.8,0.7c-0.7,0-1.3-0.3-1.8-0.7c-0.5-0.5-0.7-1.1-0.7-1.8v-34.6
		c0-0.7,0.3-1.3,0.7-1.7c0.5-0.5,1.1-0.7,1.8-0.7c0.7,0,1.3,0.3,1.8,0.7c0.5,0.5,0.7,1.1,0.7,1.7V7779.1z"/>
	<path class="st7" d="M-837.5,7779.1l-25.3-16.8c-0.2-0.1-0.4-0.2-0.6-0.2c-0.2,0-0.4,0-0.6,0.1c-0.2,0.1-0.4,0.3-0.5,0.5
		c-0.1,0.2-0.2,0.4-0.2,0.6v34.9c0,0.2,0.1,0.4,0.2,0.6c0.1,0.2,0.3,0.4,0.5,0.5c0.2,0.1,0.4,0.2,0.6,0.1c0.2,0,0.4-0.1,0.6-0.2
		l25.3-16.8v15.7c0,0.7,0.3,1.3,0.7,1.8c0.5,0.5,1.1,0.7,1.8,0.7c0.7,0,1.3-0.3,1.8-0.7c0.5-0.5,0.7-1.1,0.7-1.8v-34.6
		c0-0.7-0.3-1.3-0.7-1.7c-0.5-0.5-1.1-0.7-1.8-0.7c-0.7,0-1.3,0.3-1.8,0.7c-0.5,0.5-0.7,1.1-0.7,1.7V7779.1z"/>
	<path class="st7" d="M-958.7,7765.9c0-1.4,1.1-2.5,2.5-2.5c1.4,0,2.5,1.1,2.5,2.5v29.7c0,1.4-1.1,2.5-2.5,2.5
		c-1.4,0-2.5-1.1-2.5-2.5V7765.9z M-933.9,7765.9c0-1.4,1.1-2.5,2.5-2.5c1.4,0,2.5,1.1,2.5,2.5v29.7c0,1.4-1.1,2.5-2.5,2.5
		c-1.4,0-2.5-1.1-2.5-2.5V7765.9z"/>
	<path class="st7" d="M-151.8,7758.5h4c0.5,0,0.9,0.4,0.9,0.9v13c0,0.5-0.4,0.9-0.9,0.9h-3.1c-0.5,0-0.9-0.4-0.9-0.9v-8
		c0-0.5-0.4-0.9-0.9-0.9h-8c-0.5,0-0.9-0.4-0.9-0.9v-3.1c0-0.5,0.4-0.9,0.9-0.9H-151.8z M-191.3,7758.5h9c0.5,0,0.9,0.4,0.9,0.9v3.1
		c0,0.5-0.4,0.9-0.9,0.9h-8c-0.5,0-0.9,0.4-0.9,0.9v8c0,0.5-0.4,0.9-0.9,0.9h-3.1c-0.5,0-0.9-0.4-0.9-0.9v-13c0-0.5,0.4-0.9,0.9-0.9
		H-191.3z M-152.7,7798c0.5,0,0.9-0.4,0.9-0.9v-8c0-0.5,0.4-0.9,0.9-0.9h3.1c0.5,0,0.9,0.4,0.9,0.9v13c0,0.5-0.4,0.9-0.9,0.9h-13
		c-0.5,0-0.9-0.4-0.9-0.9v-3.1c0-0.5,0.4-0.9,0.9-0.9H-152.7z M-191.3,7797.1c0,0.5,0.4,0.9,0.9,0.9h8c0.5,0,0.9,0.4,0.9,0.9v3.1
		c0,0.5-0.4,0.9-0.9,0.9h-13c-0.5,0-0.9-0.4-0.9-0.9v-13c0-0.5,0.4-0.9,0.9-0.9h3.1c0.5,0,0.9,0.4,0.9,0.9V7797.1z"/>
	<path class="st7" d="M-250.3,7758.5c0.6,0,1.3,0.3,1.7,0.7c0.5,0.5,0.7,1.1,0.7,1.7v17.3h-5v-14.8h-39.5v34.6h14.8v4.9h-17.3
		c-0.7,0-1.3-0.3-1.7-0.7c-0.5-0.5-0.7-1.1-0.7-1.8V7761c0-0.7,0.3-1.3,0.7-1.7c0.5-0.5,1.1-0.7,1.7-0.7H-250.3z M-250.3,7783.2
		c0.6,0,1.3,0.3,1.7,0.7c0.5,0.5,0.7,1.1,0.7,1.7v14.8c0,0.7-0.3,1.3-0.7,1.8c-0.5,0.5-1.1,0.7-1.7,0.7h-19.8
		c-0.7,0-1.3-0.3-1.8-0.7c-0.5-0.5-0.7-1.1-0.7-1.8v-14.8c0-0.7,0.3-1.3,0.7-1.7c0.5-0.5,1.1-0.7,1.8-0.7H-250.3z"/>
	
		<linearGradient id="SVGID_19_" gradientUnits="userSpaceOnUse" x1="126.4108" y1="954.5371" x2="-408.2795" y2="857.7517" gradientTransform="matrix(1 0 0 -1 0 8472)">
		<stop  offset="0" style="stop-color:#FBF7B8"/>
		<stop  offset="1" style="stop-color:#F7CDE1"/>
	</linearGradient>
	<path class="st48" d="M-556.2,7563.6c-25.7-31-21.3-77,9.7-102.6c31-25.7,77-21.3,102.6,9.7l163.7,197.8c25.7,31,21.3,77-9.7,102.6
		c-31,25.7-77,21.3-102.6-9.7L-556.2,7563.6z"/>
	
		<linearGradient id="SVGID_20_" gradientUnits="userSpaceOnUse" x1="171.9433" y1="643.1313" x2="-337.7468" y2="900.7413" gradientTransform="matrix(1 0 0 -1 0 8472)">
		<stop  offset="0" style="stop-color:#FBF7B8"/>
		<stop  offset="1" style="stop-color:#F7CDE1"/>
	</linearGradient>
	<path class="st49" d="M-265.9,7733.6l72.1-314l-146,53.3l-66.9,222.9c-10.4,38.9,12.7,78.9,51.5,89.3
		C-316.3,7795.5-276.3,7772.5-265.9,7733.6z"/>
	<path class="st3" d="M-193.7,7417.8c3.5,9.1-26.5,29.3-67.1,45.1c-40.6,15.8-76.3,21.3-79.9,12.2c-3.5-9.1,26.5-29.3,67.1-45.1
		C-233,7414.2-197.2,7408.8-193.7,7417.8z"/>
	<path class="st23" d="M-275.8,7415.9v52.4c0,0,27-8,50.5-21.3c24.6-13.9,28.7-20.4,28.7-20.4l1.4-10.7l-3.3-20.3
		c-1.7-10.5,0.2-21.4,5.6-30.6l38.6-67.2c2.4-4.1,0.4-9.4-4.1-11c-3.4-1.2-7.1,0.1-9,3.1l-3.2,5.1l0.7-2.9c0.6-2.8-1.1-5.5-3.8-6.2
		c-1.8-0.4-3.7,0.1-4.9,1.5l-4.5,4.8v-3.1c0-1.8-1-3.4-2.5-4.3c-2-1.1-4.5-0.6-6,1.2l-32.2,38.7v-2.1c0-2.4-2-4.4-4.4-4.4
		c-1.3,0-2.6,0.6-3.4,1.7l-43.4,54.7c-5.4,6.8-7.3,15.8-5.1,24.2L-275.8,7415.9z"/>
	<path class="st2" d="M-182.7,7290.9c0.7,0.5,0.8,1.4,0.3,2.1l-25,34.3c-0.5,0.7-1.4,0.8-2.1,0.3c-0.7-0.5-0.8-1.4-0.3-2.1l25-34.3
		C-184.3,7290.6-183.4,7290.4-182.7,7290.9z M-168.3,7293.7c0.7,0.5,0.8,1.4,0.3,2.1l-25.5,34.3c-0.5,0.7-1.4,0.8-2.1,0.3
		c-0.7-0.5-0.8-1.4-0.3-2.1l25.5-34.3C-169.9,7293.4-169,7293.2-168.3,7293.7z M-223,7323.4c0.7,0.5,0.8,1.5,0.2,2.1l-20.9,26.4
		c-0.5,0.6-1.5,0.8-2.1,0.2c-0.7-0.5-0.8-1.5-0.2-2.1l20.9-26.4C-224.6,7323-223.6,7322.9-223,7323.4z"/>
	
		<linearGradient id="SVGID_21_" gradientUnits="userSpaceOnUse" x1="-903.4388" y1="956.3988" x2="-435.0189" y2="847.7918" gradientTransform="matrix(1 0 0 -1 0 8472)">
		<stop  offset="0" style="stop-color:#FBF7B8"/>
		<stop  offset="1" style="stop-color:#F7CDE1"/>
	</linearGradient>
	<path class="st50" d="M-790.7,7478.6l54.5,242.4h246.6l39.2-119.8c2.8-8.7,3.5-17.9,1.9-26.9l-18.6-106.5
		c-2.3-13.3-13.9-23-27.4-23h-269.1C-781.3,7444.6-794.6,7461.2-790.7,7478.6z"/>
	<path class="st0" d="M-752.2,7444.5h248.1l-32,93.3l26.8,42.6l-87.3-27.4l-93.9,38.3l12.1-52.9L-752.2,7444.5z M-746.1,7447.5
		l70.9,90.1l-11.1,48.7l89.6-36.5l80.5,25.3l-23.2-36.9l31.1-90.6H-746.1z"/>
	<path class="st0" d="M-466.8,7500.2c0.8-0.3,1.6,0.1,1.9,0.9l10,29.1c11.9,34.5,10.8,72.1-3.1,105.8l-13,31.6l-13,42.1
		c-0.2,0.8-1.1,1.2-1.9,1c-0.8-0.2-1.2-1.1-1-1.9l13-42.2l13-31.7c13.6-33,14.7-69.9,3-103.7l-10-29.1
		C-468.1,7501.4-467.6,7500.5-466.8,7500.2z"/>
	
		<linearGradient id="SVGID_22_" gradientUnits="userSpaceOnUse" x1="-709.3693" y1="1091.8074" x2="-793.4193" y2="745.6804" gradientTransform="matrix(1 0 0 -1 0 8472)">
		<stop  offset="0" style="stop-color:#FBF7B8"/>
		<stop  offset="1" style="stop-color:#F7CDE1"/>
	</linearGradient>
	<path class="st51" d="M-722.6,7499.8l39.3,221.1h-109.9l-53.4-205.1c-4.5-35.1,19.6-67.2,53.8-71.6
		C-758.6,7439.9-727.1,7464.7-722.6,7499.8z"/>
	<path class="st0" d="M-732.8,7529c0.8-0.2,1.6,0.3,1.8,1.1l49.6,190.1c0.2,0.8-0.3,1.6-1.1,1.8c-0.8,0.2-1.6-0.3-1.8-1.1
		l-49.6-190.1C-734.1,7530-733.6,7529.2-732.8,7529z"/>
	
		<ellipse transform="matrix(5.530534e-02 -0.9985 0.9985 5.530534e-02 -7855.396 6229.5894)" class="st52" cx="-635.6" cy="7266.1" rx="80.8" ry="87"/>
	
		<ellipse transform="matrix(5.530534e-02 -0.9985 0.9985 5.530534e-02 -7928.9087 6209.6943)" class="st52" cx="-682.9" cy="7295" rx="87.5" ry="85.7"/>
	
		<ellipse transform="matrix(0.9926 -0.1215 0.1215 0.9926 -897.8617 -15.7999)" class="st52" cx="-578.5" cy="7352.9" rx="64.3" ry="65.9"/>
	<path class="st27" d="M-711.5,7275.2c6.9-31.6,37.6-52.1,69.5-46.5c27.8,4.9,47.7,28.1,49.6,55c2,0,4,0.3,6,0.8
		c15.7,4.1,24.4,22.6,19.5,41.4c-2.9,11.3-10.1,20.1-18.8,24.5l12.8,83.2c3.5,22.9-10.7,44.7-33,50.7c-26.5,7.2-53.2-10.6-56.9-37.7
		l-4.4-32.2c-5.1-0.2-10.3-1-15.5-2.5c-31.1-9.2-49.8-40.8-42.9-72.5L-711.5,7275.2z"/>
	<path class="st7" d="M-652,7351.3c4.8-1.3,9.9,1.7,9.2,6.6c-0.4,2.7-1.3,5.4-2.7,7.8c-2.9,5.1-7.7,8.7-13.4,10.3
		c-5.6,1.5-11.6,0.7-16.7-2.2c-2.4-1.4-4.5-3.2-6.2-5.4c-3.1-3.9-0.1-9,4.7-10.3l12.5-3.4L-652,7351.3z"/>
	<path class="st3" d="M-632.1,7404.1l-35.2,11l2.6,18.9L-632.1,7404.1z"/>
	<path class="st52" d="M-677.6,7231.6c-11.1,33.4-18.3,51.5-54,60.7c0,0-8.5-14.7,12.8-40.7S-700.1,7230.8-677.6,7231.6
		c0,0,46.2-13.6,64.3-0.8c19.3,13.7,34.1,43.3,34.1,43.3l3.2,8.8c-8.2,1-15.9,1.3-23.2,1.1l-13.6,27.2l-8.7-30
		C-651.8,7274.2-671.2,7255.2-677.6,7231.6z"/>
	<path class="st0" d="M-697.1,7304.8c1.6,0.4,2.6,2.1,2.2,3.7l-2.4,9.1c-0.4,1.6-2,2.6-3.7,2.2c-1.6-0.4-2.6-2.1-2.2-3.7l2.4-9.1
		C-700.3,7305.4-698.7,7304.4-697.1,7304.8z"/>
	<path class="st0" d="M-648.6,7310c1.6,0.4,2.6,2.1,2.2,3.7l-2.4,9.1c-0.4,1.6-2,2.6-3.7,2.2c-1.6-0.4-2.6-2-2.1-3.7l2.4-9.1
		C-651.8,7310.5-650.2,7309.6-648.6,7310z"/>
	<path class="st2" d="M-678.4,7319.1c0.8,0.2,1.3,1.1,1,1.9l-7.8,26.4l9.6-1c0.8-0.1,1.6,0.5,1.6,1.3c0.1,0.8-0.5,1.6-1.3,1.6
		l-11.8,1.2c-0.5,0-1-0.2-1.3-0.5c-0.3-0.4-0.4-0.9-0.3-1.4l8.4-28.6C-680,7319.3-679.2,7318.9-678.4,7319.1z"/>
	<path class="st2" d="M-583.4,7309.4L-583.4,7309.4L-583.4,7309.4L-583.4,7309.4c-0.1,0-0.2,0-0.3,0c-0.2,0-0.5,0-0.9,0.1
		c-0.7,0.1-1.8,0.2-2.9,0.4c-2.3,0.4-4.9,1.2-6.5,2.3c-0.2,0.1-0.3,0.3-0.5,0.4c2-0.2,4.6-0.2,6.7,0.4c1.1,0.3,2.4,0.9,3.4,1.4
		c0.5,0.2,0.9,0.5,1.2,0.6c0.2,0.1,0.3,0.1,0.4,0.2c0.1,0,0.1,0,0.1,0.1l0,0l0,0v0c0,0,0,0-0.7,1.2l0.7-1.2c0.7,0.4,1,1.3,0.6,2
		c-0.4,0.7-1.3,1-2,0.6v0l0,0c0,0,0,0-0.1,0c-0.1,0-0.2-0.1-0.3-0.2c-0.3-0.2-0.7-0.4-1.1-0.6c-0.9-0.5-2-0.9-2.9-1.2
		c-1.6-0.4-3.8-0.4-5.8-0.3c-1,0.1-1.8,0.2-2.4,0.3c-0.1,0-0.2,0-0.3,0c-1.4,2.5-2.4,5.5-3,8c-0.3,1.3-0.6,2.5-0.7,3.4
		c-0.1,0.4-0.1,0.8-0.2,1c0,0.1,0,0.2,0,0.3l0,0.1v0v0c-0.1,0.8-0.8,1.4-1.7,1.3c-0.8-0.1-1.4-0.8-1.3-1.7l1.5,0.2
		c-1.5-0.2-1.5-0.2-1.5-0.2v0v0l0,0l0-0.1c0-0.1,0-0.2,0-0.3c0-0.3,0.1-0.6,0.2-1.1c0.2-0.9,0.4-2.2,0.8-3.6
		c0.7-2.8,1.9-6.5,3.7-9.5c1-1.6,2.2-3,3.7-4c2.2-1.5,5.2-2.3,7.6-2.7c1.2-0.2,2.3-0.4,3.1-0.5c0.4,0,0.7-0.1,0.9-0.1
		c0.1,0,0.2,0,0.3,0l0.1,0l0,0l0,0c0,0,0,0,0.1,1.5l-0.1-1.5c0.8-0.1,1.5,0.6,1.6,1.4C-582,7308.6-582.6,7309.3-583.4,7309.4z"/>
	<path class="st7" d="M-569.1,7348.9c-0.4,7.8-7.1,13.8-15,13.4c-7.8-0.4-13.8-7.1-13.4-15c0.4-7.8,7.1-13.8,15-13.4
		C-574.7,7334.3-568.7,7341-569.1,7348.9z"/>
	<path class="st19" d="M-577.6,7400.6l-88.6,24.6l1.4,19.5h-34.3l67.2,185l1.8,91.8h89l-18.1-103.8l18.1-172.9h-30.1L-577.6,7400.6z
		"/>
	<path class="st20" d="M-484.9,7132.2c0-14.1,11.4-25.5,25.5-25.5H-249c14.1,0,25.5,11.4,25.5,25.5v128.2
		c0,14.1-11.4,25.5-25.5,25.5h-185.2c-7.8,0-15.5,2.4-21.9,6.9l-8.8,6.1c-8.5,5.9-20.1-0.1-20.1-10.5v-2.6V7132.2z"/>
	<path class="st0" d="M-434.3,7161.4c-0.8,0-1.5,0.7-1.5,1.5c0,0.8,0.7,1.5,1.5,1.5h165.4c0.8,0,1.5-0.7,1.5-1.5
		c0-0.8-0.7-1.5-1.5-1.5H-434.3z M-434.3,7198.1c-0.8,0-1.5,0.7-1.5,1.5c0,0.8,0.7,1.5,1.5,1.5h63.3c0.8,0,1.5-0.7,1.5-1.5
		c0-0.8-0.7-1.5-1.5-1.5H-434.3z M-355.7,7199.6c0-0.8,0.7-1.5,1.5-1.5h85.8c0.8,0,1.5,0.7,1.5,1.5c0,0.8-0.7,1.5-1.5,1.5h-85.8
		C-355,7201.1-355.7,7200.5-355.7,7199.6z M-434.3,7234.9c-0.8,0-1.5,0.7-1.5,1.5c0,0.8,0.7,1.5,1.5,1.5h165.4
		c0.8,0,1.5-0.7,1.5-1.5c0-0.8-0.7-1.5-1.5-1.5H-434.3z"/>
	<path class="st36" d="M-856.7,7212.2c1.7-3.3,6.5-3.3,8.2,0l13.2,25.6c0.4,0.7,0.9,1.3,1.6,1.8l20.8,13.3c2.8,1.8,2.8,6,0,7.8
		l-20.4,13.1c-0.9,0.6-1.6,1.5-2,2.6l-13,44.3c-1.3,4.4-7.6,4.4-8.9,0l-13-44.3c-0.3-1.1-1-2-1.9-2.6l-20.4-13.1
		c-2.8-1.8-2.8-6,0-7.8l20.8-13.3c0.7-0.4,1.2-1.1,1.6-1.8L-856.7,7212.2z"/>
	<path class="st32" d="M-1002.8,7532.2c1.7-3.3,6.5-3.3,8.2,0l6.2,11.9c0.4,0.7,0.9,1.3,1.6,1.8l9.8,6.3c2.8,1.8,2.8,6,0,7.8l-9.4,6
		c-0.9,0.6-1.6,1.5-2,2.6l-5.9,20.2c-1.3,4.4-7.6,4.4-8.9,0l-5.9-20.2c-0.3-1.1-1-2-1.9-2.6l-9.4-6c-2.8-1.8-2.8-6,0-7.8l9.8-6.3
		c0.7-0.4,1.2-1.1,1.6-1.8L-1002.8,7532.2z"/>
	<path class="st40" d="M-1189.5,7468.7h-965.2c-12,0-21.8,9.8-21.8,21.8v636.9c0,12,9.8,21.8,21.8,21.8h965.2
		c12.1,0,21.8-9.8,21.8-21.8v-636.9C-1167.7,7478.5-1177.5,7468.7-1189.5,7468.7z M-2154.7,7462.7c-15.4,0-27.8,12.5-27.8,27.8
		v636.9c0,15.4,12.5,27.8,27.8,27.8h965.2c15.4,0,27.8-12.4,27.8-27.8v-636.9c0-15.4-12.5-27.8-27.8-27.8H-2154.7z"/>
	<path class="st36" d="M-1361.1,7770.7c1.7-3.3,6.5-3.3,8.2,0l14.2,27.5c0.4,0.7,0.9,1.3,1.6,1.8l22.4,14.3c2.9,1.8,2.9,6,0,7.8
		l-22,14.1c-0.9,0.6-1.6,1.5-2,2.6l-14,47.8c-1.3,4.5-7.6,4.5-8.9,0l-14-47.8c-0.3-1.1-1-2-2-2.6l-22-14.1c-2.9-1.8-2.9-6,0-7.8
		l22.4-14.3c0.7-0.4,1.2-1.1,1.6-1.8L-1361.1,7770.7z"/>
	<path class="st8" d="M-1468.4,7807.6c-10.2-34.6-46.2-54.8-81.1-45.5c-36.6,9.8-57.6,48.1-46.3,84.2l76.4,243l134.2,0.8
		L-1468.4,7807.6z"/>
	
		<linearGradient id="SVGID_23_" gradientUnits="userSpaceOnUse" x1="-1866.4138" y1="840.4883" x2="-1457.6259" y2="527.9383" gradientTransform="matrix(1 0 0 -1 0 8472)">
		<stop  offset="0" style="stop-color:#97F7F5"/>
		<stop  offset="1" style="stop-color:#FBF7B8"/>
	</linearGradient>
	<path class="st53" d="M-1468.2,7807c-10.3-34.3-46.1-54.3-80.7-45c-36.7,9.8-57.7,48.5-45.9,84.7l59.5,182.8l132.4-5.7
		L-1468.2,7807z"/>
	
		<linearGradient id="SVGID_24_" gradientUnits="userSpaceOnUse" x1="-2081.6912" y1="708.9412" x2="-1380.7371" y2="430.8372" gradientTransform="matrix(1 0 0 -1 0 8472)">
		<stop  offset="0" style="stop-color:#97F7F5"/>
		<stop  offset="1" style="stop-color:#FBF7B8"/>
	</linearGradient>
	<path class="st54" d="M-1813.1,7808.6l-10.3,280.8h314l24.9-148.1c2.7-16.3,1.8-33-2.7-49L-1525,7760l-164.5-11.9l-73.4,7.2
		C-1790.6,7758-1812.1,7780.8-1813.1,7808.6z"/>
	<path class="st7" d="M-1524.5,7760.7l-166-12.5l4.6,28.2c4.1,25.1,30.3,40.1,54,30.8l26.9-10.5l30.6,7.8
		c25.3,6.4,49.9-12.7,49.9-38.8V7760.7z"/>
	<path class="st0" d="M-1511.1,7804.7c0.8-0.2,1.6,0.2,1.8,1l22.6,80.6c5.7,20.4,6.8,41.8,3,62.7l-14.6,82.1l0,0l-9.2,57.1
		c-0.1,0.8-0.9,1.4-1.7,1.2s-1.4-0.9-1.2-1.7l9.2-57.2l14.6-82.1c3.6-20.4,2.6-41.4-3-61.3l-22.6-80.6
		C-1512.4,7805.8-1511.9,7805-1511.1,7804.7z"/>
	<path class="st20" d="M-2182.5,8035.7h1020.8v91.8c0,15.4-12.5,27.8-27.8,27.8h-965.2c-15.4,0-27.8-12.4-27.8-27.8V8035.7z"/>
	<path class="st7" d="M-2116.4,8094.3l25.3-16.9c0.2-0.1,0.4-0.2,0.6-0.2c0.2,0,0.4,0,0.6,0.1c0.2,0.1,0.4,0.3,0.5,0.5
		s0.2,0.4,0.2,0.6v34.9c0,0.2-0.1,0.4-0.2,0.6c-0.1,0.2-0.3,0.3-0.5,0.5s-0.4,0.2-0.6,0.1c-0.2,0-0.4-0.1-0.6-0.2l-25.3-16.9v15.7
		c0,0.6-0.3,1.3-0.7,1.8c-0.5,0.5-1.1,0.7-1.7,0.7s-1.3-0.3-1.7-0.7c-0.5-0.5-0.7-1.1-0.7-1.8v-34.6c0-0.6,0.3-1.3,0.7-1.7
		c0.5-0.5,1.1-0.7,1.7-0.7s1.3,0.3,1.7,0.7c0.5,0.5,0.7,1.1,0.7,1.7V8094.3z"/>
	<path class="st7" d="M-1903.7,8094.3l-25.3-16.9c-0.2-0.1-0.4-0.2-0.6-0.2c-0.2,0-0.4,0-0.6,0.1c-0.2,0.1-0.4,0.3-0.5,0.5
		s-0.2,0.4-0.2,0.6v34.9c0,0.2,0.1,0.4,0.2,0.6c0.1,0.2,0.3,0.3,0.5,0.5s0.4,0.2,0.6,0.1c0.2,0,0.4-0.1,0.6-0.2l25.3-16.9v15.7
		c0,0.6,0.3,1.3,0.7,1.8c0.5,0.5,1.1,0.7,1.7,0.7c0.7,0,1.3-0.3,1.7-0.7c0.5-0.5,0.7-1.1,0.7-1.8v-34.6c0-0.6-0.3-1.3-0.7-1.7
		c-0.5-0.5-1.1-0.7-1.7-0.7c-0.7,0-1.3,0.3-1.7,0.7c-0.5,0.5-0.7,1.1-0.7,1.7V8094.3z"/>
	<path class="st7" d="M-2024.9,8081.1c0-1.4,1.1-2.5,2.5-2.5c1.4,0,2.5,1.1,2.5,2.5v29.7c0,1.4-1.1,2.5-2.5,2.5
		c-1.4,0-2.5-1.1-2.5-2.5V8081.1z M-2000.2,8081.1c0-1.4,1.1-2.5,2.5-2.5c1.4,0,2.5,1.1,2.5,2.5v29.7c0,1.4-1.1,2.5-2.5,2.5
		c-1.4,0-2.5-1.1-2.5-2.5V8081.1z"/>
	<path class="st7" d="M-1218,8073.7h4c0.5,0,0.9,0.4,0.9,0.9v13c0,0.5-0.4,0.9-0.9,0.9h-3.1c-0.5,0-0.9-0.4-0.9-0.9v-8
		c0-0.5-0.4-0.9-0.9-0.9h-8c-0.5,0-0.9-0.4-0.9-0.9v-3.1c0-0.5,0.4-0.9,0.9-0.9H-1218z M-1257.5,8073.7h9c0.5,0,0.9,0.4,0.9,0.9v3.1
		c0,0.5-0.4,0.9-0.9,0.9h-8c-0.5,0-0.9,0.4-0.9,0.9v8c0,0.5-0.4,0.9-0.9,0.9h-3.1c-0.5,0-0.9-0.4-0.9-0.9v-13c0-0.5,0.4-0.9,0.9-0.9
		H-1257.5z M-1218.9,8113.3c0.5,0,0.9-0.4,0.9-0.9v-8c0-0.5,0.4-0.9,0.9-0.9h3.1c0.5,0,0.9,0.4,0.9,0.9v13c0,0.5-0.4,0.9-0.9,0.9
		h-13c-0.5,0-0.9-0.4-0.9-0.9v-3.1c0-0.5,0.4-0.9,0.9-0.9H-1218.9z M-1257.5,8112.3c0,0.5,0.4,0.9,0.9,0.9h8c0.5,0,0.9,0.4,0.9,0.9
		v3.1c0,0.5-0.4,0.9-0.9,0.9h-13c-0.5,0-0.9-0.4-0.9-0.9v-13c0-0.5,0.4-0.9,0.9-0.9h3.1c0.5,0,0.9,0.4,0.9,0.9V8112.3z"/>
	<path class="st7" d="M-1316.5,8073.7c0.7,0,1.3,0.3,1.7,0.7c0.5,0.5,0.7,1.1,0.7,1.8v17.3h-4.9v-14.8h-39.6v34.6h14.8v4.9h-17.3
		c-0.7,0-1.3-0.3-1.7-0.7c-0.5-0.5-0.7-1.1-0.7-1.8v-39.6c0-0.7,0.3-1.3,0.7-1.8c0.5-0.5,1.1-0.7,1.7-0.7H-1316.5z M-1316.5,8098.4
		c0.7,0,1.3,0.3,1.7,0.7c0.5,0.5,0.7,1.1,0.7,1.8v14.8c0,0.7-0.3,1.3-0.7,1.8c-0.5,0.5-1.1,0.7-1.7,0.7h-19.8
		c-0.7,0-1.3-0.3-1.7-0.7c-0.5-0.5-0.7-1.1-0.7-1.8v-14.8c0-0.7,0.3-1.3,0.7-1.8c0.5-0.5,1.1-0.7,1.7-0.7H-1316.5z"/>
	<path class="st0" d="M-1606.2,7706.1c13.8,15,33.7,24.5,55.7,24.5c41.8,0,75.6-33.9,75.6-75.6c0-18.9-6.9-36.1-18.3-49.4
		c1.1-4.8,1.6-9.7,1.6-14.8c0-29.6-18.8-54.7-45.1-64c-11.3-15.6-29.6-25.7-50.3-25.7c-19.1,0-36.1,8.6-47.5,22.1
		c-4.2-0.7-8.4-1-12.8-1c-41.3,0-75.2,31.2-79.6,71.4c-11.8,14.3-18.9,32.7-18.9,52.7c0,45.7,37,82.7,82.7,82.7
		C-1641,7728.8-1621,7720.2-1606.2,7706.1z"/>
	<path class="st2" d="M-1541.6,7593.4c-9.4-30.1-40.9-47.4-71.4-39.2c-28.7,7.7-46.7,35.4-43.1,64.1c-2.9,0.3-5.7,1-8.4,2.4
		c-13.8,6.8-18.3,25.7-10.1,42.3c4.9,9.9,13.3,16.7,22.2,19.1l4.3,79.7c1.2,21.9,18.6,39.4,40.5,40.7c26,1.5,47.3-20.2,45.5-46.1
		l-1.8-25.8c1.9-0.5,3.9-1.2,5.8-1.9c29.4-11.5,44.9-43.8,35.5-74L-1541.6,7593.4z"/>
	<path class="st3" d="M-1592.3,7724.4l28.6,6.2l0.9,12.3L-1592.3,7724.4z"/>
	<path class="st0" d="M-1587,7632c0.7,0.4,1,1.3,0.6,2l-1.3-0.7c1.3,0.7,1.3,0.7,1.3,0.7l0,0l0,0l0,0c0,0,0,0,0,0
		c0,0-0.1,0.1-0.1,0.2c-0.1,0.1-0.2,0.3-0.4,0.5c-0.3,0.4-0.8,1-1.4,1.7c-1.2,1.3-3.1,2.8-5.6,3.5c-2.5,0.8-5.2,0.5-7.2,0.1
		c-1-0.2-1.9-0.5-2.5-0.7c-0.3-0.1-0.5-0.2-0.7-0.3c-0.1,0-0.2-0.1-0.2-0.1c0,0,0,0-0.1,0l0,0l0,0l0,0c0,0,0,0,0.6-1.4l-0.6,1.4
		c-0.8-0.3-1.1-1.2-0.8-2c0.3-0.8,1.2-1.1,2-0.8l-0.6,1.3c0.6-1.3,0.6-1.3,0.6-1.3h0l0,0l0,0c0,0,0.1,0,0.2,0.1
		c0.1,0.1,0.3,0.1,0.6,0.2c0.5,0.2,1.3,0.4,2.1,0.6c1.8,0.4,3.9,0.5,5.8,0c1.9-0.6,3.3-1.7,4.3-2.7c0.5-0.5,0.9-1,1.1-1.3
		c0.1-0.2,0.2-0.3,0.3-0.4c0,0,0-0.1,0.1-0.1l0,0l0,0C-1588.6,7631.9-1587.7,7631.6-1587,7632z M-1589,7632.6L-1589,7632.6
		L-1589,7632.6z"/>
	<path class="st0" d="M-1544.1,7622c0.7,0.4,1,1.3,0.6,2l-1.3-0.7c1.3,0.7,1.3,0.7,1.3,0.7l0,0l0,0l0,0c0,0,0,0,0,0
		c0,0-0.1,0.1-0.1,0.2c-0.1,0.1-0.2,0.3-0.4,0.5c-0.3,0.4-0.8,1-1.4,1.7c-1.2,1.3-3.1,2.8-5.6,3.5c-2.5,0.8-5.2,0.5-7.2,0.1
		c-1-0.2-1.9-0.5-2.5-0.7c-0.3-0.1-0.5-0.2-0.7-0.3c-0.1,0-0.2-0.1-0.2-0.1c0,0,0,0-0.1,0l0,0l0,0l0,0c0,0,0,0,0.6-1.4l-0.6,1.4
		c-0.8-0.3-1.1-1.2-0.8-2c0.3-0.8,1.2-1.1,2-0.8l-0.6,1.3c0.6-1.3,0.6-1.3,0.6-1.3h0l0,0l0,0c0,0,0.1,0,0.1,0.1
		c0.1,0.1,0.3,0.1,0.6,0.2c0.5,0.2,1.3,0.4,2.1,0.6c1.8,0.4,3.9,0.5,5.8,0c1.9-0.6,3.3-1.7,4.3-2.7c0.5-0.5,0.9-1,1.1-1.3
		c0.1-0.2,0.2-0.3,0.3-0.4c0,0,0-0.1,0.1-0.1l0,0l0,0C-1545.7,7621.8-1544.8,7621.6-1544.1,7622z M-1546.1,7622.5L-1546.1,7622.5
		L-1546.1,7622.5z"/>
	<path class="st5" d="M-1572.7,7635c-0.7,0.4-1,1.3-0.6,2l12.3,22.9l-9,0.9c-0.8,0.1-1.4,0.8-1.3,1.6c0.1,0.8,0.8,1.4,1.6,1.3
		l11.2-1.2c0.5-0.1,0.9-0.3,1.2-0.8c0.2-0.4,0.2-1,0-1.4l-13.3-24.9C-1571,7634.9-1572,7634.7-1572.7,7635z"/>
	<path class="st6" d="M-1590.9,7670.7c-0.6,0.5-0.8,1.5-0.2,2.1l1.1-0.9c-1.1,0.9-1.1,0.9-1.1,0.9l0,0l0,0l0,0c0,0,0,0,0,0.1
		c0,0,0.1,0.1,0.2,0.2c0.1,0.2,0.3,0.4,0.6,0.7c0.5,0.6,1.3,1.3,2.2,2.1c1.8,1.6,4.4,3.4,7.5,4c3,0.6,5.4,0.3,7.1-0.2
		c0.9-0.2,1.5-0.5,2-0.8c0.2-0.1,0.4-0.2,0.6-0.3c0.1,0,0.1-0.1,0.2-0.1c0,0,0,0,0,0l0,0l0,0l0,0l0,0c0,0,0,0-0.8-1.2l0.8,1.2
		c0.7-0.5,0.9-1.4,0.4-2.1c-0.5-0.7-1.4-0.9-2.1-0.4l0,0c0,0,0,0-0.1,0c-0.1,0-0.2,0.1-0.4,0.2c-0.3,0.2-0.8,0.4-1.5,0.6
		c-1.3,0.4-3.3,0.6-5.7,0.1c-2.3-0.5-4.5-1.9-6.2-3.4c-0.8-0.7-1.5-1.4-1.9-1.9c-0.2-0.2-0.4-0.4-0.5-0.6c-0.1-0.1-0.1-0.1-0.1-0.2
		l0,0l0,0C-1589.3,7670.3-1590.2,7670.2-1590.9,7670.7z"/>
	<path class="st52" d="M-1662.4,7644.4L-1662.4,7644.4c-0.8,0.1-1.6-0.5-1.7-1.3c-0.1-0.8,0.5-1.6,1.3-1.7l0.2,1.5
		c-0.2-1.5-0.2-1.5-0.2-1.5l0,0l0,0l0.1,0c0.1,0,0.1,0,0.2,0c0.2,0,0.5-0.1,0.9-0.1c0.8-0.1,1.8-0.1,3-0.2c2.3,0,5.3,0.1,7.6,1.1
		c1.6,0.7,3,1.8,4.3,3c2.3,2.4,4.1,5.6,5.3,8.1c0.6,1.3,1.1,2.4,1.4,3.2c0.2,0.4,0.3,0.7,0.4,1c0,0.1,0.1,0.2,0.1,0.3l0,0.1l0,0l0,0
		l0,0c0.3,0.8-0.2,1.6-0.9,1.9c-0.8,0.3-1.6-0.2-1.9-0.9l0,0l0,0l0-0.1c0-0.1,0-0.1-0.1-0.2c-0.1-0.2-0.2-0.5-0.3-0.9
		c-0.3-0.8-0.7-1.8-1.3-3c-1.1-2.2-2.5-4.8-4.3-6.8c-0.1,0-0.2,0-0.3,0c-0.6,0-1.4,0.1-2.3,0.2c-1.9,0.2-4,0.7-5.3,1.4
		c-0.7,0.4-1.7,1-2.5,1.6c-0.4,0.3-0.7,0.6-1,0.8c-0.1,0.1-0.2,0.2-0.3,0.2c0,0-0.1,0-0.1,0.1l0,0l0,0c-0.6,0.5-1.6,0.5-2.1-0.2
		c-0.5-0.6-0.5-1.6,0.2-2.1l0,0l0,0c0,0,0,0,0.1-0.1c0.1-0.1,0.2-0.1,0.3-0.3c0.3-0.2,0.6-0.5,1-0.8c0.8-0.6,1.9-1.4,2.9-1.9
		c1.7-0.9,4.1-1.4,5.9-1.6c-0.1-0.1-0.2-0.1-0.3-0.1c-1.7-0.7-4.2-0.9-6.5-0.8c-1.1,0-2.1,0.1-2.8,0.2c-0.3,0-0.6,0.1-0.8,0.1
		C-1662.2,7644.3-1662.3,7644.4-1662.4,7644.4L-1662.4,7644.4L-1662.4,7644.4z"/>
	<path class="st7" d="M-1641.2,7692.5c-2.4-7.1-10-10.9-17-8.5c-7.1,2.4-10.9,10-8.5,17c2.4,7.1,10,10.9,17,8.5
		C-1642.6,7707.1-1638.8,7699.5-1641.2,7692.5z"/>
	<path class="st7" d="M-1648.6,7677.2c-1-3-4.3-4.7-7.4-3.7c-3,1-4.7,4.3-3.7,7.4c1,3,4.3,4.7,7.4,3.7S-1647.6,7680.2-1648.6,7677.2
		z"/>
	<path class="st3" d="M-1550.5,7553.8l-70.8-10.1l-37.4,22.9l0.9,50.1l21.1,19.4l-3.5-18c0,0,6.8-18.1,22-11.9
		c35.6,14.5,33.4-19.7,48.4-23.7c13.5-3.7,33,0,33,0L-1550.5,7553.8z"/>
	<path class="st2" d="M-1525.5,7759.9c-16.8,25.8-45.9,42.9-78.9,42.9c-37.7,0-70.2-22.2-85.3-54.2L-1525.5,7759.9z"/>
	<path class="st20" d="M-1627.5,7757.4l-8-1.5c-10.7-2.1-20.9,5.5-22,16.4l-8.1,83.2c-0.8,8.4,5,15.9,13.3,17.3
		c8.1,1.3,15.9-3.7,18-11.7l21.2-80.8C-1610.4,7769.9-1617,7759.4-1627.5,7757.4z"/>
	
		<linearGradient id="SVGID_25_" gradientUnits="userSpaceOnUse" x1="-425.1856" y1="-18.5696" x2="120.0324" y2="34.7685" gradientTransform="matrix(0.8958 0.4445 0.4445 -0.8958 -1624.9661 8021.4204)">
		<stop  offset="0" style="stop-color:#97F7F5"/>
		<stop  offset="1" style="stop-color:#FBF7B8"/>
	</linearGradient>
	<path class="st55" d="M-1732.8,7764.1L-1732.8,7764.1c33.9,16.8,47.8,58,31,92l-99.2,199.8c-16.8,33.9-58,47.8-92,31l0,0
		c-33.9-16.8-47.8-58-31-92l99.2-199.8C-1807.9,7761.1-1766.7,7747.3-1732.8,7764.1z"/>
	<circle class="st21" cx="-1628.6" cy="7747.6" r="33.9"/>
	<path class="st2" d="M-1729.4,7867.1l26.5-62.9c4.5-10.6,15.3-17.1,26.7-16l95.5,8.6c3.9,0.4,6,4.8,3.7,8c-0.8,1.2-2.1,1.9-3.5,2.1
		l-22.8,2.7l11.7,1.1c4.5,0.4,7.4,5,5.9,9.3c-1.1,2.9-3.9,4.8-7.1,4.6l-8-0.6l9.9,3.5c2.7,0.9,4.4,3.5,4.2,6.3
		c-0.2,3.3-2.9,5.9-6.2,6l-3.9,0.1c3.3,2.6,2.4,7.7-1.5,9.1l-42.3,14.7c-6.9,2.4-11.5,8.7-11.8,16l-0.8,23.6
		c-0.1,4.2-1.8,8.3-4.7,11.4l-30.1,32.4c-1,1.4-2.2,2.7-3.4,3.9l-122,126.2c-23,23.8-61.2,24.2-84.6,0.7
		c-25.4-25.5-22.6-67.5,6.1-89.2l139.1-105.4c1.6-1.4,3.2-2.7,5-3.9L-1729.4,7867.1z"/>
	<path class="st5" d="M-1641.6,7809.5c0-0.8,0.7-1.5,1.5-1.5h35.6c0.8,0,1.5,0.7,1.5,1.5c0,0.8-0.7,1.5-1.5,1.5h-35.6
		C-1640.9,7811-1641.6,7810.3-1641.6,7809.5z M-1638.1,7823.5c0-0.8,0.7-1.5,1.5-1.5h33.4c0.8,0,1.5,0.7,1.5,1.5
		c0,0.8-0.7,1.5-1.5,1.5h-33.4C-1637.4,7825-1638.1,7824.4-1638.1,7823.5z M-1638.1,7839.8c0-0.8,0.7-1.5,1.5-1.5h37.4
		c0.8,0,1.5,0.7,1.5,1.5c0,0.8-0.7,1.5-1.5,1.5h-37.4C-1637.4,7841.3-1638.1,7840.6-1638.1,7839.8z"/>
	<path class="st0" d="M-1662.9,7787.6c0.1-0.8,0.7-1.3,1.5-1.3l73.2,6c0.8,0.1,1.3,0.7,1.3,1.5c-0.1,0.8-0.7,1.3-1.5,1.3l-73.2-6
		C-1662.4,7789-1662.9,7788.4-1662.9,7787.6z"/>
	<path class="st40" d="M-1353.2,7586.3c0.4,0.8,0,1.6-0.7,2l-24,11.2l3.1,16.2l9.7,40.4c0.2,0.8-0.3,1.6-1.1,1.8
		c-0.8,0.2-1.6-0.3-1.8-1.1l-9.7-40.5l-3.5-18.5l26.1-12.2C-1354.4,7585.2-1353.6,7585.6-1353.2,7586.3z"/>
	<path class="st20" d="M-1366.4,7653.9c2.8,6.7-3.4,15.7-13.8,20.1c-10.4,4.3-21.2,2.4-24-4.4c-2.8-6.7,3.4-15.7,13.8-20.1
		C-1379.9,7645.2-1369.2,7647.1-1366.4,7653.9z"/>
	<path class="st56" d="M-1964.1,7799c-0.4,0.8,0,1.7,0.7,2l15.1,7l-1.9,10l-6.2,26c-0.2,0.8,0.3,1.6,1.1,1.8
		c0.8,0.2,1.6-0.3,1.8-1.1l6.3-26.1l2.3-12.4l-17.2-8C-1962.9,7797.9-1963.8,7798.3-1964.1,7799z"/>
	<path class="st32" d="M-1955.2,7842.7c-1.8,4.3,2.2,10.1,8.9,12.9c6.7,2.8,13.6,1.5,15.4-2.8s-2.2-10.1-8.9-12.9
		S-1953.4,7838.4-1955.2,7842.7z"/>
	<path class="st21" d="M-1786.5,7553.7c0,70.7-57.3,128-128,128s-128-57.3-128-128c0-70.7,57.3-128,128-128
		S-1786.5,7483-1786.5,7553.7z"/>
	<path class="st7" d="M-1855.4,7553.7c0,32.7-26.5,59.1-59.1,59.1s-59.1-26.5-59.1-59.1c0-32.7,26.5-59.1,59.1-59.1
		S-1855.4,7521-1855.4,7553.7z"/>
	<path class="st21" d="M-1903.1,7551.1c1.9,0,3.5,1.6,3.1,3.5c-0.6,2.7-2,5.1-4,7.1c-2.8,2.8-6.6,4.4-10.6,4.4
		c-4,0-7.8-1.6-10.6-4.4c-2-2-3.3-4.4-4-7.1c-0.5-1.9,1.2-3.5,3.1-3.5h11.4H-1903.1z"/>
	<path class="st21" d="M-1934.6,7540.7c0,2.5-2,4.5-4.5,4.5c-2.5,0-4.5-2-4.5-4.5c0-2.5,2-4.5,4.5-4.5
		C-1936.7,7536.2-1934.6,7538.2-1934.6,7540.7z"/>
	<path class="st21" d="M-1884,7540.7c0,2.5-2,4.5-4.5,4.5s-4.5-2-4.5-4.5c0-2.5,2-4.5,4.5-4.5S-1884,7538.2-1884,7540.7z"/>
	<path class="st18" d="M-913.5,7342.7c0,70.7-57.3,128-128,128s-128-57.3-128-128c0-70.7,57.3-128,128-128S-913.5,7272-913.5,7342.7
		z"/>
	<path class="st7" d="M-982.2,7342.8c0,32.7-26.5,59.1-59.1,59.1c-32.7,0-59.1-26.5-59.1-59.1c0-32.7,26.5-59.1,59.1-59.1
		C-1008.7,7283.7-982.2,7310.2-982.2,7342.8z"/>
	<path class="st57" d="M-1067.2,7320.6c0.6-0.6,1.5-0.6,2.1,0l5.3,5.3c0.6,0.6,0.6,1.5,0,2.1l-5.3,5.3c-0.6,0.6-1.5,0.6-2.1,0
		c-0.6-0.6-0.6-1.5,0-2.1l4.2-4.2l-4.2-4.2C-1067.8,7322.2-1067.8,7321.2-1067.2,7320.6z"/>
	<path class="st57" d="M-1016.2,7321c-0.6-0.6-1.5-0.6-2.1,0l-5.3,5.3c-0.6,0.6-0.6,1.5,0,2.1l5.3,5.3c0.6,0.6,1.5,0.6,2.1,0
		c0.6-0.6,0.6-1.5,0-2.1l-4.2-4.2l4.2-4.2C-1015.6,7322.5-1015.6,7321.6-1016.2,7321z"/>
	<path class="st18" d="M-1030.5,7335.7c1.9,0,3.4,1.6,3,3.5c-0.6,2.7-1.9,5.1-3.8,7.1c-2.7,2.8-6.3,4.4-10.1,4.4s-7.4-1.6-10.1-4.4
		c-1.9-2-3.2-4.4-3.8-7.1c-0.4-1.9,1.1-3.5,3-3.5h11H-1030.5z"/>
	<circle class="st20" cx="-1371.5" cy="7298.7" r="14"/>
	<circle class="st36" cx="-975" cy="7928.2" r="18.5"/>
	<circle class="st15" cx="-865" cy="7994.2" r="12.5"/>
	<circle class="st32" cx="-351.5" cy="7350.7" r="15"/>
	<circle class="st19" cx="-2109" cy="7755.2" r="12.5"/>
	<circle class="st18" cx="-1254.5" cy="7922.7" r="21"/>
</g>
<g id="Layer_6">
	<path class="st47" d="M250.8,1433c0-1.7,1.3-3,3-3h1730.5c1.7,0,3,1.3,3,3s-1.3,3-3,3H253.8C252.1,1436,250.8,1434.6,250.8,1433z"
		/>
	
		<linearGradient id="SVGID_26_" gradientUnits="userSpaceOnUse" x1="708.2341" y1="7287.4053" x2="1442.5261" y2="7530.7183" gradientTransform="matrix(1 0 0 -1 0 8472)">
		<stop  offset="0" style="stop-color:#FFB99B"/>
		<stop  offset="1" style="stop-color:#FBF7B8"/>
	</linearGradient>
	<path class="st58" d="M1282.3,694.7L910.3,679c-49.3,0-86.2,45.2-76.4,93.5l61.6,304l-18.8,210.7c-2.8,31.8,3,111.8,32.5,124.1
		c52.7,21.8,138.3,52.8,204.6,55c59.4,2,134.9-17.9,190.7-36.3c45.7-15,50.9-108,40.5-155l-40.5-198.5l55.5-295.5
		C1364.8,734.9,1328.7,694.7,1282.3,694.7z"/>
	<path class="st16" d="M954.7,888.5c-6.4,0-10.5,6.8-7.5,12.4l251.4,485.4c0.4,0.7,0.1,1.6-0.6,2c-0.7,0.4-1.6,0.1-2-0.6
		L944.5,902.2c-4-7.7,1.6-16.8,10.2-16.8h358.1c0.8,0,1.5,0.7,1.5,1.5s-0.7,1.5-1.5,1.5H954.7z"/>
	<circle class="st7" cx="1003.8" cy="923.5" r="19.5"/>
	<path class="st21" d="M1143.6,182.7c5.6-10.2,16.7-16.6,28.1-14.2c40.3,8.4,74.5,34.1,99.5,65c5.9,7.3,7.3,17.2,4.5,26.2
		l-65.3,203.3c-6.4,19.9-30.6,27.3-47,14.5l-107-83.4c-11.6-9-14.9-25.2-7.9-38.1L1143.6,182.7z"/>
	<path class="st16" d="M1178.5,222.2c0.7,0.4,1,1.3,0.6,2l-69.5,121.5c-0.4,0.7-1.3,1-2,0.6c-0.7-0.4-1-1.3-0.6-2l69.5-121.5
		C1176.9,222,1177.8,221.7,1178.5,222.2z M1234.3,258.6c0.8,0.3,1.1,1.2,0.8,2L1177.6,394c-0.3,0.8-1.2,1.1-2,0.8s-1.1-1.2-0.8-2
		l57.5-133.5C1232.7,258.6,1233.6,258.3,1234.3,258.6z"/>
	<path class="st16" d="M1135.3,197.3c0.1-0.8,0.8-1.4,1.7-1.3l-0.2,1.5c0.2-1.5,0.2-1.5,0.2-1.5l0,0l0,0l0.1,0c0.1,0,0.2,0,0.3,0
		c0.3,0,0.7,0.1,1.2,0.2c1,0.2,2.6,0.4,4.6,0.8c3.9,0.7,9.6,1.9,16.5,3.8c13.8,3.8,32.7,10.5,52.9,21.9
		c20.2,11.4,34.5,26.1,43.7,37.9c4.6,5.9,8,11.1,10.2,14.8c1.1,1.9,1.9,3.4,2.5,4.4c0.3,0.5,0.5,0.9,0.6,1.2
		c0.1,0.1,0.1,0.2,0.2,0.3c0,0,0,0.1,0,0.1l0,0v0c0,0,0,0-1.4,0.6l1.4-0.6c0.3,0.8,0,1.6-0.7,2c-0.8,0.4-1.6,0-2-0.7v0l0,0l0-0.1
		c0-0.1-0.1-0.2-0.1-0.3c-0.1-0.3-0.3-0.6-0.6-1.1c-0.5-1-1.3-2.4-2.4-4.2c-2.1-3.6-5.4-8.7-9.9-14.5c-9-11.6-23-25.9-42.8-37.1
		c-19.9-11.2-38.5-17.8-52.2-21.6c-6.8-1.9-12.4-3.1-16.3-3.8c-1.9-0.4-3.4-0.6-4.5-0.7c-0.5-0.1-0.9-0.1-1.2-0.2
		c-0.1,0-0.2,0-0.3,0l-0.1,0l0,0h0C1135.8,198.9,1135.2,198.1,1135.3,197.3z"/>
	<path class="st4" d="M1209.2,474.5c0,59.9-43,108.5-96,108.5s-96-48.6-96-108.5s43-108.5,96-108.5S1209.2,414.5,1209.2,474.5z"/>
	<path class="st2" d="M1004.5,450.8c12.1-40.3,55.6-62,95.1-47.5l23.4,8.6c33.6,12.4,52.4,46.7,46.7,80.4c2.5,0.6,4.9,1.5,7.2,2.8
		c18.7,9.9,24.2,36.2,12.3,58.6c-9.8,18.4-28.2,28.5-44.8,26.1l-1.7,94.9c-0.1,5.1,3.8,9.5,8.9,10l22,2.2c4.2,0.4,6,5.6,2.9,8.5
		l-98.9,93.5c-4.7,4.5-12.4,3.3-15.6-2.3l-55.5-98.4c-1.9-3.3,0.5-7.4,4.3-7.4h15.7c5.4,0,9.9-4.4,9.9-9.9v-33.6
		c-4.5-1.6-9-3.6-13.3-6.1l-12.3-7.2c-29-17-42.6-51.6-33-83.8L1004.5,450.8z"/>
	<path class="st5" d="M1179.2,526.9L1179.2,526.9L1179.2,526.9L1179.2,526.9l-0.1,0c-0.1,0-0.2,0.1-0.4,0.1
		c-0.3,0.1-0.8,0.2-1.4,0.4c-1.1,0.4-2.7,0.9-4.4,1.5c-1.7,0.6-3.4,1.4-5,2.2c-1.6,0.8-2.9,1.6-3.7,2.3c-0.8,0.7-1.5,1.7-2.1,2.5
		l13.5,3.5c0.8,0.2,1.3,1,1.1,1.8c-0.2,0.8-1,1.3-1.8,1.1l-14.4-3.7l-9.4,15.5c-0.4,0.7-1.3,0.9-2.1,0.5c-0.7-0.4-0.9-1.4-0.5-2.1
		l10-16.5l0,0l0,0c0,0,0-0.1,0.1-0.1c0-0.1,0.1-0.2,0.2-0.4c0.2-0.3,0.5-0.7,0.8-1.2c0.7-0.9,1.6-2.2,2.7-3.2c1.1-1,2.7-2,4.4-2.8
		c1.7-0.9,3.6-1.6,5.3-2.3c1.7-0.7,3.3-1.2,4.5-1.6c0.6-0.2,1.1-0.3,1.4-0.4c0.2-0.1,0.3-0.1,0.4-0.1l0.1,0l0,0l0,0c0,0,0,0,0.4,1.4
		l-0.4-1.4c0.8-0.2,1.6,0.2,1.9,1C1180.4,525.8,1180,526.7,1179.2,526.9z"/>
	<path class="st0" d="M1020.2,497.2c1.6,0.4,2.6,2,2.3,3.6l-2.4,10.7c-0.4,1.6-2,2.6-3.6,2.2c-1.6-0.4-2.6-2-2.3-3.6l2.4-10.7
		C1017,497.8,1018.6,496.8,1020.2,497.2z"/>
	<path class="st0" d="M1068.8,503.2c1.6,0.4,2.6,2,2.3,3.6l-2.4,10.7c-0.4,1.6-2,2.6-3.6,2.2c-1.6-0.4-2.6-2-2.3-3.6l2.4-10.7
		C1065.6,503.8,1067.2,502.8,1068.8,503.2z"/>
	<path class="st5" d="M1039.4,511.6c0.7,0.4,1,1.3,0.6,2l-19,33.6l13.3,4.9c0.8,0.3,1.2,1.1,0.9,1.9c-0.3,0.8-1.2,1.2-1.9,0.9
		l-14.9-5.5c-0.4-0.2-0.7-0.5-0.9-0.9c-0.2-0.4-0.1-0.9,0.1-1.3l19.8-35.1C1037.8,511.4,1038.7,511.1,1039.4,511.6z"/>
	<path class="st3" d="M1068.2,628l-32,8.9v18.6L1068.2,628z"/>
	<path class="st4" d="M1166.2,496.5c-13.7,14.3-25.5,24.5-25.5,24.5s13-27.6,10-45.5c-5.3-31.6-40.5-55.5-69.5-60.5
		c-30.2-5.2-54.5,17-75.5,30.5c-31.5,20.2-56.7-71-24.5-90c6.3-3.7,13.1-2.7,19.5,0.8c-2.1-5.8-2.8-12-1-18.3
		c5.2-18.8,26-11.5,45.7,0.7c11.6-35.2,85.2,14.2,117.3,52.3c13.5,16,23.7,31.8,21.5,65.5C1183.3,471.7,1177.2,485,1166.2,496.5z"/>
	<path class="st7" d="M1062.8,559.5c4.8-1.3,9.9,1.7,9.2,6.6c-0.4,2.7-1.3,5.4-2.7,7.8c-2.9,5.1-7.7,8.7-13.4,10.2
		c-5.6,1.5-11.6,0.7-16.7-2.2c-2.4-1.4-4.5-3.2-6.2-5.4c-3.1-3.9-0.1-9,4.7-10.3l12.5-3.4L1062.8,559.5z"/>
	<path class="st8" d="M1001.9,1120.2l-3.6,7.2c-10.3,20.8-0.8,46,20.7,54.8l24.7,10.1c4.8,2,10,3,15.2,3h26.8l69.9,21.1
		c3.2,1,6.6-0.1,8.8-2.6c3.4-4.1,2.2-10.2-2.5-12.7l-32.6-17.3c-6-3.2-6.7-11.5-1.4-15.7c3.5-2.7,8.3-2.6,11.7,0.2l40.1,33
		c3.1,2.6,7.7,2.1,10.3-1c2.3-2.8,2.2-6.9-0.3-9.6l-41.4-44.5l42.2,36.9c2.2,2,5.3,2.7,8.1,2c6.6-1.7,9.1-9.8,4.5-14.9l-51-55.9
		c-9.5-10.4-22.9-16.3-36.9-16.3h-77.3C1022.6,1098,1008.7,1106.6,1001.9,1120.2z"/>
	
		<linearGradient id="SVGID_27_" gradientUnits="userSpaceOnUse" x1="547.0251" y1="7612.8213" x2="1267.6962" y2="7488.1514" gradientTransform="matrix(1 0 0 -1 0 8472)">
		<stop  offset="0.206" style="stop-color:#FFB99B"/>
		<stop  offset="1" style="stop-color:#FBF7B8"/>
	</linearGradient>
	<path class="st59" d="M823.2,717.7c21.6-37.4,69.6-50.2,107.1-28.5c37.6,21.7,50.5,69.6,28.9,107l-169.8,294.1
		c-21.6,37.4-69.6,50.2-107.1,28.5c-37.6-21.7-50.5-69.6-28.9-107L823.2,717.7z"/>
	
		<linearGradient id="SVGID_28_" gradientUnits="userSpaceOnUse" x1="838.6806" y1="7633.6685" x2="886.2305" y2="6921.0864" gradientTransform="matrix(1 0 0 -1 0 8472)">
		<stop  offset="0.206" style="stop-color:#FFB99B"/>
		<stop  offset="1" style="stop-color:#FBF7B8"/>
	</linearGradient>
	<path class="st60" d="M693.9,1125.2l298.3,90.2l74.3-123.2L747,977.4c-40.7-14.6-85.5,6.6-100.2,47.4
		C632.1,1065.7,653.2,1110.6,693.9,1125.2z"/>
	
		<linearGradient id="SVGID_29_" gradientUnits="userSpaceOnUse" x1="956.9725" y1="7154.7104" x2="1515.2395" y2="7699.6445" gradientTransform="matrix(1 0 0 -1 0 8472)">
		<stop  offset="0" style="stop-color:#FFB99B"/>
		<stop  offset="1" style="stop-color:#FBF7B8"/>
	</linearGradient>
	<path class="st61" d="M1237.4,829.5c-29.3-35.5-24.4-88,11.1-117.4c35.5-29.4,88-24.4,117.4,11.1l187.2,226.2
		c29.4,35.5,24.4,88-11.1,117.4c-35.5,29.3-88,24.4-117.4-11.1L1237.4,829.5z"/>
	
		<linearGradient id="SVGID_30_" gradientUnits="userSpaceOnUse" x1="1043.9634" y1="7713.4746" x2="1703.2834" y2="7565.9414" gradientTransform="matrix(1 0 0 -1 0 8472)">
		<stop  offset="0" style="stop-color:#FFB99B"/>
		<stop  offset="1" style="stop-color:#FBF7B8"/>
	</linearGradient>
	<path class="st62" d="M1569.4,1023.9l82.5-359.1l-167,61l-76.5,254.9c-11.9,44.5,14.5,90.2,58.9,102.1
		C1511.8,1094.8,1557.4,1068.4,1569.4,1023.9z"/>
	<path class="st3" d="M1651.9,662.8c4,10.4-30.3,33.5-76.7,51.6c-46.4,18.1-87.3,24.3-91.3,13.9c-4.1-10.4,30.3-33.5,76.7-51.6
		C1607,658.7,1647.9,652.5,1651.9,662.8z"/>
	<path class="st8" d="M1560.6,659.1l-13.9,65.4c0,0,33.6-11.5,56-21.5c28-12.5,42.5-26.5,42.5-26.5l5-7l1.8-9.9
		c1.2-12.2,6.6-23.5,15.2-32.2l62.6-62.8c3.9-3.9,3.2-10.3-1.2-13.4c-3.3-2.3-7.9-2-10.9,0.8l-5.1,4.6l1.6-3
		c1.5-2.9,0.5-6.4-2.4-7.9c-1.8-1-4.1-0.9-5.9,0.2l-6.3,4l0.9-3.5c0.5-2-0.1-4.1-1.5-5.5c-1.9-1.8-4.8-2-7-0.5l-47.1,33.2l0.6-2.3
		c0.7-2.7-0.9-5.4-3.5-6.1c-1.5-0.4-3-0.1-4.3,0.8l-64.1,47.6c-8,5.9-12.8,15.3-12.9,25.2L1560.6,659.1z"/>
	<path class="st5" d="M1700.3,548.7c0.5,0.6,0.4,1.6-0.2,2.1l-37.8,30.5c-0.6,0.5-1.6,0.4-2.1-0.2c-0.5-0.6-0.4-1.6,0.2-2.1
		l37.8-30.5C1698.9,548,1699.8,548.1,1700.3,548.7z M1715.4,556c0.5,0.6,0.4,1.6-0.2,2.1l-38.3,30.3c-0.6,0.5-1.6,0.4-2.1-0.2
		c-0.5-0.6-0.4-1.6,0.2-2.1l38.3-30.3C1713.9,555.3,1714.9,555.4,1715.4,556z M1646.2,572.7c0.5,0.7,0.4,1.6-0.3,2.1l-30.9,23
		c-0.7,0.5-1.6,0.4-2.1-0.3c-0.5-0.7-0.4-1.6,0.3-2.1l30.9-23C1644.8,571.9,1645.7,572,1646.2,572.7z"/>
	<path class="st0" d="M1456.2,840.5c0.8,0.3,1.2,1.1,1,1.9l-34,104c-0.3,0.8-1.1,1.2-1.9,1c-0.8-0.3-1.2-1.1-1-1.9l34-104
		C1454.6,840.7,1455.4,840.3,1456.2,840.5z"/>
	<path class="st19" d="M841.3,1468.5l2.8-112.6h530.9v113.8c0,7-3.5,13.6-10,16.2c-86,34.1-422.8,29.9-512.5-0.2
		C845.1,1483.3,841.1,1476.2,841.3,1468.5z"/>
	<path class="st21" d="M1375.2,1354.5c0,15.7-118.9,28.5-265.5,28.5c-146.6,0-265.5-12.8-265.5-28.5s118.9-28.5,265.5-28.5
		C1256.4,1326,1375.2,1338.7,1375.2,1354.5z"/>
	<path class="st19" d="M940.5,1341.9l1.8-92.4h341.5v93.7c0,6.2-2.8,12.1-8.4,14.7c-57.4,26.8-264.8,23.6-325.3-0.1
		C943.7,1355.3,940.3,1348.8,940.5,1341.9z"/>
	<path class="st16" d="M939.5,1300.8c0.7-1.5,2.4-2.2,3.9-1.6l35.1,15.3c25,10.9,52.9,13.5,79.5,7.3l28.6-6.6
		c17.9-4.1,36.4-4.5,54.5-1.2l40.9,7.6c33.1,6.2,67.3-1,95-20l3.1-2.1c1.4-0.9,3.2-0.6,4.2,0.8c0.9,1.4,0.6,3.2-0.8,4.2l-3.1,2.1
		c-29.1,19.9-64.9,27.4-99.5,21l-40.9-7.6c-17.2-3.2-34.9-2.8-52,1.1l-28.6,6.6c-27.8,6.5-57,3.8-83.2-7.7l-35.1-15.3
		C939.5,1304,938.8,1302.3,939.5,1300.8z"/>
	<path class="st16" d="M841.4,1425.1c0.5-1.6,2.1-2.5,3.7-2.1l75,21.2c27,7.6,55.3,9.4,83,5.3l82.1-12.4c18.1-2.7,36.5-3,54.7-0.8
		l106.7,12.9c35.3,4.3,71.2-1.1,103.7-15.5l23.8-10.6c1.5-0.7,3.3,0,4,1.5c0.7,1.5,0,3.3-1.5,4l-23.8,10.6
		c-33.5,14.9-70.4,20.4-106.8,16l-106.7-12.9c-17.6-2.1-35.5-1.9-53,0.8l-82.1,12.4c-28.6,4.3-57.7,2.5-85.5-5.4l-75-21.2
		C841.8,1428.4,840.9,1426.7,841.4,1425.1z"/>
	<path class="st21" d="M1284.2,1249.5c0,15.7-76.6,28.5-171,28.5s-171-12.8-171-28.5s76.6-28.5,171-28.5
		S1284.2,1233.7,1284.2,1249.5z"/>
	<path class="st20" d="M1201.2,1226c0,10.5-8.5,19-19,19s-19-8.5-19-19s8.5-19,19-19S1201.2,1215.5,1201.2,1226z"/>
	<path class="st40" d="M1158.5,1186.7c0.7-0.4,1.6-0.2,2.1,0.5l16,27c0.4,0.7,0.2,1.6-0.5,2.1c-0.7,0.4-1.6,0.2-2.1-0.5l-16-27
		C1157.5,1188,1157.8,1187.1,1158.5,1186.7z"/>
	<path class="st18" d="M1144.4,1214.4c1.9-3.3,6.7-3.3,8.6,0l18.3,31.5c2.1,3.6,0.6,8.2-3.3,9.6c-12.9,4.7-23.1,4.5-38-0.2
		c-4.1-1.3-5.9-6.1-3.7-9.9L1144.4,1214.4z"/>
	<path class="st18" d="M1109.4,1225.2c1.9-3.3,6.7-3.3,8.6,0l18.2,30.7c2.1,3.6,0.6,8.3-3.3,9.7c-12.8,4.5-23,4.3-37.7-0.2
		c-4.2-1.3-5.9-6.2-3.7-10L1109.4,1225.2z"/>
	<path class="st18" d="M1073.4,1214.4c1.9-3.3,6.7-3.3,8.6,0l18.3,31.5c2.1,3.6,0.6,8.2-3.3,9.6c-12.9,4.7-23.1,4.5-38-0.2
		c-4.1-1.3-5.9-6.1-3.7-9.9L1073.4,1214.4z"/>
	<path class="st20" d="M292.9,985.6c0-7.4,6-13.3,13.3-13.3h158.4c7.4,0,13.3,6,13.3,13.3s-6,13.3-13.3,13.3H306.2
		C298.8,999,292.9,993,292.9,985.6z"/>
	<path class="st19" d="M353.8,798.2c2.4-4.2,6.9-6.7,11.8-6.7L399,792c4.8,0.1,9.3,2.8,11.5,7l16.9,31.8c4.8,9-1.8,19.7-12,19.6
		l-68.3-1.1c-10.1-0.2-16.4-11.2-11.3-20L353.8,798.2z"/>
	<path class="st15" d="M383.3,798.6c2.4-4.2,6.9-6.7,11.8-6.7l33.4,0.5c4.8,0.1,9.3,2.8,11.5,7l16.9,31.8c4.8,9-1.8,19.7-12,19.6
		l-68.3-1.1c-10.1-0.2-16.4-11.2-11.3-20L383.3,798.6z"/>
	<path class="st15" d="M322.1,839.1c0.1-8,6.6-14.4,14.6-14.4l175.5-1c8.2,0,14.9,6.7,14.7,14.9l-1.9,120.9
		c-0.1,8-6.6,14.4-14.6,14.4l-175.5,1c-8.2,0-14.9-6.7-14.7-14.9L322.1,839.1z"/>
	<path class="st19" d="M268.4,838.6c0.1-8.1,6.8-14.5,14.9-14.4l40.4,0.6c8.1,0.1,14.5,6.8,14.4,14.9l-1.9,120.9
		c-0.1,8.1-6.8,14.5-14.9,14.4l-40.4-0.6c-8.1-0.1-14.5-6.8-14.4-14.9L268.4,838.6z"/>
	<path class="st19" d="M461.4,899.9c-0.4,22-18.4,39.5-40.4,39.1c-22-0.4-39.5-18.4-39.1-40.4c0.4-22,18.4-39.5,40.4-39.1
		C444.3,859.8,461.8,877.9,461.4,899.9z"/>
	<path class="st36" d="M411.5,890.2c0.5-29.4,24.7-52.9,54.1-52.4l56.7,0.9l-2,124.2l-56.7-0.9c-29.4-0.5-52.9-24.7-52.4-54.1
		L411.5,890.2z"/>
	<path class="st20" d="M584.8,901.8c-0.5,34.3-28.8,61.7-63.1,61.1c-34.3-0.5-61.7-28.8-61.1-63.1c0.5-34.3,28.8-61.7,63.1-61.1
		C558,839.3,585.3,867.5,584.8,901.8z"/>
	<path class="st7" d="M570.5,901.6c-0.4,26.4-22.2,47.5-48.6,47.1c-26.4-0.4-47.5-22.2-47.1-48.6c0.4-26.4,22.2-47.5,48.6-47.1
		C549.8,853.5,570.9,875.2,570.5,901.6z"/>
	<path class="st40" d="M383.8,987.1c-16.9,1.3-30.9,14-33.8,30.9l-77.8,455c-0.3,1.6-1.8,2.7-3.5,2.4c-1.6-0.3-2.7-1.8-2.5-3.5
		l77.8-455c3.6-20.8,21.6-36,42.7-36c18.6,0,34.5,13.2,38,31.4l88.4,459.5c0.3,1.6-0.8,3.2-2.4,3.5c-1.6,0.3-3.2-0.8-3.5-2.4
		l-88.4-459.5c-2.8-14.4-14.7-25-29.1-26.4l10.9,485.3c0,1.7-1.3,3-2.9,3.1c-1.7,0-3-1.3-3.1-2.9L383.8,987.1z"/>
	<path class="st20" d="M1496.1,1420.6c-7.1-6-2.9-17.6,6.4-17.6h342.3c9.3,0,13.6,11.6,6.4,17.6l-44,37.1
		c-16.2,13.7-36.8,21.2-58.1,21.2h-151.2c-21.3,0-41.8-7.5-58.1-21.2L1496.1,1420.6z"/>
	<path class="st57" d="M634.3,1335l-31.7,54.9c-3,5.3-3,11.7,0,17l31.7,54.9c3,5.3,8.6,8.5,14.7,8.5h63.4c6.1,0,11.7-3.2,14.7-8.5
		l31.7-54.9c3-5.3,3-11.7,0-17l-31.7-54.9c-3-5.3-8.6-8.5-14.7-8.5H649C643,1326.5,637.4,1329.8,634.3,1335z M600,1388.5
		c-3.6,6.2-3.6,13.8,0,20l31.7,54.9c3.6,6.2,10.2,10,17.3,10h63.4c7.1,0,13.7-3.8,17.3-10l31.7-54.9c3.6-6.2,3.6-13.8,0-20
		l-31.7-54.9c-3.6-6.2-10.2-10-17.3-10H649c-7.1,0-13.7,3.8-17.3,10L600,1388.5z"/>
	<path class="st21" d="M619.2,1304c0-5.5,4.5-10,10-10h104c5.5,0,10,4.5,10,10v17c0,5.5-4.5,10-10,10h-104c-5.5,0-10-4.5-10-10V1304
		z"/>
	<path class="st57" d="M600,1388.5c-3.6,6.2-3.6,13.8,0,20l17,29.5h127.4l17-29.5c3.6-6.2,3.6-13.8,0-20l-8.9-15.5H609L600,1388.5z"
		/>
	<path class="st32" d="M780.6,384c1.7-3.4,6.5-3.4,8.2,0l13.1,25.4c0.4,0.7,0.9,1.3,1.6,1.8l20.6,13.2c2.8,1.8,2.8,6,0,7.8l-20.2,13
		c-0.9,0.6-1.6,1.5-1.9,2.6l-12.8,44c-1.3,4.5-7.6,4.5-8.9,0l-12.8-44c-0.3-1.1-1-2-1.9-2.6l-20.2-13c-2.8-1.8-2.8-6,0-7.8
		l20.6-13.2c0.7-0.4,1.2-1.1,1.6-1.8L780.6,384z"/>
	<path class="st19" d="M1685.3,997.6c1.9-3.6,7-3.6,8.9,0l12.7,24.6c0.4,0.8,1,1.4,1.7,1.9l20.1,12.9c3.1,2,3.1,6.5,0,8.4
		l-19.6,12.6c-1,0.7-1.8,1.7-2.1,2.8l-12.4,42.7c-1.4,4.8-8.2,4.8-9.6,0l-12.4-42.7c-0.3-1.2-1.1-2.2-2.1-2.8l-19.6-12.6
		c-3.1-2-3.1-6.4,0-8.4l20.1-12.9c0.7-0.5,1.3-1.1,1.7-1.9L1685.3,997.6z"/>
	<path class="st18" d="M555.3,657.5c1.9-3.6,7-3.6,8.9,0l7.6,14.7c0.4,0.8,1,1.4,1.7,1.9l12.1,7.7c3.1,2,3.1,6.5,0,8.4l-11.6,7.4
		c-1,0.6-1.8,1.6-2.1,2.8l-7.4,25.1c-1.4,4.8-8.2,4.8-9.6,0l-7.4-25.1c-0.3-1.2-1.1-2.2-2.1-2.8l-11.6-7.4c-3.1-2-3.1-6.5,0-8.4
		l12.1-7.7c0.7-0.5,1.3-1.1,1.7-1.9L555.3,657.5z"/>
	<path class="st18" d="M1603.2,424c0,70.7-57.3,128-128,128s-128-57.3-128-128s57.3-128,128-128S1603.2,353.3,1603.2,424z"/>
	<path class="st7" d="M1534.4,424c0,32.7-26.5,59.1-59.1,59.1c-32.7,0-59.1-26.5-59.1-59.1s26.5-59.1,59.1-59.1
		C1507.9,364.8,1534.4,391.3,1534.4,424z"/>
	<path class="st18" d="M1486.7,421.4c1.9,0,3.6,1.6,3.1,3.5c-0.6,2.7-2,5.1-4,7.1c-2.8,2.8-6.6,4.4-10.6,4.4s-7.8-1.6-10.6-4.4
		c-2-2-3.3-4.4-4-7.1c-0.4-1.9,1.2-3.5,3.1-3.5h11.4H1486.7z"/>
	<path class="st18" d="M1455.1,411c0,2.5-2,4.5-4.5,4.5c-2.5,0-4.6-2-4.6-4.5s2-4.5,4.6-4.5C1453.1,406.4,1455.1,408.4,1455.1,411z"
		/>
	<path class="st18" d="M1505.8,411c0,2.5-2,4.5-4.6,4.5s-4.6-2-4.6-4.5s2-4.5,4.6-4.5S1505.8,408.4,1505.8,411z"/>
</g>
<g id="Layer_7">
</g>
<g id="Layer_8">
</g>
<g id="Layer_9">
</g>
<g id="Layer_10">
</g>
</svg>
