<svg width="2238" height="1678" viewBox="0 0 2238 1678" fill="none" xmlns="http://www.w3.org/2000/svg">
<path d="M528 162C528 101.249 577.249 52 638 52H1212C1272.75 52 1322 101.249 1322 162V1517C1322 1577.75 1272.75 1627 1212 1627H638C577.249 1627 528 1577.75 528 1517V162Z" fill="#BCECFF"/>
<path d="M558 191C558 130.249 607.249 81 668 81H755.69C778.617 81 800.364 91.16 815.076 108.744C829.789 126.327 851.536 136.487 874.463 136.487H986.188C1006.11 136.487 1024.54 125.929 1034.62 108.744C1044.7 91.5578 1063.13 81 1083.06 81H1183C1243.75 81 1293 130.249 1293 191V1488C1293 1548.75 1243.75 1598 1183 1598H668C607.249 1598 558 1548.75 558 1488V191Z" fill="#FBC3DE"/>
<path d="M542 176C542 115.249 591.249 66 652 66H756.635C779.024 66 800.324 75.6586 815.076 92.5C829.829 109.341 851.129 119 873.518 119H987.255C1006.58 119 1024.51 108.966 1034.62 92.5C1044.73 76.0342 1062.67 66 1081.99 66H1198C1258.75 66 1308 115.249 1308 176V190H542V176Z" fill="white"/>
<path d="M542 190H1308V378H542V190Z" fill="white"/>
<path d="M542 378H1308V1113H542V378Z" fill="#DCE1F2"/>
<path d="M542 1113H1308V1503C1308 1563.75 1258.75 1613 1198 1613H652C591.249 1613 542 1563.75 542 1503V1113Z" fill="white"/>
<path fill-rule="evenodd" clip-rule="evenodd" d="M573 1308.97C573.016 1303.45 577.506 1298.98 583.029 1299L1273.03 1301.03C1278.55 1301.05 1283.02 1305.54 1283 1311.06C1282.98 1316.58 1278.49 1321.05 1272.97 1321.03L582.97 1319C577.448 1318.98 572.984 1314.49 573 1308.97Z" fill="#F7CDE1"/>
<path fill-rule="evenodd" clip-rule="evenodd" d="M573 1372C573 1366.48 577.477 1362 583 1362H858C863.523 1362 868 1366.48 868 1372C868 1377.52 863.523 1382 858 1382H583C577.477 1382 573 1377.52 573 1372Z" fill="#F7CDE1"/>
<path fill-rule="evenodd" clip-rule="evenodd" d="M573 1432C573 1426.48 577.477 1422 583 1422H1067C1072.52 1422 1077 1426.48 1077 1432C1077 1437.52 1072.52 1442 1067 1442H583C577.477 1442 573 1437.52 573 1432Z" fill="#F7CDE1"/>
<path fill-rule="evenodd" clip-rule="evenodd" d="M884 1372C884 1366.48 888.477 1362 894 1362H1273C1278.52 1362 1283 1366.48 1283 1372C1283 1377.52 1278.52 1382 1273 1382H894C888.477 1382 884 1377.52 884 1372Z" fill="#F7CDE1"/>
<path d="M747.028 1184.06C745.679 1183.61 745.666 1182.89 747.053 1182.43L796.362 1165.99C797.728 1165.54 798.511 1166.3 798.129 1167.64L784.039 1216.94C783.652 1218.31 782.864 1218.36 782.285 1217.06L773.812 1197.99C773.311 1196.87 773.459 1195.56 774.2 1194.57C776.562 1191.42 772.434 1187.55 769.284 1189.91C768.383 1190.59 767.196 1190.79 766.127 1190.43L747.028 1184.06Z" fill="#FBC3DE"/>
<path d="M1218 1170C1218 1168.34 1219.34 1167 1221 1167H1262C1263.66 1167 1265 1168.34 1265 1170V1208.8C1265 1211.11 1262.5 1212.56 1260.5 1211.4L1243 1201.29C1242.07 1200.75 1240.93 1200.75 1240 1201.29L1222.5 1211.4C1220.5 1212.56 1218 1211.11 1218 1208.8V1170Z" fill="#FBC3DE"/>
<path d="M620.7 1160C628.599 1160 635 1166.49 635 1175.57C635 1192.38 618.299 1202.52 610.657 1207.02C609.631 1207.63 608.369 1207.63 607.343 1207.02C599.701 1202.52 583 1192.38 583 1175.57C583 1166.49 589.5 1160 597.3 1160C602.136 1160 606.4 1162.59 609 1165.19C611.6 1162.59 615.864 1160 620.7 1160Z" fill="#FBC3DE"/>
<path d="M678.835 1206.8L669.769 1208.81C667.626 1209.29 665.714 1207.37 666.19 1205.23L668.205 1196.17C666.204 1192.42 665.161 1188.24 665.167 1184C665.167 1169.73 676.733 1158.17 691 1158.17C705.268 1158.17 716.834 1169.73 716.834 1184C716.834 1198.27 705.268 1209.83 691 1209.83C686.757 1209.84 682.578 1208.8 678.835 1206.8Z" fill="#FBC3DE"/>
<path d="M719 284C719 321.555 688.555 352 651 352C613.445 352 583 321.555 583 284C583 246.445 613.445 216 651 216C688.555 216 719 246.445 719 284Z" fill="#C2BBFF"/>
<path fill-rule="evenodd" clip-rule="evenodd" d="M764 259C764 253.477 768.477 249 774 249H1070C1075.52 249 1080 253.477 1080 259C1080 264.523 1075.52 269 1070 269H774C768.477 269 764 264.523 764 259Z" fill="#F7CDE1"/>
<path fill-rule="evenodd" clip-rule="evenodd" d="M764 308C764 302.477 768.477 298 774 298H926C931.523 298 936 302.477 936 308C936 313.523 931.523 318 926 318H774C768.477 318 764 313.523 764 308Z" fill="#F7CDE1"/>
<path d="M1459.24 640.499L1412.53 726.436L1411.08 729.104C1401.84 746.206 1411.3 767.425 1430.2 771.979L1447.4 776.124C1462.72 779.814 1478.24 770.871 1482.73 755.772L1485.58 746.18L1502.36 726.436L1530 698.301L1534.94 630.185H1476.59C1469.35 630.185 1462.7 634.143 1459.24 640.499Z" fill="#DD9576"/>
<path d="M1492.85 610.441H1525.08C1528.7 610.441 1531.77 613.105 1532.28 616.69L1539.84 669.851C1540.02 671.139 1540.55 672.355 1541.36 673.37L1563.25 700.734C1564.28 702.024 1564.85 703.626 1564.85 705.278V781.072C1564.85 791.78 1553.67 798.817 1544.01 794.187L1536.03 790.358C1533.03 788.92 1530.61 786.498 1529.18 783.495L1486.28 693.368C1485.82 692.391 1485.58 691.323 1485.58 690.242V617.713C1485.58 613.697 1488.83 610.441 1492.85 610.441Z" fill="#FBC3DE"/>
<path fill-rule="evenodd" clip-rule="evenodd" d="M1552.34 639.433C1547.91 635 1540.72 635 1536.29 639.433L1510.62 665.1C1506.19 669.534 1506.19 676.722 1510.62 681.155C1515.05 685.589 1522.24 685.589 1526.68 681.155L1552.34 655.488C1556.78 651.055 1556.78 643.867 1552.34 639.433Z" fill="#DD9576"/>
<path fill-rule="evenodd" clip-rule="evenodd" d="M1540.5 619.689C1536.06 615.256 1528.88 615.256 1524.44 619.689L1498.78 645.356C1494.34 649.79 1494.34 656.978 1498.78 661.412C1503.21 665.845 1510.4 665.845 1514.83 661.412L1540.5 635.745C1544.93 631.311 1544.93 624.123 1540.5 619.689Z" fill="#DD9576"/>
<path fill-rule="evenodd" clip-rule="evenodd" d="M1561.23 657.203C1556.8 652.769 1549.61 652.769 1545.17 657.203L1519.51 682.87C1515.07 687.303 1515.07 694.491 1519.51 698.925C1523.94 703.358 1531.13 703.358 1535.56 698.925L1561.23 673.258C1565.66 668.824 1565.66 661.636 1561.23 657.203Z" fill="#DD9576"/>
<path fill-rule="evenodd" clip-rule="evenodd" d="M1570.11 674.972C1565.68 670.539 1558.49 670.539 1554.06 674.972L1528.39 700.639C1523.96 705.073 1523.96 712.261 1528.39 716.694C1532.83 721.128 1540.01 721.128 1544.45 716.694L1570.11 691.027C1574.55 686.594 1574.55 679.406 1570.11 674.972Z" fill="#DD9576"/>
<path fill-rule="evenodd" clip-rule="evenodd" d="M1553.32 653.363C1552.77 652.749 1551.82 652.703 1551.21 653.26L1519.12 682.382C1518.51 682.939 1518.46 683.888 1519.02 684.501C1519.58 685.115 1520.52 685.16 1521.14 684.604L1553.22 655.481C1553.83 654.925 1553.88 653.976 1553.32 653.363ZM1563.2 672.122C1562.64 671.507 1561.69 671.459 1561.08 672.014L1530.48 699.656C1529.86 700.211 1529.81 701.16 1530.37 701.774C1530.92 702.389 1531.87 702.437 1532.49 701.882L1563.09 674.241C1563.71 673.685 1563.75 672.737 1563.2 672.122Z" fill="#CD764F"/>
<path fill-rule="evenodd" clip-rule="evenodd" d="M1540.49 635.1C1539.93 634.486 1538.98 634.44 1538.37 634.997L1506.29 664.119C1505.67 664.676 1505.63 665.625 1506.19 666.238C1506.74 666.852 1507.69 666.898 1508.3 666.341L1540.39 637.219C1541 636.662 1541.05 635.713 1540.49 635.1Z" fill="#CD764F"/>
<path d="M1001.36 501.849C1042.36 537.954 1122.29 725.549 1142.03 865.971L696.71 943.125C682.064 908.148 649.476 889.681 653.758 848.997C666.1 731.722 765.911 674.847 776.772 644.499C787.634 614.152 799.466 541.97 850.318 501.85C901.17 461.729 968.288 472.727 1001.36 501.849Z" fill="#744F3A"/>
<rect x="1020.92" y="739" width="476.195" height="145.839" rx="72.9193" transform="rotate(30 1020.92 739)" fill="url(#paint0_linear_63_108)"/>
<path d="M1261.26 983.203L1407.62 725.518L1487.1 747.47L1395.68 1040.46C1381.08 1074.73 1339.16 1089.69 1302.04 1073.88C1264.92 1058.07 1246.66 1017.47 1261.26 983.203Z" fill="url(#paint1_linear_63_108)"/>
<path d="M845.501 883.398L725.51 1113.67L566.007 1115.39L728.688 815.956C747.779 782.889 789.405 771.18 821.662 789.803C853.919 808.427 864.592 850.331 845.501 883.398Z" fill="url(#paint2_linear_63_108)"/>
<path d="M746.557 873.601L811.217 1115.88H1067.5L1102.65 939.699C1104.55 930.16 1105.51 920.457 1105.51 910.73V826.597C1105.51 792.581 1076.78 766.98 1042.82 768.885L795.239 781.357C788.615 781.728 782.24 784.004 776.879 787.911C750.042 807.469 737.994 841.516 746.557 873.601Z" fill="url(#paint3_linear_63_108)"/>
<path d="M890 1115.78L929.981 829H944.789L1014.39 1115.78H890Z" fill="#BCECFF"/>
<path d="M911.524 775.302L817.741 781.719L816.147 797.202C813.474 823.169 836.283 844.538 862.021 840.179L933.243 828.117L911.524 775.302Z" fill="#FCF6F9"/>
<path d="M968.782 771.847L1024.56 769.873L1025.54 771.342C1044.05 799.107 1021.91 835.891 988.71 832.534L940.153 827.623L968.782 771.847Z" fill="#FCF6F9"/>
<path fill-rule="evenodd" clip-rule="evenodd" d="M984.046 550.434C967.706 516.572 927.555 501.64 893.06 516.596C863.002 529.628 846.695 561.206 851.753 592.146C849.493 592.705 847.286 593.54 845.167 594.665C828.553 603.487 823.665 626.796 834.248 646.728C841.99 661.308 855.866 670.042 869.263 670.228L873.59 766.02C873.826 771.235 869.961 775.732 864.77 776.282L821.867 780.832C817.341 781.312 815.821 787.141 819.536 789.77L839.839 804.136C899.229 846.16 981.077 834.637 1026.56 777.851C1029.13 774.637 1026.84 769.872 1022.72 769.872L980.525 769.872C975.073 769.872 970.653 765.452 970.653 760L970.653 719.957C976.676 718.391 982.605 716.004 988.294 712.749C1020.99 694.038 1033.65 653.225 1017.28 619.296L984.046 550.434Z" fill="#DD9576"/>
<path fill-rule="evenodd" clip-rule="evenodd" d="M970.653 758.598L970.653 719.957C970.881 719.898 971.108 719.837 971.335 719.776L970.653 719.957L947.5 718.5L970.653 758.598Z" fill="#171625"/>
<path fill-rule="evenodd" clip-rule="evenodd" d="M927.896 605.068C926.413 605.808 925.811 607.609 926.551 609.092L930.923 617.856C931.663 619.339 933.464 619.941 934.947 619.201C936.43 618.462 937.032 616.66 936.292 615.178L931.919 606.413C931.18 604.931 929.378 604.328 927.896 605.068Z" fill="#171625"/>
<path fill-rule="evenodd" clip-rule="evenodd" d="M975.685 587.798C974.202 588.538 973.6 590.339 974.34 591.822L978.712 600.586C979.452 602.069 981.254 602.671 982.736 601.931C984.219 601.192 984.821 599.39 984.081 597.907L979.709 589.143C978.969 587.661 977.167 587.058 975.685 587.798Z" fill="#171625"/>
<path fill-rule="evenodd" clip-rule="evenodd" d="M960.754 601.944C960.035 602.355 959.785 603.271 960.196 603.991L976.251 632.108L964.791 633.634C963.97 633.743 963.393 634.497 963.502 635.318C963.611 636.14 964.366 636.717 965.187 636.607L978.858 634.788C979.353 634.722 979.782 634.414 980.004 633.966C980.226 633.519 980.21 632.99 979.962 632.557L962.801 602.503C962.39 601.784 961.474 601.533 960.754 601.944Z" fill="#CD764F"/>
<path d="M968.502 654.309C973.303 655.595 976.267 660.728 973.176 664.621C971.472 666.769 969.365 668.599 966.945 669.997C961.892 672.914 955.887 673.705 950.251 672.194C944.615 670.684 939.81 666.997 936.892 661.944C935.495 659.524 934.585 656.885 934.183 654.173C933.453 649.256 938.586 646.293 943.388 647.579L968.502 654.309Z" fill="white"/>
<path fill-rule="evenodd" clip-rule="evenodd" d="M848.407 623.235L848.41 623.235L848.425 623.232L848.491 623.222C848.55 623.213 848.64 623.199 848.757 623.182C848.991 623.148 849.335 623.101 849.764 623.05C850.624 622.948 851.82 622.831 853.163 622.771C855.912 622.649 859.047 622.779 861.226 623.605C861.689 623.78 862.148 624.002 862.602 624.267C862.432 624.291 862.258 624.317 862.081 624.345C859.741 624.705 856.714 625.36 854.501 626.569C853.323 627.212 852.014 628.209 851.042 629C850.546 629.404 850.119 629.77 849.815 630.036C849.663 630.169 849.541 630.277 849.457 630.353C849.414 630.391 849.381 630.42 849.359 630.441L849.332 630.465L849.323 630.474L849.322 630.475C849.322 630.475 849.321 630.475 850.267 631.508L849.322 630.475C848.71 631.034 848.668 631.983 849.228 632.594C849.787 633.205 850.736 633.247 851.347 632.688M851.347 632.688L851.352 632.683L851.373 632.664C851.392 632.647 851.421 632.621 851.459 632.587C851.535 632.518 851.648 632.419 851.789 632.295C852.073 632.046 852.474 631.704 852.936 631.327C853.883 630.556 855.016 629.706 855.938 629.202C857.666 628.259 860.251 627.662 862.538 627.309C863.656 627.137 864.656 627.029 865.377 626.965C865.555 626.949 865.716 626.936 865.857 626.925C868.198 629.38 870.145 632.595 871.546 635.322C872.286 636.762 872.862 638.04 873.251 638.957C873.445 639.414 873.593 639.78 873.691 640.03C873.74 640.155 873.776 640.25 873.8 640.313L873.827 640.383L873.833 640.399L873.834 640.402C874.12 641.18 874.981 641.579 875.759 641.293C876.537 641.008 876.936 640.146 876.65 639.368L875.242 639.885C876.65 639.368 876.65 639.368 876.65 639.368L876.646 639.358L876.637 639.334L876.605 639.249C876.577 639.175 876.536 639.068 876.483 638.932C876.376 638.66 876.218 638.268 876.012 637.784C875.6 636.815 874.995 635.469 874.214 633.951C872.667 630.94 870.38 627.148 867.494 624.313C865.974 622.819 864.234 621.536 862.289 620.799C859.5 619.743 855.837 619.649 853.03 619.774C851.595 619.838 850.324 619.963 849.41 620.071C848.953 620.125 848.584 620.176 848.327 620.213C848.198 620.232 848.098 620.247 848.028 620.258L847.947 620.271L847.925 620.274L847.916 620.276C847.916 620.276 847.915 620.276 848.161 621.756L847.915 620.276C847.098 620.412 846.546 621.185 846.682 622.002C846.818 622.819 847.59 623.371 848.407 623.235" fill="#CD764F"/>
<path d="M870.913 521.748C893.213 502.488 925.074 483.715 956.135 498.681C975.151 507.843 989.05 546.611 989.05 546.611C989.05 546.611 955.186 506.547 939.314 530.128C907.276 577.727 881.448 550.448 877.034 578.654C874.15 597.085 885.514 625.664 885.514 625.664C885.514 625.664 871.318 604.027 858 595C845.864 586.774 823.051 581.289 823.051 581.289C823.051 581.289 850.822 539.1 870.913 521.748Z" fill="#744F3A"/>
<path d="M880.427 666.217C880.427 674.123 874.019 680.531 866.113 680.531C858.208 680.531 851.799 674.123 851.799 666.217C851.799 658.312 858.208 651.903 866.113 651.903C874.019 651.903 880.427 658.312 880.427 666.217Z" fill="#FBF7B8"/>
<path d="M875.492 689.416C875.492 694.323 871.514 698.301 866.607 698.301C861.7 698.301 857.723 694.323 857.723 689.416C857.723 684.509 861.7 680.531 866.607 680.531C871.514 680.531 875.492 684.509 875.492 689.416Z" fill="#FBF7B8"/>
<path d="M1413.74 613.002L1395.79 573.095C1390.27 560.815 1393.72 546.355 1404.2 537.898L1667.96 325.023C1683.44 312.53 1706.59 318.547 1714.03 336.997L1791.32 528.747C1798.31 546.07 1787.71 565.454 1769.35 568.921L1446.25 629.952C1432.8 632.493 1419.36 625.485 1413.74 613.002Z" fill="#FBC3DE"/>
<path d="M1779.01 419.571C1808.86 486.99 1810.63 551.573 1782.96 563.823C1755.29 576.072 1708.66 531.349 1678.82 463.931C1648.97 396.513 1647.2 331.93 1674.87 319.68C1702.54 307.431 1749.17 352.153 1779.01 419.571Z" fill="#171625"/>
<path fill-rule="evenodd" clip-rule="evenodd" d="M941.248 832.443C940.398 833.54 940.078 834.887 940.451 836.753C940.466 836.829 940.482 836.906 940.5 836.983C940.636 837.189 940.796 837.432 940.977 837.709C941.632 838.712 942.563 840.168 943.678 841.993C944.702 843.67 945.881 845.659 947.142 847.893C951.243 852.575 956.937 857.691 963.66 862.905C972.306 869.608 980.635 874.907 987.398 877.605C990.79 878.957 993.57 879.566 995.684 879.51C997.705 879.458 998.926 878.821 999.728 877.788C1000.6 876.662 1001.23 874.597 1001.12 871.48C1001.02 868.432 1000.22 864.729 998.679 860.741C995.604 852.762 989.741 844.049 981.484 837.646C973.246 831.259 964.204 828.394 956.616 827.996C952.82 827.796 949.454 828.217 946.773 829.068C944.061 829.929 942.24 831.165 941.248 832.443ZM951.988 857.045C954.951 859.754 958.26 862.514 961.822 865.275C979.28 878.812 996.177 887.264 1002.1 879.626C1008.02 871.988 1000.78 848.812 983.322 835.275C965.864 821.739 944.8 822.967 938.877 830.605C938.618 830.939 938.393 831.284 938.199 831.64C938.036 831.363 937.852 831.093 937.648 830.83C931.726 823.192 910.662 821.963 893.204 835.5C875.746 849.037 868.504 872.212 874.427 879.85C880.349 887.488 897.246 879.037 914.704 865.5C918.448 862.597 921.915 859.695 924.991 856.853C918.913 868.598 912.813 883.678 913.205 896.546C913.465 905.083 916.67 915.406 919.742 923.487C921.286 927.551 922.814 931.091 923.956 933.617C924.527 934.88 925.002 935.89 925.335 936.586C925.502 936.934 925.633 937.204 925.723 937.387C925.768 937.479 925.803 937.549 925.826 937.597L925.853 937.651L925.861 937.666L925.863 937.67L925.863 937.671C925.863 937.671 925.864 937.672 927.205 937L925.864 937.672C926.234 938.412 927.136 938.712 927.876 938.341C928.617 937.97 928.917 937.069 928.546 936.328L928.546 936.328L928.546 936.328L928.544 936.325L928.539 936.314L928.514 936.265C928.493 936.221 928.46 936.154 928.417 936.067C928.331 935.891 928.204 935.63 928.041 935.291C927.716 934.612 927.251 933.622 926.689 932.38C925.566 929.897 924.063 926.415 922.546 922.421C919.493 914.389 916.448 904.462 916.204 896.454C915.835 884.346 921.668 869.767 927.75 858.05C929.665 854.36 931.59 850.981 933.327 848.085C935.426 845.466 937.031 842.964 938.033 840.634C938.151 840.457 938.265 840.287 938.373 840.126C939.578 843.053 941.752 846.259 944.678 849.632C946.097 852.155 947.615 854.985 949.126 858.026C954.949 869.741 960.542 884.33 960.188 896.456C959.954 904.474 957.035 914.409 954.111 922.441C952.658 926.435 951.218 929.918 950.143 932.402C949.605 933.644 949.159 934.635 948.848 935.313C948.692 935.653 948.57 935.914 948.488 936.09C948.447 936.177 948.415 936.244 948.394 936.288L948.371 936.337L948.366 936.348L948.364 936.351L948.364 936.351C948.006 937.098 948.321 937.994 949.068 938.353C949.815 938.711 950.711 938.396 951.069 937.649L949.717 937C951.069 937.649 951.069 937.648 951.069 937.648L951.07 937.647L951.072 937.643L951.079 937.628L951.105 937.574C951.127 937.526 951.161 937.456 951.204 937.364C951.29 937.181 951.415 936.911 951.575 936.563C951.894 935.867 952.349 934.857 952.896 933.595C953.989 931.07 955.452 927.53 956.93 923.467C959.872 915.385 962.938 905.07 963.187 896.544C963.56 883.755 957.782 868.768 951.988 857.045ZM912.865 863.129C920.438 857.257 926.705 851.508 930.86 846.366C931.84 844.735 932.76 843.259 933.583 841.969C934.25 840.922 934.855 839.996 935.378 839.208C935.707 838.41 935.938 837.666 936.075 836.978C936.448 835.111 936.128 833.764 935.278 832.668C934.286 831.389 932.465 830.154 929.753 829.293C927.072 828.442 923.706 828.021 919.909 828.22C912.321 828.619 903.28 831.484 895.042 837.871C886.785 844.274 880.921 852.987 877.847 860.966C876.311 864.954 875.51 868.656 875.405 871.705C875.298 874.822 875.925 876.886 876.798 878.012C877.599 879.046 878.821 879.682 880.842 879.735C882.956 879.79 885.736 879.182 889.128 877.829C895.891 875.132 904.22 869.833 912.865 863.129Z" fill="#171625"/>
<path d="M1094 364.525C1094 349.323 1106.32 337 1121.52 337H1348.48C1363.68 337 1376 349.323 1376 364.525V502.834C1376 518.035 1363.68 530.358 1348.48 530.358H1148.75C1140.3 530.358 1132.05 532.953 1125.12 537.792L1115.64 544.407C1106.52 550.776 1094 544.249 1094 533.123V530.358V364.525Z" fill="#FFB99B"/>
<path fill-rule="evenodd" clip-rule="evenodd" d="M1148.53 396.086C1147.7 396.086 1147.03 396.758 1147.03 397.586C1147.03 398.414 1147.7 399.086 1148.53 399.086H1326.98C1327.81 399.086 1328.48 398.414 1328.48 397.586C1328.48 396.758 1327.81 396.086 1326.98 396.086H1148.53ZM1148.53 435.742C1147.7 435.742 1147.03 436.414 1147.03 437.242C1147.03 438.071 1147.7 438.742 1148.53 438.742H1216.82C1217.65 438.742 1218.32 438.071 1218.32 437.242C1218.32 436.414 1217.65 435.742 1216.82 435.742H1148.53ZM1233.5 437.242C1233.5 436.414 1234.17 435.742 1235 435.742H1327.53C1328.36 435.742 1329.03 436.414 1329.03 437.242C1329.03 438.071 1328.36 438.742 1327.53 438.742H1235C1234.17 438.742 1233.5 438.071 1233.5 437.242ZM1148.53 475.398C1147.7 475.398 1147.03 476.07 1147.03 476.898C1147.03 477.727 1147.7 478.398 1148.53 478.398H1326.98C1327.81 478.398 1328.48 477.727 1328.48 476.898C1328.48 476.07 1327.81 475.398 1326.98 475.398H1148.53Z" fill="white"/>
<path d="M609 640C609 698.542 561.542 746 503 746C444.458 746 397 698.542 397 640C397 581.458 444.458 534 503 534C561.542 534 609 581.458 609 640Z" fill="#FFB99B"/>
<path d="M551.964 640C551.964 667.042 530.042 688.965 503 688.965C475.957 688.965 454.035 667.042 454.035 640C454.035 612.958 475.957 591.036 503 591.036C530.042 591.036 551.964 612.958 551.964 640Z" fill="white"/>
<path d="M511.958 622.244C518.007 622.244 522.908 627.188 522.908 634.11C522.908 646.645 510.667 654.316 504.658 657.857C503.636 658.459 502.363 658.459 501.341 657.857C495.332 654.316 483.091 646.645 483.091 634.11C483.091 627.188 488.068 622.244 494.041 622.244C497.744 622.244 501.009 624.221 502.999 626.199C504.99 624.221 508.255 622.244 511.958 622.244Z" fill="#FFB99B"/>
<path d="M686.058 446.594C687.921 442.988 693.078 442.988 694.941 446.594L706.468 468.895C706.872 469.676 707.474 470.336 708.214 470.81L726.422 482.466C729.494 484.433 729.494 488.921 726.422 490.888L708.662 502.257C707.644 502.908 706.897 503.906 706.558 505.065L695.299 543.583C693.897 548.379 687.102 548.379 685.7 543.583L674.441 505.065C674.102 503.906 673.355 502.908 672.337 502.257L654.578 490.888C651.505 488.921 651.505 484.433 654.578 482.466L672.785 470.81C673.526 470.336 674.128 469.676 674.531 468.895L686.058 446.594Z" fill="white"/>
<path d="M1203.55 663.66C1205.41 660.039 1210.59 660.039 1212.45 663.66L1217.92 674.322C1218.32 675.103 1218.92 675.765 1219.66 676.241L1228.48 681.918C1231.53 683.887 1231.53 688.356 1228.48 690.324L1220.11 695.715C1219.09 696.368 1218.35 697.366 1218.01 698.524L1212.8 716.47C1211.41 721.277 1204.6 721.277 1203.2 716.47L1197.99 698.524C1197.65 697.366 1196.91 696.368 1195.89 695.715L1187.52 690.324C1184.47 688.356 1184.47 683.887 1187.52 681.918L1196.34 676.241C1197.08 675.765 1197.68 675.103 1198.08 674.322L1203.55 663.66Z" fill="#C2BBFF"/>
<defs>
<linearGradient id="paint0_linear_63_108" x1="310.579" y1="879.272" x2="384.838" y2="556.839" gradientUnits="userSpaceOnUse">
<stop stop-color="#97F7F5"/>
<stop offset="1" stop-color="#FBF7B8"/>
</linearGradient>
<linearGradient id="paint1_linear_63_108" x1="2067.4" y1="642.572" x2="1634.39" y2="335.804" gradientUnits="userSpaceOnUse">
<stop stop-color="#97F7F5"/>
<stop offset="1" stop-color="#FBF7B8"/>
</linearGradient>
<linearGradient id="paint2_linear_63_108" x1="-415.5" y1="1372.5" x2="784.836" y2="2231.18" gradientUnits="userSpaceOnUse">
<stop stop-color="#97F7F5"/>
<stop offset="1" stop-color="#FBF7B8"/>
</linearGradient>
<linearGradient id="paint3_linear_63_108" x1="396.5" y1="592" x2="1185.58" y2="777.524" gradientUnits="userSpaceOnUse">
<stop stop-color="#97F7F5"/>
<stop offset="1" stop-color="#FBF7B8"/>
</linearGradient>
</defs>
</svg>
