<svg width="2238" height="1678" viewBox="0 0 2238 1678" fill="none" xmlns="http://www.w3.org/2000/svg">
<path fill-rule="evenodd" clip-rule="evenodd" d="M2134.19 361.794H1169.03C1156.98 361.794 1147.21 371.561 1147.21 383.608V1020.56C1147.21 1032.6 1156.98 1042.37 1169.03 1042.37H2134.19C2146.23 1042.37 2156 1032.6 2156 1020.56V383.608C2156 371.561 2146.23 361.794 2134.19 361.794ZM1169.03 355.794C1153.67 355.794 1141.21 368.247 1141.21 383.608V1020.56C1141.21 1035.92 1153.67 1048.37 1169.03 1048.37H2134.19C2149.55 1048.37 2162 1035.92 2162 1020.56V383.608C2162 368.247 2149.55 355.794 2134.19 355.794H1169.03Z" fill="#BCECFF"/>
<path d="M1141.21 928.769H2162V1020.56C2162 1035.92 2149.55 1048.37 2134.19 1048.37H1169.03C1153.67 1048.37 1141.21 1035.92 1141.21 1020.56V928.769Z" fill="#BCECFF"/>
<path d="M1207.35 987.384L1232.63 970.535C1232.81 970.411 1233.03 970.34 1233.25 970.329C1233.48 970.318 1233.7 970.368 1233.89 970.474C1234.09 970.579 1234.26 970.737 1234.37 970.928C1234.49 971.12 1234.55 971.34 1234.55 971.563V1006.5C1234.55 1006.73 1234.49 1006.95 1234.37 1007.14C1234.26 1007.33 1234.09 1007.49 1233.89 1007.59C1233.7 1007.7 1233.48 1007.75 1233.25 1007.74C1233.03 1007.73 1232.81 1007.66 1232.63 1007.53L1207.35 990.682V1006.34C1207.35 1007 1207.09 1007.62 1206.63 1008.09C1206.16 1008.55 1205.53 1008.81 1204.88 1008.81C1204.22 1008.81 1203.59 1008.55 1203.13 1008.09C1202.67 1007.62 1202.41 1007 1202.41 1006.34V971.726C1202.41 971.071 1202.67 970.442 1203.13 969.978C1203.59 969.514 1204.22 969.254 1204.88 969.254C1205.53 969.254 1206.16 969.514 1206.63 969.978C1207.09 970.442 1207.35 971.071 1207.35 971.726V987.384Z" fill="white"/>
<path d="M1419.98 987.384L1394.7 970.535C1394.51 970.411 1394.3 970.34 1394.08 970.329C1393.85 970.318 1393.63 970.368 1393.43 970.474C1393.24 970.579 1393.07 970.737 1392.96 970.928C1392.84 971.12 1392.78 971.34 1392.78 971.563V1006.5C1392.78 1006.73 1392.84 1006.95 1392.96 1007.14C1393.07 1007.33 1393.24 1007.49 1393.43 1007.59C1393.63 1007.7 1393.85 1007.75 1394.08 1007.74C1394.3 1007.73 1394.51 1007.66 1394.7 1007.53L1419.98 990.682V1006.34C1419.98 1007 1420.24 1007.62 1420.7 1008.09C1421.16 1008.55 1421.79 1008.81 1422.45 1008.81C1423.1 1008.81 1423.73 1008.55 1424.2 1008.09C1424.66 1007.62 1424.92 1007 1424.92 1006.34V971.726C1424.92 971.071 1424.66 970.442 1424.2 969.978C1423.73 969.514 1423.1 969.254 1422.45 969.254C1421.79 969.254 1421.16 969.514 1420.7 969.978C1420.24 970.442 1419.98 971.071 1419.98 971.726V987.384Z" fill="white"/>
<path d="M1298.83 974.198C1298.83 972.833 1299.94 971.726 1301.3 971.726C1302.67 971.726 1303.77 972.833 1303.77 974.198V1003.87C1303.77 1005.23 1302.67 1006.34 1301.3 1006.34C1299.94 1006.34 1298.83 1005.23 1298.83 1003.87V974.198ZM1323.55 974.198C1323.55 972.833 1324.66 971.726 1326.03 971.726C1327.39 971.726 1328.5 972.833 1328.5 974.198V1003.87C1328.5 1005.23 1327.39 1006.34 1326.03 1006.34C1324.66 1006.34 1323.55 1005.23 1323.55 1003.87V974.198Z" fill="white"/>
<path d="M2105.75 966.781H2109.77C2110.28 966.781 2110.7 967.196 2110.7 967.708V980.688C2110.7 981.2 2110.28 981.616 2109.77 981.616H2106.68C2106.17 981.616 2105.75 981.2 2105.75 980.688V972.653C2105.75 972.141 2105.34 971.726 2104.83 971.726H2096.79C2096.28 971.726 2095.86 971.311 2095.86 970.799V967.708C2095.86 967.196 2096.28 966.781 2096.79 966.781H2105.75ZM2066.19 966.781H2075.16C2075.67 966.781 2076.08 967.196 2076.08 967.708V970.799C2076.08 971.311 2075.67 971.726 2075.16 971.726H2067.12C2066.61 971.726 2066.19 972.141 2066.19 972.653V980.688C2066.19 981.2 2065.78 981.616 2065.27 981.616H2062.18C2061.67 981.616 2061.25 981.2 2061.25 980.688V967.708C2061.25 967.196 2061.67 966.781 2062.18 966.781H2066.19ZM2104.83 1006.34C2105.34 1006.34 2105.75 1005.92 2105.75 1005.41V997.377C2105.75 996.865 2106.17 996.45 2106.68 996.45H2109.77C2110.28 996.45 2110.7 996.865 2110.7 997.377V1010.36C2110.7 1010.87 2110.28 1011.28 2109.77 1011.28H2096.79C2096.28 1011.28 2095.86 1010.87 2095.86 1010.36V1007.27C2095.86 1006.75 2096.28 1006.34 2096.79 1006.34H2104.83ZM2066.19 1005.41C2066.19 1005.92 2066.61 1006.34 2067.12 1006.34H2075.16C2075.67 1006.34 2076.08 1006.75 2076.08 1007.27V1010.36C2076.08 1010.87 2075.67 1011.28 2075.16 1011.28H2062.18C2061.67 1011.28 2061.25 1010.87 2061.25 1010.36V997.377C2061.25 996.865 2061.67 996.45 2062.18 996.45H2065.27C2065.78 996.45 2066.19 996.865 2066.19 997.377V1005.41Z" fill="white"/>
<path d="M2007.17 966.781C2007.82 966.781 2008.45 967.042 2008.91 967.505C2009.38 967.969 2009.64 968.598 2009.64 969.254V986.56H2004.69V971.726H1965.14V1006.34H1979.97V1011.28H1962.66C1962.01 1011.28 1961.38 1011.02 1960.92 1010.56C1960.45 1010.1 1960.19 1009.47 1960.19 1008.81V969.254C1960.19 968.598 1960.45 967.969 1960.92 967.505C1961.38 967.042 1962.01 966.781 1962.66 966.781H2007.17ZM2007.17 991.505C2007.82 991.505 2008.45 991.766 2008.91 992.229C2009.38 992.693 2009.64 993.322 2009.64 993.977V1008.81C2009.64 1009.47 2009.38 1010.1 2008.91 1010.56C2008.45 1011.02 2007.82 1011.28 2007.17 1011.28H1987.39C1986.73 1011.28 1986.1 1011.02 1985.64 1010.56C1985.18 1010.1 1984.92 1009.47 1984.92 1008.81V993.977C1984.92 993.322 1985.18 992.693 1985.64 992.229C1986.1 991.766 1986.73 991.505 1987.39 991.505H2007.17Z" fill="white"/>
<path d="M1701.33 771.919C1675.66 740.908 1679.99 694.96 1711 669.29C1742.01 643.62 1787.96 647.95 1813.63 678.961L1977.36 876.756C2003.03 907.767 1998.7 953.715 1967.69 979.385C1936.68 1005.05 1890.73 1000.72 1865.06 969.714L1701.33 771.919Z" fill="url(#paint0_linear_68_64)"/>
<path d="M1991.62 941.884L2063.72 627.91L1917.7 681.221L1850.8 904.152C1840.38 943.037 1863.46 983.006 1902.34 993.425C1941.23 1003.84 1981.2 980.768 1991.62 941.884Z" fill="url(#paint1_linear_68_64)"/>
<path d="M2063.8 626.147C2067.34 635.234 2037.32 655.423 1996.75 671.242C1956.18 687.06 1920.41 692.518 1916.87 683.432C1913.33 674.345 1943.35 654.156 1983.92 638.337C2024.5 622.519 2060.26 617.061 2063.8 626.147Z" fill="#171625"/>
<path d="M1981.67 624.202V676.586C1981.67 676.586 2008.68 668.577 2032.2 655.262C2056.77 641.355 2060.94 634.865 2060.94 634.865L2062.33 624.202L2058.99 603.89C2057.25 593.342 2059.22 582.518 2064.55 573.252L2103.19 506.055C2105.57 501.92 2103.62 496.641 2099.13 495.046C2095.77 493.856 2092.04 495.141 2090.13 498.145L2086.9 503.21L2087.58 500.318C2088.23 497.563 2086.52 494.804 2083.77 494.156C2081.98 493.735 2080.1 494.304 2078.85 495.648L2074.39 500.429V497.293C2074.39 495.513 2073.41 493.876 2071.84 493.032C2069.81 491.941 2067.3 492.427 2065.83 494.195L2033.59 532.879V530.764C2033.59 528.348 2031.63 526.389 2029.22 526.389C2027.88 526.389 2026.62 526.999 2025.79 528.045L1982.38 582.774C1976.97 589.598 1975.07 598.562 1977.24 606.996L1981.67 624.202Z" fill="#F1BFA9"/>
<path fill-rule="evenodd" clip-rule="evenodd" d="M2074.81 499.217C2075.47 499.705 2075.62 500.644 2075.13 501.313L2050.1 535.617C2049.61 536.287 2048.67 536.433 2048 535.945C2047.33 535.456 2047.19 534.518 2047.68 533.849L2072.71 499.545C2073.2 498.875 2074.14 498.729 2074.81 499.217ZM2089.19 502.006C2089.85 502.501 2089.99 503.44 2089.5 504.105L2064 538.409C2063.51 539.074 2062.57 539.213 2061.9 538.718C2061.24 538.224 2061.1 537.285 2061.59 536.62L2087.09 502.315C2087.58 501.651 2088.52 501.512 2089.19 502.006ZM2034.52 531.702C2035.17 532.215 2035.28 533.158 2034.77 533.808L2013.91 560.232C2013.39 560.882 2012.45 560.993 2011.8 560.48C2011.15 559.966 2011.04 559.023 2011.55 558.373L2032.41 531.949C2032.93 531.299 2033.87 531.188 2034.52 531.702Z" fill="#DD9576"/>
<path d="M1466.85 686.859L1521.34 929.232H1767.96L1807.21 809.391C1810.05 800.722 1810.72 791.487 1809.15 782.5L1790.53 675.969C1788.2 662.657 1776.65 652.943 1763.13 652.943H1493.99C1476.16 652.943 1462.94 669.47 1466.85 686.859Z" fill="url(#paint2_linear_68_64)"/>
<path fill-rule="evenodd" clip-rule="evenodd" d="M1505.28 652.834H1753.37L1721.4 746.094L1748.23 788.678L1660.94 761.279L1566.99 799.592L1579.06 746.651L1505.28 652.834ZM1511.45 655.834L1582.3 745.922L1571.19 794.636L1660.81 758.093L1741.34 783.371L1718.1 746.479L1749.18 655.834H1511.45Z" fill="#171625"/>
<path fill-rule="evenodd" clip-rule="evenodd" d="M1790.65 708.544C1791.44 708.274 1792.29 708.69 1792.56 709.474L1802.59 738.581C1814.47 773.047 1813.38 810.662 1799.51 844.379L1786.53 875.964L1773.57 918.084C1773.33 918.875 1772.49 919.32 1771.7 919.076C1770.9 918.833 1770.46 917.993 1770.7 917.201L1783.7 874.951L1796.74 843.238C1810.32 810.196 1811.4 773.335 1799.76 739.559L1789.72 710.451C1789.45 709.668 1789.87 708.814 1790.65 708.544Z" fill="#171625"/>
<path d="M1534.91 708.139L1574.19 929.26H1464.32L1410.88 724.168C1406.35 689.059 1430.43 657.009 1464.68 652.583C1498.93 648.157 1530.37 673.03 1534.91 708.139Z" fill="url(#paint3_linear_68_64)"/>
<path fill-rule="evenodd" clip-rule="evenodd" d="M1524.67 737.253C1525.47 737.044 1526.29 737.524 1526.5 738.326L1576.1 928.39C1576.31 929.192 1575.83 930.011 1575.03 930.22C1574.23 930.429 1573.41 929.949 1573.2 929.148L1523.6 739.083C1523.39 738.282 1523.87 737.462 1524.67 737.253Z" fill="#171625"/>
<ellipse cx="1621.9" cy="474.369" rx="87.0116" ry="80.8406" transform="rotate(3.17038 1621.9 474.369)" fill="#CD764F"/>
<ellipse cx="1574.63" cy="503.27" rx="85.7127" ry="87.5364" transform="rotate(3.17038 1574.63 503.27)" fill="#CD764F"/>
<ellipse cx="1679.04" cy="561.153" rx="64.3328" ry="65.946" transform="rotate(-6.98027 1679.04 561.153)" fill="#CD764F"/>
<path fill-rule="evenodd" clip-rule="evenodd" d="M1545.98 483.544C1552.92 451.935 1583.56 431.433 1615.43 437.083C1643.19 442.006 1663.14 465.198 1665.07 492.112C1667.07 492.13 1669.08 492.39 1671.08 492.91C1686.75 496.986 1695.49 515.529 1690.6 534.327C1687.66 545.621 1680.47 554.437 1671.8 558.792L1684.58 642.001C1688.09 664.859 1673.87 686.705 1651.54 692.746C1625.09 699.906 1598.36 682.185 1594.66 655.028L1590.27 622.803C1585.14 622.638 1579.94 621.824 1574.77 620.301C1543.66 611.148 1524.93 579.496 1531.88 547.824L1545.98 483.544Z" fill="#F1BFA9"/>
<path d="M1605.5 559.58C1610.3 558.293 1615.44 561.256 1614.71 566.173C1614.3 568.885 1613.39 571.524 1612 573.944C1609.08 578.997 1604.27 582.684 1598.64 584.195C1593 585.705 1587 584.914 1581.94 581.997C1579.52 580.599 1577.42 578.769 1575.71 576.621C1572.62 572.728 1575.59 567.595 1580.39 566.309L1592.94 562.944L1605.5 559.58Z" fill="white"/>
<path d="M1625.38 612.387L1590.16 623.415L1592.73 642.281L1625.38 612.387Z" fill="#171625"/>
<path d="M1579.93 439.905C1568.81 473.281 1561.63 491.425 1525.89 500.571C1525.89 500.571 1517.43 485.887 1538.65 459.868C1559.87 433.849 1557.45 439.11 1579.93 439.905C1579.93 439.905 1626.14 426.271 1644.25 439.141C1663.57 452.87 1678.32 482.437 1678.32 482.437L1681.54 491.268C1673.38 492.241 1665.65 492.571 1658.38 492.32L1644.74 519.515L1636.07 489.486C1605.7 482.486 1586.33 463.536 1579.93 439.905Z" fill="#CD764F"/>
<path fill-rule="evenodd" clip-rule="evenodd" d="M1560.39 513.132C1562 513.546 1562.96 515.183 1562.55 516.787L1560.19 525.927C1559.77 527.531 1558.14 528.496 1556.53 528.082C1554.93 527.667 1553.96 526.031 1554.38 524.427L1556.74 515.287C1557.15 513.682 1558.79 512.718 1560.39 513.132Z" fill="#171625"/>
<path fill-rule="evenodd" clip-rule="evenodd" d="M1608.93 518.294C1610.54 518.708 1611.5 520.345 1611.09 521.949L1608.73 531.089C1608.31 532.693 1606.68 533.658 1605.07 533.243C1603.47 532.829 1602.51 531.193 1602.92 529.588L1605.28 520.448C1605.69 518.844 1607.33 517.88 1608.93 518.294Z" fill="#171625"/>
<path fill-rule="evenodd" clip-rule="evenodd" d="M1579.13 527.397C1579.93 527.63 1580.39 528.463 1580.15 529.258L1572.4 555.703L1581.99 554.728C1582.81 554.644 1583.55 555.245 1583.63 556.069C1583.72 556.893 1583.12 557.629 1582.29 557.713L1570.48 558.913C1569.99 558.963 1569.5 558.763 1569.18 558.379C1568.86 557.995 1568.75 557.477 1568.89 556.998L1577.27 528.414C1577.51 527.619 1578.34 527.164 1579.13 527.397Z" fill="#DD9576"/>
<path fill-rule="evenodd" clip-rule="evenodd" d="M1674.08 517.686L1674.08 517.686L1674.06 517.687L1674.01 517.691C1673.96 517.695 1673.88 517.702 1673.78 517.711C1673.58 517.729 1673.28 517.758 1672.92 517.8C1672.18 517.886 1671.16 518.025 1670.03 518.242C1667.71 518.686 1665.14 519.414 1663.52 520.514C1663.34 520.635 1663.17 520.767 1662.99 520.908C1665.01 520.755 1667.61 520.717 1669.68 521.281C1670.81 521.59 1672.12 522.172 1673.1 522.641C1673.6 522.882 1674.03 523.105 1674.34 523.267C1674.49 523.349 1674.62 523.416 1674.7 523.463C1674.75 523.486 1674.78 523.505 1674.8 523.518L1674.83 523.533L1674.84 523.538L1674.84 523.539C1674.84 523.539 1674.84 523.539 1674.15 524.787L1674.84 523.539C1675.57 523.942 1675.83 524.855 1675.42 525.579C1675.02 526.303 1674.11 526.563 1673.38 526.161L1673.38 526.158L1673.36 526.146C1673.34 526.136 1673.31 526.12 1673.27 526.099C1673.2 526.058 1673.08 525.997 1672.94 525.922C1672.65 525.771 1672.25 525.565 1671.79 525.343C1670.85 524.887 1669.75 524.408 1668.89 524.176C1667.29 523.74 1665.04 523.752 1663.06 523.912C1662.1 523.99 1661.24 524.099 1660.63 524.188C1660.52 524.204 1660.41 524.22 1660.32 524.235C1658.89 526.715 1657.92 529.732 1657.3 532.258C1656.97 533.606 1656.74 534.785 1656.6 535.626C1656.53 536.046 1656.48 536.38 1656.45 536.607C1656.43 536.72 1656.42 536.807 1656.41 536.864L1656.4 536.926L1656.4 536.94L1656.4 536.942C1656.3 537.765 1655.56 538.353 1654.74 538.255C1653.91 538.157 1653.32 537.411 1653.42 536.588L1654.91 536.765C1653.42 536.588 1653.42 536.588 1653.42 536.588L1653.42 536.585L1653.42 536.578L1653.43 536.556L1653.44 536.477C1653.45 536.409 1653.46 536.311 1653.48 536.185C1653.51 535.934 1653.57 535.573 1653.64 535.124C1653.8 534.227 1654.03 532.974 1654.39 531.542C1655.09 528.704 1656.25 525.049 1658.12 522.071C1659.1 520.502 1660.33 519.056 1661.84 518.031C1664 516.564 1667.09 515.751 1669.46 515.295C1670.68 515.062 1671.78 514.912 1672.57 514.82C1672.97 514.774 1673.29 514.743 1673.51 514.723C1673.62 514.713 1673.71 514.705 1673.77 514.701L1673.84 514.695L1673.86 514.694L1673.87 514.693C1673.87 514.693 1673.87 514.693 1673.98 516.19L1673.87 514.693C1674.7 514.636 1675.41 515.26 1675.47 516.087C1675.53 516.913 1674.9 517.629 1674.08 517.686Z" fill="#DD9576"/>
<path d="M1688.39 557.162C1687.96 564.989 1681.26 570.983 1673.44 570.549C1665.61 570.116 1659.62 563.419 1660.05 555.592C1660.48 547.766 1667.18 541.772 1675.01 542.206C1682.83 542.639 1688.83 549.336 1688.39 557.162Z" fill="white"/>
<path d="M1679.89 608.904L1591.34 633.474L1592.73 652.944H1558.43L1625.65 837.909L1627.5 929.696H1716.51L1698.43 825.856L1716.51 652.944H1686.38L1679.89 608.904Z" fill="#C2BBFF"/>
<path d="M1772.6 340.519C1772.6 326.425 1784.03 315 1798.12 315H2008.53C2022.63 315 2034.05 326.425 2034.05 340.519V468.752C2034.05 482.846 2022.63 494.271 2008.53 494.271H1823.36C1815.52 494.271 1807.87 496.677 1801.45 501.163L1792.66 507.296C1784.21 513.201 1772.6 507.15 1772.6 496.834V494.271V340.519Z" fill="#FBC3DE"/>
<path fill-rule="evenodd" clip-rule="evenodd" d="M1823.15 369.672C1822.32 369.672 1821.65 370.343 1821.65 371.172C1821.65 372 1822.32 372.672 1823.15 372.672H1988.6C1989.43 372.672 1990.1 372 1990.1 371.172C1990.1 370.343 1989.43 369.672 1988.6 369.672H1823.15ZM1823.15 406.438C1822.32 406.438 1821.65 407.11 1821.65 407.938C1821.65 408.767 1822.32 409.438 1823.15 409.438H1886.47C1887.3 409.438 1887.97 408.767 1887.97 407.938C1887.97 407.11 1887.3 406.438 1886.47 406.438H1823.15ZM1901.83 407.938C1901.83 407.11 1902.5 406.438 1903.33 406.438H1989.12C1989.95 406.438 1990.62 407.11 1990.62 407.938C1990.62 408.767 1989.95 409.438 1989.12 409.438H1903.33C1902.5 409.438 1901.83 408.767 1901.83 407.938ZM1823.15 443.206C1822.32 443.206 1821.65 443.878 1821.65 444.706C1821.65 445.534 1822.32 446.206 1823.15 446.206H1988.6C1989.43 446.206 1990.1 445.534 1990.1 444.706C1990.1 443.878 1989.43 443.206 1988.6 443.206H1823.15Z" fill="#171625"/>
<path d="M1400.81 420.506C1402.54 417.165 1407.32 417.165 1409.04 420.506L1422.26 446.066C1422.64 446.789 1423.2 447.402 1423.88 447.841L1444.72 461.169C1447.57 462.992 1447.57 467.155 1444.72 468.979L1424.3 482.041C1423.36 482.644 1422.66 483.569 1422.35 484.644L1409.38 528.989C1408.08 533.435 1401.78 533.435 1400.48 528.989L1387.51 484.644C1387.19 483.569 1386.5 482.644 1385.56 482.041L1365.14 468.979C1362.29 467.155 1362.29 462.992 1365.14 461.169L1385.97 447.841C1386.66 447.402 1387.22 446.789 1387.59 446.066L1400.81 420.506Z" fill="#FBF7B8"/>
<path d="M1254.73 740.505C1256.46 737.165 1261.23 737.165 1262.96 740.505L1269.13 752.416C1269.5 753.14 1270.06 753.752 1270.75 754.191L1280.55 760.458C1283.4 762.281 1283.4 766.446 1280.55 768.269L1271.16 774.271C1270.22 774.874 1269.52 775.799 1269.21 776.874L1263.29 797.086C1261.99 801.531 1255.7 801.531 1254.39 797.086L1248.48 776.874C1248.16 775.799 1247.47 774.874 1246.53 774.271L1237.14 768.269C1234.29 766.446 1234.29 762.281 1237.14 760.458L1246.94 754.191C1247.63 753.752 1248.19 753.14 1248.56 752.416L1254.73 740.505Z" fill="#97F7F5"/>
<path fill-rule="evenodd" clip-rule="evenodd" d="M1067.97 677.022H102.814C90.7666 677.022 81 686.789 81 698.837V1335.78C81 1347.83 90.7666 1357.6 102.814 1357.6H1067.97C1080.02 1357.6 1089.78 1347.83 1089.78 1335.78V698.837C1089.78 686.789 1080.02 677.022 1067.97 677.022ZM102.814 671.022C87.4529 671.022 75 683.475 75 698.837V1335.78C75 1351.15 87.4529 1363.6 102.814 1363.6H1067.97C1083.33 1363.6 1095.78 1351.15 1095.78 1335.78V698.837C1095.78 683.475 1083.33 671.022 1067.97 671.022H102.814Z" fill="#FBC3DE"/>
<path d="M896.384 978.952C898.112 975.612 902.888 975.612 904.617 978.952L918.854 1006.45C919.229 1007.18 919.788 1007.79 920.474 1008.23L942.889 1022.55C945.741 1024.38 945.741 1028.54 942.889 1030.37L920.89 1044.43C919.946 1045.03 919.253 1045.95 918.938 1047.03L904.949 1094.8C903.648 1099.25 897.353 1099.25 896.051 1094.8L882.063 1047.03C881.748 1045.95 881.055 1045.03 880.111 1044.43L858.112 1030.37C855.26 1028.54 855.26 1024.38 858.112 1022.55L880.526 1008.23C881.213 1007.79 881.772 1007.18 882.147 1006.45L896.384 978.952Z" fill="#FBF7B8"/>
<path d="M789.087 1015.88C778.882 981.246 742.914 961.069 708.034 970.414C671.456 980.216 650.419 1018.52 661.778 1054.65L738.176 1297.63L872.344 1298.47L789.087 1015.88Z" fill="#DD9576"/>
<path d="M789.296 1015.26C778.957 980.913 743.201 960.992 708.552 970.276C671.807 980.122 650.837 1018.77 662.614 1054.94L722.136 1237.77L854.544 1232.04L789.296 1015.26Z" fill="url(#paint4_linear_68_64)"/>
<path d="M444.423 1016.95L434.13 1297.73H748.128L772.992 1149.65C775.731 1133.33 774.797 1116.61 770.259 1100.7L732.497 968.343L568.022 956.469L494.617 963.624C466.894 966.326 445.443 989.116 444.423 1016.95Z" fill="url(#paint5_linear_68_64)"/>
<path d="M733 969L567 956.5L571.57 984.651C575.651 1009.79 601.875 1024.76 625.6 1015.5L652.5 1005L683.129 1012.8C708.417 1019.24 733 1000.13 733 974.037V969Z" fill="white"/>
<path fill-rule="evenodd" clip-rule="evenodd" d="M746.403 1013.04C747.2 1012.82 748.028 1013.28 748.252 1014.08L770.875 1094.69C776.597 1115.08 777.638 1136.5 773.921 1157.35L759.283 1239.45L759.279 1239.47L750.048 1296.62C749.916 1297.44 749.146 1297.99 748.328 1297.86C747.51 1297.73 746.954 1296.96 747.086 1296.14L756.323 1238.96L770.968 1156.82C774.605 1136.42 773.586 1115.46 767.987 1095.5L745.364 1014.89C745.14 1014.09 745.605 1013.27 746.403 1013.04Z" fill="#171625"/>
<path d="M75 1244H1095.78V1335.78C1095.78 1351.15 1083.33 1363.6 1067.97 1363.6H102.814C87.4529 1363.6 75 1351.15 75 1335.78V1244Z" fill="#FBC3DE"/>
<path d="M141.136 1302.61L166.411 1285.76C166.597 1285.64 166.814 1285.57 167.037 1285.56C167.26 1285.55 167.483 1285.6 167.68 1285.7C167.877 1285.81 168.042 1285.97 168.157 1286.16C168.272 1286.35 168.332 1286.57 168.332 1286.79V1321.73C168.332 1321.95 168.272 1322.17 168.157 1322.37C168.042 1322.56 167.877 1322.71 167.68 1322.82C167.483 1322.93 167.26 1322.98 167.037 1322.97C166.814 1322.95 166.597 1322.88 166.411 1322.76L141.136 1305.91V1321.57C141.136 1322.22 140.876 1322.85 140.412 1323.32C139.948 1323.78 139.32 1324.04 138.664 1324.04C138.008 1324.04 137.379 1323.78 136.916 1323.32C136.452 1322.85 136.191 1322.22 136.191 1321.57V1286.95C136.191 1286.3 136.452 1285.67 136.916 1285.21C137.379 1284.74 138.008 1284.48 138.664 1284.48C139.32 1284.48 139.948 1284.74 140.412 1285.21C140.876 1285.67 141.136 1286.3 141.136 1286.95V1302.61Z" fill="white"/>
<path d="M353.761 1302.61L328.486 1285.76C328.3 1285.64 328.084 1285.57 327.86 1285.56C327.637 1285.55 327.415 1285.6 327.218 1285.7C327.021 1285.81 326.856 1285.97 326.741 1286.16C326.626 1286.35 326.565 1286.57 326.565 1286.79V1321.73C326.565 1321.95 326.626 1322.17 326.741 1322.37C326.856 1322.56 327.021 1322.71 327.218 1322.82C327.415 1322.93 327.637 1322.98 327.86 1322.97C328.084 1322.95 328.3 1322.88 328.486 1322.76L353.761 1305.91V1321.57C353.761 1322.22 354.022 1322.85 354.485 1323.32C354.949 1323.78 355.578 1324.04 356.234 1324.04C356.889 1324.04 357.518 1323.78 357.982 1323.32C358.446 1322.85 358.706 1322.22 358.706 1321.57V1286.95C358.706 1286.3 358.446 1285.67 357.982 1285.21C357.518 1284.74 356.889 1284.48 356.234 1284.48C355.578 1284.48 354.949 1284.74 354.485 1285.21C354.022 1285.67 353.761 1286.3 353.761 1286.95V1302.61Z" fill="white"/>
<path d="M232.614 1289.43C232.614 1288.06 233.721 1286.95 235.087 1286.95C236.452 1286.95 237.559 1288.06 237.559 1289.43V1319.1C237.559 1320.46 236.452 1321.57 235.087 1321.57C233.721 1321.57 232.614 1320.46 232.614 1319.1V1289.43ZM257.338 1289.43C257.338 1288.06 258.445 1286.95 259.81 1286.95C261.176 1286.95 262.283 1288.06 262.283 1289.43V1319.1C262.283 1320.46 261.176 1321.57 259.81 1321.57C258.445 1321.57 257.338 1320.46 257.338 1319.1V1289.43Z" fill="white"/>
<path d="M1039.54 1282.01H1043.56C1044.07 1282.01 1044.48 1282.42 1044.48 1282.94V1295.92C1044.48 1296.43 1044.07 1296.84 1043.56 1296.84H1040.47C1039.95 1296.84 1039.54 1296.43 1039.54 1295.92V1287.88C1039.54 1287.37 1039.12 1286.95 1038.61 1286.95H1030.58C1030.06 1286.95 1029.65 1286.54 1029.65 1286.03V1282.94C1029.65 1282.42 1030.06 1282.01 1030.58 1282.01H1039.54ZM999.98 1282.01H1008.94C1009.45 1282.01 1009.87 1282.42 1009.87 1282.94V1286.03C1009.87 1286.54 1009.45 1286.95 1008.94 1286.95H1000.91C1000.4 1286.95 999.98 1287.37 999.98 1287.88V1295.92C999.98 1296.43 999.565 1296.84 999.053 1296.84H995.962C995.45 1296.84 995.035 1296.43 995.035 1295.92V1282.94C995.035 1282.42 995.45 1282.01 995.962 1282.01H999.98ZM1038.61 1321.57C1039.12 1321.57 1039.54 1321.15 1039.54 1320.64V1312.61C1039.54 1312.09 1039.95 1311.68 1040.47 1311.68H1043.56C1044.07 1311.68 1044.48 1312.09 1044.48 1312.61V1325.59C1044.48 1326.1 1044.07 1326.51 1043.56 1326.51H1030.58C1030.06 1326.51 1029.65 1326.1 1029.65 1325.59V1322.5C1029.65 1321.98 1030.06 1321.57 1030.58 1321.57H1038.61ZM999.98 1320.64C999.98 1321.15 1000.4 1321.57 1000.91 1321.57H1008.94C1009.45 1321.57 1009.87 1321.98 1009.87 1322.5V1325.59C1009.87 1326.1 1009.45 1326.51 1008.94 1326.51H995.962C995.45 1326.51 995.035 1326.1 995.035 1325.59V1312.61C995.035 1312.09 995.45 1311.68 995.962 1311.68H999.053C999.565 1311.68 999.98 1312.09 999.98 1312.61V1320.64Z" fill="white"/>
<path d="M940.952 1282.01C941.608 1282.01 942.236 1282.27 942.7 1282.73C943.164 1283.2 943.424 1283.83 943.424 1284.48V1301.79H938.479V1286.95H898.921V1321.57H913.756V1326.51H896.449C895.793 1326.51 895.164 1326.25 894.701 1325.79C894.237 1325.32 893.977 1324.7 893.977 1324.04V1284.48C893.977 1283.83 894.237 1283.2 894.701 1282.73C895.164 1282.27 895.793 1282.01 896.449 1282.01H940.952ZM940.952 1306.73C941.608 1306.73 942.236 1306.99 942.7 1307.46C943.164 1307.92 943.424 1308.55 943.424 1309.21V1324.04C943.424 1324.7 943.164 1325.32 942.7 1325.79C942.236 1326.25 941.608 1326.51 940.952 1326.51H921.173C920.517 1326.51 919.888 1326.25 919.425 1325.79C918.961 1325.32 918.7 1324.7 918.7 1324.04V1309.21C918.7 1308.55 918.961 1307.92 919.425 1307.46C919.888 1306.99 920.517 1306.73 921.173 1306.73H940.952Z" fill="white"/>
<path fill-rule="evenodd" clip-rule="evenodd" d="M651.303 914.429C665.127 929.46 684.959 938.879 706.99 938.879C748.765 938.879 782.631 905.013 782.631 863.238C782.631 844.371 775.723 827.118 764.3 813.869C765.36 809.093 765.919 804.128 765.919 799.031C765.919 769.443 747.069 744.286 720.796 735.065C709.534 719.468 691.197 709.317 670.489 709.317C651.433 709.317 634.385 717.913 623.01 731.438C618.852 730.772 614.586 730.425 610.24 730.425C568.969 730.425 534.994 761.661 530.667 801.782C518.838 816.084 511.73 834.433 511.73 854.442C511.73 900.104 548.746 937.119 594.407 937.119C616.451 937.119 636.481 928.492 651.303 914.429Z" fill="#171625"/>
<path fill-rule="evenodd" clip-rule="evenodd" d="M715.858 801.733C706.445 771.636 674.957 754.332 644.504 762.519C615.796 770.238 597.785 797.937 601.445 826.641C598.568 826.905 595.743 827.678 593.071 829.006C579.315 835.838 574.808 854.755 583.005 871.258C587.929 881.172 596.318 887.959 605.214 890.318L609.534 970.063C610.721 991.97 628.174 1009.49 650.076 1010.76C676.034 1012.26 697.401 990.608 695.555 964.673L693.72 938.878C695.66 938.334 697.594 937.687 699.515 936.935C728.937 925.412 744.435 893.096 735.003 862.939L715.858 801.733Z" fill="#DD9576"/>
<path d="M665.212 932.72L693.797 938.879L694.677 951.192L665.212 932.72Z" fill="#171625"/>
<path fill-rule="evenodd" clip-rule="evenodd" d="M670.538 840.306C671.263 840.708 671.524 841.621 671.121 842.346L669.81 841.617C671.121 842.346 671.121 842.347 671.121 842.347L671.119 842.35L671.116 842.356L671.107 842.372C671.099 842.384 671.09 842.401 671.078 842.42C671.055 842.46 671.023 842.514 670.982 842.58C670.899 842.713 670.781 842.897 670.626 843.118C670.316 843.559 669.857 844.155 669.247 844.796C668.035 846.069 666.171 847.574 663.644 848.331C661.099 849.094 658.395 848.824 656.425 848.419C655.422 848.213 654.569 847.963 653.963 847.763C653.659 847.664 653.416 847.576 653.246 847.512C653.16 847.48 653.093 847.453 653.045 847.434C653.021 847.425 653.002 847.417 652.988 847.412L652.971 847.405L652.966 847.402L652.964 847.401C652.964 847.401 652.962 847.401 653.538 846.016L652.962 847.401C652.197 847.082 651.835 846.204 652.154 845.439C652.472 844.675 653.35 844.313 654.115 844.631L653.554 845.978C654.115 844.631 654.115 844.631 654.115 844.631L654.114 844.631L654.119 844.633L654.152 844.646C654.184 844.659 654.234 844.678 654.302 844.704C654.437 844.755 654.641 844.828 654.901 844.914C655.422 845.085 656.162 845.302 657.029 845.48C658.797 845.844 660.93 846.013 662.783 845.458C664.653 844.897 666.088 843.763 667.075 842.727C667.564 842.213 667.93 841.737 668.17 841.395C668.29 841.224 668.377 841.088 668.432 841C668.46 840.955 668.479 840.923 668.49 840.904L668.501 840.886L668.5 840.887C668.902 840.164 669.815 839.904 670.538 840.306ZM668.501 840.884L668.501 840.886L668.501 840.884Z" fill="#171625"/>
<path fill-rule="evenodd" clip-rule="evenodd" d="M713.437 830.261C714.161 830.664 714.422 831.577 714.02 832.301L712.709 831.573C714.02 832.301 714.019 832.302 714.019 832.302L714.017 832.305L714.014 832.311L714.005 832.327C713.998 832.34 713.989 832.356 713.977 832.376C713.954 832.415 713.922 832.469 713.88 832.536C713.798 832.669 713.679 832.852 713.524 833.073C713.215 833.514 712.756 834.111 712.146 834.751C710.933 836.025 709.07 837.529 706.543 838.287C703.998 839.05 701.293 838.779 699.323 838.374C698.321 838.168 697.467 837.918 696.861 837.719C696.558 837.619 696.315 837.531 696.144 837.467C696.059 837.435 695.992 837.409 695.944 837.39C695.92 837.38 695.901 837.373 695.887 837.367L695.87 837.36L695.864 837.358L695.862 837.357C695.862 837.357 695.86 837.356 696.437 835.971L695.86 837.356C695.096 837.038 694.734 836.159 695.052 835.395C695.371 834.63 696.249 834.268 697.014 834.586L696.453 835.933C697.013 834.586 697.014 834.586 697.014 834.586L697.012 834.586L697.018 834.588L697.051 834.601C697.082 834.614 697.133 834.634 697.2 834.659C697.336 834.71 697.539 834.784 697.799 834.869C698.32 835.041 699.061 835.257 699.928 835.436C701.696 835.799 703.829 835.968 705.681 835.413C707.552 834.852 708.987 833.718 709.973 832.682C710.462 832.169 710.828 831.693 711.068 831.35C711.188 831.18 711.276 831.044 711.331 830.955C711.358 830.91 711.377 830.878 711.389 830.859L711.399 830.841L711.398 830.843C711.801 830.119 712.713 829.859 713.437 830.261ZM711.4 830.84L711.399 830.841L711.4 830.84Z" fill="#171625"/>
<path fill-rule="evenodd" clip-rule="evenodd" d="M684.817 843.345C684.086 843.736 683.811 844.645 684.202 845.375L696.491 868.32L687.51 869.269C686.686 869.356 686.089 870.094 686.176 870.918C686.263 871.742 687.001 872.339 687.825 872.252L699.024 871.07C699.52 871.017 699.958 870.721 700.192 870.28C700.426 869.838 700.424 869.31 700.189 868.87L686.847 843.959C686.456 843.229 685.547 842.954 684.817 843.345Z" fill="#CD764F"/>
<path fill-rule="evenodd" clip-rule="evenodd" d="M666.607 879.032C665.958 879.547 665.849 880.491 666.364 881.14L667.496 880.242C666.364 881.14 666.364 881.14 666.364 881.14L666.366 881.143L666.371 881.148L666.384 881.165C666.395 881.178 666.41 881.197 666.429 881.22C666.467 881.266 666.521 881.331 666.59 881.413C666.729 881.577 666.931 881.807 667.188 882.084C667.701 882.638 668.443 883.387 669.363 884.175C671.177 885.728 673.811 887.54 676.851 888.187C679.806 888.817 682.251 888.506 683.974 888.022C684.833 887.781 685.511 887.497 685.985 887.267C686.223 887.152 686.409 887.05 686.543 886.972C686.61 886.934 686.663 886.901 686.703 886.876C686.723 886.864 686.739 886.853 686.753 886.845L686.77 886.833L686.776 886.829L686.779 886.827L686.78 886.826C686.78 886.826 686.782 886.826 685.948 885.578L686.782 886.826C687.47 886.365 687.656 885.434 687.195 884.745C686.737 884.059 685.811 883.872 685.123 884.326L685.114 884.331C685.101 884.339 685.076 884.355 685.039 884.376C684.964 884.42 684.842 884.487 684.675 884.568C684.341 884.731 683.829 884.947 683.163 885.134C681.835 885.506 679.887 885.766 677.475 885.253C675.149 884.758 672.971 883.314 671.314 881.896C670.499 881.199 669.841 880.534 669.388 880.045C669.163 879.802 668.989 879.603 668.875 879.469C668.817 879.401 668.775 879.35 668.748 879.317L668.719 879.282L668.715 879.276C668.2 878.627 667.256 878.518 666.607 879.032Z" fill="#DB3915"/>
<path d="M595.12 852.669L595.118 852.669C594.298 852.783 593.54 852.21 593.427 851.39C593.313 850.569 593.886 849.812 594.706 849.698L594.912 851.184C594.706 849.698 594.707 849.698 594.707 849.698L594.715 849.697L594.734 849.694L594.802 849.685C594.86 849.678 594.943 849.667 595.049 849.655C595.262 849.63 595.567 849.597 595.944 849.562C596.697 849.494 597.745 849.42 598.925 849.399C601.225 849.359 604.261 849.514 606.569 850.461C608.187 851.125 609.609 852.238 610.834 853.508C613.157 855.918 614.954 859.094 616.155 861.595C616.762 862.859 617.229 863.978 617.545 864.782C617.704 865.185 617.825 865.51 617.907 865.737C617.948 865.851 617.979 865.939 618.001 866.001L618.026 866.073L618.033 866.093L618.035 866.099L618.036 866.103C618.3 866.888 617.878 867.738 617.093 868.003C616.308 868.267 615.457 867.845 615.193 867.06L615.192 867.058L615.188 867.046L615.168 866.989C615.15 866.938 615.123 866.861 615.086 866.759C615.012 866.555 614.901 866.255 614.753 865.88C614.458 865.128 614.02 864.079 613.451 862.894C612.389 860.682 610.915 858.09 609.124 856.077C609.044 856.081 608.958 856.086 608.866 856.092C608.28 856.128 607.467 856.193 606.558 856.308C604.689 856.545 602.606 856.97 601.22 857.679C600.48 858.057 599.553 858.713 598.766 859.319C598.383 859.614 598.051 859.883 597.816 860.078C597.698 860.175 597.605 860.254 597.542 860.307C597.511 860.334 597.487 860.354 597.471 860.367L597.454 860.382L597.45 860.386C596.824 860.928 595.877 860.86 595.335 860.234C594.792 859.608 594.86 858.661 595.486 858.118L595.495 858.11L595.518 858.09C595.537 858.074 595.565 858.05 595.601 858.02C595.672 857.959 595.775 857.873 595.903 857.767C596.159 857.555 596.518 857.263 596.935 856.942C597.748 856.317 598.856 855.518 599.854 855.008C601.601 854.114 603.907 853.644 605.768 853.387C605.656 853.333 605.543 853.283 605.431 853.237C603.726 852.537 601.218 852.36 598.977 852.399C597.888 852.418 596.916 852.486 596.217 852.55C595.868 852.582 595.589 852.612 595.399 852.634C595.304 852.646 595.231 852.655 595.184 852.661L595.131 852.668L595.12 852.669Z" fill="#CD764F"/>
<path d="M616.304 900.766C613.943 893.714 606.313 889.912 599.261 892.273C592.209 894.633 588.407 902.264 590.768 909.315C593.129 916.367 600.759 920.17 607.811 917.809C614.862 915.448 618.665 907.817 616.304 900.766Z" fill="white"/>
<path d="M608.854 885.458C607.835 882.415 604.543 880.774 601.5 881.792C598.457 882.811 596.816 886.104 597.834 889.147C598.853 892.19 602.146 893.831 605.189 892.812C608.232 891.793 609.873 888.501 608.854 885.458Z" fill="white"/>
<path d="M706.99 762.088L636.186 751.974L598.806 774.842L599.685 824.976L620.794 844.326L617.276 826.295C617.276 826.295 624.042 808.219 639.265 814.421C674.886 828.934 672.647 794.754 687.64 790.674C701.12 787.005 720.623 790.674 720.623 790.674L706.99 762.088Z" fill="#171625"/>
<path fill-rule="evenodd" clip-rule="evenodd" d="M732.013 968.213C715.229 994.01 686.142 1011.07 653.071 1011.07C615.366 1011.07 582.839 988.894 567.82 956.875L732.013 968.213Z" fill="#DD9576"/>
<path d="M629.991 965.7L622.039 964.162C611.311 962.085 601.122 969.69 600.061 980.566L591.941 1063.77C591.126 1072.13 596.93 1079.69 605.215 1081.06C613.343 1082.4 621.156 1077.33 623.244 1069.36L644.405 988.606C647.121 978.24 640.511 967.736 629.991 965.7Z" fill="#FBC3DE"/>
<rect x="463.253" y="941.923" width="137.209" height="360.31" rx="68.6045" transform="rotate(26.3945 463.253 941.923)" fill="url(#paint6_linear_68_64)"/>
<circle cx="628.862" cy="955.862" r="33.8625" fill="#DCE1F2"/>
<path fill-rule="evenodd" clip-rule="evenodd" d="M528.065 1075.44L554.538 1012.59C558.996 1002.01 569.79 995.523 581.23 996.557L676.684 1005.18C680.592 1005.54 682.639 1010 680.356 1013.19C679.525 1014.36 678.242 1015.11 676.823 1015.28L654.052 1017.97L665.79 1019.1C670.311 1019.53 673.218 1024.1 671.69 1028.38C670.637 1031.33 667.749 1033.21 664.628 1032.99L656.659 1032.41L666.538 1035.94C669.189 1036.89 670.905 1039.46 670.758 1042.28C670.585 1045.59 667.894 1048.22 664.575 1048.31L660.645 1048.43C663.921 1051 663.058 1056.17 659.124 1057.54L616.789 1072.28C609.931 1074.67 605.244 1081.02 604.991 1088.28L604.168 1111.84C604.02 1116.07 602.354 1120.1 599.475 1123.2L569.376 1155.6C568.333 1156.95 567.202 1158.26 565.98 1159.52L443.985 1285.72C420.943 1309.56 382.835 1309.88 359.392 1286.44C333.946 1260.99 336.837 1218.93 365.526 1197.21L504.653 1091.85C506.208 1090.45 507.881 1089.13 509.671 1087.92L528.065 1075.44Z" fill="#DD9576"/>
<path fill-rule="evenodd" clip-rule="evenodd" d="M615.879 1017.77C615.879 1016.95 616.55 1016.27 617.379 1016.27H653C653.829 1016.27 654.5 1016.95 654.5 1017.77C654.5 1018.6 653.829 1019.27 653 1019.27H617.379C616.55 1019.27 615.879 1018.6 615.879 1017.77ZM619.397 1031.85C619.397 1031.02 620.069 1030.35 620.897 1030.35H654.32C655.148 1030.35 655.82 1031.02 655.82 1031.85C655.82 1032.67 655.148 1033.35 654.32 1033.35H620.897C620.069 1033.35 619.397 1032.67 619.397 1031.85ZM619.397 1048.12C619.397 1047.29 620.069 1046.62 620.897 1046.62H658.278C659.106 1046.62 659.778 1047.29 659.778 1048.12C659.778 1048.95 659.106 1049.62 658.278 1049.62H620.897C620.069 1049.62 619.397 1048.95 619.397 1048.12Z" fill="#CD764F"/>
<path fill-rule="evenodd" clip-rule="evenodd" d="M594.614 995.886C594.677 995.121 595.349 994.551 596.114 994.614L669.359 1000.64C670.124 1000.7 670.694 1001.38 670.631 1002.14C670.568 1002.91 669.896 1003.48 669.13 1003.41L595.886 997.386C595.121 997.323 594.551 996.652 594.614 995.886Z" fill="#171625"/>
<path fill-rule="evenodd" clip-rule="evenodd" d="M904.298 794.625C904.649 795.375 904.325 796.268 903.574 796.618L879.597 807.813L882.661 823.998L892.345 864.446C892.538 865.251 892.041 866.061 891.236 866.254C890.43 866.447 889.621 865.95 889.428 865.144L879.726 824.627L876.216 806.081L902.305 793.9C903.055 793.55 903.948 793.874 904.298 794.625Z" fill="#FBC3DE"/>
<path d="M891.118 862.169C893.917 868.911 887.722 877.891 877.28 882.226C866.839 886.561 856.105 884.609 853.306 877.866C850.507 871.124 856.702 862.144 867.144 857.809C877.585 853.474 888.319 855.426 891.118 862.169Z" fill="#FBC3DE"/>
<path fill-rule="evenodd" clip-rule="evenodd" d="M293.373 1007.31C293.022 1008.06 293.347 1008.96 294.097 1009.31L309.164 1016.34L307.27 1026.34L301.036 1052.38C300.843 1053.19 301.34 1054 302.145 1054.19C302.951 1054.38 303.761 1053.89 303.953 1053.08L310.205 1026.97L312.545 1014.61L295.366 1006.59C294.616 1006.24 293.723 1006.56 293.373 1007.31Z" fill="#97F7F5"/>
<path d="M302.346 1051.04C300.543 1055.38 304.533 1061.17 311.258 1063.96C317.983 1066.75 324.896 1065.49 326.699 1061.15C328.502 1056.81 324.512 1051.02 317.787 1048.23C311.062 1045.44 304.149 1046.7 302.346 1051.04Z" fill="#97F7F5"/>
<path d="M471 762C471 832.692 413.692 890 343 890C272.308 890 215 832.692 215 762C215 691.308 272.308 634 343 634C413.692 634 471 691.308 471 762Z" fill="#DCE1F2"/>
<path d="M402.126 762.001C402.126 794.656 375.654 821.128 342.999 821.128C310.344 821.128 283.872 794.656 283.872 762.001C283.872 729.346 310.344 702.874 342.999 702.874C375.654 702.874 402.126 729.346 402.126 762.001Z" fill="white"/>
<path d="M354.438 759.401C356.375 759.401 357.985 760.992 357.535 762.875C356.898 765.539 355.536 768 353.568 769.968C350.765 772.77 346.964 774.345 343 774.345C339.037 774.345 335.236 772.77 332.433 769.968C330.465 768 329.103 765.539 328.466 762.875C328.015 760.992 329.626 759.401 331.563 759.401L343 759.401H354.438Z" fill="#DCE1F2"/>
<path d="M322.857 749.004C322.857 751.516 320.821 753.553 318.309 753.553C315.797 753.553 313.761 751.516 313.761 749.004C313.761 746.492 315.797 744.456 318.309 744.456C320.821 744.456 322.857 746.492 322.857 749.004Z" fill="#DCE1F2"/>
<path d="M373.538 749.004C373.538 751.516 371.502 753.553 368.99 753.553C366.478 753.553 364.441 751.516 364.441 749.004C364.441 746.492 366.478 744.456 368.99 744.456C371.502 744.456 373.538 746.492 373.538 749.004Z" fill="#DCE1F2"/>
<path d="M1344 551C1344 621.692 1286.69 679 1216 679C1145.31 679 1088 621.692 1088 551C1088 480.308 1145.31 423 1216 423C1286.69 423 1344 480.308 1344 551Z" fill="#FFB99B"/>
<path d="M1275.25 551.127C1275.25 583.782 1248.78 610.254 1216.13 610.254C1183.47 610.254 1157 583.782 1157 551.127C1157 518.472 1183.47 492 1216.13 492C1248.78 492 1275.25 518.472 1275.25 551.127Z" fill="white"/>
<path fill-rule="evenodd" clip-rule="evenodd" d="M1190.33 528.941C1190.92 528.355 1191.87 528.355 1192.45 528.941L1197.72 534.209C1198.3 534.795 1198.3 535.744 1197.72 536.33L1192.45 541.598C1191.87 542.184 1190.92 542.184 1190.33 541.598C1189.74 541.013 1189.74 540.063 1190.33 539.478L1194.54 535.27L1190.33 531.062C1189.74 530.476 1189.74 529.526 1190.33 528.941Z" fill="#FFB99B"/>
<path fill-rule="evenodd" clip-rule="evenodd" d="M1241.33 529.279C1240.75 528.693 1239.8 528.693 1239.21 529.279L1233.94 534.547C1233.36 535.133 1233.36 536.082 1233.94 536.668L1239.21 541.936C1239.8 542.522 1240.75 542.522 1241.33 541.936C1241.92 541.351 1241.92 540.401 1241.33 539.815L1237.12 535.607L1241.33 531.399C1241.92 530.814 1241.92 529.864 1241.33 529.279Z" fill="#FFB99B"/>
<path d="M1226.96 544C1228.81 544 1230.36 545.597 1229.93 547.488C1229.32 550.161 1228.01 552.631 1226.13 554.607C1223.44 557.42 1219.8 559 1216 559C1212.2 559 1208.56 557.42 1205.87 554.607C1203.99 552.631 1202.68 550.161 1202.07 547.488C1201.64 545.597 1203.19 544 1205.04 544L1216 544H1226.96Z" fill="#FFB99B"/>
<circle cx="886" cy="507" r="14" fill="#FBC3DE"/>
<circle cx="1282.5" cy="1136.5" r="18.5" fill="#FBF7B8"/>
<circle cx="1392.5" cy="1202.5" r="12.5" fill="#BCECFF"/>
<circle cx="1906" cy="559" r="15" fill="#97F7F5"/>
<circle cx="148.5" cy="963.5" r="12.5" fill="#C2BBFF"/>
<circle cx="1003" cy="1131" r="21" fill="#FFB99B"/>
<defs>
<linearGradient id="paint0_linear_68_64" x1="2492.99" y1="1328.37" x2="1958.44" y2="1425.13" gradientUnits="userSpaceOnUse">
<stop stop-color="#FBF7B8"/>
<stop offset="1" stop-color="#F7CDE1"/>
</linearGradient>
<linearGradient id="paint1_linear_68_64" x1="2198.62" y1="1493.86" x2="1688.93" y2="1236.25" gradientUnits="userSpaceOnUse">
<stop stop-color="#FBF7B8"/>
<stop offset="1" stop-color="#F7CDE1"/>
</linearGradient>
<linearGradient id="paint2_linear_68_64" x1="1375.78" y1="630.228" x2="1844.2" y2="738.835" gradientUnits="userSpaceOnUse">
<stop stop-color="#FBF7B8"/>
<stop offset="1" stop-color="#F7CDE1"/>
</linearGradient>
<linearGradient id="paint3_linear_68_64" x1="1177.84" y1="498.575" x2="1093.79" y2="844.702" gradientUnits="userSpaceOnUse">
<stop stop-color="#FBF7B8"/>
<stop offset="1" stop-color="#F7CDE1"/>
</linearGradient>
<linearGradient id="paint4_linear_68_64" x1="107.521" y1="1210.69" x2="516.309" y2="1523.24" gradientUnits="userSpaceOnUse">
<stop stop-color="#97F7F5"/>
<stop offset="1" stop-color="#FBF7B8"/>
</linearGradient>
<linearGradient id="paint5_linear_68_64" x1="228.316" y1="839.016" x2="929.27" y2="1117.12" gradientUnits="userSpaceOnUse">
<stop stop-color="#97F7F5"/>
<stop offset="1" stop-color="#FBF7B8"/>
</linearGradient>
<linearGradient id="paint6_linear_68_64" x1="278.917" y1="747.195" x2="824.135" y2="693.857" gradientUnits="userSpaceOnUse">
<stop stop-color="#97F7F5"/>
<stop offset="1" stop-color="#FBF7B8"/>
</linearGradient>
</defs>
</svg>
