<svg width="2238" height="1678" viewBox="0 0 2238 1678" fill="none" xmlns="http://www.w3.org/2000/svg">
<path d="M1494.72 1083H532.244C524.694 1083 517.421 1085.85 511.877 1090.97L185.267 1392.97C165.224 1411.51 178.337 1445 205.634 1445H1999.86C2030.31 1445 2041.39 1404.88 2015.25 1389.25L1510.11 1087.25C1505.46 1084.47 1500.14 1083 1494.72 1083Z" fill="#C2BBFF"/>
<path fill-rule="evenodd" clip-rule="evenodd" d="M918 678C949.655 678 978.361 667.434 999.357 650.287C1018.61 662.054 1042.34 669 1068 669C1132.34 669 1184.5 625.348 1184.5 571.5C1184.5 545.055 1171.92 521.07 1151.5 503.506C1151.5 503.171 1151.5 502.836 1151.5 502.5C1151.5 475.435 1142.68 450.729 1128.16 431.94C1116.36 385.973 1074.65 352 1025 352C985.683 352 951.342 373.305 932.893 405C876.885 405.058 831.5 450.703 831.5 507C831.5 509.662 831.601 512.3 831.801 514.91C812.975 532.229 801.5 555.243 801.5 580.5C801.5 634.348 853.659 678 918 678Z" fill="#CD764F"/>
<path fill-rule="evenodd" clip-rule="evenodd" d="M1079.1 479.254C1070.35 444.629 1038.14 421.18 1002.5 423.496L1000.91 423.599C960.882 426.201 931.002 459.896 931.656 498.617C930.072 498.78 928.488 499.064 926.912 499.474C906.802 504.706 895.588 528.506 901.865 552.632C905.828 567.865 915.815 579.586 927.702 584.841L921.908 696.391C921.109 711.781 932.1 725.274 947.334 727.602L1008.13 736.897C1037.45 741.379 1059.74 711.089 1046.74 684.43L1028.12 646.252C1032.77 646.135 1037.47 645.622 1042.19 644.685C1082.94 636.597 1108.59 596.012 1098.42 555.733L1079.1 479.254Z" fill="#F1BFA9"/>
<path d="M1007.13 573.343C1004.48 572.635 1001.69 574.224 1001.7 576.961C1001.71 580.194 1002.56 583.4 1004.21 586.249C1006.69 590.543 1010.77 593.677 1015.56 594.96C1020.35 596.244 1025.45 595.572 1029.75 593.092C1032.6 591.448 1034.94 589.096 1036.56 586.302C1037.94 583.936 1036.32 581.165 1033.67 580.456L1007.13 573.343Z" fill="white"/>
<path fill-rule="evenodd" clip-rule="evenodd" d="M1053.44 513.201C1051.32 513.892 1050.14 516.152 1050.8 518.25L1052.88 524.954C1053.54 527.052 1055.78 528.194 1057.89 527.503C1060 526.813 1061.18 524.553 1060.53 522.454L1058.44 515.751C1057.79 513.652 1055.55 512.511 1053.44 513.201Z" fill="#171625"/>
<path fill-rule="evenodd" clip-rule="evenodd" d="M1007.24 525.363C1005.15 526.096 1004.01 528.382 1004.71 530.468L1007.23 538.023C1007.92 540.109 1010.18 541.206 1012.28 540.473C1014.37 539.739 1015.51 537.454 1014.81 535.367L1012.29 527.812C1011.6 525.726 1009.34 524.629 1007.24 525.363Z" fill="#171625"/>
<path fill-rule="evenodd" clip-rule="evenodd" d="M1033.61 522.208C1032.62 522.698 1032.22 523.898 1032.71 524.888L1050.06 559.958L1036.67 564.068C1035.61 564.392 1035.02 565.51 1035.34 566.566C1035.66 567.622 1036.78 568.216 1037.84 567.892L1053.49 563.092C1054.05 562.92 1054.5 562.51 1054.74 561.971C1054.97 561.432 1054.95 560.819 1054.69 560.293L1036.29 523.113C1035.8 522.123 1034.6 521.718 1033.61 522.208Z" fill="#DD9576"/>
<path d="M998 643L1029.5 646.5L1043.5 677L998 643Z" fill="#171625"/>
<path fill-rule="evenodd" clip-rule="evenodd" d="M919.731 528.381C920.625 527.733 921.875 527.931 922.524 528.825L942.119 555.825C942.767 556.719 942.569 557.97 941.675 558.619C940.781 559.268 939.53 559.069 938.881 558.175L929.683 545.5H915.5C914.395 545.5 913.5 544.605 913.5 543.5C913.5 542.396 914.395 541.5 915.5 541.5H926.78L919.287 531.175C918.638 530.281 918.837 529.03 919.731 528.381Z" fill="#DD9576"/>
<circle cx="928.5" cy="592" r="21" fill="#FBF7B8"/>
<path d="M761.067 742.643C773.629 705.322 813.269 684.427 851.158 695.154C891.483 706.569 914.233 749.221 901.251 789.069L805.5 1083H646.5L761.067 742.643Z" fill="#F1BFA9"/>
<path d="M760.157 741.957C773.284 704.864 812.96 684.339 850.82 695.057C891.403 706.546 914.404 749.362 901.577 789.542L839.5 983.999L697.5 919L760.157 741.957Z" fill="url(#paint0_linear_94_97)"/>
<path d="M1219.47 729.622C1205.3 690.175 1163.03 668.41 1122.7 679.795C1079.18 692.077 1054.56 738.024 1068.43 781.058L1130.16 972.619L1282.3 904.639L1219.47 729.622Z" fill="url(#paint1_linear_94_97)"/>
<path d="M1139.97 675.712L818.946 692.608C791.818 694.036 757.274 755.136 767 780.5L858.081 940.848C863.235 954.288 864.119 968.991 860.615 982.953L835.5 1083H1215L1187.16 998.265C1183.13 985.995 1182.58 972.848 1185.55 960.28L1210.97 853.002C1213.62 841.839 1213.48 830.196 1210.57 819.1L1180.77 705.506C1175.95 687.159 1158.91 674.715 1139.97 675.712Z" fill="url(#paint2_linear_94_97)"/>
<path d="M1103.66 677.691C1104.15 686.121 1101.52 694.648 1095.93 702.786C1090.35 710.923 1081.91 718.511 1071.09 725.116C1060.28 731.721 1047.31 737.215 1032.92 741.283C1018.53 745.351 1003.01 747.913 987.232 748.824C971.455 749.736 955.738 748.977 940.976 746.593C926.214 744.209 912.697 740.245 901.198 734.928C889.698 729.611 880.44 723.046 873.953 715.606C867.466 708.166 864.487 697.93 864 689.5L983.5 684L1103.66 677.691Z" fill="#F1BFA9"/>
<path fill-rule="evenodd" clip-rule="evenodd" d="M1047.4 681.252C1032.3 739.578 953.59 750.646 923.972 698.011L918.885 688.971C918.073 687.527 918.584 685.698 920.028 684.885C921.472 684.073 923.302 684.585 924.114 686.029L929.201 695.069C956.099 742.869 1027.81 732.987 1041.6 679.748L1047.4 681.252Z" fill="#FBF7B8"/>
<path d="M1005.5 731C1005.5 737.627 1000.13 743 993.5 743C986.873 743 981.5 737.627 981.5 731C981.5 724.373 986.873 719 993.5 719C1000.13 719 1005.5 724.373 1005.5 731Z" fill="#FBF7B8"/>
<path d="M951.501 540.999L929 495.499C929 495.499 923.338 455.004 947.001 434.5C976.514 408.925 1040.47 389.919 1068.5 426.5C1084.34 447.171 1079.5 479.499 1079.5 479.499C1079.5 479.499 1044.81 419.382 1001.5 464.999C964.001 504.499 947.001 493.499 947.001 493.499L951.501 540.999Z" fill="#CD764F"/>
<path d="M1168.99 1066.66L1206.74 833.792C1211.08 807.036 1232.03 786.046 1258.78 781.663C1297.49 775.32 1332.53 805.484 1332.01 844.705L1328.93 1080.59C1328.4 1121.12 1297.81 1154.93 1257.53 1159.51C1204.55 1165.53 1160.46 1119.29 1168.99 1066.66Z" fill="#F1BFA9"/>
<path d="M1371 646H1264.93C1250.48 646 1238.08 656.299 1235.43 670.503L1212.6 793L1208.71 826.539C1204.23 865.043 1236.52 897.81 1275.08 893.913C1307.69 890.618 1331.79 862.022 1329.52 829.325L1326.5 786L1371 734.5V646Z" fill="#F1BFA9"/>
<path d="M1358.26 518.659C1359.69 513.325 1365.17 510.159 1370.5 511.588L1415.1 523.538C1420.43 524.968 1423.6 530.451 1422.17 535.786L1416.5 556.936C1415.07 562.271 1409.59 565.437 1404.26 564.008L1359.66 552.058C1354.32 550.628 1351.16 545.145 1352.59 539.81L1358.26 518.659Z" fill="#97F7F5"/>
<path d="M1306.39 568.594L1252.79 708.798C1252.79 708.798 1268.29 691.798 1321.29 706.798C1354.61 716.228 1384.29 754.298 1384.29 754.298L1430.15 609.051C1436.44 589.148 1426.45 567.513 1406.9 560.184C1387.61 552.948 1371.71 548.174 1349.28 543.91C1330.95 540.425 1313.06 551.162 1306.39 568.594Z" fill="#DCE1F2"/>
<path d="M1386.29 749.212C1381.42 767.381 1347.37 774.045 1310.24 764.095C1273.1 754.145 1246.95 731.349 1251.81 713.18C1256.68 695.011 1290.73 688.348 1327.87 698.298C1365 708.248 1391.16 731.043 1386.29 749.212Z" fill="#DCE1F2"/>
<path fill-rule="evenodd" clip-rule="evenodd" d="M1330.93 637.352C1334.05 645.324 1330.12 654.315 1322.15 657.435L1253.15 684.435L1241.85 655.566L1310.85 628.566C1318.82 625.447 1327.81 629.38 1330.93 637.352Z" fill="#F1BFA9"/>
<path fill-rule="evenodd" clip-rule="evenodd" d="M1363.03 636.116C1363.03 627.556 1369.97 620.616 1378.53 620.616H1425.53C1434.09 620.616 1441.03 627.556 1441.03 636.116C1441.03 642.113 1437.63 647.314 1432.64 649.892C1437.63 652.469 1441.03 657.67 1441.03 663.667C1441.03 670.35 1436.8 676.046 1430.87 678.222C1436.8 680.398 1441.03 686.094 1441.03 692.777C1441.03 701.338 1434.09 708.277 1425.53 708.277H1378.53C1369.97 708.277 1363.03 701.338 1363.03 692.777C1363.03 686.094 1367.26 680.398 1373.19 678.222C1367.26 676.046 1363.03 670.35 1363.03 663.667C1363.03 657.67 1366.44 652.469 1371.42 649.892C1366.44 647.314 1363.03 642.113 1363.03 636.116Z" fill="#F1BFA9"/>
<path d="M627.407 1164.4C639.044 1155.26 656.666 1148.43 670.805 1147.6L912.4 1133.39C921.914 1132.83 928.407 1135.23 929.956 1139.87C930.961 1142.89 929.816 1146.67 926.673 1150.71L868.928 1225C858.784 1238.06 832.668 1249.56 814.279 1249.09L575.498 1242.89C566.069 1242.65 560.499 1239.2 560.499 1233.62L560.499 1224.45C560.499 1219.69 564.545 1213.82 571.709 1208.19L627.407 1164.4Z" fill="#DCE1F2"/>
<path d="M625.61 1149.21C637.325 1137.5 660.253 1128.18 676.82 1128.39L915.8 1131.52C932.367 1131.74 936.3 1141.41 924.584 1153.13L865.187 1212.52C853.471 1224.24 830.543 1233.56 813.976 1233.34L574.997 1230.22C558.43 1230 554.497 1220.33 566.213 1208.61L625.61 1149.21Z" fill="#FFB99B"/>
<path d="M676.777 1156.88C672.582 1166.19 659.043 1173.85 646.537 1173.98C634.031 1174.11 627.293 1166.66 631.487 1157.35C635.682 1148.03 649.221 1140.37 661.727 1140.24C674.233 1140.11 680.971 1147.56 676.777 1156.88Z" fill="#FBC3DE"/>
<path d="M730.634 1156.32C726.439 1165.64 712.901 1173.3 700.394 1173.43C687.888 1173.56 681.15 1166.11 685.345 1156.79C689.54 1147.47 703.078 1139.82 715.584 1139.69C728.091 1139.56 734.829 1147.01 730.634 1156.32Z" fill="#C2BBFF"/>
<path d="M784.491 1155.77C780.297 1165.08 766.758 1172.74 754.252 1172.87C741.746 1173 735.008 1165.55 739.202 1156.24C743.397 1146.92 756.936 1139.26 769.442 1139.13C781.948 1139 788.686 1146.45 784.491 1155.77Z" fill="#FBF7B8"/>
<path d="M838.348 1155.21C834.153 1164.53 820.614 1172.19 808.108 1172.31C795.602 1172.44 788.864 1165 793.059 1155.68C797.253 1146.36 810.792 1138.71 823.298 1138.58C835.805 1138.45 842.542 1145.9 838.348 1155.21Z" fill="#BCECFF"/>
<path d="M892.206 1154.66C888.012 1163.97 874.473 1171.63 861.967 1171.76C849.46 1171.89 842.723 1164.44 846.917 1155.12C851.112 1145.81 864.651 1138.15 877.157 1138.02C889.663 1137.89 896.401 1145.34 892.206 1154.66Z" fill="#97F7F5"/>
<path d="M643.791 1201.66C639.597 1210.98 626.058 1218.64 613.552 1218.77C601.045 1218.89 594.307 1211.45 598.502 1202.13C602.697 1192.81 616.235 1185.16 628.742 1185.03C641.248 1184.9 647.986 1192.35 643.791 1201.66Z" fill="#97F7F5"/>
<path d="M697.649 1201.11C693.454 1210.42 679.915 1218.08 667.409 1218.21C654.903 1218.34 648.165 1210.89 652.36 1201.57C656.554 1192.26 670.093 1184.6 682.599 1184.47C695.105 1184.34 701.843 1191.79 697.649 1201.11Z" fill="#BCECFF"/>
<path d="M751.506 1200.55C747.311 1209.87 733.773 1217.53 721.266 1217.65C708.76 1217.78 702.022 1210.34 706.217 1201.02C710.412 1191.7 723.95 1184.05 736.457 1183.92C748.963 1183.79 755.701 1191.24 751.506 1200.55Z" fill="#FBF7B8"/>
<path d="M805.362 1200C801.168 1209.31 787.629 1216.97 775.123 1217.1C762.617 1217.23 755.879 1209.78 760.073 1200.46C764.268 1191.15 777.807 1183.49 790.313 1183.36C802.819 1183.23 809.557 1190.68 805.362 1200Z" fill="#C2BBFF"/>
<path d="M859.221 1199.44C855.026 1208.76 841.487 1216.41 828.981 1216.54C816.475 1216.67 809.737 1209.22 813.932 1199.91C818.126 1190.59 831.665 1182.93 844.171 1182.81C856.678 1182.68 863.415 1190.12 859.221 1199.44Z" fill="#FBC3DE"/>
<path d="M980 1106.99C980 1104.22 983.436 1102.93 985.259 1105.02L1001.64 1123.77L1013.31 1137.93C1013.76 1138.47 1014 1139.14 1014 1139.84V1169C1014 1170.66 1012.66 1172 1011 1172H983C981.343 1172 980 1170.66 980 1169V1106.99Z" fill="#FBC3DE"/>
<path d="M976 1153H1020V1223H976V1153Z" fill="#97F7F5"/>
<path d="M971 1226C971 1221.03 975.029 1217 980 1217H1016C1020.97 1217 1025 1221.03 1025 1226V1272C1025 1276.97 1020.97 1281 1016 1281H980C975.029 1281 971 1276.97 971 1272V1226Z" fill="#97F7F5"/>
<path d="M1253 860.273C1253 851.286 1260.32 844 1269.35 844H1354.65C1363.68 844 1371 851.286 1371 860.273V1060.73C1371 1069.71 1363.68 1077 1354.65 1077H1269.35C1260.32 1077 1253 1069.71 1253 1060.73V860.273Z" fill="#DCE1F2"/>
<path d="M1264 867C1264 863.134 1267.13 860 1271 860H1297C1300.87 860 1304 863.134 1304 867V893C1304 896.866 1300.87 900 1297 900H1271C1267.13 900 1264 896.866 1264 893V867Z" fill="#FFB99B"/>
<path d="M1236 959C1236 952.373 1241.37 947 1248 947H1376C1382.63 947 1388 952.373 1388 959V983C1388 989.627 1382.63 995 1376 995H1248C1241.37 995 1236 989.627 1236 983V959Z" fill="#171625"/>
<path fill-rule="evenodd" clip-rule="evenodd" d="M1312 1166C1425.22 1166 1517 1074.22 1517 961C1517 847.782 1425.22 756 1312 756C1198.78 756 1107 847.782 1107 961C1107 1074.22 1198.78 1166 1312 1166ZM1312.4 1128.58C1404.73 1128.58 1479.58 1053.73 1479.58 961.398C1479.58 869.065 1404.73 794.214 1312.4 794.214C1220.06 794.214 1145.21 869.065 1145.21 961.398C1145.21 1053.73 1220.06 1128.58 1312.4 1128.58Z" fill="#97F7F5"/>
<path d="M1304 982C1304 975.925 1308.92 971 1315 971C1321.08 971 1326 975.925 1326 982V1142C1326 1148.08 1321.08 1153 1315 1153C1308.92 1153 1304 1148.08 1304 1142V982Z" fill="#171625"/>
<path fill-rule="evenodd" clip-rule="evenodd" d="M1300.83 1146.64C1301.55 1145.23 1303.24 1144.62 1304.7 1145.25L1314.97 1149.72L1324.76 1145.27C1326.18 1144.62 1327.86 1145.17 1328.62 1146.54L1406.62 1286.04C1407.43 1287.48 1406.91 1289.31 1405.46 1290.12C1404.02 1290.93 1402.19 1290.41 1401.38 1288.96L1324.73 1151.87L1318 1154.93V1287.5C1318 1289.16 1316.66 1290.5 1315 1290.5C1313.34 1290.5 1312 1289.16 1312 1287.5V1154.97L1304.89 1151.88L1235.17 1288.86C1234.42 1290.34 1232.62 1290.92 1231.14 1290.17C1229.66 1289.42 1229.07 1287.62 1229.83 1286.14L1300.83 1146.64Z" fill="#171625"/>
<path d="M652.249 318.517C654.658 313.828 661.342 313.828 663.751 318.517L681.986 354.005C682.507 355.019 683.285 355.877 684.242 356.493L713.026 375.029C716.991 377.583 716.991 383.396 713.026 385.95L684.819 404.114C683.505 404.96 682.54 406.255 682.103 407.759L664.212 469.327C662.401 475.558 653.599 475.558 651.788 469.327L633.897 407.759C633.46 406.255 632.495 404.96 631.181 404.114L602.974 385.95C599.009 383.396 599.009 377.583 602.974 375.029L631.758 356.493C632.715 355.877 633.493 355.019 634.014 354.005L652.249 318.517Z" fill="#97F7F5"/>
<path d="M1639.8 716.71C1641.66 713.097 1646.83 713.097 1648.69 716.71L1661.39 741.346C1661.79 742.127 1662.39 742.788 1663.13 743.263L1683.19 756.145C1686.26 758.113 1686.26 762.592 1683.19 764.56L1663.58 777.155C1662.56 777.808 1661.81 778.805 1661.48 779.964L1649.05 822.615C1647.65 827.416 1640.84 827.416 1639.45 822.615L1627.01 779.964C1626.68 778.805 1625.93 777.808 1624.92 777.155L1605.3 764.56C1602.23 762.592 1602.23 758.113 1605.3 756.145L1625.36 743.263C1626.1 742.788 1626.7 742.127 1627.11 741.346L1639.8 716.71Z" fill="#C2BBFF"/>
<path d="M509.767 698.698C511.632 695.101 516.779 695.101 518.644 698.698L526.27 713.406C526.674 714.186 527.278 714.846 528.019 715.319L540.1 723.029C543.181 724.994 543.181 729.493 540.1 731.459L528.468 738.882C527.449 739.532 526.7 740.53 526.36 741.69L519.003 766.776C517.598 771.567 510.812 771.567 509.407 766.776L502.051 741.69C501.711 740.53 500.962 739.532 499.943 738.882L488.31 731.459C485.23 729.493 485.23 724.994 488.31 723.029L500.392 715.319C501.133 714.846 501.736 714.186 502.141 713.406L509.767 698.698Z" fill="#FFB99B"/>
<path d="M1710 362C1710 432.692 1652.69 490 1582 490C1511.31 490 1454 432.692 1454 362C1454 291.308 1511.31 234 1582 234C1652.69 234 1710 291.308 1710 362Z" fill="#FBC3DE"/>
<path d="M1641.13 362.001C1641.13 394.656 1614.65 421.128 1582 421.128C1549.34 421.128 1522.87 394.656 1522.87 362.001C1522.87 329.346 1549.34 302.874 1582 302.874C1614.65 302.874 1641.13 329.346 1641.13 362.001Z" fill="white"/>
<path d="M1593.44 359.401C1595.37 359.401 1596.99 360.993 1596.54 362.876C1595.9 365.54 1594.54 368 1592.57 369.968C1589.77 372.771 1585.96 374.346 1582 374.346C1578.04 374.346 1574.24 372.771 1571.43 369.968C1569.47 368 1568.1 365.54 1567.47 362.876C1567.02 360.993 1568.63 359.401 1570.56 359.401L1593.44 359.401Z" fill="#FBC3DE"/>
<path d="M1561.86 349.004C1561.86 351.516 1559.82 353.553 1557.31 353.553C1554.8 353.553 1552.76 351.516 1552.76 349.004C1552.76 346.492 1554.8 344.456 1557.31 344.456C1559.82 344.456 1561.86 346.492 1561.86 349.004Z" fill="#FBC3DE"/>
<path d="M1612.54 349.004C1612.54 351.516 1610.5 353.553 1607.99 353.553C1605.48 353.553 1603.44 351.516 1603.44 349.004C1603.44 346.492 1605.48 344.456 1607.99 344.456C1610.5 344.456 1612.54 346.492 1612.54 349.004Z" fill="#FBC3DE"/>
<defs>
<linearGradient id="paint0_linear_94_97" x1="630.363" y1="507.104" x2="1104.03" y2="644.589" gradientUnits="userSpaceOnUse">
<stop stop-color="#97F7F5"/>
<stop offset="1" stop-color="#FBF7B8"/>
</linearGradient>
<linearGradient id="paint1_linear_94_97" x1="1165.5" y1="541" x2="1145.46" y2="820.063" gradientUnits="userSpaceOnUse">
<stop stop-color="#97F7F5"/>
<stop offset="1" stop-color="#FBF7B8"/>
</linearGradient>
<linearGradient id="paint2_linear_94_97" x1="460" y1="565.5" x2="1250.55" y2="633.996" gradientUnits="userSpaceOnUse">
<stop stop-color="#97F7F5"/>
<stop offset="1" stop-color="#FBF7B8"/>
</linearGradient>
</defs>
</svg>
